<svg width="45" height="38" viewBox="0 0 45 38" fill="none" xmlns="http://www.w3.org/2000/svg">
<path d="M24.7243 37.19C21.7603 37.19 18.8131 36.5133 16.0728 35.1683C11.3499 32.8531 7.81548 28.8377 6.11257 23.8604C4.41246 18.8859 4.75081 13.5451 7.06609 8.82221C7.41841 8.10358 7.81548 7.40452 8.2489 6.73901L9.14928 7.32343C8.74103 7.95258 8.36354 8.61529 8.03079 9.29477C5.84134 13.7604 5.52257 18.8076 7.1304 23.5136C8.73824 28.2197 12.0825 32.0142 16.5481 34.2036C21.0109 36.3931 26.0609 36.7119 30.767 35.104C35.4731 33.4962 39.2675 30.1519 41.457 25.6863C44.0827 20.3315 43.9736 13.9869 41.1634 8.71595L42.1085 8.21263C45.0809 13.7855 45.1956 20.4937 42.4189 26.1589C40.1036 30.8817 36.0882 34.4162 31.1109 36.1191C29.0221 36.8349 26.869 37.19 24.7243 37.19Z" fill="black"/>
<path d="M1.44564 13.173C1.41208 13.3715 1.39251 13.5337 1.39251 13.6623C1.39251 13.8832 1.42886 14.0426 1.50716 14.1433C1.58265 14.2411 1.68332 14.2915 1.81195 14.2915C2.04403 14.2915 2.23977 14.2775 2.39636 14.2467C2.55295 14.2188 2.74309 14.1628 2.964 14.0818V15.0772C2.86053 15.1359 2.7375 15.1863 2.59769 15.2254C2.45788 15.2674 2.31527 15.2981 2.16986 15.3205C2.02446 15.3429 1.87906 15.3652 1.73365 15.382C1.58825 15.3988 1.45682 15.4072 1.34218 15.4072C0.933928 15.4072 0.609564 15.3149 0.366292 15.1275C0.123019 14.9402 -1.52588e-05 14.5991 -1.52588e-05 14.0985C-1.52588e-05 13.8664 0.0335395 13.5812 0.103445 13.2429L2.26773 3.03662H3.57637L1.44564 13.173Z" fill="black"/>
<path d="M15.0494 15.6503C14.8061 16.7912 14.3867 17.6245 13.7883 18.153C13.1899 18.6815 12.3986 18.9471 11.4143 18.9471C10.6593 18.9471 10.0386 18.852 9.55201 18.6591C9.06547 18.4661 8.69357 18.3012 8.43911 18.1614L9.01513 17.1855C9.10741 17.233 9.22206 17.2917 9.35627 17.3672C9.49049 17.4427 9.65268 17.5154 9.84562 17.5853C10.0386 17.6552 10.2706 17.714 10.5447 17.7587C10.8187 17.8062 11.1403 17.8286 11.5122 17.8286C12.0938 17.8286 12.5831 17.6189 12.9774 17.1994C13.3717 16.78 13.6681 16.1229 13.8666 15.2281L14.1798 13.7629H14.1071C13.9449 13.9838 13.7659 14.1935 13.5758 14.392C13.3829 14.5906 13.1703 14.7667 12.9383 14.9233C12.7062 15.0799 12.4517 15.2057 12.1805 15.298C11.9064 15.3903 11.6072 15.4378 11.2829 15.4378C10.6537 15.4378 10.1504 15.2113 9.76453 14.7583C9.38144 14.3053 9.1885 13.6594 9.1885 12.8233C9.1885 12.0432 9.29476 11.2714 9.51007 10.5025C9.72538 9.7363 10.0441 9.04563 10.4664 8.43605C10.8886 7.82647 11.4115 7.32874 12.0323 6.94565C12.653 6.56257 13.3689 6.36963 14.1826 6.36963C14.8089 6.36963 15.3374 6.42276 15.7652 6.52622C16.1959 6.62968 16.5706 6.75831 16.8977 6.9093L15.0494 15.6503ZM11.7722 14.3249C12.063 14.3249 12.351 14.2494 12.6363 14.0984C12.9215 13.9474 13.1815 13.7517 13.422 13.514C13.6597 13.2763 13.875 13.0163 14.0679 12.7367C14.2609 12.457 14.4203 12.197 14.5489 11.9509L15.4381 7.74817C15.2507 7.64471 15.0242 7.57481 14.7586 7.53846C14.4902 7.5049 14.2189 7.48533 13.9393 7.48533C13.4611 7.48533 13.0193 7.62514 12.6139 7.90476C12.2056 8.18439 11.8561 8.55908 11.5597 9.02885C11.2633 9.49862 11.0284 10.0439 10.8523 10.6591C10.6789 11.277 10.5894 11.9202 10.5894 12.5941C10.5894 13.1281 10.6957 13.5504 10.911 13.8579C11.1235 14.1711 11.4115 14.3249 11.7722 14.3249Z" fill="black"/>
<path d="M23.1081 15.2478L24.1539 10.2761C24.2238 9.92652 24.2826 9.61614 24.3273 9.34211C24.3748 9.06808 24.3972 8.8276 24.3972 8.61789C24.3972 8.18727 24.3105 7.88248 24.1344 7.70072C23.961 7.52176 23.687 7.42949 23.3151 7.42949C23.0131 7.42949 22.7055 7.50778 22.3895 7.66437C22.0763 7.82096 21.7743 8.02229 21.4835 8.26556C21.1927 8.50883 20.9327 8.78286 20.7062 9.08486C20.4797 9.38685 20.3063 9.67766 20.1917 9.95728L19.0927 15.2422H17.7841L20.365 3.03101H21.6737L20.5915 8.01949H20.6614C20.8124 7.83214 20.9942 7.642 21.2123 7.44347C21.4276 7.24493 21.6737 7.06318 21.9533 6.89261C22.2329 6.72483 22.5349 6.58502 22.8593 6.47317C23.1836 6.36412 23.5388 6.3082 23.9246 6.3082C24.4951 6.3082 24.9425 6.44521 25.2668 6.71924C25.5912 6.99327 25.7562 7.491 25.7562 8.20964C25.7562 8.69898 25.6807 9.28619 25.5297 9.97126L24.414 15.2394H23.1081V15.2478Z" fill="black"/>
<path d="M27.6269 6.52637H28.9187L29.285 4.7983L30.6804 4.39844L30.2274 6.52637H32.5119L32.249 7.64207H29.9813L28.8824 12.9102C28.86 13.05 28.8376 13.1786 28.8209 13.2933C28.8041 13.4107 28.7957 13.5142 28.7957 13.6064C28.7957 13.8861 28.86 14.0762 28.9886 14.1825C29.1173 14.2859 29.3074 14.3391 29.5647 14.3391C29.8443 14.3391 30.0987 14.3055 30.3308 14.2356C30.5629 14.1657 30.795 14.0622 31.0299 13.9224V14.9878C30.7866 15.1276 30.4706 15.2394 30.0876 15.3289C29.7045 15.4156 29.3382 15.4603 28.9886 15.4603C27.9289 15.4603 27.4004 14.9766 27.4004 14.0119C27.4004 13.8134 27.4283 13.5701 27.4871 13.2793L28.6727 7.64487H27.364L27.6269 6.52637Z" fill="black"/>
<path d="M19.2213 17.2334L17.9993 23.0412C17.9294 23.3543 17.8959 23.6451 17.8959 23.9136C17.8959 24.2379 17.9602 24.5092 18.0888 24.7245C18.2174 24.9398 18.4495 25.0461 18.7879 25.0461C19.0675 25.0461 19.3499 24.9762 19.6351 24.8363C19.9204 24.6965 20.1944 24.5176 20.4544 24.2967C20.7173 24.0758 20.955 23.8325 21.1703 23.5641C21.3856 23.2956 21.5617 23.0356 21.7016 22.7783L22.8704 17.2306H24.179L23.0801 22.412C23.0326 22.6105 22.9878 22.851 22.9403 23.1362C22.8928 23.4214 22.8508 23.7206 22.8089 24.0338C22.7669 24.347 22.7362 24.6518 22.7138 24.951C22.6914 25.2474 22.6802 25.5074 22.6802 25.7283V25.9548H21.6512V24.2967H21.5813C21.408 24.5288 21.2066 24.7553 20.9801 24.9762C20.7536 25.1971 20.502 25.3956 20.2307 25.569C19.9567 25.7423 19.6631 25.8849 19.3499 25.9968C19.0367 26.1086 18.704 26.1618 18.3545 26.1618C18.0972 26.1618 17.8623 26.1338 17.647 26.0751C17.4317 26.0164 17.2416 25.9157 17.0794 25.7703C16.9172 25.6249 16.7886 25.4319 16.6963 25.1943C16.604 24.9566 16.5565 24.6518 16.5565 24.2771C16.5565 23.8688 16.6152 23.4103 16.7299 22.8986L17.9155 17.2278H19.2213V17.2334Z" fill="black"/>
<path d="M26.9305 17.2333H27.8365L27.7498 18.7349H27.8197C27.9819 18.5251 28.1665 18.3182 28.3706 18.1169C28.5747 17.9128 28.7984 17.731 29.0417 17.566C29.285 17.4039 29.5534 17.2724 29.8442 17.1746C30.135 17.0767 30.4482 17.0264 30.7865 17.0264C31.0662 17.0264 31.3262 17.0711 31.5723 17.1578C31.8155 17.2445 32.0309 17.3899 32.2182 17.594C32.4028 17.7981 32.5538 18.0694 32.6628 18.4049C32.7719 18.7433 32.8278 19.1543 32.8278 19.6436C32.8278 20.6671 32.688 21.5842 32.4083 22.3923C32.1287 23.2005 31.7624 23.8827 31.3094 24.442C30.8564 25.0012 30.3475 25.4263 29.7827 25.7227C29.2178 26.0191 28.6586 26.1673 28.0993 26.1673C27.6911 26.1673 27.3332 26.1281 27.0256 26.0526C26.718 25.9771 26.5111 25.8988 26.4076 25.8177L25.6415 29.4472H24.3328L26.9305 17.2333ZM30.2972 18.1421C29.984 18.1421 29.6848 18.2232 29.3996 18.3853C29.1144 18.5475 28.8515 18.7488 28.6139 18.9865C28.3762 19.2242 28.1637 19.4815 27.9763 19.7555C27.789 20.0295 27.638 20.2812 27.5233 20.5133L26.6677 24.6489C26.8662 24.7999 27.0675 24.9062 27.2773 24.9621C27.487 25.0208 27.7135 25.0488 27.9567 25.0488C28.4097 25.0488 28.8431 24.9229 29.257 24.6741C29.6708 24.4252 30.0399 24.0673 30.3643 23.6003C30.6887 23.1361 30.9487 22.5769 31.1417 21.9254C31.3346 21.2738 31.4297 20.5468 31.4297 19.7443C31.4297 19.2801 31.3346 18.8943 31.1417 18.5923C30.9515 18.2931 30.6691 18.1421 30.2972 18.1421Z" fill="black"/>
<path d="M39.6115 7.4464C41.128 7.4464 42.3574 6.21701 42.3574 4.70049C42.3574 3.18397 41.128 1.95459 39.6115 1.95459C38.095 1.95459 36.8656 3.18397 36.8656 4.70049C36.8656 6.21701 38.095 7.4464 39.6115 7.4464Z" fill="#E2B250"/>
<path d="M8.85289 5.41638C8.85289 5.14795 8.94237 4.92145 9.12413 4.7369C9.30309 4.55235 9.52679 4.45728 9.79523 4.45728C10.0637 4.45728 10.2902 4.54955 10.4747 4.7369C10.6593 4.92425 10.7543 5.15074 10.7543 5.41638C10.7543 5.68482 10.6621 5.90852 10.4747 6.08748C10.2874 6.26924 10.0609 6.35872 9.79523 6.35872C9.52679 6.35872 9.30309 6.26924 9.12413 6.08748C8.94517 5.90852 8.85289 5.68482 8.85289 5.41638Z" fill="black"/>
<path d="M39.6115 9.39535C37.0222 9.39535 34.9138 7.28979 34.9138 4.69768C34.9138 2.10836 37.0222 0 39.6115 0C42.2008 0 44.3092 2.10557 44.3092 4.69768C44.3092 7.28979 42.2036 9.39535 39.6115 9.39535ZM39.6115 0.671097C37.3913 0.671097 35.5821 2.47747 35.5821 4.70047C35.5821 6.92348 37.3885 8.72985 39.6115 8.72985C41.8345 8.72985 43.6409 6.92348 43.6409 4.70047C43.6409 2.47747 41.8345 0.671097 39.6115 0.671097Z" fill="#E2B250"/>
</svg>
