<svg width="121" height="120" viewBox="0 0 121 120" fill="none" xmlns="http://www.w3.org/2000/svg">
<g clip-path="url(#clip0_124_104)">
<circle cx="60.5" cy="60" r="58.5" fill="white" stroke="#87A1B7" stroke-width="3"/>
<path d="M54.9444 73.8888C54.9483 74.9288 54.6602 75.9489 54.113 76.8332C53.5657 77.7175 52.7812 78.4305 51.8487 78.8909C50.9162 79.3514 49.8733 79.5409 48.8384 79.4378C47.8036 79.3348 46.8184 78.9433 45.9951 78.308C45.1717 77.6727 44.5432 76.8191 44.1811 75.8442C43.8189 74.8694 43.7377 73.8124 43.9466 72.7937C44.1555 71.7749 44.6461 70.8352 45.3627 70.0815C46.0793 69.3279 46.993 68.7905 48 68.5305V40.5555C48 40.1871 48.1463 39.8338 48.4068 39.5734C48.6672 39.3129 49.0205 39.1666 49.3889 39.1666C49.7572 39.1666 50.1105 39.3129 50.371 39.5734C50.6314 39.8338 50.7778 40.1871 50.7778 40.5555V68.5305C51.9668 68.8375 53.0207 69.5298 53.7746 70.4993C54.5284 71.4688 54.9398 72.6607 54.9444 73.8888ZM68.8333 39.1666H85.5C85.8683 39.1666 86.2216 39.0203 86.4821 38.7598C86.7425 38.4993 86.8889 38.1461 86.8889 37.7777C86.8889 37.4093 86.7425 37.0561 86.4821 36.7956C86.2216 36.5351 85.8683 36.3888 85.5 36.3888H68.8333C68.465 36.3888 68.1117 36.5351 67.8512 36.7956C67.5907 37.0561 67.4444 37.4093 67.4444 37.7777C67.4444 38.1461 67.5907 38.4993 67.8512 38.7598C68.1117 39.0203 68.465 39.1666 68.8333 39.1666ZM68.8333 50.2777H79.9444C80.3128 50.2777 80.666 50.1314 80.9265 49.8709C81.187 49.6104 81.3333 49.2572 81.3333 48.8888C81.3333 48.5205 81.187 48.1672 80.9265 47.9067C80.666 47.6462 80.3128 47.4999 79.9444 47.4999H68.8333C68.465 47.4999 68.1117 47.6462 67.8512 47.9067C67.5907 48.1672 67.4444 48.5205 67.4444 48.8888C67.4444 49.2572 67.5907 49.6104 67.8512 49.8709C68.1117 50.1314 68.465 50.2777 68.8333 50.2777ZM68.8333 61.3888H74.3889C74.7572 61.3888 75.1105 61.2425 75.371 60.982C75.6314 60.7215 75.7778 60.3683 75.7778 59.9999C75.7778 59.6316 75.6314 59.2783 75.371 59.0178C75.1105 58.7574 74.7572 58.611 74.3889 58.611H68.8333C68.465 58.611 68.1117 58.7574 67.8512 59.0178C67.5907 59.2783 67.4444 59.6316 67.4444 59.9999C67.4444 60.3683 67.5907 60.7215 67.8512 60.982C68.1117 61.2425 68.465 61.3888 68.8333 61.3888ZM59.1111 40.5555V62.1666C60.8487 63.586 62.2487 65.3742 63.2096 67.4017C64.1705 69.4292 64.6682 71.6451 64.6666 73.8888C64.6666 77.9407 63.057 81.8267 60.1919 84.6918C57.3267 87.557 53.4408 89.1666 49.3889 89.1666C45.3369 89.1666 41.451 87.557 38.5858 84.6918C35.7207 81.8267 34.1111 77.9407 34.1111 73.8888C34.1095 71.6451 34.6072 69.4292 35.5681 67.4017C36.529 65.3742 37.929 63.586 39.6666 62.1666V40.5555C39.6666 37.977 40.6909 35.5041 42.5142 33.6808C44.3375 31.8576 46.8104 30.8333 49.3889 30.8333C51.9674 30.8333 54.4402 31.8576 56.2635 33.6808C58.0868 35.5041 59.1111 37.977 59.1111 40.5555ZM56.8889 63.9471C56.7164 63.8178 56.5764 63.65 56.4799 63.4572C56.3835 63.2643 56.3333 63.0516 56.3333 62.836V40.5555C56.3333 38.7137 55.6017 36.9473 54.2993 35.645C52.997 34.3427 51.2306 33.611 49.3889 33.611C47.5471 33.611 45.7807 34.3427 44.4784 35.645C43.1761 36.9473 42.4444 38.7137 42.4444 40.5555V62.8388C42.4444 63.0544 42.3942 63.2671 42.2978 63.4599C42.2014 63.6528 42.0614 63.8205 41.8889 63.9499C40.3381 65.1019 39.0783 66.6006 38.2101 68.3264C37.342 70.0521 36.8895 71.957 36.8889 73.8888C36.8889 77.204 38.2058 80.3834 40.55 82.7276C42.8942 85.0718 46.0737 86.3888 49.3889 86.3888C52.7041 86.3888 55.8835 85.0718 58.2277 82.7276C60.5719 80.3834 61.8889 77.204 61.8889 73.8888C61.8887 71.9565 61.4364 70.0511 60.5682 68.3248C59.7 66.5986 58.44 65.0994 56.8889 63.9471Z" fill="#374B5C"/>
</g>
<defs>
<clipPath id="clip0_124_104">
<rect width="120" height="120" fill="white" transform="translate(0.5)"/>
</clipPath>
</defs>
</svg>
