<svg width="121" height="120" viewBox="0 0 121 120" fill="none" xmlns="http://www.w3.org/2000/svg">
<g clip-path="url(#clip0_124_59)">
<circle cx="60.5" cy="60" r="58.5" fill="white" stroke="#87A1B7" stroke-width="3"/>
<path d="M86.6906 93.3334C84.2844 93.3334 81.8636 92.3907 80.7938 90.3146C79.8396 88.4657 75.2313 88.1928 71.3531 88.723C69.8521 88.9271 68.9448 88.3761 68.45 87.8792C67.2875 86.7084 66.95 84.5396 67.4198 81.249C67.9386 77.6209 66.526 70.0542 62.0094 65.8428L60.6864 64.6063C59.9531 63.9167 59.2437 63.2917 58.5708 62.7011C54.5864 59.1959 51.6573 56.6188 53.5156 48.9355C48.6083 48.9282 34.0271 45.9688 30.8364 45.3084C30.4021 45.2178 30.1229 44.7938 30.2135 44.3605C30.3042 43.9261 30.7271 43.648 31.1625 43.7365C41.4937 45.874 52.9687 47.7886 54.2927 47.2896C54.5771 47.1844 54.9 47.2448 55.1219 47.449C55.3448 47.6542 55.4364 47.9657 55.3542 48.2573C53.2052 55.8438 55.625 57.9709 59.6323 61.4969C60.3167 62.099 61.0396 62.7355 61.7864 63.4376L63.1042 64.6698C67.95 69.1875 69.6469 77.0188 69.0094 81.4771C68.5 85.0438 69.1531 86.3105 69.5896 86.748C69.9406 87.1011 70.4458 87.2292 71.1365 87.1323C73.2886 86.8396 80.4479 86.1469 82.2198 89.5792C83.4083 91.8813 86.9677 92.0792 89.0771 91.3365C89.249 91.2761 89.4354 91.2771 89.6052 91.3344C90.1136 91.5105 90.8 91.6573 91.1969 91.3605C91.425 91.1896 91.5511 90.8855 91.6177 90.6021C90.9469 90.4542 89.8927 90.1678 88.6698 89.6438C86.6375 88.773 80.0896 82.9417 76.6886 74.3365C73.825 67.0948 68.3 49.124 66.8417 43.7365C66.6823 43.1459 66.3083 42.6448 65.7896 42.324C61.7636 39.8365 47.9083 31.4678 38.6688 28.2271C38.251 28.0803 38.0302 27.623 38.1771 27.2042C38.324 26.7865 38.7792 26.5636 39.2 26.7125C48.5917 30.0053 62.5719 38.448 66.6323 40.9573C67.5 41.4938 68.124 42.3303 68.3906 43.3157C69.8427 48.6782 75.3375 66.5521 78.1813 73.7448C81.3948 81.873 87.7292 87.4928 89.3021 88.1667C91.149 88.9573 92.5761 89.148 92.5906 89.149C92.9771 89.199 93.274 89.5198 93.2917 89.9094C93.3 90.0959 93.3406 91.7615 92.1583 92.6438C91.4427 93.1792 90.5011 93.2761 89.3479 92.9355C88.5136 93.198 87.6031 93.3334 86.6906 93.3334Z" fill="#374B5C"/>
<path d="M84.4583 65.2083C84.4583 63.827 83.9096 62.5022 82.9328 61.5255C81.9561 60.5487 80.6313 60 79.25 60" stroke="#374B5C" stroke-width="1.5" stroke-miterlimit="10"/>
<path d="M84.4583 65.2084C84.4583 63.8271 85.0071 62.5023 85.9838 61.5256C86.9606 60.5488 88.2853 60.0001 89.6667 60.0001C88.2853 60.0001 86.9606 59.4513 85.9838 58.4746C85.0071 57.4978 84.4583 56.1731 84.4583 54.7917C84.4583 56.1731 83.9096 57.4978 82.9328 58.4746C81.9561 59.4513 80.6313 60.0001 79.25 60.0001" stroke="#374B5C" stroke-width="1.5" stroke-miterlimit="10"/>
<path d="M44.875 66.25C44.875 64.5924 44.2165 63.0027 43.0444 61.8306C41.8723 60.6585 40.2826 60 38.625 60" stroke="#374B5C" stroke-width="1.5" stroke-miterlimit="10"/>
<path d="M44.875 66.25C44.875 64.5924 45.5335 63.0027 46.7056 61.8306C47.8777 60.6585 49.4674 60 51.125 60C49.4674 60 47.8777 59.3415 46.7056 58.1694C45.5335 56.9973 44.875 55.4076 44.875 53.75C44.875 55.4076 44.2165 56.9973 43.0444 58.1694C41.8723 59.3415 40.2826 60 38.625 60" stroke="#374B5C" stroke-width="1.5" stroke-miterlimit="10"/>
<path d="M61.0209 75.625C61.8838 75.625 62.5834 74.9254 62.5834 74.0625C62.5834 73.1996 61.8838 72.5 61.0209 72.5C60.1579 72.5 59.4584 73.1996 59.4584 74.0625C59.4584 74.9254 60.1579 75.625 61.0209 75.625Z" stroke="#374B5C" stroke-width="1.5" stroke-miterlimit="10"/>
<path d="M52.6875 67.2917C52.9751 67.2917 53.2083 67.0585 53.2083 66.7708C53.2083 66.4832 52.9751 66.25 52.6875 66.25C52.3998 66.25 52.1666 66.4832 52.1666 66.7708C52.1666 67.0585 52.3998 67.2917 52.6875 67.2917Z" stroke="#374B5C" stroke-width="1.5" stroke-miterlimit="10"/>
<path d="M75.0833 48.5417C76.2339 48.5417 77.1667 47.6089 77.1667 46.4583C77.1667 45.3077 76.2339 44.375 75.0833 44.375C73.9327 44.375 73 45.3077 73 46.4583C73 47.6089 73.9327 48.5417 75.0833 48.5417Z" stroke="#374B5C" stroke-width="1.5" stroke-miterlimit="10"/>
</g>
<defs>
<clipPath id="clip0_124_59">
<rect width="120" height="120" fill="white" transform="translate(0.5)"/>
</clipPath>
</defs>
</svg>
