<svg width="141" height="148" viewBox="0 0 141 148" fill="none" xmlns="http://www.w3.org/2000/svg">
<g clip-path="url(#clip0_261_47038)">
<path d="M87.4942 24.7062C87.8566 24.8585 88.3041 24.8924 88.6269 25.0786C87.9813 24.661 87.3243 24.2604 86.6503 23.8935C87.092 24.266 86.9788 24.4522 87.4942 24.7062Z" fill="#C21F32"/>
<path d="M90.4111 26.275L90.9944 26.7603L90.7396 26.5177L90.4111 26.275Z" fill="#C21F32"/>
<path d="M91.9119 27.5447C92.382 27.9962 92.9031 28.4307 93.4298 28.9047C92.9567 28.4163 92.4494 27.9618 91.9119 27.5447Z" fill="#C21F32"/>
<path d="M90.9377 26.9183C91.2266 27.0876 91.8043 27.4826 92.1555 27.7197L91.0227 26.7603C91.2889 27.0538 91.17 27.0255 90.9377 26.9183Z" fill="#C21F32"/>
<path d="M90.3997 26.6362C90.5526 26.7152 90.7735 26.845 90.9378 26.9183C90.7226 26.8111 90.5696 26.7152 90.3997 26.6362Z" fill="#C21F32"/>
<path d="M95.3725 32.46C94.285 31.179 93.4468 30.3269 92.1555 29.0741C91.6231 28.5097 89.3519 27.7761 89.08 27.4939C87.245 25.8856 87.3526 25.1802 85.9083 24.4804C85.0291 24.0787 84.1202 23.7448 83.1897 23.4816C83.943 23.775 84.651 24.5199 85.4156 24.9263C88.0436 26.5289 88.7855 26.0549 92.3877 30.0842C94.8174 32.8042 96.6242 34.7625 98.6575 38.2443C99.9772 40.5976 98.1987 36.3482 97.1283 34.8584C96.7318 34.153 95.8199 33.0751 95.3725 32.46Z" fill="#C21F32"/>
<path d="M100.459 38.978C100.401 38.8827 100.339 38.7904 100.272 38.7014L100.459 38.978Z" fill="#C21F32"/>
<path d="M99.4788 67.8206C98.6122 70.1118 98.1364 72.228 96.2844 74.6659C93.7074 77.9559 90.7056 79.8916 86.605 82.5044C70.7464 92.6284 52.7525 86.3361 43.3733 74.1524C41.4032 71.5996 39.8018 68.7845 38.6157 65.7891C36.526 60.2705 36.0219 54.2807 37.1601 48.4925C38.2929 42.7759 40.3545 39.1924 42.6483 35.0954C45.5708 28.8427 56.7738 23.2446 51.0081 27.2626C59.3508 21.2976 63.8592 21.9748 68.6847 20.1464C68.9849 20.1464 72.032 17.5957 63.1342 17.6916C58.7967 18.2659 54.5911 19.5812 50.7022 21.5798C46.7477 23.6054 43.2211 26.37 40.3148 29.723C28.891 43.3402 27.3731 62.7079 37.6302 76.9006C42.8952 84.1078 50.5355 89.2415 59.2149 91.4038C75.5889 95.4218 92.2065 88.1194 100.124 74.1749C101.337 72.0588 102.331 69.8259 103.092 67.5103C103.484 66.3505 103.807 65.1691 104.061 63.9719C104.061 63.8873 104.061 63.7744 104.1 63.6503V63.8196L104.282 62.9731C104.323 61.9535 104.453 60.9394 104.672 59.9426C104.723 59.6605 104.774 59.3106 104.808 58.9438C104.932 57.3365 104.951 55.7229 104.865 54.1132V54.4574V54.6944V55.6425C104.865 55.7046 104.865 55.7723 104.865 55.84C104.865 56.1222 104.825 56.4043 104.808 56.6865C104.808 56.331 104.842 55.9811 104.859 55.6425C104.825 55.208 104.78 54.8355 104.723 54.5138C104.661 54.2768 104.604 53.9495 104.565 53.7859C104.632 54.0251 104.685 54.2682 104.723 54.5138C104.786 54.7565 104.848 54.875 104.876 54.4743V53.7125C104.803 53.0127 104.774 52.3017 104.672 51.6019C104.599 51.2351 104.508 50.857 104.401 50.4733C104.324 50.1023 104.299 49.7224 104.327 49.3446C103.403 44.3929 101.476 39.6808 98.6632 35.4961C97.8973 34.5659 97.0644 33.6927 96.1711 32.8832L96.4656 33.4476C96.8758 33.6354 97.2408 33.9087 97.5361 34.2489L98.1025 35.2816C99.3072 36.651 100.257 38.2238 100.906 39.926L100.368 39.2883C99.9715 38.4814 99.9432 38.2556 100.255 38.6958C99.1219 37.0028 97.8589 35.8742 96.6978 34.2884L95.5084 33.3968C97.5577 36.4567 99.1276 39.8095 100.164 43.3402C100.311 43.7691 100.408 44.2093 100.521 44.6269C100.747 45.2871 100.934 45.9135 101.133 46.5399C101.486 47.5858 101.781 48.6502 102.016 49.7284C102.384 51.2633 102.158 53.2046 102.078 55.6143C102.044 55.998 102.413 55.9077 102.311 56.6752C102.175 58.4698 101.835 59.9652 101.563 61.5905C101.37 62.3241 101.523 63.5826 101.252 64.3105C100.798 66.0769 98.6292 70.0949 99.6203 67.6175" fill="#C21F32"/>
<path d="M84.3112 13.8034C84.3112 13.8034 92.1725 7.27415 98.9124 9.40165C107.227 12.0258 110.325 16.3372 110.24 16.7097C110.155 17.0821 106.377 26.6249 96.7715 23.5944C90.2808 21.5572 84.3112 13.8034 84.3112 13.8034ZM97.2246 20.8123C101.931 22.2965 104.361 18.809 104.361 18.809C102.54 16.896 100.279 15.4531 97.774 14.6047C93.8093 13.3519 89.1141 15.3158 89.1141 15.3158C90.7679 17.1555 92.5123 19.3225 97.2246 20.8123Z" fill="#4C4C4E"/>
<path d="M86.9788 0.0395003C85.5402 0.395025 79.1684 4.45817 76.3819 12.2854C73.7822 19.5821 73.3007 27.1045 75.2094 27.5222C77.1181 27.9398 76.9086 26.0323 76.9369 24.6272C76.9652 23.222 77.0275 15.0336 82.6517 9.83055C88.2758 4.62747 89.7257 5.47396 90.4281 5.19179C91.1304 4.90963 88.4118 -0.344241 86.9788 0.0395003Z" fill="#4C4C4E"/>
<path d="M6.51336 125.884C3.72677 125.884 1.94268 125.213 0 123.277L3.85704 119.462C4.17754 119.852 4.58383 120.163 5.04447 120.372C5.5051 120.58 6.0077 120.68 6.51336 120.664C8.32577 120.664 9.63409 119.66 9.63409 117.385V101.866H15.5075V117.532C15.5075 123.187 11.0104 125.884 6.51336 125.884Z" fill="#4C4C4E"/>
<path d="M33.0312 125.698L31.9268 122.148H24.5638L23.3858 125.698H17.2519L25.9515 101.878H30.4825L39.1821 125.698H33.0312ZM28.3642 110.907L26.2177 117.267H30.3805L28.3642 110.907Z" fill="#4C4C4E"/>
<path d="M53.7493 125.698L49.8187 118.362L45.888 125.698H39.1821L46.6299 113.469L39.6465 101.861H46.3298L49.8187 108.582L53.3415 101.878H60.0191L53.0074 113.469L60.4609 125.681L53.7493 125.698Z" fill="#4C4C4E"/>
<path d="M91.7874 125.698H86.9845L83.1217 113.954L79.2591 125.698H74.4958L67.9145 101.878H74.054L77.1804 114.457L81.0375 101.878H85.206L89.0631 114.457L92.1895 101.878H98.329L91.7874 125.698Z" fill="#4C4C4E"/>
<path d="M113.565 125.698L112.46 122.148H105.097L103.919 125.698H97.7853L106.485 101.878H111.016L119.71 125.698H113.565ZM108.898 110.907L106.751 117.267H110.914L108.898 110.907Z" fill="#4C4C4E"/>
<path d="M134.283 125.698L130.352 118.362L126.427 125.698H119.71L127.163 113.469L120.174 101.878H126.858L130.369 108.599L133.864 101.878H140.541L133.541 113.469L140.994 125.681L134.283 125.698Z" fill="#4C4C4E"/>
<path d="M37.7378 147.893V146.866C36.8543 147.746 36.0387 148.023 34.5717 148.023C33.1048 148.023 32.1816 147.769 31.5133 147.08C31.0179 146.526 30.7491 145.807 30.76 145.065C30.76 143.175 32.1193 142.086 34.3792 142.086H37.7378V140.929C37.7378 139.276 36.9166 138.395 34.8096 138.395C33.3427 138.395 32.5894 138.762 31.9438 139.704L31.1508 139.016C32.0344 137.797 33.1275 137.43 34.8096 137.43C37.5396 137.43 38.8309 138.655 38.8309 140.816V147.893H37.7378ZM37.7378 142.961H34.5095C32.7197 142.961 31.8588 143.672 31.8588 145.043C31.8588 146.414 32.697 147.058 34.5717 147.058C35.5176 147.058 36.4238 146.973 37.1544 146.268C37.5396 145.901 37.7208 145.257 37.7208 144.292L37.7378 142.961Z" fill="#4C4C4E"/>
<path d="M49.2693 147.893V146.651C48.5334 147.445 47.5188 147.925 46.4364 147.993C45.3541 148.06 44.2874 147.709 43.4582 147.012C43.0926 146.632 42.8086 146.18 42.6236 145.687C42.4385 145.193 42.3564 144.667 42.3821 144.14V137.537H43.4809V143.943C43.4809 145.935 44.4947 147.029 46.3468 147.029C48.1988 147.029 49.2693 145.901 49.2693 143.943V137.537H50.3681V147.893H49.2693Z" fill="#4C4C4E"/>
<path d="M57.4025 148C56.639 148.049 55.8735 147.943 55.1522 147.689C54.4308 147.435 53.7687 147.038 53.2056 146.521L53.9589 145.771C54.4024 146.21 54.935 146.551 55.5211 146.769C56.1071 146.987 56.7331 147.077 57.3572 147.035C59.3791 147.035 60.4779 146.33 60.4779 144.936C60.4779 143.864 59.8549 143.327 58.5013 143.198L56.8021 143.045C54.7122 142.876 53.6814 141.956 53.6814 140.348C53.6814 138.564 55.1426 137.408 57.4025 137.408C58.701 137.374 59.9758 137.758 61.0386 138.502L60.308 139.23C59.46 138.633 58.4409 138.324 57.4025 138.35C55.7034 138.35 54.7575 139.084 54.7575 140.348C54.7575 141.42 55.4032 141.956 56.8644 142.086L58.5636 142.233C60.2627 142.385 61.5937 142.921 61.5937 144.936C61.5541 146.821 59.9399 148 57.4025 148Z" fill="#4C4C4E"/>
<path d="M67.501 147.893C65.8642 147.893 65.0033 146.764 65.0033 145.195V138.35H63.5817V137.537H65.0033V134.236H66.1021V137.537H68.4469V138.35H66.1021V145.19C66.1021 146.262 66.5948 146.883 67.6936 146.883H68.4469V147.893H67.501Z" fill="#4C4C4E"/>
<path d="M77.1748 139.191C76.935 138.911 76.6328 138.692 76.2925 138.55C75.9522 138.408 75.5832 138.347 75.2151 138.373C73.431 138.373 72.4398 139.829 72.4398 141.505V147.893H71.3467V137.537H72.4398V138.909C72.7806 138.427 73.2367 138.037 73.7668 137.775C74.2969 137.513 74.8842 137.386 75.4756 137.408C75.9386 137.385 76.4009 137.462 76.8317 137.632C77.2625 137.803 77.6517 138.063 77.9734 138.395L77.1748 139.191Z" fill="#4C4C4E"/>
<path d="M86.5936 147.893V146.866C85.7101 147.746 84.8945 148.023 83.4333 148.023C81.972 148.023 81.0431 147.769 80.3748 147.08C79.8788 146.529 79.6098 145.811 79.6215 145.071C79.6215 143.181 80.9752 142.092 83.235 142.092H86.5936V140.935C86.5936 139.281 85.7781 138.401 83.6655 138.401C82.2042 138.401 81.4509 138.768 80.8053 139.71L80.0067 139.022C80.8902 137.803 81.989 137.436 83.6655 137.436C86.4011 137.436 87.6924 138.66 87.6924 140.822V147.893H86.5936ZM86.5936 142.961H83.3596C81.5755 142.961 80.7146 143.672 80.7146 145.043C80.7146 146.414 81.5529 147.058 83.4276 147.058C83.8893 147.107 84.3563 147.062 84.8002 146.926C85.2442 146.791 85.6558 146.566 86.0103 146.268C86.3954 145.901 86.5767 145.257 86.5767 144.292L86.5936 142.961Z" fill="#4C4C4E"/>
<path d="M93.815 147.893C92.1159 147.893 91.3173 146.821 91.3173 145.212V132.628H92.4217V145.195C92.4217 146.352 92.7842 146.928 94.0132 146.928H94.7665V147.893H93.815Z" fill="#4C4C4E"/>
<path d="M97.9495 134.084C97.7889 134.087 97.6309 134.043 97.4956 133.956C97.3603 133.87 97.2539 133.746 97.1898 133.599C97.1257 133.452 97.1069 133.289 97.1358 133.132C97.1646 132.975 97.2398 132.829 97.3518 132.714C97.4638 132.6 97.6076 132.521 97.7647 132.487C97.9219 132.454 98.0854 132.468 98.2345 132.528C98.3836 132.588 98.5115 132.69 98.6019 132.823C98.6924 132.955 98.7413 133.111 98.7424 133.271C98.744 133.483 98.6616 133.687 98.5133 133.839C98.3649 133.992 98.1624 134.079 97.9495 134.084ZM97.3831 147.87V137.537H98.4819V147.893L97.3831 147.87Z" fill="#4C4C4E"/>
<path d="M108.331 147.893V146.866C107.453 147.746 106.632 148.023 105.171 148.023C103.71 148.023 102.781 147.769 102.112 147.08C101.617 146.526 101.348 145.807 101.359 145.065C101.359 143.175 102.718 142.086 104.978 142.086H108.331V140.929C108.331 139.276 107.516 138.395 105.409 138.395C103.942 138.395 103.189 138.762 102.543 139.704L101.75 139.016C102.634 137.797 103.727 137.43 105.409 137.43C108.139 137.43 109.43 138.655 109.43 140.816V147.893H108.331ZM108.331 142.961H105.103C103.319 142.961 102.458 143.672 102.458 145.043C102.458 146.414 103.296 147.058 105.171 147.058C106.117 147.058 107.023 146.973 107.754 146.268C108.139 145.901 108.32 145.257 108.32 144.292L108.331 142.961Z" fill="#4C4C4E"/>
</g>
<defs>
<clipPath id="clip0_261_47038">
<rect width="141" height="148" fill="white"/>
</clipPath>
</defs>
</svg>
