<svg width="121" height="120" viewBox="0 0 121 120" fill="none" xmlns="http://www.w3.org/2000/svg">
<g clip-path="url(#clip0_124_108)">
<circle cx="60.5" cy="60" r="58.5" fill="white" stroke="#87A1B7" stroke-width="3"/>
<path d="M34.5051 31.812C34.1003 31.8436 33.7365 32.1127 33.5998 32.5221C33.4185 33.0679 33.7131 33.6581 34.2589 33.8404C34.9485 34.0696 36.0599 34.3684 37.3453 34.7132C39.714 35.3476 42.6619 36.1368 43.9432 36.7681C46.0942 37.8285 46.9176 40.0977 47.4385 42.1758C47.8822 43.9529 48.8185 45.6946 50.181 47.2498L51.2898 48.4014C49.6158 49.8972 47.7228 51.1491 45.6176 52.0981C45.3457 52.221 45.1385 52.4546 45.0499 52.7389C44.9614 53.0233 44.9985 53.3332 45.1537 53.5873C46.1131 55.1727 47.4306 56.6818 49.0681 58.0714C49.5066 58.4422 50.1641 58.3878 50.537 57.9493C50.9089 57.5108 50.8535 56.8533 50.4149 56.4804C49.2889 55.5252 48.3383 54.5163 47.5748 53.4673C49.4696 52.4996 51.2066 51.3079 52.7587 49.911C57.4618 54.161 64.4005 55.7124 71.0265 54.0166C70.9484 56.3624 70.6212 59.3092 69.9889 61.7457C67.1504 62.4197 63.9407 62.3651 60.6688 61.587C60.1126 61.4537 59.5489 61.8007 59.4156 62.3601C59.2823 62.9195 59.6273 63.48 60.1867 63.6134C61.3158 63.8821 62.4383 64.0635 63.5477 64.1729C65.1039 66.3927 66.0477 67.7795 66.0644 67.8024C68.0966 70.6472 70.612 73.2132 73.5412 75.4277C74.8547 76.4205 76.1666 77.4163 77.4718 78.4205C78.7197 79.3809 79.8865 80.4302 81.1583 81.3563C82.5427 82.3615 83.6928 82.8517 84.6719 82.8517H86.1612C86.8768 82.8517 87.5394 83.1418 87.98 83.6512C88.3832 84.1168 88.5559 84.715 88.4663 85.3358C88.3923 85.8525 88.3707 85.9927 85.852 86.0479C85.3072 86.0593 84.6987 86.0725 84.0799 86.1069C83.0414 86.1069 81.1702 85.5628 79.3619 85.0367C76.7233 84.2711 73.9976 83.4781 72.058 83.7021C70.9872 83.825 70.1648 83.9625 69.1283 84.3084C68.245 84.6021 67.2468 84.937 65.9708 84.937C65.5479 84.937 65.0622 84.9178 64.6789 84.7824C62.8091 84.1168 61.6922 81.5549 61.6922 79.4622C61.6922 77.7799 61.1653 76.4674 60.0341 75.3382C58.9174 74.2216 57.656 73.4035 55.9101 72.2722C53.7591 70.8785 50.8141 68.9692 46.5453 65.4119C42.0255 61.6442 40.1557 56.9957 39.3839 53.7582C38.8526 51.528 37.1459 49.8674 34.9303 49.4247L32.6985 48.9792C32.137 48.8656 31.5852 49.2304 31.4737 49.795C31.3612 50.3596 31.727 50.9093 32.2916 51.0218L34.5234 51.4674C35.9328 51.7486 37.0189 52.8112 37.3595 54.2404C38.2043 57.7852 40.2513 62.8776 45.2127 67.013C49.5773 70.6505 52.5831 72.599 54.779 74.0219C56.4175 75.0844 57.6017 75.8518 58.5631 76.8132C59.2965 77.5476 59.6109 78.3382 59.6109 79.4622C59.6109 82.2393 61.1435 85.7363 63.9831 86.7477C64.6653 86.9904 65.3708 87.0224 65.9708 87.0224C67.5843 87.0224 68.8071 86.6141 69.7956 86.2839C70.6571 85.9974 71.3398 85.8826 72.296 85.7732C73.8221 85.5982 76.455 86.3667 78.782 87.0427C80.8175 87.6334 82.74 88.1922 84.1348 88.1922C84.7848 88.1579 85.3727 88.1447 85.8987 88.1332C88.1977 88.0832 90.1814 88.04 90.5272 85.6369C90.7043 84.4056 90.36 83.2173 89.5548 82.2881C88.7183 81.3225 87.481 80.7683 86.1612 80.7683H84.6719C84.4376 80.7683 83.7477 80.6623 82.3852 79.6738C81.3914 78.9529 80.4913 78.1228 79.5267 77.3687C77.9631 76.1457 76.3766 74.9686 74.7985 73.7696C72.036 71.6821 69.6681 69.2684 67.7733 66.6163C67.7733 66.6163 67.1848 65.7503 66.1681 64.2888C67.89 64.2617 69.5536 64.0406 71.112 63.6093C71.4599 63.5124 71.7342 63.2431 71.8342 62.8952C72.8353 59.4441 73.1553 55.1972 73.1261 52.6108C73.122 52.2785 72.9605 51.9693 72.6907 51.7766C72.4209 51.5829 72.0766 51.5321 71.761 51.6342C64.0724 54.1582 57.5267 51.4621 54.0038 48.2162L51.715 45.8399C50.6035 44.5691 49.8233 43.1275 49.4587 41.6692C49.0733 40.1307 48.1701 36.5286 44.8628 34.8984C43.3982 34.1765 40.4688 33.3918 37.8844 32.6991C36.6303 32.3636 35.5463 32.0723 34.9161 31.8629C34.7794 31.8168 34.64 31.8015 34.5051 31.812ZM53.2653 58.6329C52.8625 58.58 52.4485 58.7668 52.2297 59.1395C51.9381 59.6364 52.1052 60.274 52.602 60.5657C53.4135 61.0407 54.2623 61.4801 55.1248 61.8739C55.2654 61.9374 55.4113 61.9675 55.5561 61.9675C55.952 61.9675 56.3292 61.7425 56.5042 61.3591C56.7428 60.8352 56.5134 60.2163 55.9895 59.9777C55.1905 59.6142 54.4049 59.2068 53.6559 58.7672C53.5314 58.6943 53.3995 58.6505 53.2653 58.6329Z" fill="#374B5C"/>
</g>
<defs>
<clipPath id="clip0_124_108">
<rect width="120" height="120" fill="white" transform="translate(0.5)"/>
</clipPath>
</defs>
</svg>
