<svg width="654" height="265" viewBox="0 0 654 265" fill="none" xmlns="http://www.w3.org/2000/svg">
<path d="M40.06 223.04H44.3V226.96H38.66V228.98H44.3V233.34H36.24V235.42H54.04V233.34H46.4V228.98H52.36V226.96H46.4V223.04H52.74V221.02H46.4V217.74H44.3V221.02H40.82C41.06 220.26 41.26 219.44 41.44 218.58L39.3 218.18C38.68 221.36 37.48 223.88 35.68 225.76L37.06 227.5C38.28 226.3 39.28 224.8 40.06 223.04ZM61.32 222.9H70.7V221.14H61.32V220H71.78V218.08H59.3V226.84H56.32V228.76H58.9V233.5C58.9 233.86 58.68 234.12 58.24 234.3L59.08 236.06C61.68 235.62 64 235.08 66 234.4L65.64 232.54C64.06 233.1 62.48 233.54 60.9 233.86V228.76H73.68V226.84H61.32V225.74H70.72V223.98H61.32V222.9ZM66.22 228.98L64.6 229.92C66.28 232.96 69.1 235.04 73.08 236.16L74.26 234.42C72.48 233.98 70.94 233.32 69.62 232.46C70.7 231.92 71.7 231.2 72.6 230.32L71.26 228.94C70.24 229.98 69.18 230.74 68.06 231.26C67.34 230.58 66.72 229.82 66.22 228.98ZM77.2 217.68V219.68H76.18V221.62H77.2V229.44H75.96V231.38H85.58V229.44H84.5V221.62H85.48V219.68H84.5V217.72H82.5V219.68H79.2V217.68H77.2ZM79.2 229.44V228.06H82.5V229.44H79.2ZM82.5 221.62V223.02H79.2V221.62H82.5ZM79.2 226.24V224.84H82.5V226.24H79.2ZM82.78 231.5L81.16 232.52C82 233.72 82.68 234.8 83.16 235.76L84.36 234.92L85.82 236.24C87.12 234.5 87.92 232.32 88.22 229.7H91.42V233.14C91.42 233.68 91.22 233.96 90.82 233.96C90.22 233.96 89.56 233.92 88.84 233.86L89.4 235.9H91.48C92.84 235.9 93.52 235.22 93.52 233.9V218.18H86.26V227.82C86.24 230.3 85.7 232.4 84.64 234.14C84.18 233.38 83.56 232.5 82.78 231.5ZM78.26 231.56C77.56 232.84 76.72 233.94 75.76 234.86L77.44 236.06C78.38 235.02 79.2 233.8 79.92 232.36L78.26 231.56ZM88.34 224.92H91.42V227.8H88.34V224.92ZM91.42 223.02H88.34V220.14H91.42V223.02ZM41.3581 244.768C40.6541 245.792 40.1101 246.896 39.7101 248.064C39.2301 249.44 39.0061 250.832 39.0061 252.256C39.0061 253.648 39.2301 255.04 39.7101 256.416C40.1101 257.568 40.6541 258.672 41.3581 259.712H42.4781C41.8221 258.64 41.3101 257.536 40.9581 256.4C40.4781 254.992 40.2541 253.6 40.2541 252.24C40.2541 250.864 40.4781 249.488 40.9581 248.08C41.3101 246.928 41.8221 245.824 42.4781 244.768H41.3581ZM49.5503 246.576L43.7903 254.16V255.408H49.5343V258H50.7823V255.408H52.6383V254.336H50.7823V246.576H49.5503ZM49.4863 248.288H49.5343V254.336H44.8943L49.4863 248.288ZM55.352 251.04C54.648 251.04 53.96 251.552 53.288 252.608L54.088 253.168C54.552 252.432 54.968 252.064 55.352 252.064C55.672 252.064 56.168 252.288 56.872 252.752C57.56 253.216 58.152 253.456 58.648 253.456C59.336 253.456 60.024 252.928 60.712 251.888L59.912 251.312C59.432 252.048 59.016 252.432 58.648 252.432C58.344 252.432 57.848 252.192 57.16 251.744C56.456 251.264 55.848 251.04 55.352 251.04ZM65.96 246.352C64.664 246.352 63.64 246.944 62.888 248.144C62.168 249.28 61.816 250.768 61.816 252.592C61.816 254.336 62.136 255.696 62.808 256.672C63.512 257.696 64.552 258.224 65.944 258.224C67.064 258.224 67.976 257.84 68.712 257.104C69.432 256.368 69.8 255.424 69.8 254.304C69.8 253.184 69.464 252.288 68.808 251.584C68.136 250.88 67.256 250.528 66.168 250.528C65.496 250.528 64.904 250.688 64.392 251.024C63.848 251.344 63.448 251.808 63.16 252.4H63.096C63.08 252.192 63.08 252.048 63.08 251.984C63.08 250.688 63.32 249.616 63.832 248.784C64.344 247.888 65.048 247.456 65.944 247.456C67.272 247.456 68.056 248.096 68.312 249.408H69.608C69.288 247.36 68.072 246.352 65.96 246.352ZM65.912 251.616C66.696 251.616 67.32 251.856 67.8 252.368C68.264 252.848 68.504 253.488 68.504 254.304C68.504 255.12 68.264 255.792 67.784 256.336C67.304 256.848 66.68 257.12 65.912 257.12C65.112 257.12 64.488 256.848 64.008 256.304C63.528 255.792 63.304 255.136 63.304 254.336C63.304 253.536 63.544 252.896 64.04 252.384C64.536 251.872 65.16 251.616 65.912 251.616ZM74.6258 247.84H78.9298V250.4H74.1778V254.96H71.5378V256.08H78.9298V259.648H80.0978V256.08H85.6338V254.96H80.0978V251.504H84.5618V250.4H80.0978V247.84H85.1218V246.72H75.1858C75.4098 246.176 75.6178 245.616 75.7938 245.008L74.5938 244.784C74.0338 246.864 72.9457 248.512 71.3298 249.728L72.0978 250.688C73.1218 249.92 73.9538 248.976 74.6258 247.84ZM75.3298 254.96V251.504H78.9298V254.96H75.3298ZM87.5218 244.768C88.1618 245.824 88.6738 246.928 89.0418 248.08C89.5058 249.488 89.7458 250.864 89.7458 252.24C89.7458 253.6 89.5058 254.992 89.0418 256.4C88.6738 257.536 88.1618 258.64 87.5218 259.712H88.6418C89.3298 258.672 89.8738 257.568 90.2898 256.416C90.7538 255.04 90.9938 253.648 90.9938 252.256C90.9938 250.832 90.7538 249.44 90.2898 248.064C89.8738 246.896 89.3298 245.792 88.6418 244.768H87.5218Z" fill="#374B5C"/>
<path d="M225.24 226.42L224.06 227.86C226.78 229.4 229 231.06 230.74 232.84L232.02 231.3C231.28 230.6 230.46 229.92 229.56 229.24C230.1 228.76 230.64 228.22 231.16 227.6L229.66 226.44C229.2 227.04 228.66 227.6 228.06 228.16C227.18 227.56 226.24 226.98 225.24 226.42ZM222.78 223.02H228.7V224.28H222.78V223.02ZM228.7 221.3H222.78V220.04H228.7V221.3ZM222.78 226.12H230.74V218.2H220.76V230.32C220.76 230.68 220.52 230.96 220.06 231.12L220.5 232.9C222.94 232.5 224.98 232.08 226.58 231.66L226.1 229.78C225 230.1 223.9 230.38 222.78 230.58V226.12ZM214.04 222.4V224.28H216.84C216.22 225.18 215.44 226.14 214.5 227.18V228.74H217.36C217.12 229.74 216.8 230.68 216.4 231.56C215.56 231.88 214.7 232.92 213.82 234.68L215.32 236.08C216.12 234.32 216.7 233.46 217.06 233.46C217.22 233.46 217.36 233.52 217.48 233.66C218.12 234.36 218.84 234.86 219.62 235.18C220.26 235.44 221.24 235.6 222.52 235.64C223.76 235.68 225.02 235.72 226.3 235.72H231.8L232.28 233.76C229.72 233.84 227.64 233.9 226.04 233.9C224.74 233.9 223.58 233.88 222.58 233.88C221.54 233.84 220.76 233.72 220.24 233.5C219.72 233.26 219.16 232.84 218.56 232.26C218.46 232.16 218.36 232.06 218.24 231.98C218.66 231.02 219.02 229.82 219.32 228.36V227H216.98C217.8 226 218.52 225.02 219.14 224.02V222.4H214.04ZM216.02 217.64L214.62 218.98C215.9 220.02 216.88 220.96 217.56 221.84L218.92 220.48C218.12 219.52 217.16 218.58 216.02 217.64ZM239.58 217.38C238.3 220.48 236.32 223.18 233.66 225.46L234.34 227.64C235.22 226.9 236.06 226.14 236.84 225.36V236.12H238.92V222.94C240 221.48 240.88 219.94 241.54 218.32L239.58 217.38ZM251.3 223.12L245.04 223.52V217.72H242.96V233.26C242.96 234.92 243.78 235.76 245.46 235.76H249.2C250.22 235.76 250.92 235.52 251.3 235.06C251.68 234.58 251.94 233.18 252.08 230.88L250.16 230.22C250.12 232 250 233.04 249.8 233.34C249.6 233.62 249.28 233.78 248.84 233.78H245.96C245.34 233.78 245.04 233.5 245.04 232.96V225.5L251.3 225.12V223.12ZM255.2 217.68V219.68H254.18V221.62H255.2V229.44H253.96V231.38H263.58V229.44H262.5V221.62H263.48V219.68H262.5V217.72H260.5V219.68H257.2V217.68H255.2ZM257.2 229.44V228.06H260.5V229.44H257.2ZM260.5 221.62V223.02H257.2V221.62H260.5ZM257.2 226.24V224.84H260.5V226.24H257.2ZM260.78 231.5L259.16 232.52C260 233.72 260.68 234.8 261.16 235.76L262.36 234.92L263.82 236.24C265.12 234.5 265.92 232.32 266.22 229.7H269.42V233.14C269.42 233.68 269.22 233.96 268.82 233.96C268.22 233.96 267.56 233.92 266.84 233.86L267.4 235.9H269.48C270.84 235.9 271.52 235.22 271.52 233.9V218.18H264.26V227.82C264.24 230.3 263.7 232.4 262.64 234.14C262.18 233.38 261.56 232.5 260.78 231.5ZM256.26 231.56C255.56 232.84 254.72 233.94 253.76 234.86L255.44 236.06C256.38 235.02 257.2 233.8 257.92 232.36L256.26 231.56ZM266.34 224.92H269.42V227.8H266.34V224.92ZM269.42 223.02H266.34V220.14H269.42V223.02ZM211.358 244.768C210.654 245.792 210.11 246.896 209.71 248.064C209.23 249.44 209.006 250.832 209.006 252.256C209.006 253.648 209.23 255.04 209.71 256.416C210.11 257.568 210.654 258.672 211.358 259.712H212.478C211.822 258.64 211.31 257.536 210.958 256.4C210.478 254.992 210.254 253.6 210.254 252.24C210.254 250.864 210.478 249.488 210.958 248.08C211.31 246.928 211.822 245.824 212.478 244.768H211.358ZM218.366 246.352C217.214 246.352 216.27 246.736 215.566 247.504C214.862 248.256 214.494 249.28 214.494 250.56H215.806C215.822 249.552 216.062 248.784 216.51 248.272C216.926 247.728 217.534 247.472 218.318 247.472C219.054 247.472 219.646 247.664 220.062 248.048C220.478 248.432 220.686 248.96 220.686 249.664C220.686 250.4 220.382 251.088 219.806 251.712C219.502 252.032 218.91 252.496 218.014 253.136C216.798 253.968 215.982 254.656 215.534 255.168C214.766 256.016 214.398 256.96 214.398 258H222.014V256.832H216.014C216.222 256.064 217.054 255.184 218.51 254.208C219.694 253.408 220.478 252.784 220.878 252.368C221.614 251.568 221.998 250.672 221.998 249.68C221.998 248.688 221.646 247.872 220.974 247.264C220.286 246.656 219.422 246.352 218.366 246.352ZM225.352 251.04C224.648 251.04 223.96 251.552 223.288 252.608L224.088 253.168C224.552 252.432 224.968 252.064 225.352 252.064C225.672 252.064 226.168 252.288 226.872 252.752C227.56 253.216 228.152 253.456 228.648 253.456C229.336 253.456 230.024 252.928 230.712 251.888L229.912 251.312C229.432 252.048 229.016 252.432 228.648 252.432C228.344 252.432 227.848 252.192 227.16 251.744C226.456 251.264 225.848 251.04 225.352 251.04ZM235.912 246.352C234.824 246.352 233.944 246.656 233.272 247.28C232.568 247.904 232.152 248.768 232.056 249.872H233.352C233.432 249.104 233.688 248.512 234.136 248.096C234.568 247.68 235.16 247.488 235.928 247.488C236.664 247.488 237.256 247.664 237.672 248.048C238.056 248.4 238.264 248.896 238.264 249.536C238.264 250.176 238.056 250.672 237.656 251.024C237.256 251.36 236.68 251.536 235.912 251.536H235.032V252.56H235.96C236.76 252.56 237.368 252.736 237.816 253.12C238.264 253.504 238.488 254.032 238.488 254.72C238.488 255.392 238.248 255.952 237.8 256.4C237.304 256.864 236.648 257.104 235.832 257.104C235.112 257.104 234.52 256.896 234.04 256.512C233.48 256.048 233.176 255.36 233.144 254.464H231.816C231.912 255.744 232.36 256.72 233.176 257.392C233.864 257.936 234.744 258.224 235.832 258.224C237.016 258.224 237.976 257.888 238.712 257.216C239.432 256.56 239.8 255.712 239.8 254.672C239.8 254 239.608 253.44 239.224 252.992C238.872 252.544 238.36 252.224 237.688 252.016C238.936 251.6 239.56 250.736 239.56 249.456C239.56 248.496 239.224 247.744 238.568 247.184C237.896 246.624 237 246.352 235.912 246.352ZM250.402 246.56V248.016H247.682V246.56H250.402ZM250.402 248.928V250.24H247.682V248.928H250.402ZM251.426 250.24V248.928H254.194V250.24H251.426ZM254.194 251.136V255.68C254.194 256.112 254.018 256.336 253.682 256.336C253.122 256.336 252.514 256.32 251.874 256.288L252.162 257.312H254.002C254.866 257.312 255.314 256.896 255.314 256.08V245.536H246.578V251.232C246.562 253.344 246.274 255.104 245.73 256.48L246.594 257.264C247.298 255.712 247.666 253.68 247.682 251.152V251.136H254.194ZM251.426 248.016V246.56H254.194V248.016H251.426ZM248.594 252.144V255.36H253.106V252.144H248.594ZM252.146 254.528H249.57V252.976H252.146V254.528ZM242.738 245.072L241.986 245.808C243.01 246.624 243.81 247.392 244.418 248.128L245.17 247.376C244.498 246.608 243.698 245.84 242.738 245.072ZM241.49 248.928V249.984H243.89C243.33 250.88 242.642 251.776 241.826 252.688V253.568H244.306C244.098 254.608 243.81 255.536 243.442 256.368C242.754 256.56 242.034 257.376 241.282 258.816L242.13 259.568C242.85 258.144 243.41 257.44 243.794 257.44C243.922 257.44 244.066 257.488 244.194 257.6C244.738 258.176 245.33 258.608 246.002 258.88C246.578 259.136 247.41 259.28 248.498 259.312C249.426 259.344 250.498 259.36 251.698 259.36H255.762L256.018 258.256C254.194 258.304 252.706 258.336 251.554 258.336C250.434 258.336 249.426 258.32 248.562 258.32C247.65 258.304 246.93 258.192 246.418 257.984C245.89 257.728 245.378 257.36 244.882 256.88C244.754 256.752 244.61 256.656 244.482 256.56C244.85 255.712 245.154 254.64 245.394 253.36V252.592H243.186C243.922 251.696 244.594 250.784 245.17 249.84V248.928H241.49ZM261.65 251.984V258.16H267.522V251.984H261.65ZM266.434 257.2H262.754V255.536H266.434V257.2ZM262.754 254.592V252.944H266.434V254.592H262.754ZM259.282 248.576H262.626V249.792H259.282V248.576ZM262.626 247.68H259.282V246.48H262.626V247.68ZM266.466 248.592H269.922V249.792H266.466V248.592ZM269.922 247.696H266.466V246.48H269.922V247.696ZM263.778 245.456H258.13V259.568H259.282V250.832H263.778V245.456ZM269.922 250.832V257.952C269.922 258.288 269.746 258.464 269.426 258.464C268.962 258.464 268.466 258.432 267.922 258.4L268.226 259.504C268.754 259.52 269.298 259.536 269.842 259.536C270.642 259.536 271.058 259.12 271.058 258.32V245.44H265.314V250.832H269.922ZM273.522 244.768C274.162 245.824 274.674 246.928 275.042 248.08C275.506 249.488 275.746 250.864 275.746 252.24C275.746 253.6 275.506 254.992 275.042 256.4C274.674 257.536 274.162 258.64 273.522 259.712H274.642C275.33 258.672 275.874 257.568 276.29 256.416C276.754 255.04 276.994 253.648 276.994 252.256C276.994 250.832 276.754 249.44 276.29 248.064C275.874 246.896 275.33 245.792 274.642 244.768H273.522Z" fill="#374B5C"/>
<path d="M389.52 225.72V236.12H391.6V222.7C392.4 221.32 393.06 219.88 393.54 218.38L391.56 217.46C390.6 220.5 389.14 223.16 387.14 225.4L387.82 227.64C388.42 227.02 388.98 226.38 389.52 225.72ZM393.16 221.38V223.4H396.42C395.28 226.58 393.74 229.14 391.8 231.06L393.02 233.04C394.86 230.8 396.4 227.74 397.64 223.9V236.1H399.7V223.82C401.02 227.6 402.6 230.62 404.46 232.9L405.86 231.02C403.72 228.94 402.08 226.4 400.94 223.4H404.66V221.38H399.7V217.72H397.64V221.38H393.16ZM416.64 228.5H419.86C419.94 229.3 420.06 230.02 420.22 230.66C420.64 232.42 421.16 233.72 421.76 234.56C422.4 235.4 423.04 235.82 423.7 235.82C424.58 235.82 425.3 234.56 425.9 232.06L424.16 231.04C423.9 232.74 423.68 233.6 423.5 233.6C423.24 233.6 422.96 233.24 422.68 232.54C422.38 231.86 422.12 230.84 421.92 229.44C421.88 229.16 421.84 228.84 421.8 228.5H425.28V226.54H421.66C421.62 225.86 421.6 225.12 421.6 224.32H424.54V218.2H414.64V232.98C414.64 233.5 414.46 233.8 414.12 233.92L414.74 235.7C417.02 235.22 418.92 234.68 420.44 234.08L420.06 232.18C418.96 232.62 417.82 232.98 416.64 233.3V228.5ZM419.62 224.32C419.62 225.1 419.66 225.84 419.7 226.54H416.64V224.32H419.62ZM416.64 222.44V220.08H422.6V222.44H416.64ZM413.48 218.48H407.88V235.16H409.76V233.38H411.6V234.7H413.48V218.48ZM409.76 231.5V228.9H411.6V231.5H409.76ZM409.76 227.08V224.62H411.6V227.08H409.76ZM409.76 222.78V220.36H411.6V222.78H409.76ZM428.7 217.68V219.68H427.68V221.62H428.7V229.44H427.46V231.38H437.08V229.44H436V221.62H436.98V219.68H436V217.72H434V219.68H430.7V217.68H428.7ZM430.7 229.44V228.06H434V229.44H430.7ZM434 221.62V223.02H430.7V221.62H434ZM430.7 226.24V224.84H434V226.24H430.7ZM434.28 231.5L432.66 232.52C433.5 233.72 434.18 234.8 434.66 235.76L435.86 234.92L437.32 236.24C438.62 234.5 439.42 232.32 439.72 229.7H442.92V233.14C442.92 233.68 442.72 233.96 442.32 233.96C441.72 233.96 441.06 233.92 440.34 233.86L440.9 235.9H442.98C444.34 235.9 445.02 235.22 445.02 233.9V218.18H437.76V227.82C437.74 230.3 437.2 232.4 436.14 234.14C435.68 233.38 435.06 232.5 434.28 231.5ZM429.76 231.56C429.06 232.84 428.22 233.94 427.26 234.86L428.94 236.06C429.88 235.02 430.7 233.8 431.42 232.36L429.76 231.56ZM439.84 224.92H442.92V227.8H439.84V224.92ZM442.92 223.02H439.84V220.14H442.92V223.02ZM385.655 244.768C384.951 245.792 384.407 246.896 384.007 248.064C383.527 249.44 383.303 250.832 383.303 252.256C383.303 253.648 383.527 255.04 384.007 256.416C384.407 257.568 384.951 258.672 385.655 259.712H386.775C386.119 258.64 385.607 257.536 385.255 256.4C384.775 254.992 384.551 253.6 384.551 252.24C384.551 250.864 384.775 249.488 385.255 248.08C385.607 246.928 386.119 245.824 386.775 244.768H385.655ZM396.983 251.2L396.103 251.76C397.207 253.088 398.087 254.304 398.743 255.408L399.639 254.752C399.015 253.744 398.135 252.56 396.983 251.2ZM396.903 244.928C396.423 247.152 395.511 249.024 394.167 250.56L394.887 251.472C395.591 250.672 396.199 249.776 396.711 248.784H401.303C401.271 253.376 401.207 256.128 401.111 257.024C400.983 257.904 400.503 258.352 399.687 258.352C399.207 258.352 398.631 258.336 397.975 258.304L398.247 259.344C398.999 259.376 399.527 259.408 399.847 259.408C401.255 259.408 402.039 258.752 402.199 257.472C402.359 256.224 402.439 252.96 402.439 247.664H397.223C397.543 246.848 397.799 245.984 398.007 245.072L396.903 244.928ZM389.319 255.552C389.223 256.928 388.983 258.144 388.615 259.2L389.607 259.504C389.959 258.384 390.183 257.104 390.279 255.664L389.319 255.552ZM392.215 255.44L391.271 255.648C391.463 256.656 391.639 257.808 391.767 259.12L392.791 258.88C392.615 257.648 392.423 256.496 392.215 255.44ZM393.703 251.248L392.775 251.536C392.983 252.048 393.175 252.592 393.351 253.152C392.359 253.392 391.367 253.584 390.375 253.744C391.495 252.608 392.919 250.608 394.647 247.76L393.639 247.376C393.223 248.096 392.807 248.768 392.423 249.392C391.623 249.52 390.807 249.632 390.007 249.712C390.887 248.624 391.751 247.168 392.615 245.344L391.559 244.928C390.855 246.592 390.039 248.08 389.111 249.376C388.967 249.568 388.807 249.712 388.647 249.792L388.919 250.784C389.863 250.672 390.807 250.544 391.767 250.416C390.775 251.888 389.943 252.928 389.255 253.552C389.111 253.68 388.951 253.776 388.759 253.856L389.047 254.864C390.487 254.704 392.023 254.432 393.639 254.048C393.703 254.288 393.783 254.544 393.847 254.832L394.823 254.576C394.503 253.328 394.119 252.208 393.703 251.248ZM394.055 255.136L393.191 255.408C393.511 256.24 393.815 257.2 394.087 258.288L394.999 257.888C394.727 256.896 394.407 255.984 394.055 255.136ZM408.615 246.352C407.527 246.352 406.647 246.656 405.975 247.28C405.271 247.904 404.855 248.768 404.759 249.872H406.055C406.135 249.104 406.391 248.512 406.839 248.096C407.271 247.68 407.863 247.488 408.631 247.488C409.367 247.488 409.959 247.664 410.375 248.048C410.759 248.4 410.967 248.896 410.967 249.536C410.967 250.176 410.759 250.672 410.359 251.024C409.959 251.36 409.383 251.536 408.615 251.536H407.735V252.56H408.663C409.463 252.56 410.071 252.736 410.519 253.12C410.967 253.504 411.191 254.032 411.191 254.72C411.191 255.392 410.951 255.952 410.503 256.4C410.007 256.864 409.351 257.104 408.535 257.104C407.815 257.104 407.223 256.896 406.743 256.512C406.183 256.048 405.879 255.36 405.847 254.464H404.519C404.615 255.744 405.063 256.72 405.879 257.392C406.567 257.936 407.447 258.224 408.535 258.224C409.719 258.224 410.679 257.888 411.415 257.216C412.135 256.56 412.503 255.712 412.503 254.672C412.503 254 412.311 253.44 411.927 252.992C411.575 252.544 411.063 252.224 410.391 252.016C411.639 251.6 412.263 250.736 412.263 249.456C412.263 248.496 411.927 247.744 411.271 247.184C410.599 246.624 409.703 246.352 408.615 246.352ZM417.553 244.912C416.785 247.392 415.569 249.584 413.873 251.504L414.241 252.704C414.849 252.064 415.425 251.376 415.937 250.656V259.6H417.089V248.864C417.697 247.776 418.193 246.624 418.593 245.392L417.553 244.912ZM428.145 245.552H418.993V259.584H420.033V258.64H427.105V259.584H428.145V245.552ZM420.033 257.616V246.56H427.105V257.616H420.033ZM420.769 249.152V250.144H423.089V252.016H421.457V256.544H425.761V252.016H424.097V250.144H426.401V249.152H424.097V247.328H423.089V249.152H420.769ZM424.849 255.648H422.369V252.912H424.849V255.648ZM434.305 250.544H441.137V253.424H434.305V250.544ZM441.137 249.472H434.305V246.672H441.137V249.472ZM434.241 254.496H441.137V257.68C441.137 258.144 440.945 258.384 440.577 258.384C439.969 258.384 439.297 258.352 438.561 258.32L438.881 259.456H440.945C441.841 259.456 442.305 258.992 442.305 258.08V245.568H433.137V253.376C433.105 255.584 432.577 257.408 431.521 258.848L432.401 259.648C433.441 258.288 434.049 256.576 434.241 254.496ZM446.225 244.768C446.865 245.824 447.377 246.928 447.745 248.08C448.209 249.488 448.449 250.864 448.449 252.24C448.449 253.6 448.209 254.992 447.745 256.4C447.377 257.536 446.865 258.64 446.225 259.712H447.345C448.033 258.672 448.577 257.568 448.993 256.416C449.457 255.04 449.697 253.648 449.697 252.256C449.697 250.832 449.457 249.44 448.993 248.064C448.577 246.896 448.033 245.792 447.345 244.768H446.225Z" fill="#374B5C"/>
<path d="M575.12 223.9V228.84H576.64C576.42 231.44 575.44 233.28 573.7 234.36L574.78 236.12C577.08 234.6 578.36 232.16 578.6 228.84H579.66V233.86C579.66 235.14 580.26 235.78 581.48 235.78H582.78C583.44 235.78 583.94 235.62 584.26 235.3C584.58 234.94 584.82 233.88 584.96 232.08L583.18 231.48C583.14 232.64 583.06 233.34 582.94 233.58C582.82 233.8 582.66 233.92 582.42 233.92H582.08C581.76 233.92 581.6 233.76 581.6 233.44V228.84H583.26V224.28L584.98 223.4C583.9 221.34 582.64 219.44 581.2 217.72L579.44 218.52C580.4 219.7 581.3 221 582.14 222.42H576.36C577.12 221.34 577.78 220.06 578.34 218.58L576.46 217.82C575.84 219.74 574.9 221.32 573.64 222.58V218.2H567.76V228.16C567.74 230.82 567.38 233 566.68 234.72L568.22 236.14C568.98 234.46 569.46 232.38 569.62 229.88C570.34 229.76 571.04 229.6 571.7 229.42V233.38C571.7 233.98 571.5 234.28 571.14 234.28C570.76 234.28 570.34 234.24 569.88 234.18L570.4 236.02H571.7C572.98 236.02 573.64 235.36 573.64 234.08V223.52L574.62 224.36C574.78 224.2 574.96 224.06 575.12 223.9ZM569.68 227.96V224.68C570.36 224.82 571.02 225 571.7 225.2V227.56C571.08 227.7 570.4 227.84 569.68 227.96ZM569.68 222.94V220.08H571.7V223.4C571.04 223.22 570.36 223.06 569.68 222.94ZM581.36 227H577.08V224.26H581.36V227ZM602 235.78C602.9 235.78 603.56 235.6 604 235.28C604.48 234.94 604.8 233.86 605 232.02L602.94 231.36C602.86 232.52 602.7 233.22 602.46 233.46C602.28 233.68 601.98 233.8 601.56 233.8H596.28C595.84 233.8 595.64 233.5 595.64 232.94V230.22L604.56 229.34V227.3L595.64 228.18V225.54L602.92 224.76V222.74L595.64 223.5V220.82C598.04 220.5 600.36 220.06 602.6 219.54L601.6 217.82C598.16 218.7 593.54 219.3 587.76 219.66L588.36 221.42C590.1 221.34 591.82 221.22 593.5 221.06V223.72L588.38 224.26V226.3L593.5 225.76V228.38L586.8 229.04V231.08L593.5 230.42V233.4C593.5 234.98 594.2 235.78 595.62 235.78H602Z" fill="#374B5C"/>
<g clip-path="url(#clip0_377_953)">
<path d="M266.189 137.283C269.726 120.706 262.748 105.148 250.602 102.535C238.457 99.9207 225.744 111.24 222.207 127.818C218.67 144.395 225.649 159.953 237.794 162.567C249.939 165.18 262.652 153.861 266.189 137.283Z" fill="url(#paint0_linear_377_953)"/>
<path d="M239.297 150.263C241.117 152.564 245.791 163.49 238.462 162.453C236.596 162.179 234.745 162.758 231.256 159.832C229.951 158.69 235.124 144.975 239.297 150.263Z" fill="#666666"/>
<path d="M93.598 138.731C97.1515 122.196 90.2117 106.663 78.0975 104.037C65.9834 101.41 53.2822 112.686 49.7287 129.221C46.1752 145.756 53.115 161.289 65.2291 163.915C77.3433 166.541 90.0445 155.266 93.598 138.731Z" fill="url(#paint1_linear_377_953)"/>
<path d="M83.3563 142.659C82.1577 163.215 70.0806 163.246 63.42 161.813C60.268 161.1 57.4461 159.343 55.4073 156.826C53.3684 154.309 52.2309 151.176 52.1774 147.931C51.7677 136.96 59.1111 121.524 62.0545 114.011C62.7373 112.305 75.7095 75.3981 73.8585 69.6534C72.0075 63.9086 58.4587 66.9562 53.376 67.7639C40.8437 69.7143 4.82477 73.1124 4.82477 73.1124V200H142.467V73.1124L94.0831 67.4286C88.9397 66.8953 88.2418 70.9334 86.937 76.0077C86.0115 79.5581 85.2681 83.322 84.8281 85.0591C82.8101 92.8915 80.6102 108.328 81.2474 117.059C81.7633 124.312 83.5991 138.469 83.3563 142.659Z" fill="url(#paint2_linear_377_953)"/>
<path d="M99.9245 22.4C96.4652 31.5429 91.7466 44.419 87.7867 57.5543C79.2295 86.4 75.7551 111.451 78.5771 130.194C79.5482 136.61 80.0944 141.73 78.5771 146.743C78.092 148.411 77.2025 149.933 75.9883 151.172C74.7741 152.41 73.2731 153.327 71.6196 153.841C69.966 154.354 68.2116 154.448 66.5133 154.113C64.8149 153.779 63.2256 153.026 61.8877 151.924C52.3291 144.183 62.707 128.61 86.1633 58.2857C90.9729 43.84 100.698 11.5657 109.453 2.07239C109.437 2.07239 101.942 17.1429 99.9245 22.4Z" fill="#040000" stroke="#040000" stroke-width="2.71" stroke-linecap="round" stroke-linejoin="round"/>
<path d="M59.5359 152.442C59.5359 152.442 61.569 155.855 70.0503 156.312C70.0503 156.312 76.1192 163.49 65.8931 162.408C62.7981 162.196 59.8593 160.964 57.5332 158.903C56.2283 157.806 56.0463 155.413 59.5359 152.442Z" fill="#666666"/>
<path d="M70.6092 149.605C71.481 144.948 69.5775 140.681 66.3576 140.073C63.1377 139.464 59.8207 142.746 58.9488 147.403C58.077 152.059 59.9804 156.327 63.2003 156.935C66.4203 157.543 69.7373 154.261 70.6092 149.605Z" fill="#E7E69A"/>
<path d="M255.926 142.659C254.727 163.215 242.65 163.246 235.974 161.813C232.825 161.095 230.006 159.337 227.968 156.821C225.93 154.304 224.79 151.175 224.731 147.931C224.337 136.96 231.68 121.524 234.624 114.011C235.307 112.305 248.279 75.3981 246.428 69.6534C244.577 63.9086 231.028 66.9562 225.945 67.7639C213.413 69.7143 177.394 73.1124 177.394 73.1124V200H315.052V73.1124L266.652 67.4286C261.509 66.8953 260.811 70.9334 259.506 76.0077C258.581 79.5581 257.837 83.322 257.397 85.0591C255.379 92.8915 253.179 108.328 253.817 117.059C254.333 124.312 256.168 138.469 255.926 142.659Z" fill="url(#paint3_linear_377_953)"/>
<path d="M267.821 35.718C264.999 43.1542 261.251 53.6228 258.004 64.3809C251.04 87.8323 248.218 108.206 250.509 123.429C251.298 128.655 251.708 132.815 250.509 136.884C250.116 138.243 249.394 139.483 248.406 140.492C247.419 141.501 246.197 142.249 244.851 142.667C243.505 143.086 242.077 143.162 240.695 142.889C239.312 142.616 238.018 142.003 236.93 141.105C229.162 134.811 237.613 122.149 256.654 64.9142C260.553 53.1809 268.458 26.9409 275.589 19.2C275.559 19.2 269.444 31.4514 267.821 35.718Z" fill="#040000" stroke="#040000" stroke-width="2.2" stroke-linecap="round" stroke-linejoin="round"/>
<path d="M250.008 133.599C251.063 127.967 248.76 122.804 244.865 122.069C240.97 121.333 236.957 125.303 235.902 130.935C234.848 136.567 237.151 141.73 241.046 142.465C244.941 143.201 248.953 139.232 250.008 133.599Z" fill="#E7E69A"/>
<path d="M438.092 118.457C441.646 101.922 434.706 86.3886 422.592 83.7625C410.477 81.1364 397.776 92.4117 394.223 108.947C390.669 125.482 397.609 141.015 409.723 143.641C421.837 146.267 434.539 134.991 438.092 118.457Z" fill="url(#paint4_linear_377_953)"/>
<path d="M424.019 119.741C422.957 135.238 413.656 137.371 406.738 136.198C404.098 135.84 401.67 134.556 399.882 132.574C398.093 130.591 397.061 128.037 396.967 125.364C396.572 114.392 404.796 99.3067 407.754 91.84C408.437 90.1181 417.085 75.4438 415.189 69.699C413.292 63.9543 399.774 66.9562 394.767 67.7638C382.25 69.7143 346.216 73.1124 346.216 73.1124V200H483.874V73.1124L435.398 67.4286C430.27 66.8952 429.557 70.9333 428.252 76.0076C427.342 79.5581 423.7 93.5009 423.367 99.1238C422.881 108.312 424.307 115.55 424.019 119.741Z" fill="url(#paint5_linear_377_953)"/>
<path d="M438.296 36.5867C435.595 42.3772 431.909 50.5295 428.753 58.88C421.789 77.1657 418.329 93.3791 419.27 105.707C419.589 109.928 419.665 113.326 418.436 116.465C418.04 117.528 417.387 118.477 416.537 119.225C415.687 119.973 414.666 120.499 413.564 120.754C412.462 121.009 411.315 120.986 410.225 120.687C409.134 120.388 408.134 119.822 407.314 119.04C401.473 113.524 408.983 103.893 427.6 59.2762C431.423 50.1334 439.313 29.5924 445.457 23.8324C445.457 23.8324 439.844 33.28 438.296 36.5867Z" fill="#040000" stroke="#040000" stroke-width="1.76" stroke-linecap="round" stroke-linejoin="round"/>
<path d="M614.112 17.9047C612.246 21.0742 609.682 25.5238 607.391 30.0952C602.369 40.2133 599.471 49.2647 599.319 56.3809C599.428 58.4701 599.054 60.5562 598.227 62.4761C597.941 63.0629 597.514 63.5691 596.986 63.9495C596.457 64.3299 595.842 64.5725 595.197 64.6556C594.552 64.7386 593.896 64.6596 593.289 64.4255C592.682 64.1914 592.142 63.8095 591.718 63.3142C588.683 59.8247 593.523 54.7352 606.708 30.2171C609.424 25.1885 615.083 13.8818 618.937 10.9257C618.937 11.0476 615.189 16.0914 614.112 17.9047Z" fill="#040000" stroke="#040000" stroke-width="1.02" stroke-linecap="round" stroke-linejoin="round"/>
<path d="M418.233 113.869C419.411 109.421 417.878 105.15 414.808 104.33C411.739 103.51 408.296 106.452 407.119 110.901C405.941 115.35 407.474 119.621 410.543 120.441C413.612 121.26 417.055 118.318 418.233 113.869Z" fill="#E7E69A"/>
<path d="M404.705 147.855C406.434 151.131 407.618 166.263 397.377 159.878C396.663 159.258 396.135 158.451 395.854 157.546C395.572 156.641 395.548 155.676 395.783 154.758C397.043 149.501 402.034 142.811 404.705 147.855Z" fill="#666666"/>
<path d="M608.273 118.464C611.827 101.929 604.887 86.3961 592.773 83.77C580.659 81.1439 567.957 92.4192 564.404 108.954C560.85 125.489 567.79 141.022 579.904 143.648C592.019 146.274 604.72 134.999 608.273 118.464Z" fill="url(#paint6_linear_377_953)"/>
<path d="M594.206 119.741C593.129 135.238 583.843 137.371 576.925 136.198C574.285 135.84 571.857 134.556 570.069 132.574C568.281 130.591 567.248 128.037 567.154 125.364C566.759 114.392 574.983 99.3067 577.941 91.84C578.609 90.1181 587.272 75.4438 585.376 69.699C583.479 63.9543 569.961 67.0019 564.878 67.8095C552.361 69.76 516.327 73.1581 516.327 73.1581V200H653.985V73.1124L605.661 67.4286C600.533 66.8952 599.82 70.9333 598.515 76.0076C597.605 79.5581 593.963 93.501 593.63 99.1238C593.068 108.312 594.494 115.55 594.206 119.741Z" fill="url(#paint7_linear_377_953)"/>
<path d="M598.973 60.8364C600.212 57.8447 599.541 54.7201 597.475 53.8573C595.409 52.9945 592.731 54.7203 591.492 57.712C590.253 60.7037 590.924 63.8283 592.989 64.6911C595.055 65.5539 597.734 63.8281 598.973 60.8364Z" fill="#E7E69A"/>
<path d="M574.892 147.855C576.621 151.131 577.805 166.263 567.564 159.878C566.863 159.25 566.35 158.438 566.082 157.534C565.815 156.63 565.802 155.669 566.046 154.758C567.23 149.501 572.282 142.811 574.892 147.855Z" fill="#666666"/>
<path d="M9.72542 48.6704V50.8799H15.7943V51.5504C15.5395 52.6683 15.1683 53.7562 14.6868 54.7961L13.4275 54.4457C13.8151 53.7167 14.1302 52.9511 14.3681 52.1599H9.6799V55.5733H14.3378V56.7618C13.5334 58.7555 12.2388 60.5118 10.5751 61.8666C12.485 62.9534 14.5241 63.7931 16.644 64.3656L15.9157 65.478C13.6708 64.8555 11.529 63.9057 9.55852 62.659C7.63855 63.9466 5.52923 64.9236 3.30756 65.5542L2.59447 64.3961C4.66152 63.8521 6.63926 63.0104 8.46612 61.8971C6.71343 60.5892 5.3665 58.8084 4.58203 56.7618H3.45927C3.43174 59.7646 2.5927 62.7035 1.03173 65.2647L0 64.3504C1.48079 61.8999 2.2433 59.0795 2.19997 56.2133V50.8799H8.39025V48.6704H9.72542ZM8.39025 55.5733V52.1904H3.45927V55.6037L8.39025 55.5733ZM9.52817 61.1352C11.0259 59.9895 12.215 58.4862 12.9874 56.7618H5.84133C6.66283 58.5219 7.93517 60.0312 9.52817 61.1352Z" fill="#4D4D4D"/>
<path d="M26.1873 48.5333V49.3105H33.2273V50.2248H26.1873V50.9562H34.4562V51.4438C34.2659 52.3294 33.9705 53.1889 33.5762 54.0038L32.3624 53.6686C32.6718 53.1128 32.9211 52.5253 33.1059 51.9162H26.1873V52.8914L31.3155 52.5562L31.4521 53.3486L26.1873 53.6686V53.9886C26.1873 54.1257 26.3694 54.2171 26.7487 54.2171H32.5748V55.0248H26.3542C25.4135 55.0248 24.928 54.72 24.928 54.0952V53.7143L21.7267 53.9124L21.6205 53.12L24.928 52.9067V51.8552H20.8922V56.7619C20.9401 59.7673 20.4254 62.755 19.375 65.5695L18.2371 64.5638C19.1495 62.077 19.597 59.4424 19.557 56.7924V51.0019H24.8522V48.5333H26.1873ZM32.9086 64.3809C32.9086 65.0362 32.4383 65.3714 31.4976 65.3714H29.6314L29.3887 64.4876H31.2093C31.4976 64.4876 31.6493 64.2743 31.6493 63.8781V63.5886C29.2521 63.8476 26.7032 64.0457 24.0632 64.2286L23.8508 63.4057C26.5818 63.2533 29.2066 63.0705 31.7252 62.8419V60.9371H24.1391V61.5771C25.6462 61.5771 26.8296 61.6381 27.6894 61.76C28.4176 61.76 29.3887 61.8514 30.5873 61.9581L30.299 62.6286C29.2369 62.5371 28.1901 62.4609 27.1432 62.4152C26.0963 62.3695 25.1404 62.3086 24.1087 62.2629C24.0149 63.5301 23.4774 64.7232 22.5915 65.6305L21.666 64.7771C22.0668 64.3786 22.3846 63.9038 22.6008 63.3805C22.8171 62.8573 22.9273 62.296 22.9253 61.7295V60.2057H33.0452L32.9086 64.3809ZM33.4852 55.5886V59.4133H21.9543V55.6495L33.4852 55.5886ZM27.1584 57.1124V56.3352H23.2287V57.1124H27.1584ZM27.1584 57.8286H23.2287V58.5752H27.1584V57.8286ZM28.4025 57.1124H32.15V56.3352H28.3418L28.4025 57.1124ZM32.2107 57.8286H28.4025V58.5752H32.15L32.2107 57.8286Z" fill="#4D4D4D"/>
<path d="M114.596 33.5086C113.367 33.5086 112.775 32.8533 112.775 31.5428V28.3733L106.585 28.9981V27.7181L112.775 27.0933V24.0457L108.026 24.5486V23.2686L112.775 22.7657V19.7181C111.258 19.8857 109.604 19.9924 107.966 20.0686L107.571 18.9409C111.752 18.767 115.907 18.2008 119.982 17.2495L120.619 18.3467C118.48 18.8731 116.312 19.275 114.126 19.5505V22.5981L120.938 21.8667V23.2381L114.126 23.9848V27.0324L122.47 26.1943V27.4743L114.126 28.3124V31.36C114.126 32.0152 114.414 32.3352 115.006 32.3352H119.891C120.076 32.357 120.263 32.3398 120.441 32.2847C120.618 32.2295 120.783 32.1378 120.923 32.0152C121.333 31.3495 121.524 30.5712 121.469 29.7905L122.759 30.1867C122.805 31.2389 122.507 32.2773 121.909 33.1428C121.394 33.4849 120.78 33.6456 120.164 33.6L114.596 33.5086Z" fill="#4D4D4D"/>
<path d="M102.018 163.825C100.789 163.825 100.198 163.169 100.198 161.859V158.689L94.0073 159.314V158.034L100.198 157.409V154.362L95.4487 154.88V153.6L100.198 153.082V150.034C98.6804 150.202 97.0266 150.309 95.388 150.385L94.9935 149.257C99.1746 149.091 103.33 148.524 107.404 147.566L108.042 148.663C105.901 149.187 103.733 149.594 101.548 149.882V152.929L108.36 152.198V153.463L101.548 154.209V157.257L109.893 156.419V157.699L101.548 158.537V161.585C101.548 162.24 101.836 162.575 102.428 162.575H107.313C107.499 162.599 107.688 162.581 107.867 162.523C108.045 162.465 108.208 162.369 108.345 162.24C108.755 161.574 108.946 160.796 108.891 160.015L110.181 160.411C110.227 161.464 109.929 162.502 109.331 163.368C108.819 163.716 108.203 163.878 107.586 163.825H102.018Z" fill="#4D4D4D"/>
<path d="M125.96 154.286V156.358H123.897V157.074H127.599V157.821H123.897V158.552H126.931V159.269H123.897V160.061H128.357V160.899H125.641L126.521 161.31C126.084 161.77 125.601 162.183 125.08 162.545C126.207 162.884 127.367 163.103 128.539 163.2L128.069 164.16C125.653 163.985 123.343 163.088 121.439 161.585L122.061 161.006C122.708 161.499 123.417 161.904 124.17 162.21C124.685 161.841 125.145 161.399 125.535 160.899H118.541C118.292 161.111 118.029 161.305 117.752 161.478V163.246C119.087 163.048 120.437 162.834 121.788 162.59L121.909 163.52C120.139 163.794 118.333 164.038 116.493 164.251L116.235 163.459C116.523 163.459 116.69 163.276 116.69 163.154V162.042C115.519 162.557 114.305 162.97 113.064 163.276L112.502 162.362C114.203 162.085 115.858 161.572 117.418 160.838H112.563V160H117.008V159.208H113.974V158.491H117.008V157.76H113.139V157.013H117.008V156.297H114.991V154.194H119.815V156.297H118.298V157.013H122.607V156.297H121.09V154.286H125.96ZM119.77 148.19V147.413H121.12V148.19H128.236V149.105H121.12V149.714H126.552V152.091H121.12V152.792H128.145V155.17H126.961V153.57H113.928V155.17H112.745V152.792H119.77V152.091H114.323V149.714H119.77V148.983H112.669V148.19H119.77ZM119.77 150.568H115.506V151.482H119.77V150.568ZM118.693 154.85H116.098V155.779H118.632L118.693 154.85ZM122.607 157.821H118.298V158.552H122.607V157.821ZM122.607 159.269H118.298V160.061H122.607V159.269ZM125.368 150.568H121.12V151.482H125.368V150.568ZM124.837 154.865H122.182V155.779H124.837V154.865Z" fill="#4D4D4D"/>
</g>
<defs>
<linearGradient id="paint0_linear_377_953" x1="237.877" y1="162.616" x2="250.795" y2="102.592" gradientUnits="userSpaceOnUse">
<stop offset="0.09" stop-color="#E7CFCB"/>
<stop offset="0.54" stop-color="#FDF5EF"/>
<stop offset="0.72" stop-color="#FDF5ED"/>
<stop offset="0.8" stop-color="#FCF3E6"/>
<stop offset="0.86" stop-color="#FCF0D9"/>
<stop offset="0.91" stop-color="#FBEBC8"/>
<stop offset="0.95" stop-color="#F9E6B0"/>
<stop offset="0.99" stop-color="#F8DF95"/>
<stop offset="1" stop-color="#F7DC88"/>
</linearGradient>
<linearGradient id="paint1_linear_377_953" x1="65.2969" y1="163.961" x2="78.2754" y2="104.091" gradientUnits="userSpaceOnUse">
<stop offset="0.09" stop-color="#E7CFCB"/>
<stop offset="0.54" stop-color="#FDF5EF"/>
<stop offset="0.72" stop-color="#FDF5ED"/>
<stop offset="0.8" stop-color="#FCF3E6"/>
<stop offset="0.86" stop-color="#FCF0D9"/>
<stop offset="0.91" stop-color="#FBEBC8"/>
<stop offset="0.95" stop-color="#F9E6B0"/>
<stop offset="0.99" stop-color="#F8DF95"/>
<stop offset="1" stop-color="#F7DC88"/>
</linearGradient>
<linearGradient id="paint2_linear_377_953" x1="73.6613" y1="44.8153" x2="73.6613" y2="213.318" gradientUnits="userSpaceOnUse">
<stop offset="0.09" stop-color="#DF958A"/>
<stop offset="0.54" stop-color="#F8CCA9"/>
<stop offset="0.72" stop-color="#F8CCA7"/>
<stop offset="0.8" stop-color="#F7CCA0"/>
<stop offset="0.86" stop-color="#F7CB93"/>
<stop offset="0.91" stop-color="#F6CB82"/>
<stop offset="0.96" stop-color="#F4CA6A"/>
<stop offset="0.99" stop-color="#F2C94F"/>
<stop offset="1" stop-color="#F2C94A"/>
</linearGradient>
<linearGradient id="paint3_linear_377_953" x1="246.231" y1="44.8153" x2="246.231" y2="213.318" gradientUnits="userSpaceOnUse">
<stop offset="0.09" stop-color="#DF958A"/>
<stop offset="0.54" stop-color="#F8CCA9"/>
<stop offset="0.72" stop-color="#F8CCA7"/>
<stop offset="0.8" stop-color="#F7CCA0"/>
<stop offset="0.86" stop-color="#F7CB93"/>
<stop offset="0.91" stop-color="#F6CB82"/>
<stop offset="0.96" stop-color="#F4CA6A"/>
<stop offset="0.99" stop-color="#F2C94F"/>
<stop offset="1" stop-color="#F2C94A"/>
</linearGradient>
<linearGradient id="paint4_linear_377_953" x1="409.791" y1="143.687" x2="422.77" y2="83.8166" gradientUnits="userSpaceOnUse">
<stop offset="0.09" stop-color="#E7CFCB"/>
<stop offset="0.54" stop-color="#FDF5EF"/>
<stop offset="0.72" stop-color="#FDF5ED"/>
<stop offset="0.8" stop-color="#FCF3E6"/>
<stop offset="0.86" stop-color="#FCF0D9"/>
<stop offset="0.91" stop-color="#FBEBC8"/>
<stop offset="0.95" stop-color="#F9E6B0"/>
<stop offset="0.99" stop-color="#F8DF95"/>
<stop offset="1" stop-color="#F7DC88"/>
</linearGradient>
<linearGradient id="paint5_linear_377_953" x1="414.992" y1="44.8152" x2="414.992" y2="213.318" gradientUnits="userSpaceOnUse">
<stop offset="0.09" stop-color="#DF958A"/>
<stop offset="0.54" stop-color="#F8CCA9"/>
<stop offset="0.72" stop-color="#F8CCA7"/>
<stop offset="0.8" stop-color="#F7CCA0"/>
<stop offset="0.86" stop-color="#F7CB93"/>
<stop offset="0.91" stop-color="#F6CB82"/>
<stop offset="0.96" stop-color="#F4CA6A"/>
<stop offset="0.99" stop-color="#F2C94F"/>
<stop offset="1" stop-color="#F2C94A"/>
</linearGradient>
<linearGradient id="paint6_linear_377_953" x1="579.99" y1="143.682" x2="592.969" y2="83.8125" gradientUnits="userSpaceOnUse">
<stop offset="0.09" stop-color="#E7CFCB"/>
<stop offset="0.54" stop-color="#FDF5EF"/>
<stop offset="0.72" stop-color="#FDF5ED"/>
<stop offset="0.8" stop-color="#FCF3E6"/>
<stop offset="0.86" stop-color="#FCF0D9"/>
<stop offset="0.91" stop-color="#FBEBC8"/>
<stop offset="0.95" stop-color="#F9E6B0"/>
<stop offset="0.99" stop-color="#F8DF95"/>
<stop offset="1" stop-color="#F7DC88"/>
</linearGradient>
<linearGradient id="paint7_linear_377_953" x1="585.163" y1="44.8152" x2="585.163" y2="213.318" gradientUnits="userSpaceOnUse">
<stop offset="0.09" stop-color="#DF958A"/>
<stop offset="0.54" stop-color="#F8CCA9"/>
<stop offset="0.72" stop-color="#F8CCA7"/>
<stop offset="0.8" stop-color="#F7CCA0"/>
<stop offset="0.86" stop-color="#F7CB93"/>
<stop offset="0.91" stop-color="#F6CB82"/>
<stop offset="0.96" stop-color="#F4CA6A"/>
<stop offset="0.99" stop-color="#F2C94F"/>
<stop offset="1" stop-color="#F2C94A"/>
</linearGradient>
<clipPath id="clip0_377_953">
<rect width="654" height="200" fill="white"/>
</clipPath>
</defs>
</svg>
