<svg width="153" height="50" viewBox="0 0 153 50" fill="none" xmlns="http://www.w3.org/2000/svg">
<path d="M7.03305 26.0208C4.02413 26.0208 2.09768 25.2934 0 23.1968L4.16478 19.0648C4.51085 19.4872 4.94957 19.8244 5.44696 20.0502C5.94434 20.276 6.48705 20.3843 7.03305 20.3667C8.99007 20.3667 10.4028 19.2787 10.4028 16.8154V0.00610352H16.7448V16.9743C16.7448 23.099 11.8889 26.0208 7.03305 26.0208Z" fill="white"/>
<path d="M35.6667 25.8191L34.4742 21.9743H26.5238L25.2517 25.8191H18.6284L28.0221 0.0183105H32.9147L42.3084 25.8191H35.6667ZM30.6274 9.79827L28.3096 16.687H32.8046L30.6274 9.79827Z" fill="white"/>
<path d="M58.0379 25.8191L53.7936 17.8729L49.5493 25.8191H42.3083L50.3505 12.5734L42.8098 0H50.0264L53.7936 7.27996L57.5976 0.0183367H64.808L57.2368 12.5734L65.285 25.8008L58.0379 25.8191Z" fill="white"/>
<path d="M99.1109 25.8191H93.9248L89.7539 13.099L85.583 25.8191H80.4397L73.3333 0.0183105H79.9627L83.3385 13.643L87.5033 0.0183105H92.0045L96.1692 13.643L99.5451 0.0183105H106.175L99.1109 25.8191Z" fill="white"/>
<path d="M122.626 25.8191L121.433 21.9743H113.483L112.211 25.8191H105.587L114.981 0.0183105H119.874L129.261 25.8191H122.626ZM117.586 9.79827L115.269 16.687H119.764L117.586 9.79827Z" fill="white"/>
<path d="M144.997 25.8191L140.753 17.8729L136.514 25.8191H129.261L137.309 12.5733L129.763 0.0183105H136.979L140.771 7.29827L144.544 0.0183105H151.755L144.196 12.5733L152.244 25.8007L144.997 25.8191Z" fill="white"/>
<path d="M40.7489 49.8594V48.747C39.7948 49.7005 38.9141 50 37.3302 50C35.7462 50 34.7494 49.725 34.0277 48.9792C33.4928 48.3793 33.2025 47.6006 33.2143 46.7971C33.2143 44.7494 34.6821 43.5697 37.1223 43.5697H40.7489V42.3167C40.7489 40.5257 39.8621 39.5722 37.5871 39.5722C36.0031 39.5722 35.1897 39.9695 34.4925 40.9902L33.6363 40.2445C34.5904 38.9242 35.7707 38.5269 37.5871 38.5269C40.5348 38.5269 41.9292 39.8533 41.9292 42.1944V49.8594H40.7489ZM40.7489 44.5172H37.2629C35.3304 44.5172 34.4008 45.2873 34.4008 46.7727C34.4008 48.258 35.3059 48.9548 37.3302 48.9548C38.3515 48.9548 39.33 48.8631 40.119 48.0991C40.5348 47.7017 40.7305 47.0049 40.7305 45.9597L40.7489 44.5172Z" fill="white"/>
<path d="M53.2004 49.8595V48.5148C52.4059 49.3744 51.3103 49.8948 50.1416 49.9677C48.9729 50.0405 47.8211 49.6603 46.9257 48.906C46.5309 48.4934 46.2242 48.0047 46.0245 47.4698C45.8247 46.9349 45.736 46.365 45.7638 45.7947V38.6431H46.9502V45.5808C46.9502 47.7385 48.0449 48.9243 50.0447 48.9243C52.0446 48.9243 53.2004 47.7018 53.2004 45.5808V38.6431H54.3869V49.8595H53.2004Z" fill="white"/>
<path d="M61.9825 49.9755C61.1581 50.0283 60.3315 49.9136 59.5526 49.6384C58.7738 49.3631 58.0588 48.933 57.4508 48.374L58.2642 47.5611C58.7431 48.0371 59.3182 48.4056 59.951 48.6417C60.5838 48.8778 61.2597 48.9762 61.9336 48.9303C64.1169 48.9303 65.3034 48.1662 65.3034 46.6564C65.3034 45.4951 64.6306 44.9144 63.169 44.7738L61.3343 44.6087C59.0776 44.4254 57.9645 43.429 57.9645 41.687C57.9645 39.7554 59.5424 38.5024 61.9825 38.5024C63.3847 38.4665 64.7612 38.8822 65.9088 39.6882L65.1199 40.4767C64.2042 39.8293 63.1038 39.4948 61.9825 39.5232C60.1478 39.5232 59.1265 40.3178 59.1265 41.687C59.1265 42.8484 59.8237 43.429 61.4015 43.5696L63.2362 43.7285C65.071 43.8936 66.5081 44.4743 66.5081 46.6564C66.4653 48.698 64.7224 49.9755 61.9825 49.9755Z" fill="white"/>
<path d="M72.8868 49.8595C71.1194 49.8595 70.1898 48.637 70.1898 46.9377V39.5233H68.6547V38.6431H70.1898V35.0673H71.3762V38.6431H73.9081V39.5233H71.3762V46.9316C71.3762 48.0929 71.9083 48.7653 73.0947 48.7653H73.9081V49.8595H72.8868Z" fill="white"/>
<path d="M83.3324 40.434C83.0735 40.1314 82.7472 39.8935 82.3798 39.7396C82.0123 39.5857 81.6138 39.52 81.2164 39.5477C79.2899 39.5477 78.2197 41.1247 78.2197 42.9401V49.8595H77.0394V38.6431H78.2197V40.1284C78.5876 39.6062 79.0801 39.1841 79.6525 38.9002C80.2249 38.6163 80.8591 38.4796 81.4977 38.5025C81.9976 38.4784 82.4968 38.5613 82.962 38.7458C83.4271 38.9303 83.8474 39.212 84.1947 39.5722L83.3324 40.434Z" fill="white"/>
<path d="M93.5028 49.8594V48.747C92.5488 49.7005 91.6681 50 90.0903 50C88.5124 50 87.5094 49.725 86.7878 48.9792C86.2522 48.3821 85.9617 47.605 85.9744 46.8032C85.9744 44.7555 87.436 43.5758 89.8762 43.5758H93.5028V42.3228C93.5028 40.5318 92.6222 39.5782 90.341 39.5782C88.7632 39.5782 87.9498 39.9756 87.2526 40.9963L86.3903 40.2506C87.3443 38.9303 88.5308 38.533 90.341 38.533C93.2949 38.533 94.6893 39.8594 94.6893 42.2005V49.8594H93.5028ZM93.5028 44.5171H90.0108C88.0843 44.5171 87.1547 45.2873 87.1547 46.7726C87.1547 48.258 88.0598 48.9548 90.0841 48.9548C90.5827 49.0081 91.087 48.9598 91.5663 48.8127C92.0457 48.6656 92.4902 48.4228 92.8729 48.099C93.2888 47.7017 93.4845 47.0049 93.4845 45.9597L93.5028 44.5171Z" fill="white"/>
<path d="M101.3 49.8594C99.4656 49.8594 98.6033 48.6981 98.6033 46.956V33.3252H99.7958V46.9377C99.7958 48.1907 100.187 48.8142 101.514 48.8142H102.328V49.8594H101.3Z" fill="white"/>
<path d="M105.765 34.9023C105.591 34.9059 105.421 34.8579 105.275 34.7644C105.129 34.6708 105.014 34.536 104.944 34.377C104.875 34.218 104.855 34.042 104.886 33.8714C104.917 33.7009 104.998 33.5434 105.119 33.4191C105.24 33.2948 105.396 33.2092 105.565 33.1733C105.735 33.1373 105.912 33.1527 106.072 33.2173C106.233 33.282 106.372 33.393 106.469 33.5363C106.567 33.6796 106.62 33.8487 106.621 34.0221C106.623 34.2518 106.534 34.473 106.373 34.6377C106.213 34.8024 105.995 34.8975 105.765 34.9023V34.9023ZM105.153 49.835V38.6431H106.34V49.8595L105.153 49.835Z" fill="white"/>
<path d="M116.975 49.8594V48.747C116.027 49.7005 115.14 50 113.562 50C111.984 50 110.981 49.725 110.26 48.9792C109.725 48.3793 109.435 47.6006 109.446 46.7971C109.446 44.7494 110.914 43.5697 113.354 43.5697H116.975V42.3167C116.975 40.5257 116.094 39.5722 113.819 39.5722C112.235 39.5722 111.422 39.9695 110.725 40.9902L109.868 40.2445C110.822 38.9242 112.003 38.5269 113.819 38.5269C116.767 38.5269 118.161 39.8533 118.161 42.1944V49.8594H116.975ZM116.975 44.5172H113.489C111.562 44.5172 110.633 45.2873 110.633 46.7727C110.633 48.258 111.538 48.9548 113.562 48.9548C114.584 48.9548 115.562 48.8631 116.351 48.0991C116.767 47.7017 116.963 47.0049 116.963 45.9597L116.975 44.5172Z" fill="white"/>
</svg>
