<svg width="242" height="293" viewBox="0 0 242 293" fill="none" xmlns="http://www.w3.org/2000/svg">
<path d="M193.408 9.864L186.664 27H188.776L190.6 22.2H198.472L200.296 27H202.432L195.688 9.864H193.408ZM191.224 20.544L194.512 11.976H194.608L197.848 20.544H191.224ZM208.894 9.864C207.838 9.864 207.022 10.152 206.47 10.752C205.942 11.328 205.678 12.12 205.678 13.176V14.592H202.558V16.2H205.678V27H207.598V16.2H211.102V14.592H207.598V13.224C207.598 12.624 207.718 12.192 207.958 11.928C208.198 11.64 208.605 11.52 209.134 11.52H211.27V9.864H208.894ZM216.191 10.584L214.295 11.376V14.592H211.799V16.2H214.295V24.096C214.295 25.032 214.487 25.728 214.895 26.208C215.327 26.736 216.071 27 217.079 27H218.951V25.392H217.367C216.935 25.392 216.623 25.272 216.455 25.08C216.263 24.888 216.191 24.552 216.191 24.096V16.2H219.263V14.592H216.191V10.584ZM226.522 14.256C224.722 14.256 223.306 14.904 222.25 16.2C221.194 17.424 220.69 18.96 220.69 20.784C220.69 22.8 221.218 24.384 222.322 25.584C223.378 26.736 224.818 27.336 226.594 27.336C228.202 27.336 229.522 26.856 230.554 25.944C231.394 25.176 231.946 24.216 232.234 23.016H230.314C230.002 23.88 229.594 24.528 229.066 24.96C228.442 25.464 227.602 25.728 226.594 25.728C225.418 25.728 224.482 25.344 223.81 24.576C223.138 23.808 222.778 22.728 222.682 21.336H232.474C232.426 19.176 231.946 17.472 231.034 16.272C230.026 14.928 228.514 14.256 226.522 14.256ZM226.57 15.864C228.922 15.864 230.242 17.184 230.482 19.848H222.73C222.85 18.624 223.234 17.664 223.906 16.944C224.578 16.224 225.466 15.864 226.57 15.864ZM240.17 14.256C239.306 14.256 238.562 14.52 237.914 15.048C237.386 15.456 236.954 16.032 236.618 16.752V14.592H234.722V27H236.618V20.424C236.618 19.272 236.93 18.288 237.602 17.472C238.25 16.608 239.066 16.2 240.026 16.2C240.626 16.2 241.25 16.272 241.874 16.464V14.544C241.418 14.352 240.842 14.256 240.17 14.256Z" fill="#E2B250"/>
<g clip-path="url(#clip0_377_955)">
<path d="M237.86 121.4C236.41 121.82 232.3 123.6 232.3 123.6C228.59 124.01 222.3 126.5 222.3 126.5C209.41 128.02 201.47 120.62 189.3 118.26C183.76 117.18 156.81 93.5 138.78 77.44C129.47 69.14 108.16 49.01 102.58 42.71C102.17 42.2433 101.792 41.7488 101.45 41.23C99.9 38.82 98.0201 29.35 88.79 30.04C79.56 30.73 18.79 77.21 18.79 77.21C27.33 93.13 47.79 114.36 47.79 114.36C71.07 100.22 86 70.52 86 70.52C86.33 79.66 95.4 87.08 103.37 91.87C103.37 91.87 120.97 102.63 133.56 106.93C144.01 110.49 157.98 122.62 168.51 130.87C170.12 132.13 167.62 140.29 173.58 145.19C179.54 150.09 187.98 146.91 193.64 145.41C199.3 143.91 202.87 145.59 208.18 147.79C213.49 149.99 218.24 148.93 221.18 146.1C222.68 144.64 226.6 141.3 226.6 141.3C235.32 139.73 232.31 137.14 232.31 137.14C238.18 135.97 236.21 132.76 236.21 132.76C240.3 131.5 238.49 129.19 238.49 129.19C241.25 127.07 239.07 125.66 239.07 125.66C240.28 124.57 239.31 120.98 237.86 121.4Z" fill="#F4D1B1"/>
<path d="M98.75 47.35C98.6834 47.547 98.6696 47.7579 98.71 47.9619C98.7504 48.1659 98.8435 48.3558 98.98 48.5126C99.1166 48.6693 99.2919 48.7876 99.4884 48.8556C99.6849 48.9236 99.8958 48.9389 100.1 48.9C101.425 48.6433 102.79 48.6774 104.1 49C105.77 49.38 108.5 49.54 109.71 50.06C106.59 46.97 104.03 44.36 102.57 42.71C102.16 42.2433 101.782 41.7488 101.44 41.23C101.277 40.9589 101.13 40.6784 101 40.39L100.9 40.17L100.42 39.09C100.384 40.7074 100.176 42.3165 99.8 43.89C99.61 44.65 99.15 46.11 98.75 47.35Z" fill="#F4D1B1"/>
<path d="M212.66 146.13C210.929 145.934 209.241 145.461 207.66 144.73C205.174 143.711 202.559 143.038 199.89 142.73C196.63 142.43 193.56 143.22 190.33 143.29C187.422 143.282 184.542 142.725 181.84 141.65C178.911 140.667 176.371 138.775 174.59 136.25C172.98 134.05 171.82 131.4 169.95 129.38C161.67 122.28 151.57 113.12 141.95 108.04C137.75 105.82 133.42 103.83 129.09 101.87C124.05 99.65 97.93 86.65 92.91 76.86C92.2201 75.51 88.5001 66.6 87.8201 64.62C87.766 64.4593 87.6677 64.3171 87.5364 64.2099C87.4051 64.1026 87.2462 64.0346 87.0779 64.0137C86.9097 63.9928 86.739 64.0198 86.5854 64.0917C86.4319 64.1636 86.3018 64.2774 86.2101 64.42C85.4201 65.61 84.64 66.78 83.95 67.93C80.08 74.39 76.4001 81.04 71.1701 86.52C65.5761 92.552 59.5175 98.1358 53.05 103.22C49.9881 105.671 46.628 107.724 43.05 109.33C45.87 112.44 47.73 114.33 47.73 114.33C71.01 100.19 85.94 70.49 85.94 70.49C86.2701 79.63 95.34 87.05 103.31 91.84L103.85 92.17C106.59 93.81 119.85 101.68 130.85 105.92C131.53 106.17 132.2 106.43 132.85 106.67L133.49 106.9C135.666 107.665 137.77 108.619 139.78 109.75C140.23 109.99 140.68 110.25 141.12 110.5L141.65 110.81C144.576 112.566 147.41 114.472 150.14 116.52C151.59 117.59 154.63 119.87 156.07 120.99L156.34 121.2C157.71 122.27 159.07 123.35 160.45 124.46L160.93 124.84L164.05 127.35L164.52 127.72L166 128.9L166.52 129.32L166.64 129.41C167.294 129.843 167.91 130.331 168.48 130.87C168.572 130.95 168.65 131.044 168.71 131.15C168.759 131.191 168.806 131.234 168.85 131.28C168.855 131.33 168.855 131.38 168.85 131.43C168.95 131.702 169.021 131.983 169.06 132.27C169.4 133.83 169.27 135.6 169.47 137.14V137.35C169.618 138.372 169.866 139.377 170.21 140.35C170.209 140.373 170.209 140.397 170.21 140.42C170.386 140.903 170.593 141.374 170.83 141.83V141.9C171.08 142.379 171.367 142.837 171.69 143.27C172.011 143.695 172.362 144.096 172.74 144.47L173.03 144.73C173.372 145.052 173.736 145.349 174.12 145.62L174.19 145.67C177.082 147.47 180.522 148.179 183.89 147.67C187.57 147.09 191.17 145.67 194.89 145.14C195.32 145.06 195.75 144.99 196.16 144.94C196.3 144.94 196.44 144.94 196.58 144.88C196.87 144.865 197.16 144.865 197.45 144.88H197.53C198.671 144.849 199.811 144.97 200.92 145.24H201.05C201.35 145.307 201.65 145.387 201.95 145.48C204.052 146.137 206.115 146.912 208.13 147.8C208.559 147.972 208.996 148.122 209.44 148.25C209.85 148.38 210.26 148.51 210.67 148.6H210.83C212.738 149.039 214.725 148.995 216.611 148.471C218.497 147.947 220.222 146.96 221.63 145.6C223.35 144 226.49 141.33 226.51 141.3C222.3 144.58 218.05 146.43 212.66 146.13Z" fill="#E7B1A0"/>
<path d="M231.62 126.45C231.69 126.45 232.78 125.66 239.04 125.45C239.068 125.449 239.095 125.454 239.121 125.464C239.147 125.474 239.171 125.49 239.19 125.51L239.05 125.65C238.846 125.628 238.641 125.656 238.45 125.73C238.336 125.757 238.228 125.805 238.13 125.87C232.73 126.33 231.96 126.87 231.9 126.87C231.872 126.888 231.84 126.9 231.807 126.905C231.775 126.911 231.741 126.91 231.708 126.902C231.676 126.895 231.645 126.881 231.618 126.862C231.591 126.843 231.568 126.818 231.55 126.79C231.532 126.762 231.52 126.73 231.515 126.697C231.509 126.665 231.51 126.631 231.517 126.598C231.525 126.566 231.539 126.535 231.558 126.508C231.577 126.481 231.602 126.458 231.63 126.44L231.62 126.45Z" fill="#DA8666"/>
<path d="M230.05 129.49C230.12 129.49 232.7 127.87 238.46 128.95C238.487 128.955 238.512 128.966 238.534 128.982C238.557 128.997 238.576 129.017 238.59 129.04L238.4 129.19C238.051 129.126 237.694 129.106 237.34 129.13C232.34 128.71 230.34 129.91 230.34 129.91C230.312 129.927 230.28 129.938 230.248 129.943C230.215 129.948 230.182 129.947 230.15 129.939C230.118 129.931 230.088 129.917 230.061 129.897C230.035 129.878 230.012 129.853 229.995 129.825C229.978 129.797 229.967 129.765 229.962 129.733C229.957 129.7 229.958 129.667 229.966 129.635C229.974 129.603 229.988 129.573 230.008 129.546C230.027 129.52 230.052 129.497 230.08 129.48L230.05 129.49Z" fill="#DA8666"/>
<path d="M228.48 132.65C230.959 131.63 233.731 131.572 236.25 132.49C236.284 132.502 236.316 132.522 236.342 132.548C236.368 132.574 236.388 132.605 236.4 132.64L236.16 132.72C235.75 132.42 235.246 132.278 234.74 132.32C230.57 132.07 228.74 133.05 228.74 133.08C228.682 133.112 228.613 133.119 228.549 133.1C228.486 133.082 228.432 133.038 228.4 132.98C228.368 132.922 228.361 132.853 228.38 132.789C228.398 132.725 228.442 132.672 228.5 132.64L228.48 132.65Z" fill="#DA8666"/>
<path d="M226.45 136.83C226.68 136.69 228.32 135.83 232.36 136.91C232.397 136.924 232.43 136.949 232.455 136.98C232.48 137.012 232.495 137.05 232.5 137.09L232.26 137.14C231.974 137.044 231.665 137.044 231.38 137.14C227.9 136.3 226.74 137.26 226.68 137.28C226.623 137.313 226.555 137.322 226.491 137.305C226.428 137.288 226.373 137.247 226.34 137.19C226.319 137.16 226.306 137.126 226.3 137.09C226.295 137.055 226.297 137.018 226.308 136.983C226.318 136.949 226.337 136.917 226.361 136.89C226.386 136.864 226.416 136.843 226.45 136.83Z" fill="#DA8666"/>
<path d="M234.05 122.87C234.05 122.87 234.23 124.69 235.4 124.51C236.57 124.33 239.08 124.21 238.68 123.06C238.517 122.473 238.282 121.909 237.98 121.38C237.98 121.38 238.55 120.92 234.05 122.87Z" fill="#F4C6BD"/>
<path d="M235.4 125.93C235.4 125.93 235.04 127.83 236.82 127.93C238.6 128.03 239.33 127 238.88 125.63L235.4 125.93Z" fill="#F4C6BD"/>
<path d="M234.88 129.06C234.88 129.06 234.24 130.77 235.88 131.06C237.52 131.35 238.58 130.38 238.19 129.14C238.21 129.12 234.88 129.06 234.88 129.06Z" fill="#F4C6BD"/>
<path d="M232.61 132.4C232.61 132.4 231.95 133.98 233.51 134.28C235.07 134.58 236.06 133.73 235.7 132.6C235.68 132.54 232.61 132.4 232.61 132.4Z" fill="#F4C6BD"/>
<path d="M228.98 137.01C228.98 137.01 228.43 138.43 229.9 138.63C231.75 138.88 232.16 137.31 231.9 137.07C231.307 136.962 230.702 136.925 230.1 136.96C229.47 136.96 228.98 137.01 228.98 137.01Z" fill="#F4C6BD"/>
<path d="M181.26 88.7C181.26 88.7 149.98 83.36 134.9 53.26" stroke="#EB76A1" stroke-width="1.86" stroke-miterlimit="10"/>
<path d="M132.02 48.13L138.55 52.01L131.92 55.73L132.02 48.13Z" fill="#EB76A1"/>
<path d="M147.56 45.2L147.06 45.83C146.185 46.2104 145.282 46.5246 144.36 46.77L145.88 47.97L145.47 48.5C144.701 49.1501 143.842 49.6857 142.92 50.09C142.964 50.213 142.994 50.3404 143.01 50.47C143.106 51.0154 143.288 51.542 143.55 52.03C143.925 52.5695 144.376 53.0513 144.89 53.46C145.51 53.94 146.2 54.46 147 55.13C147.8 55.8 148.77 56.48 150 57.39L149.22 58.02L146.52 55.9C145.67 55.23 144.93 54.63 144.29 54.09C143.679 53.6259 143.151 53.0612 142.73 52.42C142.395 51.867 142.177 51.2509 142.09 50.61C142.071 50.48 142.003 50.3621 141.9 50.28C141.65 50.08 140.9 50.28 139.69 50.86L139.51 49.86C140.82 49.25 141.75 49.09 142.32 49.36C143.126 49.0139 143.882 48.5634 144.57 48.02L142.88 46.7L143.36 46.09C144.3 45.8878 145.22 45.6034 146.11 45.24L144.41 43.91L144.98 43.18L147.56 45.2ZM153.12 50.37L153.87 50.95L151.58 53.87L148.91 51.78C147.756 52.6306 146.342 53.0546 144.91 52.98L144.72 51.98C145.9 52.0891 147.081 51.7928 148.07 51.14L146.05 49.53L148.27 46.65L149.02 47.24L147.34 49.38L148.86 50.57C149.288 50.2062 149.686 49.8083 150.05 49.38L151.34 47.73L148.4 45.42L148.99 44.67L150.99 46.27C151.132 45.5901 151.232 44.9022 151.29 44.21L152.2 44.41C152.139 45.1433 152.029 45.8717 151.87 46.59L151.24 46.47L152.65 47.58C153.429 47.2227 154.184 46.8151 154.91 46.36L155.45 47.21C154.811 47.597 154.143 47.9314 153.45 48.21L155.53 49.85L154.95 50.59L152.05 48.33L150.75 49.98C150.395 50.4098 150.015 50.8172 149.61 51.2L151.36 52.57L153.12 50.37ZM148.38 44.15L147.46 44.26C147.42 43.2479 147.276 42.2426 147.03 41.26L147.95 41.16C148.18 42.1424 148.324 43.1428 148.38 44.15Z" fill="#EB76A1"/>
<path d="M163.95 53.74C163.412 54.1768 162.821 54.5431 162.19 54.83L167.05 58.65L161.28 66C161.195 66.1596 161.075 66.2974 160.928 66.4027C160.782 66.5079 160.613 66.5778 160.435 66.6069C160.256 66.636 160.074 66.6234 159.901 66.5701C159.729 66.5169 159.571 66.4245 159.44 66.3L157.78 65L158.19 64L159.78 65.3C159.838 65.3588 159.91 65.4033 159.988 65.4301C160.066 65.4569 160.15 65.4654 160.232 65.4547C160.314 65.4441 160.393 65.4147 160.462 65.3688C160.531 65.3229 160.588 65.2617 160.63 65.19L165.63 58.77L158.49 53.17L152.44 60.88L151.64 60.26L158.29 51.79L161.29 54.16C161.961 53.8445 162.59 53.4446 163.16 52.97L163.95 53.74ZM162.88 59.11L159.88 62.97L155.81 59.77L158.81 55.92L162.88 59.11ZM161.52 59.25L158.99 57.25L157.14 59.65L159.67 61.65L161.52 59.25Z" fill="#EB76A1"/>
<path d="M163.16 69.06L163.57 68.22C163.8 68.43 164.01 68.63 164.24 68.81C164.47 68.99 164.78 68.95 165.04 68.62L167.1 65.98C166.61 65.86 166.1 65.73 165.66 65.58L166.07 64.58C166.614 64.8008 167.172 64.9846 167.74 65.13L169.74 62.64L168.67 61.8L169.27 61.04L170.33 61.88L171.92 59.88L172.68 60.48L171.1 62.48L171.83 63.06L171.24 63.82L170.5 63.24L168.83 65.37C169.21 65.43 169.58 65.48 169.96 65.52L169.32 66.33L168.2 66.18L165.68 69.38C165.16 70.04 164.61 70.14 164.01 69.67L163.16 69.06ZM168.99 70.12C168.043 70.6255 167.035 71.0054 165.99 71.25L165.71 70.35C166.712 70.1289 167.678 69.7688 168.58 69.28L168.99 70.12ZM173.05 62.88L173.99 61.68L174.69 62.23L173.75 63.43L174.96 64.43L175.96 63.22L176.66 63.78L175.72 64.98L176.28 65.42L175.74 66.11L175.17 65.67L171.7 70.1L172.15 70.46L171.6 71.16L167.88 68.25L168.44 67.54L169.08 68.05L172.55 63.62L172.08 63.24L172.62 62.55L173.05 62.88ZM169.89 72.58L169.03 72.37C169.269 71.7191 169.456 71.0503 169.59 70.37L170.38 70.68C170.271 71.3261 170.107 71.9618 169.89 72.58ZM179.99 67.58C179.001 67.3172 178.064 66.8877 177.22 66.31L175.55 68.44L177.91 70.29L177.36 70.98L176.72 70.48L172.11 76.36L171.39 75.8L176.05 69.89L175.05 69.1L174.16 70.25C172.905 71.8988 171.225 73.1745 169.3 73.94L169.22 72.94C170.896 72.2369 172.354 71.0974 173.44 69.64L177.03 65.07C177.941 65.8203 179.006 66.3599 180.15 66.65L179.99 67.58ZM170.94 69.58L171.83 68.45L170.62 67.45L169.73 68.59L170.94 69.58ZM172.34 67.81L173.13 66.81L171.92 65.86L171.12 66.86L172.34 67.81ZM173.63 66.15L174.42 65.15L173.21 64.15L172.42 65.15L173.63 66.15Z" fill="#EB76A1"/>
<path d="M185.77 71.44L185.27 72.06C184.2 72.84 183.03 73.61 181.77 74.37C181.715 75.568 181.354 76.7318 180.72 77.75C180.461 78.1479 180.061 78.4336 179.6 78.55C178.917 78.5165 178.268 78.2398 177.77 77.77L178.14 76.77C178.3 76.93 178.42 77.06 178.53 77.15C178.767 77.3454 179.055 77.4702 179.36 77.51C179.475 77.4892 179.584 77.4457 179.682 77.3822C179.78 77.3187 179.864 77.2363 179.93 77.14C180.598 76.1855 180.948 75.0448 180.93 73.88C182.28 73.07 183.44 72.29 184.42 71.56L182.87 70.34L175.87 79.27L175.05 78.65L182.64 68.97L185.77 71.44ZM182.63 79.44C181.524 80.0217 180.348 80.4586 179.13 80.74L178.85 79.74C180.023 79.5073 181.155 79.103 182.21 78.54L182.63 79.44ZM179.95 82.27L180.38 81.36C180.72 81.66 181.06 81.96 181.38 82.22C181.7 82.48 181.78 82.32 181.98 82.07L184.4 78.98L181.82 76.98L182.42 76.21L185 78.21L186 76.91L184.55 75.77L185.13 75.03L188.74 77.87L188.16 78.61L186.82 77.55L185.82 78.85L188.29 80.79L187.68 81.56L185.22 79.65L182.65 82.95C182.577 83.0837 182.474 83.1989 182.349 83.2867C182.225 83.3746 182.082 83.4328 181.931 83.4569C181.781 83.4811 181.627 83.4704 181.481 83.4259C181.335 83.3814 181.201 83.3041 181.09 83.2L179.95 82.27ZM189.61 73.96C189.397 75.7175 189.649 77.5002 190.34 79.13L189.34 79.44C188.699 77.8562 188.452 76.1404 188.62 74.44C186.954 74.9658 185.198 75.1428 183.46 74.96L183.54 73.96C185.322 74.1716 187.129 73.9837 188.83 73.41L189.61 73.96ZM185.39 84.81L184.39 84.74C184.671 83.5949 184.875 82.4323 185 81.26L185.91 81.37C185.82 82.5409 185.646 83.7038 185.39 84.85V84.81Z" fill="#EB76A1"/>
<path d="M184.32 102.73C184.99 101.51 187.74 98.81 187.32 97.07C187.03 95.82 185.95 96.5 185.22 95.88C184.49 95.26 185.13 97.94 184.32 97.71C180.87 96.71 177.02 98.84 174.32 100.63C171.4 102.63 167.24 98.14 164.94 96.5C161.65 94.14 159.19 90.31 156.16 87.6C152.74 84.6 148.84 82.87 145.46 79.82C142.46 77.11 140.23 73.69 137.05 71.31C134.052 69.2316 131.193 66.9602 128.49 64.51C127.16 63.23 125.33 62.45 124.11 60.94C122.89 59.43 122.26 57.07 120.85 55.72C119.85 54.79 117.32 53.12 116.78 55.95C116.27 58.6 118.41 59.44 119.53 60.42C121.08 61.76 120.64 62.42 121.02 64.84C121.34 66.9 123.02 71.95 124.26 73.35C130.63 80.44 135.82 85.97 143.15 91.05C149.67 95.57 159.2 102.05 165.45 107.05C168.04 109.11 171.9 108.2 175.12 105.27C177.12 103.46 178.44 105.12 180.34 102.66C181.68 100.98 183.11 104.96 184.32 102.73Z" fill="url(#paint0_linear_377_955)"/>
<path d="M219.05 181.24C219.05 181.24 220.51 173.99 209.42 179.41C194.11 186.89 168.71 195.11 142.61 192.87C134.71 192.2 117.61 190.27 119.13 214.19C119.7 222.98 128.52 233.42 150.28 230.6C157.28 229.69 162.74 227.83 176.83 220.6C171.17 228.03 179.61 228.5 179.61 228.5C184.83 228.04 183.96 217.44 183.96 217.44V216.59C188.344 213.956 192.49 210.945 196.35 207.59C196.193 208.151 196.177 208.741 196.303 209.31C196.428 209.878 196.692 210.407 197.07 210.85C197.85 211.71 200.26 213.53 201.71 210.79C202.71 208.86 201.04 207.06 201.32 203.08C207.2 198 215.97 191.72 219.05 181.24Z" fill="#E79D93"/>
<path d="M193.76 209.65C190.223 212.736 186.426 215.509 182.41 217.94C180.287 219.277 178.098 220.506 175.85 221.62L175.6 221.74C162.78 228.27 157.88 229.95 151.5 230.74C131.55 233.32 123.5 223.74 122.94 215.69C121.52 193.76 137.23 195.52 144.47 196.15C168.4 198.15 191.69 190.66 205.73 183.8C215.9 178.8 214.56 185.47 214.56 185.47C211.78 195.09 203.67 200.77 198.32 205.47C197.17 206.48 193.76 209.65 193.76 209.65Z" fill="#ECB6B0"/>
<path d="M193.05 210.48C189.931 213.182 186.585 215.611 183.05 217.74C181.191 218.912 179.271 219.987 177.3 220.96L177.09 221.07C165.85 226.79 161.56 228.26 155.97 228.99C138.48 231.26 131.4 222.86 130.97 215.8C129.73 196.58 143.49 198.13 149.84 198.67C170.84 200.47 191.22 193.87 203.52 187.85C212.43 183.5 211.26 189.32 211.26 189.32C208.83 197.75 201.72 202.72 197.03 206.85C195.99 207.74 193.05 210.48 193.05 210.48Z" fill="#EFCDC8"/>
<path d="M206.05 166.11C206.05 166.11 170.93 193.52 125.42 180.71" stroke="#EB76A1" stroke-width="2.62" stroke-miterlimit="10"/>
<path d="M117.36 178.84L127.57 175.74L125.16 186.13L117.36 178.84Z" fill="#EB76A1"/>
<path d="M137.32 165.3L136.78 166.05C136.013 165.404 135.182 164.837 134.3 164.36L134.84 163.62C135.715 164.106 136.544 164.668 137.32 165.3ZM137.55 166.61L137.68 167.4C137.37 168.302 136.996 169.181 136.56 170.03L138.46 169.71L138.57 170.38C138.537 171.4 138.358 172.41 138.04 173.38C138.16 173.426 138.274 173.487 138.38 173.56C138.847 173.859 139.361 174.079 139.9 174.21C140.563 174.314 141.237 174.314 141.9 174.21L144.56 173.78C145.51 173.62 146.75 173.38 148.27 173.07L148.21 174.07L144.83 174.64C143.76 174.82 142.83 174.96 141.99 175.08C141.232 175.211 140.458 175.211 139.7 175.08C139.064 174.956 138.461 174.701 137.93 174.33C137.822 174.257 137.689 174.228 137.56 174.25C137.24 174.3 136.89 174.98 136.5 176.25L135.66 175.72C136.09 174.34 136.6 173.55 137.18 173.3C137.465 172.477 137.64 171.619 137.7 170.75L135.59 171.1L135.46 170.34C135.94 169.51 136.348 168.64 136.68 167.74L134.56 168.09L134.4 167.18L137.55 166.61ZM145.11 165.98L146.05 165.82L146.66 169.48L143.32 170.05C143.168 171.462 142.536 172.778 141.53 173.78L140.68 173.26C141.543 172.47 142.117 171.414 142.31 170.26L139.72 170.69L139.11 167.11L140.05 166.96L140.5 169.64L142.41 169.32C142.417 168.758 142.38 168.196 142.3 167.64L141.95 165.57L138.26 166.19L138.11 165.25L140.66 164.82C140.255 164.255 139.815 163.717 139.34 163.21L140.1 162.67C140.605 163.211 141.072 163.786 141.5 164.39L140.98 164.77L142.75 164.47C143.014 163.656 143.218 162.824 143.36 161.98L144.36 162.16C144.203 162.893 143.986 163.612 143.71 164.31L146.32 163.87L146.48 164.81L142.9 165.41L143.25 167.48C143.33 168.033 143.374 168.591 143.38 169.15L145.57 168.78L145.11 165.98Z" fill="#EB76A1"/>
<path d="M154.9 160.24C154.85 160.919 154.723 161.59 154.52 162.24L160.61 161.24L162.16 170.45C162.31 171.35 161.96 171.88 161.16 172.02L159.09 172.37L158.64 171.37L160.64 171.08C160.723 171.075 160.803 171.051 160.876 171.01C160.948 170.969 161.01 170.912 161.057 170.844C161.104 170.775 161.135 170.697 161.148 170.615C161.16 170.533 161.154 170.449 161.13 170.37L159.78 162.37L150.83 163.87L152.45 173.54L151.45 173.71L149.66 163.09L153.46 162.45C153.677 161.742 153.801 161.01 153.83 160.27L154.9 160.24ZM158.14 164.66L158.96 169.49L153.86 170.35L153.05 165.51L158.14 164.66ZM157.33 165.76L154.17 166.29L154.67 169.29L157.83 168.75L157.33 165.76Z" fill="#EB76A1"/>
<path d="M165.69 171.16L165.35 170.28C165.65 170.28 165.95 170.28 166.24 170.18C166.53 170.08 166.7 169.88 166.63 169.47L166.07 166.16C165.65 166.45 165.23 166.72 164.8 166.96L164.37 166.01C164.898 165.754 165.41 165.463 165.9 165.14L165.38 162.02L164.04 162.24L163.88 161.24L165.22 161.02L164.79 158.49L165.74 158.33L166.17 160.86L167.1 160.7L167.26 161.7L166.33 161.86L166.78 164.53C167.08 164.29 167.36 164.04 167.65 163.8L167.82 164.8L166.95 165.52L167.62 169.52C167.76 170.35 167.46 170.83 166.71 170.95L165.69 171.16ZM167.78 159.65L167.53 158.15L168.41 158L168.67 159.5L170.19 159.25L169.93 157.74L170.82 157.59L171.07 159.1L171.77 158.98L171.92 159.85L171.22 159.97L172.15 165.52L172.72 165.43L172.87 166.31L168.21 167.1L168.06 166.21L168.86 166.08L167.93 160.52L167.33 160.62L167.19 159.75L167.78 159.65ZM170.4 167.52C170.137 168.568 169.737 169.577 169.21 170.52L168.36 170.12C168.876 169.23 169.26 168.27 169.5 167.27L170.4 167.52ZM170.54 161.38L170.33 160.12L168.81 160.37L169.05 161.65L170.54 161.38ZM170.89 163.45L170.68 162.18L169.16 162.43L169.37 163.7L170.89 163.45ZM171.27 165.67L171.03 164.25L169.51 164.5L169.75 165.93L171.27 165.67ZM172.82 168.52L172.1 169.01C171.769 168.394 171.395 167.803 170.98 167.24L171.74 166.86C172.148 167.391 172.51 167.956 172.82 168.55V168.52ZM175.91 157.65C175.048 158.206 174.098 158.612 173.1 158.85L173.55 161.51L176.55 161.02L176.69 161.89L175.89 162.02L177.13 169.4L176.23 169.55L174.99 162.17L173.74 162.38L173.98 163.82C174.355 165.855 174.168 167.953 173.44 169.89L172.67 169.31C173.283 167.599 173.424 165.755 173.08 163.97L172.08 158.24C173.243 158.03 174.348 157.573 175.32 156.9L175.91 157.65Z" fill="#EB76A1"/>
<path d="M182.67 156.04L182.81 156.83C182.663 158.163 182.443 159.543 182.15 160.97C182.998 161.817 183.614 162.867 183.94 164.02C184.062 164.48 184.005 164.97 183.78 165.39C183.296 165.875 182.653 166.169 181.97 166.22L181.47 165.27H182.02C182.324 165.23 182.609 165.101 182.84 164.9C182.904 164.802 182.947 164.692 182.966 164.577C182.985 164.461 182.979 164.343 182.95 164.23C182.675 163.103 182.057 162.09 181.18 161.33C181.49 159.79 181.7 158.41 181.82 157.19L179.88 157.52L181.76 168.65L180.76 168.81L178.76 156.68L182.67 156.04ZM187.16 154.93C188.311 156.274 189.798 157.289 191.47 157.87L191.04 158.81C189.426 158.226 187.983 157.25 186.84 155.97C186.104 157.552 185.048 158.965 183.74 160.12L183.04 159.38C184.395 158.205 185.471 156.743 186.19 155.1L187.16 154.93ZM186.79 167.65L186.4 166.72C186.86 166.67 187.31 166.62 187.72 166.55C187.97 166.55 188.07 166.32 188.02 166L187.37 162.14L184.13 162.68L183.97 161.68L187.2 161.14L186.93 159.51L185.11 159.82L184.95 158.89L189.48 158.13L189.64 159.05L187.95 159.34L188.23 160.97L191.32 160.45L191.48 161.45L188.39 161.97L189.08 166.09C189.21 166.85 188.91 167.3 188.22 167.41L186.79 167.65ZM186.5 163.76C186.186 164.968 185.719 166.131 185.11 167.22L184.2 166.77C184.816 165.743 185.278 164.631 185.57 163.47L186.5 163.76ZM192.34 165.33L191.6 166.04C190.948 165.056 190.227 164.12 189.44 163.24L190.13 162.64C190.924 163.495 191.662 164.4 192.34 165.35V165.33Z" fill="#EB76A1"/>
<path d="M213.809 272.048C217.941 266.545 218.813 260.223 215.757 257.929C212.701 255.634 206.874 258.235 202.742 263.738C198.61 269.241 197.738 275.562 200.794 277.857C203.851 280.152 209.678 277.551 213.809 272.048Z" fill="url(#paint1_linear_377_955)"/>
<path d="M213.2 244.12C215.09 243.93 216.08 245.41 215.29 247.24C214.73 248.52 214.18 249.77 213.95 250.24C213.51 251.24 213.06 252.15 212.6 253.1C210.643 256.549 208.423 259.842 205.96 262.95C205.4 263.71 204.83 264.49 204.28 265.29C203.194 266.811 202.306 268.464 201.64 270.21C200.3 273.98 201.26 276.62 203.98 276.62C205.316 276.547 206.604 276.092 207.69 275.31C208.93 274.51 212.89 270.97 215.69 261.31L216.09 260.25C217.09 257.6 218.15 254.93 219.22 252.25L220.49 249.06C220.64 248.67 220.9 247.98 221.18 247.22C221.542 246.32 222.17 245.551 222.979 245.016C223.787 244.48 224.74 244.202 225.71 244.22L241.81 246.22V291.07H192.91L192.63 246.22L213.2 244.12Z" fill="url(#paint2_linear_377_955)"/>
<path d="M241.77 290.93H192.91V292.96H241.77V290.93Z" fill="#E61E31"/>
<path d="M165.547 271.824C169.772 266.35 170.721 260.001 167.665 257.642C164.609 255.283 158.707 257.807 154.481 263.28C150.255 268.754 149.307 275.103 152.363 277.462C155.418 279.821 161.321 277.297 165.547 271.824Z" fill="url(#paint3_linear_377_955)"/>
<path d="M164.67 244.12C166.59 243.93 167.6 245.41 166.79 247.24C166.22 248.52 165.67 249.77 165.44 250.24C164.99 251.24 164.53 252.15 164.06 253.1C162.073 256.551 159.823 259.844 157.33 262.95C156.76 263.71 156.17 264.49 155.62 265.29C154.515 266.806 153.614 268.46 152.94 270.21C151.58 273.98 152.56 276.62 155.32 276.62C156.672 276.546 157.975 276.092 159.08 275.31C160.33 274.51 164.35 270.97 167.16 261.31L167.56 260.25C168.56 257.6 169.66 254.93 170.74 252.25L172.05 249.05L172.75 247.21C173.125 246.304 173.765 245.533 174.586 244.998C175.407 244.463 176.37 244.188 177.35 244.21L193.4 246.21L193.68 291.06H144.05L143.76 246.21L164.67 244.12Z" fill="url(#paint4_linear_377_955)"/>
<path d="M193.67 290.93H144.08V292.96H193.67V290.93Z" fill="#E61E31"/>
<path d="M116.945 271.729C121.077 266.226 121.949 259.905 118.892 257.61C115.836 255.315 110.009 257.916 105.877 263.419C101.745 268.922 100.874 275.244 103.93 277.538C106.986 279.833 112.813 277.232 116.945 271.729Z" fill="url(#paint5_linear_377_955)"/>
<path d="M116.05 244.12C117.94 243.93 118.93 245.41 118.14 247.24C117.58 248.52 117.03 249.77 116.8 250.24C116.36 251.24 115.91 252.15 115.45 253.1C113.493 256.549 111.273 259.842 108.81 262.95C108.25 263.71 107.67 264.49 107.13 265.29C106.044 266.811 105.157 268.464 104.49 270.21C103.15 273.98 104.11 276.62 106.83 276.62C108.167 276.547 109.454 276.092 110.54 275.31C111.78 274.51 115.74 270.97 118.54 261.31L118.94 260.25C119.94 257.6 121 254.93 122.07 252.25L123.34 249.06C123.49 248.67 123.75 247.98 124.03 247.22C124.392 246.32 125.02 245.551 125.829 245.016C126.637 244.48 127.59 244.202 128.56 244.22L144.38 246.22L144.66 291.07H95.7101L95.4301 246.22L116.05 244.12Z" fill="url(#paint6_linear_377_955)"/>
<path d="M144.57 290.93H95.71V292.96H144.57V290.93Z" fill="#E61E31"/>
<path d="M68.8387 271.732C72.9704 266.229 73.8423 259.907 70.7861 257.613C67.7299 255.318 61.9028 257.919 57.771 263.422C53.6393 268.925 52.7674 275.246 55.8236 277.541C58.8799 279.836 64.7069 277.235 68.8387 271.732Z" fill="url(#paint7_linear_377_955)"/>
<path d="M67.8899 244.12C69.7899 243.93 70.7799 245.41 69.9799 247.24C69.42 248.52 68.8799 249.77 68.6499 250.24C68.2099 251.24 67.7599 252.15 67.2899 253.1C65.3359 256.549 63.1193 259.842 60.66 262.95C60.0999 263.71 59.5199 264.49 58.9799 265.29C57.8861 266.806 56.9983 268.46 56.34 270.21C55 273.98 55.9599 276.62 58.6799 276.62C60.0164 276.547 61.304 276.092 62.3899 275.31C63.6199 274.51 67.5799 270.97 70.3899 261.31L70.78 260.25C71.78 257.6 72.85 254.93 73.91 252.25L75.1799 249.06C75.3399 248.67 75.5899 247.98 75.8699 247.22C76.233 246.318 76.8617 245.549 77.6726 245.013C78.4835 244.477 79.4382 244.2 80.41 244.22L96.2199 246.22L96.4999 291.07H47.6L47.3199 246.22L67.8899 244.12Z" fill="url(#paint8_linear_377_955)"/>
<path d="M96.47 290.93H47.61V292.96H96.47V290.93Z" fill="#E61E31"/>
<path d="M21.2326 271.735C25.3644 266.232 26.2363 259.911 23.18 257.616C20.1238 255.321 14.2967 257.922 10.165 263.425C6.03318 268.928 5.1613 275.249 8.21754 277.544C11.2738 279.839 17.1008 277.238 21.2326 271.735Z" fill="url(#paint9_linear_377_955)"/>
<path d="M20.2801 244.12C22.1801 243.93 23.17 245.41 22.37 247.24C21.81 248.52 21.27 249.77 21.04 250.24C20.6 251.24 20.15 252.15 19.69 253.1C17.7299 256.55 15.5102 259.846 13.05 262.96C12.49 263.72 11.91 264.5 11.37 265.3C10.2762 266.816 9.38843 268.47 8.73005 270.22C7.39005 273.99 8.35005 276.65 11.05 276.65C12.3865 276.577 13.6741 276.122 14.76 275.34C15.99 274.54 19.95 271 22.76 261.34L23.15 260.28C24.15 257.63 25.2201 254.96 26.2801 252.28L27.5601 249.09C27.7101 248.7 27.9701 248.01 28.2401 247.25C28.6042 246.349 29.2332 245.58 30.0439 245.044C30.8545 244.509 31.8086 244.232 32.7801 244.25L48.59 246.25L48.87 291.1H0.0500488V246.18L20.2801 244.12Z" fill="url(#paint10_linear_377_955)"/>
<path d="M48.86 290.93H0V292.96H48.86V290.93Z" fill="#E61E31"/>
<path d="M24.69 250.97C22.516 254.733 20.931 258.807 19.99 263.05C19.6993 265.085 19.042 267.05 18.05 268.85C16.66 271.18 13.51 272.92 11.98 271.32C10.26 269.52 12.84 265.68 22.09 251.97C22.09 251.97 37.54 226.53 46.41 228.97C46.41 228.94 38.36 226.36 24.69 250.97Z" fill="#040000" stroke="#040000" stroke-width="1.36" stroke-linecap="round" stroke-linejoin="round"/>
<path d="M209.18 209.71C209.82 213.25 209.837 216.874 209.23 220.42C208.801 222.096 208.716 223.841 208.98 225.55C209.42 227.62 211.61 229.15 213.51 227.73C215.65 226.12 214.67 222.73 211.14 210.58C211.14 210.58 206.14 188.05 197.44 190.24C197.44 190.24 205.45 187.91 209.18 209.71Z" fill="#040000" stroke="#040000" stroke-width="1.21" stroke-linecap="round" stroke-linejoin="round"/>
<path d="M132.94 234.27C125.85 248.46 123.43 252.46 119.94 252.93C116.83 253.34 116.13 250.62 117.6 248.31C118.973 246.393 120.64 244.706 122.54 243.31C126.354 240.262 129.646 236.614 132.29 232.51C135.53 227.27 139.91 218.76 147.45 212.28C147.45 212.28 139.83 221.28 137.9 224.33C136.31 226.78 134.18 231.77 132.94 234.27Z" fill="#040000" stroke="#040000" stroke-width="1.46" stroke-linecap="round" stroke-linejoin="round"/>
<path d="M70.05 251C68.59 255.81 65.11 260.46 62.6 263.28C60.9658 264.901 59.6139 266.784 58.6 268.85C57.6 271.23 59.08 273.49 62.28 272.43C65.9 271.22 67.09 266.89 69.89 252.85C69.89 252.85 72.89 238.35 73.28 236.95C73.28 236.95 74.44 232.07 77.75 229.66C75.5086 231.44 73.8993 233.895 73.16 236.66C73.16 236.66 71.11 247.38 70.05 251Z" fill="#040000" stroke="#040000" stroke-width="1.46" stroke-linecap="round" stroke-linejoin="round"/>
<path d="M172.93 221.91C172.367 226.05 170.722 229.969 168.16 233.27C166.886 234.709 165.956 236.419 165.44 238.27C165.314 238.859 165.336 239.469 165.503 240.048C165.67 240.626 165.978 241.154 166.398 241.585C166.819 242.015 167.34 242.335 167.914 242.516C168.488 242.697 169.099 242.732 169.69 242.62C172.94 242.02 173.24 237.76 173.18 223.77C173.18 223.77 173.18 209.32 173.34 207.96C173.34 207.96 173.5 203.12 176.21 201.22C175.27 202.007 174.514 202.991 173.996 204.102C173.478 205.213 173.209 206.424 173.21 207.65C173.21 207.65 173.29 218.37 172.93 221.91Z" fill="#040000" stroke="#040000" stroke-width="1.43" stroke-linecap="round" stroke-linejoin="round"/>
</g>
<defs>
<linearGradient id="paint0_linear_377_955" x1="199.569" y1="103.505" x2="158.632" y2="78.4494" gradientUnits="userSpaceOnUse">
<stop stop-color="#EAB0AC"/>
<stop offset="1" stop-color="#E99C97"/>
</linearGradient>
<linearGradient id="paint1_linear_377_955" x1="200.945" y1="278.791" x2="203.667" y2="256.16" gradientUnits="userSpaceOnUse">
<stop offset="0.09" stop-color="#E7CFCB"/>
<stop offset="0.54" stop-color="#FDF5EF"/>
<stop offset="0.72" stop-color="#FDF5ED"/>
<stop offset="0.8" stop-color="#FCF3E6"/>
<stop offset="0.86" stop-color="#FCF0D9"/>
<stop offset="0.91" stop-color="#FBEBC8"/>
<stop offset="0.95" stop-color="#F9E6B0"/>
<stop offset="0.99" stop-color="#F8DF95"/>
<stop offset="1" stop-color="#F7DC88"/>
</linearGradient>
<linearGradient id="paint2_linear_377_955" x1="217.19" y1="236.59" x2="217.19" y2="295.7" gradientUnits="userSpaceOnUse">
<stop offset="0.09" stop-color="#DF958A"/>
<stop offset="0.54" stop-color="#F8CCA9"/>
<stop offset="0.72" stop-color="#F8CCA7"/>
<stop offset="0.8" stop-color="#F7CCA0"/>
<stop offset="0.86" stop-color="#F7CB93"/>
<stop offset="0.91" stop-color="#F6CB82"/>
<stop offset="0.96" stop-color="#F4CA6A"/>
<stop offset="0.99" stop-color="#F2C94F"/>
<stop offset="1" stop-color="#F2C94A"/>
</linearGradient>
<linearGradient id="paint3_linear_377_955" x1="154.458" y1="279.553" x2="157.14" y2="257.091" gradientUnits="userSpaceOnUse">
<stop offset="0.09" stop-color="#E7CFCB"/>
<stop offset="0.54" stop-color="#FDF5EF"/>
<stop offset="0.72" stop-color="#FDF5ED"/>
<stop offset="0.8" stop-color="#FCF3E6"/>
<stop offset="0.86" stop-color="#FCF0D9"/>
<stop offset="0.91" stop-color="#FBEBC8"/>
<stop offset="0.95" stop-color="#F9E6B0"/>
<stop offset="0.99" stop-color="#F8DF95"/>
<stop offset="1" stop-color="#F7DC88"/>
</linearGradient>
<linearGradient id="paint4_linear_377_955" x1="168.72" y1="236.59" x2="168.72" y2="295.7" gradientUnits="userSpaceOnUse">
<stop offset="0.09" stop-color="#DF958A"/>
<stop offset="0.54" stop-color="#F8CCA9"/>
<stop offset="0.72" stop-color="#F8CCA7"/>
<stop offset="0.8" stop-color="#F7CCA0"/>
<stop offset="0.86" stop-color="#F7CB93"/>
<stop offset="0.91" stop-color="#F6CB82"/>
<stop offset="0.96" stop-color="#F4CA6A"/>
<stop offset="0.99" stop-color="#F2C94F"/>
<stop offset="1" stop-color="#F2C94A"/>
</linearGradient>
<linearGradient id="paint5_linear_377_955" x1="103.744" y1="278.619" x2="106.465" y2="255.998" gradientUnits="userSpaceOnUse">
<stop offset="0.09" stop-color="#E7CFCB"/>
<stop offset="0.54" stop-color="#FDF5EF"/>
<stop offset="0.72" stop-color="#FDF5ED"/>
<stop offset="0.8" stop-color="#FCF3E6"/>
<stop offset="0.86" stop-color="#FCF0D9"/>
<stop offset="0.91" stop-color="#FBEBC8"/>
<stop offset="0.95" stop-color="#F9E6B0"/>
<stop offset="0.99" stop-color="#F8DF95"/>
<stop offset="1" stop-color="#F7DC88"/>
</linearGradient>
<linearGradient id="paint6_linear_377_955" x1="119.99" y1="236.59" x2="119.99" y2="295.7" gradientUnits="userSpaceOnUse">
<stop offset="0.09" stop-color="#DF958A"/>
<stop offset="0.54" stop-color="#F8CCA9"/>
<stop offset="0.72" stop-color="#F8CCA7"/>
<stop offset="0.8" stop-color="#F7CCA0"/>
<stop offset="0.86" stop-color="#F7CB93"/>
<stop offset="0.91" stop-color="#F6CB82"/>
<stop offset="0.96" stop-color="#F4CA6A"/>
<stop offset="0.99" stop-color="#F2C94F"/>
<stop offset="1" stop-color="#F2C94A"/>
</linearGradient>
<linearGradient id="paint7_linear_377_955" x1="55.486" y1="278.694" x2="58.2081" y2="256.063" gradientUnits="userSpaceOnUse">
<stop offset="0.09" stop-color="#E7CFCB"/>
<stop offset="0.54" stop-color="#FDF5EF"/>
<stop offset="0.72" stop-color="#FDF5ED"/>
<stop offset="0.8" stop-color="#FCF3E6"/>
<stop offset="0.86" stop-color="#FCF0D9"/>
<stop offset="0.91" stop-color="#FBEBC8"/>
<stop offset="0.95" stop-color="#F9E6B0"/>
<stop offset="0.99" stop-color="#F8DF95"/>
<stop offset="1" stop-color="#F7DC88"/>
</linearGradient>
<linearGradient id="paint8_linear_377_955" x1="71.8899" y1="236.59" x2="71.8899" y2="295.7" gradientUnits="userSpaceOnUse">
<stop offset="0.09" stop-color="#DF958A"/>
<stop offset="0.54" stop-color="#F8CCA9"/>
<stop offset="0.72" stop-color="#F8CCA7"/>
<stop offset="0.8" stop-color="#F7CCA0"/>
<stop offset="0.86" stop-color="#F7CB93"/>
<stop offset="0.91" stop-color="#F6CB82"/>
<stop offset="0.96" stop-color="#F4CA6A"/>
<stop offset="0.99" stop-color="#F2C94F"/>
<stop offset="1" stop-color="#F2C94A"/>
</linearGradient>
<linearGradient id="paint9_linear_377_955" x1="7.72329" y1="278.771" x2="10.4453" y2="256.14" gradientUnits="userSpaceOnUse">
<stop offset="0.09" stop-color="#E7CFCB"/>
<stop offset="0.54" stop-color="#FDF5EF"/>
<stop offset="0.72" stop-color="#FDF5ED"/>
<stop offset="0.8" stop-color="#FCF3E6"/>
<stop offset="0.86" stop-color="#FCF0D9"/>
<stop offset="0.91" stop-color="#FBEBC8"/>
<stop offset="0.95" stop-color="#F9E6B0"/>
<stop offset="0.99" stop-color="#F8DF95"/>
<stop offset="1" stop-color="#F7DC88"/>
</linearGradient>
<linearGradient id="paint10_linear_377_955" x1="24.42" y1="236.59" x2="24.42" y2="295.7" gradientUnits="userSpaceOnUse">
<stop offset="0.09" stop-color="#DF958A"/>
<stop offset="0.54" stop-color="#F8CCA9"/>
<stop offset="0.72" stop-color="#F8CCA7"/>
<stop offset="0.8" stop-color="#F7CCA0"/>
<stop offset="0.86" stop-color="#F7CB93"/>
<stop offset="0.91" stop-color="#F6CB82"/>
<stop offset="0.96" stop-color="#F4CA6A"/>
<stop offset="0.99" stop-color="#F2C94F"/>
<stop offset="1" stop-color="#F2C94A"/>
</linearGradient>
<clipPath id="clip0_377_955">
<rect width="241.77" height="262.96" fill="white" transform="translate(0 30)"/>
</clipPath>
</defs>
</svg>
