<svg width="242" height="283" viewBox="0 0 242 283" fill="none" xmlns="http://www.w3.org/2000/svg">
<path d="M168.904 9.864V27H176.512C178.264 27 179.656 26.64 180.664 25.968C181.84 25.152 182.44 23.904 182.44 22.224C182.44 21.072 182.104 20.16 181.48 19.44C180.856 18.72 179.992 18.24 178.864 18.048C179.728 17.76 180.424 17.304 180.952 16.68C181.456 15.984 181.72 15.144 181.72 14.184C181.72 12.84 181.264 11.784 180.352 11.016C179.416 10.248 178.144 9.864 176.56 9.864H168.904ZM170.872 11.52H176.104C177.304 11.52 178.216 11.736 178.84 12.216C179.464 12.696 179.776 13.416 179.776 14.376C179.776 15.36 179.44 16.104 178.816 16.608C178.192 17.088 177.28 17.352 176.08 17.352H170.872V11.52ZM170.872 18.984H176.344C177.664 18.984 178.672 19.224 179.368 19.752C180.088 20.28 180.472 21.096 180.472 22.2C180.472 23.304 180.04 24.144 179.2 24.672C178.48 25.104 177.544 25.344 176.344 25.344H170.872V18.984ZM190.018 14.256C188.218 14.256 186.802 14.904 185.746 16.2C184.69 17.424 184.186 18.96 184.186 20.784C184.186 22.8 184.714 24.384 185.818 25.584C186.874 26.736 188.314 27.336 190.09 27.336C191.698 27.336 193.018 26.856 194.05 25.944C194.89 25.176 195.442 24.216 195.73 23.016H193.81C193.498 23.88 193.09 24.528 192.562 24.96C191.938 25.464 191.098 25.728 190.09 25.728C188.914 25.728 187.978 25.344 187.306 24.576C186.634 23.808 186.274 22.728 186.178 21.336H195.97C195.922 19.176 195.442 17.472 194.53 16.272C193.522 14.928 192.01 14.256 190.018 14.256ZM190.066 15.864C192.418 15.864 193.738 17.184 193.978 19.848H186.226C186.346 18.624 186.73 17.664 187.402 16.944C188.074 16.224 188.962 15.864 190.066 15.864ZM203.186 9.864C202.13 9.864 201.314 10.152 200.762 10.752C200.234 11.328 199.97 12.12 199.97 13.176V14.592H196.85V16.2H199.97V27H201.89V16.2H205.394V14.592H201.89V13.224C201.89 12.624 202.01 12.192 202.25 11.928C202.49 11.64 202.898 11.52 203.426 11.52H205.562V9.864H203.186ZM212.716 14.256C210.844 14.256 209.38 14.88 208.276 16.176C207.22 17.4 206.692 18.936 206.692 20.808C206.692 22.656 207.22 24.192 208.276 25.392C209.38 26.688 210.844 27.336 212.716 27.336C214.564 27.336 216.052 26.688 217.18 25.392C218.212 24.192 218.74 22.656 218.74 20.808C218.74 18.936 218.212 17.4 217.156 16.176C216.052 14.88 214.564 14.256 212.716 14.256ZM212.716 15.864C214.012 15.864 215.044 16.368 215.812 17.376C216.46 18.288 216.796 19.416 216.796 20.808C216.796 22.152 216.46 23.304 215.812 24.216C215.044 25.224 214.012 25.728 212.716 25.728C211.396 25.728 210.364 25.224 209.644 24.216C208.972 23.304 208.66 22.176 208.66 20.808C208.66 19.416 208.972 18.288 209.644 17.376C210.364 16.368 211.396 15.864 212.716 15.864ZM226.682 14.256C225.818 14.256 225.074 14.52 224.426 15.048C223.898 15.456 223.466 16.032 223.13 16.752V14.592H221.234V27H223.13V20.424C223.13 19.272 223.442 18.288 224.114 17.472C224.762 16.608 225.578 16.2 226.538 16.2C227.138 16.2 227.762 16.272 228.386 16.464V14.544C227.93 14.352 227.354 14.256 226.682 14.256ZM235.112 14.256C233.312 14.256 231.896 14.904 230.84 16.2C229.784 17.424 229.28 18.96 229.28 20.784C229.28 22.8 229.808 24.384 230.912 25.584C231.968 26.736 233.408 27.336 235.184 27.336C236.792 27.336 238.112 26.856 239.144 25.944C239.984 25.176 240.536 24.216 240.824 23.016H238.904C238.592 23.88 238.184 24.528 237.656 24.96C237.032 25.464 236.192 25.728 235.184 25.728C234.008 25.728 233.072 25.344 232.4 24.576C231.728 23.808 231.368 22.728 231.272 21.336H241.064C241.016 19.176 240.536 17.472 239.624 16.272C238.616 14.928 237.104 14.256 235.112 14.256ZM235.16 15.864C237.512 15.864 238.832 17.184 239.072 19.848H231.32C231.44 18.624 231.824 17.664 232.496 16.944C233.168 16.224 234.056 15.864 235.16 15.864Z" fill="#E2B250"/>
<g clip-path="url(#clip0_377_954)">
<path d="M167.71 199.45C144.93 193.57 94.25 172.68 73.79 186.99C73.79 186.99 51.23 205.46 81.66 224.39C81.66 224.39 99.66 237.78 151.44 237.78C184.67 237.78 194.05 238.78 206.89 235.93C218.89 233.23 241.3 216.04 223.89 197.61C220.67 194.21 213.89 193.61 205.35 194.99C196.81 196.37 181.66 203.06 167.71 199.45Z" fill="#E99C97"/>
<path d="M168.35 204.2C150.41 199.73 110.5 183.85 94.35 194.73C94.35 194.73 76.58 208.73 100.55 223.15C100.55 223.15 114.75 233.33 155.55 233.33C181.72 233.33 189.11 234.12 199.22 231.92C208.68 229.92 229.63 217.61 212.58 202.8C209.79 200.38 202.71 200.49 197.98 200.8C191.05 201.28 179.34 206.94 168.35 204.2Z" fill="#E9B7B0"/>
<path d="M167.27 208.57C154.27 205.32 125.35 193.82 113.67 201.7C113.67 201.7 100.79 211.87 118.16 222.3C118.16 222.3 128.46 229.67 157.98 229.67C176.98 229.67 182.3 230.25 189.62 228.67C196.48 227.18 212.92 218.32 199.3 207.56C197.19 205.89 192.16 205.89 188.72 206.12C183.71 206.45 175.22 210.55 167.27 208.57Z" fill="#F2CCC5"/>
<path d="M22.2505 261.701C25.6846 256.123 25.6968 249.895 22.2778 247.79C18.8588 245.685 13.3032 248.5 9.86906 254.078C6.43496 259.655 6.42276 265.883 9.8418 267.989C13.2608 270.094 18.8164 267.278 22.2505 261.701Z" fill="url(#paint0_linear_377_954)"/>
<path d="M29.61 234.12C28.6211 234.107 27.6523 234.4 26.836 234.958C26.0198 235.517 25.396 236.314 25.05 237.24C24.61 238.52 24.19 239.77 24.05 240.24C23.75 241.24 23.46 242.15 23.18 243.1C22.4858 246.337 22.1504 249.64 22.18 252.95C22.18 253.71 22.12 254.49 22.04 255.29C21.9053 256.982 21.5071 258.642 20.86 260.21C19.26 263.98 16.25 266.62 13.53 266.62C13.0092 266.635 12.4926 266.523 12.0241 266.295C11.5557 266.067 11.1495 265.729 10.84 265.31C10.22 264.51 9.01998 260.97 13.84 251.31L14.27 250.25C15.34 247.6 16.34 244.93 17.35 242.25L18.56 239.06C18.71 238.67 18.99 237.98 19.3 237.22C20.05 235.4 19.02 233.97 17.13 234.22L0.039978 236.22V281.07H48.85L48.57 236.22L29.61 234.12Z" fill="url(#paint1_linear_377_954)"/>
<path d="M48.86 280.93H0V282.96H48.86V280.93Z" fill="#E61E31"/>
<path d="M70.2574 261.396C73.6915 255.818 73.7037 249.59 70.2846 247.485C66.8656 245.38 61.31 248.195 57.8759 253.773C54.4418 259.35 54.4296 265.578 57.8486 267.683C61.2677 269.788 66.8232 266.973 70.2574 261.396Z" fill="url(#paint2_linear_377_954)"/>
<path d="M78.26 234.12C77.2672 234.112 76.2953 234.406 75.4736 234.963C74.6519 235.52 74.0194 236.314 73.66 237.24C73.22 238.52 72.79 239.77 72.66 240.24C72.35 241.24 72.06 242.15 71.78 243.1C71.0777 246.335 70.7422 249.64 70.78 252.95C70.78 253.71 70.72 254.49 70.64 255.29C70.4958 256.983 70.0875 258.643 69.43 260.21C67.81 263.98 64.73 266.62 61.96 266.62C61.4336 266.635 60.9113 266.523 60.4364 266.296C59.9616 266.068 59.548 265.73 59.23 265.31C58.6 264.51 57.38 260.97 62.23 251.31L62.67 250.25C63.76 247.6 64.78 244.93 65.81 242.25L67.04 239.06C67.2 238.67 67.48 237.98 67.8 237.22C68.56 235.4 67.51 233.97 65.58 234.22L47.89 236.22L48.17 281.07H97.93L97.64 236.22L78.26 234.12Z" fill="url(#paint3_linear_377_954)"/>
<path d="M97.87 280.93H48.11V282.96H97.87V280.93Z" fill="#E61E31"/>
<path d="M118.209 260.395C121.615 254.828 121.609 248.622 118.196 246.534C114.784 244.446 109.256 247.267 105.85 252.835C102.444 258.402 102.449 264.608 105.862 266.696C109.275 268.784 114.803 265.963 118.209 260.395Z" fill="url(#paint4_linear_377_954)"/>
<path d="M126.81 234.12C125.828 234.115 124.868 234.412 124.06 234.97C123.251 235.527 122.634 236.32 122.29 237.24C121.85 238.52 121.43 239.77 121.29 240.24C120.99 241.24 120.7 242.15 120.43 243.1C119.732 246.336 119.396 249.64 119.43 252.95C119.43 253.71 119.37 254.49 119.29 255.29C119.155 256.981 118.757 258.641 118.11 260.21C116.51 263.98 113.5 266.62 110.78 266.62C110.259 266.634 109.743 266.522 109.275 266.294C108.806 266.066 108.4 265.728 108.09 265.31C107.47 264.51 106.27 260.97 111.09 251.31L111.52 250.25C112.59 247.6 113.59 244.93 114.6 242.25L115.82 239.06C115.96 238.67 116.24 237.98 116.55 237.22C117.3 235.4 116.28 233.97 114.38 234.22L97 236.22L97.29 281.07H146.05L145.76 236.22L126.81 234.12Z" fill="url(#paint5_linear_377_954)"/>
<path d="M146.06 280.93H97.2V282.96H146.06V280.93Z" fill="#E61E31"/>
<path d="M167.458 261.396C170.892 255.818 170.904 249.59 167.485 247.485C164.066 245.38 158.51 248.195 155.076 253.773C151.642 259.35 151.63 265.578 155.049 267.683C158.468 269.788 164.024 266.973 167.458 261.396Z" fill="url(#paint6_linear_377_954)"/>
<path d="M174.91 234.12C173.93 234.117 172.972 234.415 172.166 234.973C171.359 235.53 170.743 236.322 170.4 237.24C169.96 238.52 169.54 239.77 169.4 240.24C169.09 241.24 168.8 242.15 168.53 243.1C167.831 246.336 167.495 249.64 167.53 252.95C167.53 253.71 167.47 254.49 167.39 255.29C167.252 256.982 166.851 258.642 166.2 260.21C164.61 263.98 161.59 266.62 158.87 266.62C158.35 266.632 157.834 266.52 157.366 266.292C156.898 266.064 156.491 265.727 156.18 265.31C155.57 264.51 154.37 260.97 159.18 251.31L159.62 250.25C160.68 247.6 161.69 244.93 162.7 242.25L163.91 239.06C164.06 238.67 164.34 237.98 164.65 237.22C165.39 235.4 164.37 233.97 162.48 234.22L145.1 236.22L145.38 281.07H194.24L193.96 236.22L174.91 234.12Z" fill="url(#paint7_linear_377_954)"/>
<path d="M194.17 280.93H145.31V282.96H194.17V280.93Z" fill="#E61E31"/>
<path d="M215.069 261.394C218.503 255.816 218.515 249.588 215.096 247.483C211.677 245.378 206.121 248.193 202.687 253.771C199.253 259.348 199.241 265.576 202.66 267.681C206.079 269.786 211.635 266.971 215.069 261.394Z" fill="url(#paint8_linear_377_954)"/>
<path d="M222.52 234.12C221.539 234.114 220.58 234.411 219.773 234.969C218.966 235.527 218.351 236.32 218.01 237.24C217.57 238.52 217.15 239.77 217.01 240.24C216.71 241.24 216.42 242.15 216.15 243.1C215.451 246.336 215.115 249.64 215.15 252.95C215.15 253.71 215.09 254.49 215.01 255.29C214.872 256.982 214.471 258.642 213.82 260.21C212.23 263.98 209.21 266.62 206.49 266.62C205.969 266.634 205.453 266.522 204.985 266.294C204.516 266.066 204.11 265.728 203.8 265.31C203.18 264.51 201.98 260.97 206.8 251.31L207.23 250.25C208.3 247.6 209.31 244.93 210.31 242.25L211.53 239.06C211.68 238.67 211.96 237.98 212.27 237.22C213.01 235.4 211.99 233.97 210.09 234.22L192.72 236.22L193 281.07H241.86V236.18L222.52 234.12Z" fill="url(#paint9_linear_377_954)"/>
<path d="M241.77 280.93H192.91V282.96H241.77V280.93Z" fill="#E61E31"/>
<path d="M237.86 121.4C236.41 121.82 232.3 123.6 232.3 123.6C228.59 124.01 222.3 126.5 222.3 126.5C209.41 128.02 201.47 120.62 189.3 118.26C183.76 117.18 156.81 93.5 138.78 77.44C129.47 69.14 108.16 49.01 102.58 42.71C102.17 42.2433 101.792 41.7488 101.45 41.23C99.9 38.82 98.02 29.35 88.79 30.04C79.56 30.73 18.79 77.21 18.79 77.21C27.33 93.13 47.79 114.36 47.79 114.36C71.07 100.22 86 70.52 86 70.52C86.33 79.66 95.4 87.08 103.37 91.87C103.37 91.87 120.97 102.63 133.56 106.93C144.01 110.49 157.98 122.62 168.51 130.87C170.12 132.13 167.62 140.29 173.58 145.19C179.54 150.09 187.98 146.91 193.64 145.41C199.3 143.91 202.87 145.59 208.18 147.79C213.49 149.99 218.24 148.93 221.18 146.1C222.68 144.64 226.6 141.3 226.6 141.3C235.32 139.73 232.31 137.14 232.31 137.14C238.18 135.97 236.21 132.76 236.21 132.76C240.3 131.5 238.49 129.19 238.49 129.19C241.25 127.07 239.07 125.66 239.07 125.66C240.28 124.57 239.31 120.98 237.86 121.4Z" fill="#F4D1B1"/>
<path d="M98.75 47.35C98.6834 47.5469 98.6696 47.7579 98.71 47.9619C98.7504 48.1659 98.8435 48.3557 98.98 48.5125C99.1166 48.6693 99.2919 48.7876 99.4884 48.8556C99.6849 48.9236 99.8958 48.9389 100.1 48.9C101.425 48.6433 102.79 48.6774 104.1 49C105.77 49.38 108.5 49.54 109.71 50.06C106.59 46.97 104.03 44.36 102.57 42.71C102.16 42.2433 101.782 41.7488 101.44 41.23C101.277 40.9589 101.13 40.6784 101 40.39L100.9 40.17L100.42 39.09C100.384 40.7074 100.176 42.3165 99.8 43.89C99.61 44.65 99.15 46.11 98.75 47.35Z" fill="#F4D1B1"/>
<path d="M212.66 146.13C210.929 145.934 209.241 145.461 207.66 144.73C205.174 143.711 202.559 143.038 199.89 142.73C196.63 142.43 193.56 143.22 190.33 143.29C187.422 143.282 184.542 142.725 181.84 141.65C178.911 140.667 176.371 138.775 174.59 136.25C172.98 134.05 171.82 131.4 169.95 129.38C161.67 122.28 151.57 113.12 141.95 108.04C137.75 105.82 133.42 103.83 129.09 101.87C124.09 99.6101 97.96 86.6501 92.94 76.8201C92.25 75.4701 88.53 66.5601 87.85 64.5801C87.796 64.4194 87.6976 64.2772 87.5663 64.1699C87.435 64.0627 87.2761 63.9947 87.1079 63.9738C86.9396 63.9529 86.7689 63.9799 86.6154 64.0518C86.4618 64.1237 86.3317 64.2375 86.24 64.3801C85.45 65.5701 84.67 66.7401 83.98 67.8901C80.11 74.3501 76.43 81.0001 71.2 86.4801C65.598 92.5271 59.5293 98.1243 53.05 103.22C49.988 105.671 46.6279 107.724 43.05 109.33C45.87 112.44 47.73 114.33 47.73 114.33C71.01 100.19 85.94 70.49 85.94 70.49C86.27 79.6301 95.34 87.0501 103.31 91.8401L103.85 92.17C106.59 93.81 119.85 101.68 130.85 105.92C131.53 106.17 132.2 106.43 132.85 106.67L133.49 106.9C135.665 107.665 137.77 108.619 139.78 109.75C140.23 109.99 140.68 110.25 141.12 110.5L141.65 110.81C144.576 112.566 147.41 114.472 150.14 116.52C151.59 117.59 154.63 119.87 156.07 120.99L156.34 121.2C157.71 122.27 159.07 123.35 160.45 124.46L160.93 124.84L164.05 127.35L164.52 127.72L166 128.9L166.52 129.32L166.64 129.41C167.294 129.843 167.91 130.332 168.48 130.87C168.572 130.95 168.65 131.044 168.71 131.15C168.759 131.191 168.806 131.234 168.85 131.28C168.855 131.33 168.855 131.38 168.85 131.43C168.95 131.702 169.021 131.983 169.06 132.27C169.4 133.83 169.27 135.6 169.47 137.14V137.35C169.618 138.372 169.866 139.377 170.21 140.35C170.209 140.373 170.209 140.397 170.21 140.42C170.386 140.903 170.593 141.374 170.83 141.83V141.9C171.08 142.379 171.367 142.837 171.69 143.27C172.011 143.695 172.362 144.096 172.74 144.47L173.03 144.73C173.372 145.052 173.736 145.349 174.12 145.62L174.19 145.67C177.082 147.47 180.522 148.179 183.89 147.67C187.57 147.09 191.17 145.67 194.89 145.14C195.32 145.06 195.75 144.99 196.16 144.94C196.3 144.94 196.44 144.94 196.58 144.88C196.87 144.865 197.16 144.865 197.45 144.88H197.53C198.671 144.849 199.811 144.97 200.92 145.24H201.05C201.35 145.307 201.65 145.387 201.95 145.48C204.052 146.137 206.115 146.912 208.13 147.8C208.559 147.972 208.996 148.123 209.44 148.25C209.85 148.38 210.26 148.51 210.67 148.6H210.83C212.738 149.039 214.725 148.995 216.611 148.471C218.497 147.947 220.222 146.96 221.63 145.6C223.35 144 226.49 141.33 226.51 141.3C222.3 144.58 218.05 146.43 212.66 146.13Z" fill="#E7B1A0"/>
<path d="M231.62 126.45C231.69 126.45 232.78 125.66 239.04 125.45C239.068 125.449 239.095 125.454 239.121 125.464C239.147 125.474 239.171 125.49 239.19 125.51L239.05 125.65C238.846 125.628 238.641 125.656 238.45 125.73C238.336 125.757 238.228 125.805 238.13 125.87C232.73 126.33 231.96 126.87 231.9 126.87C231.872 126.888 231.84 126.9 231.807 126.905C231.775 126.911 231.741 126.91 231.708 126.902C231.676 126.895 231.645 126.881 231.618 126.862C231.591 126.843 231.568 126.818 231.55 126.79C231.532 126.762 231.52 126.73 231.515 126.697C231.509 126.665 231.51 126.631 231.517 126.598C231.525 126.566 231.539 126.535 231.558 126.508C231.577 126.481 231.602 126.458 231.63 126.44L231.62 126.45Z" fill="#DA8666"/>
<path d="M230.05 129.49C230.12 129.49 232.7 127.87 238.46 128.95C238.487 128.955 238.512 128.966 238.534 128.982C238.557 128.997 238.576 129.017 238.59 129.04L238.4 129.19C238.051 129.126 237.694 129.106 237.34 129.13C232.34 128.71 230.34 129.91 230.34 129.91C230.312 129.927 230.28 129.938 230.248 129.943C230.215 129.948 230.182 129.947 230.15 129.939C230.118 129.931 230.088 129.917 230.061 129.897C230.035 129.878 230.012 129.853 229.995 129.825C229.978 129.797 229.967 129.765 229.962 129.733C229.957 129.7 229.958 129.667 229.966 129.635C229.974 129.603 229.988 129.573 230.008 129.546C230.027 129.52 230.052 129.497 230.08 129.48L230.05 129.49Z" fill="#DA8666"/>
<path d="M228.48 132.65C230.959 131.63 233.731 131.572 236.25 132.49C236.284 132.502 236.316 132.522 236.342 132.548C236.368 132.574 236.388 132.605 236.4 132.64L236.16 132.72C235.75 132.42 235.246 132.278 234.74 132.32C230.57 132.07 228.74 133.05 228.74 133.08C228.682 133.112 228.613 133.119 228.549 133.1C228.486 133.082 228.432 133.038 228.4 132.98C228.368 132.922 228.361 132.853 228.38 132.789C228.398 132.725 228.442 132.672 228.5 132.64L228.48 132.65Z" fill="#DA8666"/>
<path d="M226.45 136.83C226.68 136.69 228.32 135.83 232.36 136.91C232.398 136.924 232.43 136.949 232.455 136.98C232.48 137.012 232.495 137.05 232.5 137.09L232.26 137.14C231.975 137.044 231.665 137.044 231.38 137.14C227.9 136.3 226.74 137.26 226.68 137.28C226.623 137.313 226.555 137.322 226.492 137.305C226.428 137.288 226.373 137.247 226.34 137.19C226.319 137.16 226.306 137.126 226.3 137.09C226.295 137.055 226.297 137.018 226.308 136.983C226.318 136.949 226.337 136.917 226.361 136.89C226.386 136.864 226.416 136.843 226.45 136.83Z" fill="#DA8666"/>
<path d="M234.05 122.87C234.05 122.87 234.23 124.69 235.4 124.51C236.57 124.33 239.08 124.21 238.68 123.06C238.517 122.473 238.282 121.909 237.98 121.38C237.98 121.38 238.55 120.92 234.05 122.87Z" fill="#F4C6BD"/>
<path d="M235.4 125.93C235.4 125.93 235.04 127.83 236.82 127.93C238.6 128.03 239.33 127 238.88 125.63L235.4 125.93Z" fill="#F4C6BD"/>
<path d="M234.88 129.06C234.88 129.06 234.24 130.77 235.88 131.06C237.52 131.35 238.58 130.38 238.19 129.14C238.21 129.12 234.88 129.06 234.88 129.06Z" fill="#F4C6BD"/>
<path d="M232.61 132.4C232.61 132.4 231.95 133.98 233.51 134.28C235.07 134.58 236.06 133.73 235.7 132.6C235.68 132.54 232.61 132.4 232.61 132.4Z" fill="#F4C6BD"/>
<path d="M228.98 137.01C228.98 137.01 228.43 138.43 229.9 138.63C231.75 138.88 232.16 137.31 231.9 137.07C231.307 136.962 230.702 136.925 230.1 136.96C229.47 136.96 228.98 137.01 228.98 137.01Z" fill="#F4C6BD"/>
<path d="M183.93 113.92C184.93 112.65 174.07 103.67 171.19 101.56C167.07 98.56 164.05 94.22 160.26 90.9C156 87.17 151.08 84.69 146.86 80.96C143.13 77.66 140.38 73.79 136.4 70.77C132.686 68.1161 129.115 65.2688 125.7 62.24C124.05 60.7 121.7 59.54 120.23 57.79C118.76 56.04 117.98 53.57 116.23 51.94C115.05 50.81 111.81 48.65 111.05 51.32C110.33 53.84 114.13 54.62 115.53 55.83C117.46 57.48 117.53 59.28 118.67 61.39C119.987 63.4984 121.559 65.4364 123.35 67.16C131.103 75.2699 139.634 82.5985 148.82 89.04C157 94.88 163.53 102.17 171.34 108.39C174.58 110.97 179.34 116.51 183.54 114.27L183.93 113.92Z" fill="url(#paint10_linear_377_954)"/>
<path d="M202.91 74.28C197.14 77.44 197.14 90.42 197.14 90.42L200.27 91.26C201.71 90.18 203.03 88.93 204.43 87.81C205.015 87.3219 205.653 86.8993 206.33 86.55C206.454 86.0018 206.736 85.502 207.141 85.1127C207.547 84.7234 208.057 84.4617 208.61 84.36C209.8 84.07 210.94 83.23 211.97 82.94C213.945 82.3673 215.994 82.0943 218.05 82.13C218.325 82.1364 218.598 82.1836 218.86 82.27C220.22 79.38 221.18 77.09 221.18 77.09C220.44 74.35 208.68 71.12 202.91 74.28Z" fill="#CD765B"/>
<path d="M232.27 51.3C229.06 54.77 225.51 57.92 225.51 57.92C222.23 61.79 217.84 62.7701 213.83 64.2701C211.984 64.97 210.25 65.9333 208.68 67.1301C206.76 68.6 203.68 70.93 201.99 71.98C200.686 72.8043 199.575 73.9001 198.733 75.1926C197.891 76.4852 197.337 77.9442 197.11 79.47L196.05 86.9501C195.05 92.89 193.16 101.2 195.66 100.23C196.384 99.8404 197.021 99.306 197.53 98.66C198.59 97.4901 199.88 92.73 200.71 89.37L202.07 85.37C202.663 83.6646 203.867 82.2395 205.45 81.37L209.98 78.86C212.63 77.99 217.11 79.7001 217.11 79.7001C217.11 79.7001 218.46 80.3 213.76 85.21C211.76 87.3 208.41 91.6101 207.76 93.37C204.58 101.69 210.39 100.77 210.99 99.96C214.99 94.31 215.72 92.1501 218.66 88.5601C219.83 87.1401 223.48 83.98 225.75 81.86C225.608 81.4334 225.633 80.969 225.82 80.5601C226.309 79.6946 226.72 78.7877 227.05 77.85C227.27 77.13 227.2 76.35 227.35 75.62C227.414 75.2582 227.573 74.9198 227.81 74.6388C228.047 74.3579 228.354 74.1445 228.7 74.0201C228.828 73.1673 229.043 72.3297 229.34 71.5201C230.55 68.0601 232.59 65.46 234.8 62.57C234.949 62.3625 235.14 62.1882 235.36 62.058C235.58 61.9278 235.824 61.8446 236.078 61.8136C236.331 61.7825 236.589 61.8044 236.833 61.8778C237.078 61.9513 237.305 62.0746 237.5 62.24C238.562 61.1254 239.698 60.0831 240.9 59.12C239.6 56.28 233.65 51.65 232.27 51.3Z" fill="#EFA882"/>
<path d="M232.27 51.3C229.06 54.77 225.51 57.92 225.51 57.92C222.23 61.79 217.84 62.7701 213.83 64.2701C211.984 64.97 210.25 65.9333 208.68 67.1301C206.76 68.6 203.68 70.93 201.99 71.98C200.686 72.8043 199.575 73.9001 198.733 75.1926C197.891 76.4852 197.337 77.9442 197.11 79.47L196.97 80.47C201.85 75.55 207.15 70.93 214.45 71C220.45 71.06 225.76 74.25 224.27 81.07C224.027 82.0978 223.692 83.1018 223.27 84.07L225.41 82.07C225.298 81.8305 225.24 81.5694 225.24 81.305C225.24 81.0407 225.298 80.7796 225.41 80.54C225.91 79.38 226.53 78.27 226.98 77.08C227.195 76.0579 227.195 75.0022 226.98 73.98C226.963 73.5325 227.096 73.0921 227.359 72.7294C227.622 72.3668 227.999 72.1029 228.43 71.98C228.507 71.6795 228.608 71.3853 228.73 71.1C230.442 67.0555 233.617 63.8058 237.62 62C238.619 60.978 239.677 60.0163 240.79 59.12C239.6 56.28 233.65 51.65 232.27 51.3Z" fill="#DA8666"/>
<path d="M210.94 99.9701C211.94 98.5101 212.79 97.2801 213.48 96.2001C213.249 95.6827 212.837 95.2673 212.322 95.0317C211.806 94.7961 211.223 94.7564 210.68 94.9201C210.367 95.0326 210.086 95.2184 209.86 95.462C209.634 95.7056 209.469 95.9998 209.38 96.3201C209.01 97.6401 208.73 100.01 210.48 100.13C210.579 100.145 210.681 100.145 210.78 100.13C210.844 100.088 210.898 100.034 210.94 99.9701Z" fill="#F4C6BD"/>
<path d="M194.79 94.1801C194.79 94.1801 196.47 94.8401 196.45 95.3901C196.43 95.9401 195.86 99.6901 194.37 99.2001C193.96 99.0601 194.79 94.1801 194.79 94.1801Z" fill="#F4C6BD"/>
<path d="M232.27 51.3C229.06 54.77 225.51 57.92 225.51 57.92C222.23 61.79 217.84 62.7701 213.83 64.2701C211.984 64.97 210.25 65.9333 208.68 67.1301C206.76 68.6 203.68 70.93 201.99 71.98C200.686 72.8043 199.575 73.9001 198.733 75.1926C197.891 76.4852 197.337 77.9442 197.11 79.47L196.05 86.9501C195.05 92.89 193.16 101.2 195.66 100.23C196.384 99.8404 197.021 99.306 197.53 98.66C198.59 97.4901 199.88 92.73 200.71 89.37L202.07 85.37C202.663 83.6646 203.867 82.2395 205.45 81.37L209.98 78.86C212.63 77.99 217.11 79.7001 217.11 79.7001C217.11 79.7001 218.46 80.3 213.76 85.21L213.1 85.93C214.51 86.21 215.85 86.93 217.26 87.18C217.926 87.2899 218.526 87.6471 218.94 88.18C220.76 86.18 225.7 82.02 227.2 80.4C229.15 78.28 229.46 76.01 230.13 73.15C230.97 69.55 232.68 68.28 234.53 65.73C236.347 63.2484 238.482 61.0159 240.88 59.09C239.6 56.28 233.65 51.65 232.27 51.3Z" fill="#EFA882"/>
<path d="M194.79 94.1801C194.79 94.1801 196.47 94.8401 196.45 95.3901C196.43 95.9401 195.86 99.6901 194.37 99.2001C193.96 99.0601 194.79 94.1801 194.79 94.1801Z" fill="#F4C6BD"/>
<path d="M209.95 78.87C212.6 78 217.08 79.71 217.08 79.71C217.08 79.71 218.43 80.31 213.73 85.22C212.236 86.8423 210.841 88.552 209.55 90.34C210.14 90.34 215.14 86.21 216.73 83.65C217.27 82.78 218.12 81.65 218.73 80.43C219.53 78.82 212.53 75.28 210.84 75.55C207.23 76.12 204.7 79.14 202.58 82.13C201.43 83.75 199.33 91.05 199.11 95.13C199.7 93.31 200.27 91.13 200.71 89.37L202.07 85.37C202.663 83.6645 203.867 82.2394 205.45 81.37L209.95 78.87Z" fill="#DA8666"/>
<path d="M192.97 113.9C194.54 114.72 196.73 113.39 198.24 110.98C198.61 110.39 200.09 107.62 202.03 103.98C206.92 95.7 211.82 87.3 212.41 86.06C213.77 83.25 213.72 80.47 212.01 79.53C210.3 78.59 207.92 80.03 206.28 82.69C205.55 83.86 201.04 92.58 196.64 101.18C194.52 104.77 192.94 107.49 192.64 108.12C191.34 110.59 191.39 113.08 192.97 113.9Z" fill="#D4A366"/>
<path d="M192.97 113.9C194.54 114.72 196.73 113.39 198.24 110.98C198.61 110.39 200.09 107.62 202.03 103.98C206.92 95.7 211.82 87.3 212.41 86.06C213.77 83.25 213.72 80.47 212.01 79.53C211.431 79.2255 210.756 79.1608 210.13 79.35C210.481 79.3626 210.824 79.4586 211.13 79.63C212.85 80.57 212.9 83.35 211.54 86.16C210.91 87.46 198.23 109.84 197.92 110.34C196.41 112.74 194.23 114.08 192.65 113.26C192.367 113.113 192.121 112.905 191.93 112.65C192.105 113.184 192.477 113.631 192.97 113.9Z" fill="#C98F45"/>
<path d="M134.49 56.78C134.49 56.78 148.28 85.37 181.38 91.53" stroke="#EB76A1" stroke-width="1.86" stroke-miterlimit="10"/>
<path d="M187.12 92.87L181.58 87.67L179.84 95.07L187.12 92.87Z" fill="#EB76A1"/>
<path d="M147.5 43.71L143.44 49.65C142.464 51.2557 141.121 52.6063 139.52 53.59L139.29 52.69C140.658 51.7511 141.813 50.5347 142.68 49.12L146.74 43.23L147.5 43.71ZM148.66 45.51L142.83 53.97L142.1 53.46L147.92 45L148.66 45.51ZM150.8 45.98L143.72 56.26L142.96 55.74L150.05 45.46L150.8 45.98ZM147.67 56.55C146.59 56.8665 145.464 56.9983 144.34 56.94V56.07C145.403 56.1254 146.467 56.0037 147.49 55.71L147.67 56.55ZM152.07 49.55C152.385 49.3115 152.682 49.0509 152.96 48.77L150.9 47.35L151.41 46.61L156.41 50.07L155.9 50.81L153.75 49.33C153.46 49.61 153.16 49.87 152.86 50.11L154.86 51.48L150.64 57.65L146.32 54.65L150.56 48.5L152.07 49.55ZM151.07 55.26L148.34 53.38L147.56 54.51L150.29 56.39L151.07 55.26ZM149.85 59.88L148.96 60.05C148.892 59.0655 148.725 58.0905 148.46 57.14L149.28 57C149.571 57.9319 149.772 58.8896 149.88 59.86L149.85 59.88ZM151.53 54.59L152.35 53.4L149.62 51.52L148.83 52.65L151.53 54.59ZM152.81 52.73L153.57 51.62L150.85 49.75L150.08 50.85L152.81 52.73Z" fill="#EB76A1"/>
<path d="M163.97 54.97C163.458 55.4382 162.891 55.8412 162.28 56.17L167.37 59.67L162.07 67.37C161.994 67.5348 161.881 67.6798 161.74 67.7938C161.599 67.9078 161.433 67.9878 161.256 68.0274C161.079 68.0671 160.896 68.0654 160.719 68.0225C160.543 67.9796 160.379 67.8966 160.24 67.78L158.51 66.58L158.86 65.58L160.52 66.78C160.582 66.8344 160.657 66.8738 160.737 66.895C160.817 66.9162 160.901 66.9186 160.982 66.9022C161.063 66.8858 161.139 66.8509 161.205 66.8002C161.271 66.7495 161.324 66.6844 161.36 66.61L165.99 59.9L158.51 54.75L152.95 62.82L152.12 62.25L158.23 53.38L161.4 55.57C162.048 55.2088 162.65 54.7688 163.19 54.26L163.97 54.97ZM163.23 60.4L160.45 64.4L156.19 61.47L158.97 57.47L163.23 60.4ZM161.88 60.62L159.24 58.81L157.54 61.27L160.18 63.09L161.88 60.62Z" fill="#EB76A1"/>
<path d="M176.19 63.27L173.74 66.83L178.05 69.78L177.49 70.59L173.21 67.59L169.81 72.53L175.07 76.15L174.52 76.96L164.25 69.89L164.8 69.08L168.96 71.94L175.34 62.65L176.19 63.27Z" fill="#EB76A1"/>
<path d="M183.69 71L184.89 69.24L185.7 69.8L184.49 71.55L185.68 72.37L182.48 77.02L181.28 76.19L179.5 78.78C179.87 78.88 180.23 78.98 180.59 79.05C180.83 78.48 181.04 77.93 181.23 77.38L181.94 77.58C181.552 78.7075 181.101 79.8125 180.59 80.89L179.87 80.63L180.25 79.84C178.976 79.5688 177.723 79.2079 176.5 78.76L176.85 77.82C177.4 78.07 177.97 78.28 178.55 78.48L180.49 75.65L179.27 74.81L182.47 70.16L183.69 71ZM183.3 71.75L182.67 71.32L180.42 74.58L181.05 75.02L183.3 71.75ZM180.8 80.88C180.912 80.8824 181.023 80.8539 181.12 80.7974C181.217 80.7409 181.297 80.6588 181.35 80.56L183.49 77.45L184.18 77.92L183.82 78.44L184.92 79.2L184.5 79.82L183.39 79.06L182.92 79.74L184.03 80.5L183.61 81.11L182.5 80.35L181.78 81.35C182.152 81.4825 182.533 81.5894 182.92 81.67L182.65 82.27C181.932 82.0962 181.227 81.8723 180.54 81.6L180.8 80.88ZM184.56 72.65L183.92 72.21L181.68 75.48L182.31 75.91L184.56 72.65ZM183.05 82.39C183.167 82.3887 183.281 82.3566 183.381 82.2969C183.481 82.2371 183.563 82.152 183.62 82.05L185.73 78.98L186.4 79.44L186.04 79.96L187.13 80.71L186.7 81.33L185.61 80.58L185.15 81.27L186.23 82.01L185.81 82.62L184.72 81.88L184.04 82.88C184.519 83.0667 185.014 83.2073 185.52 83.3L185.23 84.02C184.397 83.7778 183.579 83.4873 182.78 83.15L183.05 82.39ZM191.47 77.66L189.25 80.89L183.61 77.01L185.83 73.78L191.47 77.66ZM190.3 77.78L188.75 76.65C188.523 76.806 188.282 76.9399 188.03 77.05C188.359 77.6008 188.63 78.1838 188.84 78.79L188.14 79.07C187.962 78.4502 187.721 77.8504 187.42 77.28C186.88 77.429 186.319 77.4898 185.76 77.46L185.71 76.7C186.535 76.7693 187.363 76.5955 188.09 76.2L186.17 74.87L184.79 76.87L188.97 79.74L190.3 77.78ZM185.7 84.91C185.647 84.5118 185.706 84.1066 185.87 83.74C186.42 82.5669 187.09 81.4543 187.87 80.42L188.54 80.88C187.797 81.8601 187.154 82.912 186.62 84.02C186.47 84.39 186.44 84.62 186.53 84.72C186.62 84.82 187.08 84.43 187.76 83.64L188 84.3C187.07 85.36 186.41 85.76 186 85.49C185.915 85.4197 185.848 85.3308 185.803 85.2302C185.757 85.1297 185.736 85.0201 185.74 84.91H185.7ZM189.07 72.52C188.566 72.7074 188.043 72.8382 187.51 72.91C187.673 73.4475 187.78 74.0005 187.83 74.56L186.95 74.48C186.932 73.7693 186.842 73.0623 186.68 72.37C187.34 72.2546 187.982 72.0529 188.59 71.77L189.07 72.52ZM191.07 73.91C190.597 74.0858 190.108 74.2164 189.61 74.3C189.749 74.8395 189.826 75.3931 189.84 75.95L188.95 75.87C188.972 75.1587 188.912 74.4473 188.77 73.75C189.399 73.6273 190.011 73.4257 190.59 73.15L191.07 73.91ZM193.07 75.3C192.56 75.4691 192.034 75.5864 191.5 75.65C191.664 76.1795 191.765 76.7267 191.8 77.28L190.95 77.22C190.942 76.504 190.844 75.7919 190.66 75.1C191.325 74.9989 191.974 74.8106 192.59 74.54L193.07 75.3Z" fill="#EB76A1"/>
<path d="M140.14 183.93C140.14 183.93 175.74 202.82 214.24 184.24" stroke="#EB76A1" stroke-width="2.37" stroke-miterlimit="10"/>
<path d="M221.13 181.31L211.55 180.15L215.34 189.03L221.13 181.31Z" fill="#EB76A1"/>
<path d="M149.15 168.89L148.93 176.04C148.979 177.924 148.577 179.792 147.76 181.49L147.08 180.85C147.729 179.321 148.043 177.671 148 176.01L148.23 168.86L149.15 168.89ZM151.15 169.78L150.83 180.04H149.93L150.26 169.78H151.15ZM153.21 169.02L152.81 181.49H151.89L152.29 169.02H153.21ZM156.24 179.65C155.503 180.501 154.627 181.221 153.65 181.78L153.16 181.06C154.078 180.532 154.902 179.856 155.6 179.06L156.24 179.65ZM156.14 171.36C156.28 170.989 156.391 170.608 156.47 170.22L153.97 170.14V169.25L160.08 169.44V170.34L157.48 170.25C157.38 170.64 157.27 171.03 157.15 171.39L159.55 171.47L159.32 178.93L154.08 178.77L154.32 171.3L156.14 171.36ZM158.41 176.69L155.11 176.58L155.06 177.96L158.37 178.06L158.41 176.69ZM158.41 175.88V174.43L155.11 174.33V175.77L158.41 175.88ZM158.48 173.62V172.28L155.18 172.17V173.52L158.48 173.62ZM159.86 181.23L159.2 181.86C158.609 181.067 157.939 180.337 157.2 179.68L157.82 179.12C158.572 179.742 159.265 180.431 159.89 181.18L159.86 181.23Z" fill="#EB76A1"/>
<path d="M168.4 169.43C168.219 170.099 167.957 170.744 167.62 171.35L173.8 171.55L173.5 180.89C173.5 181.8 173.03 182.25 172.19 182.22L170.09 182.15L169.84 181.15L171.84 181.26C171.923 181.273 172.007 181.267 172.087 181.241C172.167 181.216 172.24 181.173 172.3 181.115C172.36 181.056 172.406 180.985 172.433 180.906C172.461 180.827 172.47 180.743 172.46 180.66L172.72 172.51L163.65 172.22L163.34 182.03H162.34L162.68 171.27L166.53 171.39C166.884 170.74 167.153 170.048 167.33 169.33L168.4 169.43ZM170.71 174.43L170.55 179.33L165.39 179.17L165.54 174.27L170.71 174.43ZM169.71 175.35L166.5 175.25L166.41 178.25L169.62 178.35L169.71 175.35Z" fill="#EB76A1"/>
<path d="M182.47 169.78L182.33 174.1L187.52 174.27V175.27L182.33 175.1L182.14 181.1L188.52 181.3V182.3L176.06 181.9V180.9L181.06 181.06L181.42 169.76L182.47 169.78Z" fill="#EB76A1"/>
<path d="M192.25 172.2L192.32 170.08H193.32L193.25 172.2H194.69L194.51 177.84H193.06L192.96 180.97C193.32 180.86 193.68 180.74 194.02 180.61C193.91 180.01 193.79 179.43 193.65 178.86L194.36 178.65C194.644 179.807 194.864 180.979 195.02 182.16L194.27 182.33C194.27 182.02 194.19 181.74 194.16 181.46C192.943 181.922 191.692 182.293 190.42 182.57L190.2 181.57C190.802 181.481 191.4 181.361 191.99 181.21L192.1 177.78H190.62L190.8 172.14L192.25 172.2ZM192.33 173.05H191.56L191.44 177.05H192.21L192.33 173.05ZM193.86 173.05H193.09L192.96 177.05H193.73L193.86 173.05ZM195.17 182.05C195.265 181.989 195.342 181.905 195.393 181.805C195.444 181.704 195.467 181.592 195.46 181.48L195.58 177.7H196.4V178.33H197.75V179.09H196.41V179.91H197.76V180.66L196.42 180.61V181.87C196.803 181.78 197.181 181.667 197.55 181.53L197.64 182.18C196.946 182.427 196.234 182.621 195.51 182.76L195.17 182.05ZM202.44 173.55L202.31 177.47L195.47 177.25L195.59 173.33L202.44 173.55ZM197.64 170.55C197.317 170.979 196.948 171.371 196.54 171.72C196.965 172.086 197.35 172.495 197.69 172.94L196.91 173.35C196.519 172.754 196.06 172.207 195.54 171.72C196.034 171.266 196.464 170.748 196.82 170.18L197.64 170.55ZM201.51 174.31L199.58 174.24C199.472 174.492 199.345 174.736 199.2 174.97C199.769 175.254 200.311 175.589 200.82 175.97L200.38 176.59C199.89 176.168 199.361 175.792 198.8 175.47C198.43 175.89 197.994 176.248 197.51 176.53L197.05 175.91C197.781 175.521 198.382 174.926 198.78 174.2L196.45 174.13L196.37 176.55L201.44 176.71L201.51 174.31ZM197.9 182.11C197.999 182.048 198.079 181.961 198.132 181.857C198.185 181.753 198.209 181.636 198.2 181.52L198.32 177.79H199.13V178.42H200.45V179.18H199.13V180.01H200.45V180.75H199.13V181.96C199.633 181.855 200.125 181.704 200.6 181.51L200.75 182.27C199.92 182.521 199.075 182.721 198.22 182.87L197.9 182.11ZM200.05 170.65C199.757 171.058 199.422 171.433 199.05 171.77C199.458 172.15 199.82 172.577 200.13 173.04L199.35 173.44C198.977 172.833 198.538 172.269 198.04 171.76C198.51 171.321 198.917 170.82 199.25 170.27L200.05 170.65ZM202.5 170.73C202.162 171.146 201.783 171.528 201.37 171.87C201.794 172.23 202.176 172.636 202.51 173.08L201.75 173.49C201.36 172.891 200.893 172.346 200.36 171.87C200.865 171.424 201.309 170.913 201.68 170.35L202.5 170.73ZM201.5 182.82C201.241 182.511 201.072 182.138 201.01 181.74C200.839 180.457 200.803 179.16 200.9 177.87H201.71C201.622 179.096 201.649 180.328 201.79 181.55C201.86 181.94 201.97 182.15 202.09 182.19C202.21 182.23 202.4 181.65 202.55 180.62L203.11 181.04C202.9 182.44 202.55 183.13 202.11 183.11C201.992 183.107 201.875 183.078 201.77 183.024C201.664 182.971 201.572 182.894 201.5 182.8V182.82Z" fill="#EB76A1"/>
<path d="M30.28 216.02C28.76 219.47 26.69 224.31 24.92 229.16C21.05 239.79 19.18 248.65 19.84 254.58C20.1799 256.443 20.0493 258.361 19.46 260.16C18.57 262.54 15.37 264.79 13 263.73C9.53003 262.17 13.82 255.8 24.26 229.59C26.4 224.21 30.8 212.29 34.34 208.14C34.34 208.14 31.15 214.03 30.28 216.02Z" fill="#040000" stroke="#040000" stroke-width="1.46" stroke-linecap="round" stroke-linejoin="round"/>
<path d="M70.05 242.44C68.7126 246.211 68.1679 250.218 68.45 254.21C68.7899 256.069 68.6593 257.984 68.07 259.78C67.18 262.16 63.98 264.42 61.61 263.36C58.93 262.15 60.74 258.17 67.26 243.92C67.26 243.92 77.26 217.92 88.77 218C88.78 218 78.23 217.54 70.05 242.44Z" fill="#040000" stroke="#040000" stroke-width="1.46" stroke-linecap="round" stroke-linejoin="round"/>
<path d="M212.78 240.97C211.819 245.211 210.224 249.284 208.05 253.05C206.868 254.822 205.999 256.784 205.48 258.85C205.06 261.18 206.85 262.92 209.62 261.32C212.74 259.52 213.15 255.68 214.57 241.97C214.57 241.97 218.92 216.53 208.17 218.97C208.21 218.94 218.26 216.36 212.78 240.97Z" fill="#040000" stroke="#040000" stroke-width="1.36" stroke-linecap="round" stroke-linejoin="round"/>
<path d="M116.74 242.76C109.56 256.95 107.91 261.03 110.59 262.24C112.96 263.31 116.16 261.05 117.05 258.67C117.638 256.874 117.772 254.96 117.44 253.1C117.001 249.104 117.554 245.061 119.05 241.33C121.15 235.95 125.33 227.42 124.78 219.98C124.78 219.98 123.05 229.64 121.84 232.81C120.85 235.36 118.05 240.27 116.74 242.76Z" fill="#040000" stroke="#040000" stroke-width="1.46" stroke-linecap="round" stroke-linejoin="round"/>
<path d="M167.45 241C165.645 244.826 164.916 249.071 165.34 253.28C165.68 255.139 165.55 257.054 164.96 258.85C164.07 261.23 160.87 263.49 158.5 262.43C155.82 261.22 158 256.89 166.12 242.85C166.12 242.85 174.42 228.35 175.12 226.95C175.12 226.95 177.76 222.07 176.33 219.66C176.33 219.66 177.86 222.31 175.46 226.66C175.44 226.65 169.16 237.38 167.45 241Z" fill="#040000" stroke="#040000" stroke-width="1.46" stroke-linecap="round" stroke-linejoin="round"/>
<path d="M116.05 63.9399L118.61 64.1399L116.05 63.9399Z" fill="#BE897B"/>
<path d="M116.05 64.3199L118.61 64.52C118.709 64.5173 118.803 64.4762 118.872 64.4052C118.941 64.3342 118.98 64.239 118.98 64.1399C118.977 64.0426 118.938 63.95 118.869 63.8811C118.8 63.8123 118.707 63.7725 118.61 63.77L116.05 63.5699C115.952 63.5699 115.858 63.6089 115.788 63.6783C115.719 63.7477 115.68 63.8418 115.68 63.9399C115.68 64.039 115.719 64.1342 115.788 64.2052C115.857 64.2762 115.951 64.3173 116.05 64.3199Z" fill="#BE897B"/>
<path d="M111.83 72.29C111.646 72.4345 111.491 72.614 111.376 72.8182C111.261 73.0224 111.188 73.2473 111.16 73.48" fill="#BE897B"/>
<path d="M111.56 72.0201C111.349 72.193 111.175 72.4074 111.05 72.65C110.905 72.9094 110.813 73.1949 110.78 73.49C110.78 73.5909 110.82 73.6877 110.89 73.76C110.944 73.8104 111.011 73.8441 111.083 73.857C111.155 73.87 111.23 73.8617 111.298 73.8331C111.366 73.8045 111.424 73.7569 111.465 73.696C111.506 73.6351 111.529 73.5636 111.53 73.49V73.57C111.551 73.4157 111.592 73.2645 111.65 73.12V73.21C111.71 73.0597 111.791 72.9183 111.89 72.79L111.83 72.87C111.917 72.7549 112.018 72.6508 112.13 72.5601C112.199 72.4907 112.238 72.3976 112.24 72.3C112.241 72.2499 112.232 72.2002 112.213 72.1538C112.194 72.1073 112.166 72.0653 112.13 72.03C112.059 71.9638 111.967 71.9248 111.87 71.92C111.771 71.9291 111.677 71.9674 111.6 72.03L111.56 72.0201Z" fill="#BE897B"/>
<path d="M100.39 80.4601V82.6501C100.39 82.7491 100.429 82.8443 100.498 82.9153C100.567 82.9863 100.661 83.0274 100.76 83.0301C100.86 83.0275 100.955 82.9867 101.026 82.916C101.097 82.8452 101.137 82.75 101.14 82.6501V80.4401C101.14 80.3393 101.1 80.2426 101.029 80.1714C100.957 80.1001 100.861 80.0601 100.76 80.0601C100.661 80.0627 100.567 80.1038 100.498 80.1748C100.429 80.2458 100.39 80.341 100.39 80.4401V80.4601Z" fill="#BE897B"/>
<path d="M97.7 67.49L95.99 67.65L97.7 67.49Z" fill="#BE897B"/>
<path d="M97.7 67.11L95.99 67.28C95.8927 67.2825 95.8 67.3223 95.7312 67.3912C95.6623 67.46 95.6225 67.5527 95.62 67.65C95.62 67.84 95.79 68.05 95.99 68.03L97.7 67.86C97.7486 67.86 97.7967 67.8504 97.8416 67.8318C97.8865 67.8132 97.9273 67.786 97.9616 67.7516C97.996 67.7173 98.0232 67.6765 98.0418 67.6316C98.0604 67.5867 98.07 67.5386 98.07 67.49C98.07 67.3909 98.0314 67.2957 97.9622 67.2248C97.8931 67.1538 97.799 67.1126 97.7 67.11Z" fill="#BE897B"/>
<path d="M123.41 78.05L125.96 78.41L123.41 78.05Z" fill="#BE897B"/>
<path d="M123.31 78.41L125.86 78.77C125.955 78.7923 126.056 78.7779 126.141 78.7297C126.226 78.6816 126.29 78.6031 126.32 78.51C126.334 78.4627 126.338 78.4132 126.332 78.3643C126.326 78.3154 126.311 78.2682 126.287 78.2254C126.262 78.1825 126.23 78.1449 126.191 78.1148C126.152 78.0847 126.108 78.0627 126.06 78.05L123.51 77.69C123.415 77.6652 123.313 77.6784 123.227 77.7269C123.142 77.7754 123.078 77.8554 123.05 77.95C123.036 77.9972 123.032 78.0468 123.038 78.0956C123.044 78.1445 123.059 78.1917 123.083 78.2346C123.108 78.2774 123.14 78.315 123.179 78.3451C123.218 78.3752 123.262 78.3973 123.31 78.41Z" fill="#BE897B"/>
<path d="M121.37 84.38C121.27 84.7838 121.32 85.2101 121.51 85.58L121.37 84.38Z" fill="#BE897B"/>
<path d="M121.05 84.28C120.93 84.7812 120.991 85.3086 121.22 85.77C121.245 85.8122 121.278 85.8491 121.317 85.8786C121.356 85.908 121.4 85.9294 121.448 85.9415C121.495 85.9536 121.545 85.9561 121.593 85.949C121.641 85.9419 121.688 85.9252 121.73 85.9C121.815 85.8498 121.877 85.7685 121.903 85.6733C121.929 85.5781 121.917 85.4765 121.87 85.39C121.851 85.3577 121.835 85.3243 121.82 85.29V85.38C121.76 85.2394 121.72 85.0914 121.7 84.94V85.04C121.68 84.8806 121.68 84.7194 121.7 84.56V84.66C121.695 84.6001 121.695 84.5399 121.7 84.48C121.722 84.3834 121.706 84.282 121.656 84.1966C121.606 84.1112 121.525 84.048 121.43 84.02C121.383 84.0063 121.333 84.0023 121.284 84.008C121.235 84.0137 121.188 84.0292 121.145 84.0534C121.103 84.0776 121.065 84.1101 121.035 84.149C121.005 84.1879 120.983 84.2324 120.97 84.28H121.05Z" fill="#BE897B"/>
<path d="M115.74 92.54C115.539 93.4201 115.131 94.2395 114.55 94.93L115.74 92.54Z" fill="#BE897B"/>
<path d="M115.38 92.4401C115.192 93.2539 114.819 94.0136 114.29 94.6601C114.22 94.7303 114.18 94.8257 114.18 94.9251C114.18 95.0245 114.22 95.1198 114.29 95.1901C114.36 95.2603 114.456 95.2998 114.555 95.2998C114.654 95.2998 114.75 95.2603 114.82 95.1901C115.436 94.4478 115.877 93.5762 116.11 92.6401C116.127 92.5467 116.108 92.4504 116.057 92.3702C116.007 92.29 115.928 92.2317 115.836 92.2066C115.745 92.1816 115.647 92.1916 115.563 92.2348C115.478 92.278 115.413 92.3512 115.38 92.4401Z" fill="#BE897B"/>
<path d="M131.71 97.99V100.2C131.71 100.299 131.749 100.394 131.818 100.465C131.887 100.536 131.981 100.577 132.08 100.58C132.18 100.577 132.275 100.537 132.346 100.466C132.417 100.395 132.457 100.3 132.46 100.2V97.99C132.456 97.9404 132.443 97.8921 132.42 97.8479C132.397 97.8038 132.365 97.7646 132.327 97.7329C132.289 97.7012 132.245 97.6775 132.197 97.6632C132.149 97.649 132.099 97.6445 132.05 97.65C131.953 97.6525 131.86 97.6923 131.791 97.7612C131.722 97.83 131.683 97.9227 131.68 98.02L131.71 97.99Z" fill="#BE897B"/>
<path d="M135.66 92.02L136.51 92.36L135.66 92.02Z" fill="#BE897B"/>
<path d="M135.56 92.3799L136.41 92.7199C136.456 92.74 136.505 92.7504 136.555 92.7504C136.605 92.7504 136.654 92.74 136.7 92.7199C136.786 92.668 136.85 92.5861 136.88 92.4899C136.914 92.3963 136.914 92.2935 136.88 92.1999L136.82 92.1299C136.773 92.0818 136.715 92.0473 136.65 92.0299L135.8 91.6899C135.755 91.6686 135.705 91.6575 135.655 91.6575C135.605 91.6575 135.555 91.6686 135.51 91.6899C135.428 91.7392 135.367 91.8178 135.34 91.9099C135.306 92.0035 135.306 92.1063 135.34 92.1999L135.4 92.2699C135.444 92.3159 135.499 92.3502 135.56 92.3699V92.3799Z" fill="#BE897B"/>
<path d="M136.51 81.65L138.89 81.46L136.51 81.65Z" fill="#BE897B"/>
<path d="M136.51 82.06L138.89 81.87C138.989 81.87 139.084 81.8314 139.155 81.7623C139.226 81.6931 139.267 81.599 139.27 81.5C139.267 81.4 139.227 81.3048 139.156 81.2341C139.085 81.1634 138.99 81.1225 138.89 81.12L136.51 81.31C136.411 81.3126 136.317 81.3538 136.248 81.4248C136.179 81.4957 136.14 81.5909 136.14 81.69C136.14 81.7881 136.179 81.8822 136.248 81.9516C136.318 82.021 136.412 82.06 136.51 82.06Z" fill="#BE897B"/>
<path d="M128.86 89.3L129.37 90.16L128.86 89.3Z" fill="#BE897B"/>
<path d="M128.54 89.49L129.05 90.34C129.098 90.4256 129.177 90.4899 129.27 90.52C129.364 90.5545 129.466 90.5545 129.56 90.52C129.602 90.4953 129.639 90.4624 129.669 90.4233C129.698 90.3842 129.719 90.3396 129.732 90.2922C129.744 90.2448 129.746 90.1954 129.739 90.147C129.732 90.0985 129.715 90.052 129.69 90.01L129.19 89.15C129.134 89.0693 129.053 89.0095 128.96 88.98C128.866 88.9456 128.764 88.9456 128.67 88.98C128.628 89.0048 128.591 89.0377 128.561 89.0768C128.532 89.1159 128.511 89.1605 128.499 89.2079C128.486 89.2553 128.484 89.3047 128.491 89.3531C128.498 89.4016 128.515 89.4481 128.54 89.49Z" fill="#BE897B"/>
<path d="M146.56 106.82C147.04 106.97 147.3 108.64 147.56 109.05L146.56 106.82Z" fill="#BE897B"/>
<path d="M146.46 107.18C146.51 107.18 146.36 107.13 146.46 107.18C146.56 107.23 146.46 107.18 146.46 107.18L146.53 107.26C146.53 107.26 146.48 107.18 146.53 107.26C146.535 107.283 146.535 107.307 146.53 107.33C146.559 107.37 146.583 107.414 146.6 107.46V107.52C146.6 107.52 146.65 107.66 146.66 107.68L146.78 108.03L146.99 108.71C147.049 108.905 147.13 109.093 147.23 109.27C147.279 109.356 147.36 109.419 147.456 109.446C147.552 109.472 147.654 109.459 147.74 109.41C147.826 109.361 147.889 109.28 147.916 109.184C147.942 109.088 147.929 108.986 147.88 108.9L147.82 108.79V108.73C147.82 108.63 147.75 108.53 147.71 108.42C147.67 108.31 147.56 107.93 147.48 107.68C147.33 107.24 147.15 106.63 146.66 106.47C146.565 106.444 146.462 106.456 146.376 106.505C146.29 106.554 146.227 106.635 146.2 106.73C146.174 106.826 146.186 106.928 146.235 107.014C146.284 107.1 146.365 107.164 146.46 107.19V107.18Z" fill="#BE897B"/>
<path d="M151.49 103.65C152.416 103.703 153.33 103.878 154.21 104.17L151.49 103.65Z" fill="#BE897B"/>
<path d="M151.49 103.97C152.381 104.03 153.261 104.201 154.11 104.48C154.157 104.494 154.207 104.498 154.256 104.492C154.305 104.486 154.352 104.471 154.395 104.447C154.437 104.422 154.475 104.39 154.505 104.351C154.535 104.312 154.557 104.268 154.57 104.22C154.595 104.125 154.582 104.023 154.533 103.937C154.485 103.852 154.405 103.788 154.31 103.76C153.397 103.46 152.449 103.279 151.49 103.22C151.436 103.211 151.38 103.214 151.327 103.229C151.274 103.244 151.225 103.27 151.183 103.305C151.141 103.341 151.107 103.385 151.084 103.435C151.061 103.485 151.049 103.54 151.049 103.595C151.049 103.65 151.061 103.705 151.084 103.755C151.107 103.805 151.141 103.849 151.183 103.885C151.225 103.92 151.274 103.946 151.327 103.961C151.38 103.976 151.436 103.979 151.49 103.97Z" fill="#BE897B"/>
<path d="M149.96 90.71H151.15C151.249 90.7074 151.343 90.6662 151.412 90.5952C151.481 90.5242 151.52 90.429 151.52 90.33C151.517 90.2326 151.478 90.14 151.409 90.0711C151.34 90.0023 151.247 89.9625 151.15 89.96H149.96C149.861 89.9599 149.766 89.9986 149.695 90.0677C149.624 90.1368 149.583 90.2309 149.58 90.33C149.583 90.4299 149.623 90.5251 149.694 90.5959C149.765 90.6666 149.86 90.7074 149.96 90.71Z" fill="#BE897B"/>
<path d="M145.33 96.2901V98.6501C145.33 98.7491 145.369 98.8443 145.438 98.9153C145.507 98.9863 145.601 99.0274 145.7 99.0301C145.795 99.0203 145.882 98.9763 145.947 98.9063C146.011 98.8363 146.048 98.7452 146.05 98.6501V96.2701C146.059 96.2157 146.056 96.16 146.041 96.1069C146.026 96.0538 146 96.0046 145.965 95.9626C145.929 95.9206 145.885 95.8869 145.835 95.8637C145.785 95.8406 145.73 95.8286 145.675 95.8286C145.62 95.8286 145.565 95.8406 145.515 95.8637C145.465 95.8869 145.421 95.9206 145.385 95.9626C145.35 96.0046 145.324 96.0538 145.309 96.1069C145.294 96.16 145.291 96.2157 145.3 96.2701L145.33 96.2901Z" fill="#BE897B"/>
<path d="M157.24 114.84V115.65C157.24 115.751 157.28 115.848 157.35 115.92C157.425 115.986 157.52 116.025 157.62 116.03C157.719 116.027 157.813 115.986 157.882 115.915C157.951 115.844 157.99 115.749 157.99 115.65V114.8C157.99 114.751 157.98 114.703 157.962 114.659C157.943 114.614 157.915 114.574 157.88 114.54C157.847 114.504 157.807 114.475 157.762 114.456C157.717 114.437 157.669 114.428 157.62 114.43C157.521 114.43 157.426 114.469 157.355 114.538C157.284 114.607 157.243 114.701 157.24 114.8V114.84Z" fill="#BE897B"/>
<path d="M164.93 115.2L165.93 115.54L164.93 115.2Z" fill="#BE897B"/>
<path d="M164.83 115.56L165.83 115.9C165.877 115.914 165.927 115.918 165.976 115.912C166.025 115.906 166.072 115.891 166.115 115.867C166.157 115.842 166.195 115.81 166.225 115.771C166.255 115.732 166.277 115.688 166.29 115.64C166.315 115.543 166.302 115.441 166.254 115.353C166.205 115.266 166.125 115.2 166.03 115.17L165.03 114.84C164.935 114.814 164.832 114.826 164.746 114.875C164.66 114.924 164.597 115.005 164.57 115.1C164.544 115.196 164.556 115.298 164.605 115.384C164.654 115.47 164.735 115.534 164.83 115.56Z" fill="#BE897B"/>
<path d="M171.57 113.51H173.57C173.667 113.507 173.76 113.468 173.829 113.399C173.898 113.33 173.937 113.237 173.94 113.14C173.94 113.041 173.901 112.946 173.832 112.875C173.763 112.804 173.669 112.763 173.57 112.76H171.57C171.471 112.763 171.377 112.804 171.308 112.875C171.239 112.946 171.2 113.041 171.2 113.14C171.203 113.237 171.242 113.33 171.311 113.399C171.38 113.468 171.473 113.507 171.57 113.51Z" fill="#BE897B"/>
<path d="M164.24 107.01C164.329 107.698 164.291 108.396 164.13 109.07L164.24 107.01Z" fill="#BE897B"/>
<path d="M163.86 107.01C163.905 107.341 163.922 107.676 163.91 108.01C163.91 108.08 163.91 108.16 163.91 108.24C163.915 108.283 163.915 108.327 163.91 108.37V108.43C163.89 108.598 163.86 108.765 163.82 108.93C163.795 109.025 163.808 109.127 163.857 109.213C163.905 109.298 163.985 109.362 164.08 109.39C164.175 109.412 164.276 109.398 164.361 109.35C164.446 109.302 164.51 109.223 164.54 109.13C164.714 108.424 164.755 107.691 164.66 106.97C164.657 106.873 164.618 106.78 164.549 106.711C164.48 106.642 164.387 106.603 164.29 106.6C164.11 106.6 163.89 106.77 163.91 106.97L163.86 107.01Z" fill="#BE897B"/>
<path d="M165.1 122.84C165.41 123.073 165.662 123.375 165.836 123.722C166.01 124.069 166.1 124.452 166.1 124.84" fill="#BE897B"/>
<path d="M164.91 123.17C164.933 123.165 164.957 123.165 164.98 123.17L165.08 123.26C165.148 123.322 165.212 123.389 165.27 123.46V123.52C165.302 123.552 165.329 123.589 165.35 123.63C165.404 123.709 165.451 123.793 165.49 123.88V123.94C165.49 123.94 165.49 124.01 165.49 123.94C165.49 123.87 165.49 123.94 165.49 123.94V124C165.526 124.087 165.553 124.177 165.57 124.27V124.41C165.57 124.41 165.57 124.48 165.57 124.41C165.57 124.34 165.57 124.41 165.57 124.41C165.57 124.41 165.57 124.61 165.57 124.71C165.561 124.764 165.564 124.82 165.579 124.873C165.594 124.926 165.62 124.975 165.655 125.017C165.691 125.059 165.735 125.093 165.785 125.116C165.835 125.139 165.89 125.151 165.945 125.151C166 125.151 166.055 125.139 166.105 125.116C166.155 125.093 166.199 125.059 166.235 125.017C166.27 124.975 166.296 124.926 166.311 124.873C166.326 124.82 166.329 124.764 166.32 124.71C166.323 124.249 166.216 123.795 166.007 123.384C165.798 122.973 165.494 122.619 165.12 122.35C165.078 122.325 165.032 122.308 164.983 122.301C164.935 122.294 164.885 122.296 164.838 122.308C164.79 122.321 164.746 122.342 164.707 122.371C164.668 122.401 164.635 122.438 164.61 122.48C164.566 122.568 164.554 122.669 164.578 122.764C164.602 122.86 164.66 122.943 164.74 123L164.91 123.17Z" fill="#BE897B"/>
<path d="M179.4 123.56H181.62C181.719 123.557 181.813 123.516 181.882 123.445C181.951 123.374 181.99 123.279 181.99 123.18C181.987 123.083 181.948 122.99 181.879 122.921C181.81 122.852 181.717 122.813 181.62 122.81H179.4C179.311 122.825 179.23 122.87 179.172 122.939C179.113 123.008 179.081 123.095 179.081 123.185C179.081 123.275 179.113 123.362 179.172 123.431C179.23 123.5 179.311 123.545 179.4 123.56Z" fill="#BE897B"/>
<path d="M108.93 85.4C109.741 85.3675 110.551 85.4827 111.32 85.74L108.93 85.4Z" fill="#BE897B"/>
<path d="M108.93 85.77C109.707 85.739 110.483 85.8509 111.22 86.1C111.315 86.1248 111.417 86.1115 111.503 86.063C111.588 86.0145 111.652 85.9345 111.68 85.84C111.705 85.7432 111.692 85.6405 111.644 85.5531C111.595 85.4656 111.515 85.4001 111.42 85.37C110.617 85.1092 109.774 84.9907 108.93 85.02C108.831 85.0226 108.737 85.0638 108.668 85.1347C108.599 85.2057 108.56 85.3009 108.56 85.4C108.563 85.4973 108.602 85.59 108.671 85.6588C108.74 85.7276 108.833 85.7674 108.93 85.77Z" fill="#BE897B"/>
</g>
<defs>
<linearGradient id="paint0_linear_377_954" x1="14.121" y1="268.436" x2="11.8244" y2="247.804" gradientUnits="userSpaceOnUse">
<stop offset="0.09" stop-color="#E7CFCB"/>
<stop offset="0.54" stop-color="#FDF5EF"/>
<stop offset="0.72" stop-color="#FDF5ED"/>
<stop offset="0.8" stop-color="#FCF3E6"/>
<stop offset="0.86" stop-color="#FCF0D9"/>
<stop offset="0.91" stop-color="#FBEBC8"/>
<stop offset="0.95" stop-color="#F9E6B0"/>
<stop offset="0.99" stop-color="#F8DF95"/>
<stop offset="1" stop-color="#F7DC88"/>
</linearGradient>
<linearGradient id="paint1_linear_377_954" x1="24.42" y1="226.59" x2="24.42" y2="285.7" gradientUnits="userSpaceOnUse">
<stop offset="0.09" stop-color="#DF958A"/>
<stop offset="0.54" stop-color="#F8CCA9"/>
<stop offset="0.72" stop-color="#F8CCA7"/>
<stop offset="0.8" stop-color="#F7CCA0"/>
<stop offset="0.86" stop-color="#F7CB93"/>
<stop offset="0.91" stop-color="#F6CB82"/>
<stop offset="0.96" stop-color="#F4CA6A"/>
<stop offset="0.99" stop-color="#F2C94F"/>
<stop offset="1" stop-color="#F2C94A"/>
</linearGradient>
<linearGradient id="paint2_linear_377_954" x1="61.9144" y1="268.161" x2="59.6167" y2="247.519" gradientUnits="userSpaceOnUse">
<stop offset="0.09" stop-color="#E7CFCB"/>
<stop offset="0.54" stop-color="#FDF5EF"/>
<stop offset="0.72" stop-color="#FDF5ED"/>
<stop offset="0.8" stop-color="#FCF3E6"/>
<stop offset="0.86" stop-color="#FCF0D9"/>
<stop offset="0.91" stop-color="#FBEBC8"/>
<stop offset="0.95" stop-color="#F9E6B0"/>
<stop offset="0.99" stop-color="#F8DF95"/>
<stop offset="1" stop-color="#F7DC88"/>
</linearGradient>
<linearGradient id="paint3_linear_377_954" x1="72.84" y1="226.59" x2="72.84" y2="285.7" gradientUnits="userSpaceOnUse">
<stop offset="0.09" stop-color="#DF958A"/>
<stop offset="0.54" stop-color="#F8CCA9"/>
<stop offset="0.72" stop-color="#F8CCA7"/>
<stop offset="0.8" stop-color="#F7CCA0"/>
<stop offset="0.86" stop-color="#F7CB93"/>
<stop offset="0.91" stop-color="#F6CB82"/>
<stop offset="0.96" stop-color="#F4CA6A"/>
<stop offset="0.99" stop-color="#F2C94F"/>
<stop offset="1" stop-color="#F2C94A"/>
</linearGradient>
<linearGradient id="paint4_linear_377_954" x1="109.705" y1="267.184" x2="107.357" y2="246.623" gradientUnits="userSpaceOnUse">
<stop offset="0.09" stop-color="#E7CFCB"/>
<stop offset="0.54" stop-color="#FDF5EF"/>
<stop offset="0.72" stop-color="#FDF5ED"/>
<stop offset="0.8" stop-color="#FCF3E6"/>
<stop offset="0.86" stop-color="#FCF0D9"/>
<stop offset="0.91" stop-color="#FBEBC8"/>
<stop offset="0.95" stop-color="#F9E6B0"/>
<stop offset="0.99" stop-color="#F8DF95"/>
<stop offset="1" stop-color="#F7DC88"/>
</linearGradient>
<linearGradient id="paint5_linear_377_954" x1="121.48" y1="226.59" x2="121.48" y2="285.7" gradientUnits="userSpaceOnUse">
<stop offset="0.09" stop-color="#DF958A"/>
<stop offset="0.54" stop-color="#F8CCA9"/>
<stop offset="0.72" stop-color="#F8CCA7"/>
<stop offset="0.8" stop-color="#F7CCA0"/>
<stop offset="0.86" stop-color="#F7CB93"/>
<stop offset="0.91" stop-color="#F6CB82"/>
<stop offset="0.96" stop-color="#F4CA6A"/>
<stop offset="0.99" stop-color="#F2C94F"/>
<stop offset="1" stop-color="#F2C94A"/>
</linearGradient>
<linearGradient id="paint6_linear_377_954" x1="158.687" y1="268.186" x2="156.39" y2="247.554" gradientUnits="userSpaceOnUse">
<stop offset="0.09" stop-color="#E7CFCB"/>
<stop offset="0.54" stop-color="#FDF5EF"/>
<stop offset="0.72" stop-color="#FDF5ED"/>
<stop offset="0.8" stop-color="#FCF3E6"/>
<stop offset="0.86" stop-color="#FCF0D9"/>
<stop offset="0.91" stop-color="#FBEBC8"/>
<stop offset="0.95" stop-color="#F9E6B0"/>
<stop offset="0.99" stop-color="#F8DF95"/>
<stop offset="1" stop-color="#F7DC88"/>
</linearGradient>
<linearGradient id="paint7_linear_377_954" x1="169.59" y1="226.59" x2="169.59" y2="285.7" gradientUnits="userSpaceOnUse">
<stop offset="0.09" stop-color="#DF958A"/>
<stop offset="0.54" stop-color="#F8CCA9"/>
<stop offset="0.72" stop-color="#F8CCA7"/>
<stop offset="0.8" stop-color="#F7CCA0"/>
<stop offset="0.86" stop-color="#F7CB93"/>
<stop offset="0.91" stop-color="#F6CB82"/>
<stop offset="0.96" stop-color="#F4CA6A"/>
<stop offset="0.99" stop-color="#F2C94F"/>
<stop offset="1" stop-color="#F2C94A"/>
</linearGradient>
<linearGradient id="paint8_linear_377_954" x1="206.085" y1="268.205" x2="203.789" y2="247.573" gradientUnits="userSpaceOnUse">
<stop offset="0.09" stop-color="#E7CFCB"/>
<stop offset="0.54" stop-color="#FDF5EF"/>
<stop offset="0.72" stop-color="#FDF5ED"/>
<stop offset="0.8" stop-color="#FCF3E6"/>
<stop offset="0.86" stop-color="#FCF0D9"/>
<stop offset="0.91" stop-color="#FBEBC8"/>
<stop offset="0.95" stop-color="#F9E6B0"/>
<stop offset="0.99" stop-color="#F8DF95"/>
<stop offset="1" stop-color="#F7DC88"/>
</linearGradient>
<linearGradient id="paint9_linear_377_954" x1="217.2" y1="226.59" x2="217.2" y2="285.7" gradientUnits="userSpaceOnUse">
<stop offset="0.09" stop-color="#DF958A"/>
<stop offset="0.54" stop-color="#F8CCA9"/>
<stop offset="0.72" stop-color="#F8CCA7"/>
<stop offset="0.8" stop-color="#F7CCA0"/>
<stop offset="0.86" stop-color="#F7CB93"/>
<stop offset="0.91" stop-color="#F6CB82"/>
<stop offset="0.96" stop-color="#F4CA6A"/>
<stop offset="0.99" stop-color="#F2C94F"/>
<stop offset="1" stop-color="#F2C94A"/>
</linearGradient>
<linearGradient id="paint10_linear_377_954" x1="196.611" y1="109.182" x2="151.033" y2="85.2313" gradientUnits="userSpaceOnUse">
<stop stop-color="#EAB0AC"/>
<stop offset="1" stop-color="#E99C97"/>
</linearGradient>
<clipPath id="clip0_377_954">
<rect width="241.77" height="252.96" fill="white" transform="translate(0 30)"/>
</clipPath>
</defs>
</svg>
