<svg width="121" height="120" viewBox="0 0 121 120" fill="none" xmlns="http://www.w3.org/2000/svg">
<g clip-path="url(#clip0_124_110)">
<circle cx="60.5" cy="60" r="58.5" fill="white" stroke="#87A1B7" stroke-width="3"/>
<path d="M56.5 26.6667V39.0834C48.599 40.6876 42.5052 46.9376 41.875 54.6667H40.5C40.4583 54.6667 40.4167 54.6667 40.375 54.6667C40.2917 54.672 40.2083 54.6876 40.125 54.7084C38.1094 54.9063 36.5 56.6042 36.5 58.6667C36.5 60.6563 38 62.2917 39.9167 62.5834C39.9583 62.5886 40 62.6199 40.0417 62.6251C40.125 62.6459 40.2083 62.6615 40.2917 62.6667C40.3646 62.672 40.4271 62.6667 40.5 62.6667H80.5C80.5417 62.6667 80.5833 62.6667 80.625 62.6667C80.6406 62.6667 80.651 62.6667 80.6667 62.6667C80.7396 62.6615 80.8021 62.6303 80.875 62.6251C82.8906 62.4272 84.5 60.7292 84.5 58.6667C84.5 56.6042 82.8906 54.9063 80.875 54.7084C80.776 54.698 80.6823 54.6667 80.5833 54.6667C80.5573 54.6667 80.526 54.6667 80.5 54.6667H79.125C78.4948 46.9376 72.401 40.6876 64.5 39.0834V26.6667H61.8333V38.7084C61.3854 38.6772 60.9531 38.6667 60.5 38.6667C60.0469 38.6667 59.6146 38.6772 59.1667 38.7084V26.6667H56.5ZM60.5 41.3334C68.9115 41.3334 75.6875 47.224 76.4167 54.6667H44.5833C45.3125 47.224 52.0885 41.3334 60.5 41.3334ZM40.4583 57.3334C40.474 57.3334 40.4844 57.3334 40.5 57.3334H80.5C80.5417 57.3334 80.5833 57.3334 80.625 57.3334C81.3177 57.3959 81.8333 57.9584 81.8333 58.6667C81.8333 59.3907 81.2969 59.9584 80.5833 60.0001C80.5573 60.0001 80.526 60.0001 80.5 60.0001H40.5C40.4583 60.0001 40.4167 60.0053 40.375 60.0001C39.6823 59.9376 39.1667 59.3751 39.1667 58.6667C39.1667 57.9272 39.724 57.3542 40.4583 57.3334ZM49.8333 66.6667C48.3594 66.6667 47.1667 67.8595 47.1667 69.3334C47.1667 70.8074 48.3594 72.0001 49.8333 72.0001C51.3073 72.0001 52.5 70.8074 52.5 69.3334C52.5 67.8595 51.3073 66.6667 49.8333 66.6667ZM60.5 66.6667C59.026 66.6667 57.8333 67.8595 57.8333 69.3334C57.8333 70.8074 59.026 72.0001 60.5 72.0001C61.974 72.0001 63.1667 70.8074 63.1667 69.3334C63.1667 67.8595 61.974 66.6667 60.5 66.6667ZM71.1667 66.6667C69.6927 66.6667 68.5 67.8595 68.5 69.3334C68.5 70.8074 69.6927 72.0001 71.1667 72.0001C72.6406 72.0001 73.8333 70.8074 73.8333 69.3334C73.8333 67.8595 72.6406 66.6667 71.1667 66.6667ZM44.5 77.3334C43.026 77.3334 41.8333 78.5261 41.8333 80.0001C41.8333 81.474 43.026 82.6667 44.5 82.6667C45.974 82.6667 47.1667 81.474 47.1667 80.0001C47.1667 78.5261 45.974 77.3334 44.5 77.3334ZM55.1667 77.3334C53.6927 77.3334 52.5 78.5261 52.5 80.0001C52.5 81.474 53.6927 82.6667 55.1667 82.6667C56.6406 82.6667 57.8333 81.474 57.8333 80.0001C57.8333 78.5261 56.6406 77.3334 55.1667 77.3334ZM65.8333 77.3334C64.3594 77.3334 63.1667 78.5261 63.1667 80.0001C63.1667 81.474 64.3594 82.6667 65.8333 82.6667C67.3073 82.6667 68.5 81.474 68.5 80.0001C68.5 78.5261 67.3073 77.3334 65.8333 77.3334ZM76.5 77.3334C75.026 77.3334 73.8333 78.5261 73.8333 80.0001C73.8333 81.474 75.026 82.6667 76.5 82.6667C77.974 82.6667 79.1667 81.474 79.1667 80.0001C79.1667 78.5261 77.974 77.3334 76.5 77.3334ZM39.1667 88.0001C37.6927 88.0001 36.5 89.1928 36.5 90.6667C36.5 92.1407 37.6927 93.3334 39.1667 93.3334C40.6406 93.3334 41.8333 92.1407 41.8333 90.6667C41.8333 89.1928 40.6406 88.0001 39.1667 88.0001ZM49.8333 88.0001C48.3594 88.0001 47.1667 89.1928 47.1667 90.6667C47.1667 92.1407 48.3594 93.3334 49.8333 93.3334C51.3073 93.3334 52.5 92.1407 52.5 90.6667C52.5 89.1928 51.3073 88.0001 49.8333 88.0001ZM60.5 88.0001C59.026 88.0001 57.8333 89.1928 57.8333 90.6667C57.8333 92.1407 59.026 93.3334 60.5 93.3334C61.974 93.3334 63.1667 92.1407 63.1667 90.6667C63.1667 89.1928 61.974 88.0001 60.5 88.0001ZM71.1667 88.0001C69.6927 88.0001 68.5 89.1928 68.5 90.6667C68.5 92.1407 69.6927 93.3334 71.1667 93.3334C72.6406 93.3334 73.8333 92.1407 73.8333 90.6667C73.8333 89.1928 72.6406 88.0001 71.1667 88.0001ZM81.8333 88.0001C80.3594 88.0001 79.1667 89.1928 79.1667 90.6667C79.1667 92.1407 80.3594 93.3334 81.8333 93.3334C83.3073 93.3334 84.5 92.1407 84.5 90.6667C84.5 89.1928 83.3073 88.0001 81.8333 88.0001Z" fill="#374B5C"/>
</g>
<defs>
<clipPath id="clip0_124_110">
<rect width="120" height="120" fill="white" transform="translate(0.5)"/>
</clipPath>
</defs>
</svg>
