<svg width="150" height="150" viewBox="0 0 150 150" fill="none" xmlns="http://www.w3.org/2000/svg">
<g clip-path="url(#clip0_636_788)">
<path d="M81.1613 111.418C79.496 113.083 77.3312 114.082 74.9998 114.082C72.6684 114.082 70.5035 113.083 68.8383 111.418C67.8391 110.419 66.3403 110.419 65.3412 111.418C64.342 112.417 64.342 113.916 65.3412 114.915C68.0056 117.58 71.5027 119.078 75.1663 119.078C78.8299 119.078 82.327 117.58 84.9915 114.915C85.9906 113.916 85.9906 112.417 84.9915 111.418C83.8258 110.419 82.1605 110.419 81.1613 111.418Z" fill="#32B2C3"/>
<path d="M90.9866 91.9343C91.4862 92.6004 92.1523 92.7669 92.8184 92.7669C93.318 92.7669 93.9841 92.6004 94.4837 92.1008C95.4829 91.2681 95.6494 89.6029 94.8168 88.6037C93.1515 86.6054 90.8201 85.4397 88.3222 85.4397C85.8242 85.4397 83.4929 86.6054 81.8276 88.6037C80.9949 89.6029 80.9949 91.2681 82.1606 92.1008C83.1598 92.9334 84.8251 92.7669 85.6577 91.7677C87.1565 90.1024 89.4879 90.1024 90.9866 91.9343Z" fill="#32B2C3"/>
<path d="M67.8394 92.2673C68.8386 91.4347 69.0051 89.7694 68.1725 88.7703C66.5072 86.7719 64.1758 85.6062 61.6779 85.6062C59.18 85.6062 56.8486 86.7719 55.1833 88.7703C54.3507 89.7694 54.3507 91.4347 55.5163 92.2673C56.5155 93.1 58.1808 93.1 59.0134 91.9343C60.5122 90.1025 62.8436 90.1025 64.3423 91.9343C64.8419 92.6004 65.508 92.7669 66.1741 92.7669C66.8402 92.7669 67.5064 92.6004 67.8394 92.2673Z" fill="#32B2C3"/>
<path d="M149.438 15.1649C148.938 14.4988 148.272 14.1657 147.44 14.1657H127.623C126.457 14.1657 125.458 14.9983 125.125 16.164L117.631 53.6328C115.633 49.6361 112.802 45.9725 109.138 43.1416C106.973 25.9892 92.4854 13 75 13C57.5146 13 43.0266 25.8226 40.8618 43.1416C37.1982 46.1391 34.3672 49.6361 32.3689 53.6328L24.8751 16.164C24.7086 14.9983 23.5429 14.1657 22.3772 14.1657H2.56037C1.72773 14.1657 1.06162 14.4988 0.562032 15.1649C0.0624482 15.831 -0.10408 16.4971 0.0624479 17.1632L10.8868 67.6212C11.7194 71.9509 12.7186 74.7819 13.5512 77.2798C14.7169 80.6103 15.5495 83.1083 15.7161 87.438C15.8826 88.9367 15.8826 90.4355 15.8826 91.9342C16.0491 98.9284 16.3822 106.089 24.209 112.417L47.856 135.065C49.3547 136.397 51.1865 137.063 53.0183 137.063C53.1848 137.063 53.3514 137.063 53.5179 137.063C55.8493 136.897 58.0142 135.731 59.5129 133.899C59.846 133.4 60.179 132.9 60.3455 132.401C64.8418 134.399 69.8376 135.398 74.6669 135.398C79.6628 135.398 84.4921 134.399 88.9883 132.401C89.1549 132.9 89.4879 133.4 89.821 133.899C91.3197 135.731 93.4846 136.897 95.816 137.063C95.9825 137.063 96.149 137.063 96.3156 137.063C98.3139 137.063 100.146 136.397 101.478 135.065L125.125 112.584C132.952 106.089 133.285 98.9284 133.451 92.1008C133.451 90.602 133.618 89.1033 133.618 87.438C133.784 83.1083 134.617 80.7769 135.783 77.2798C136.615 74.7819 137.614 71.9509 138.447 67.6212L149.938 17.1632C150.104 16.4971 149.938 15.6644 149.438 15.1649ZM115.3 62.6253C114.467 63.9575 113.135 65.2898 111.137 66.955C108.639 68.9534 106.807 71.4513 105.475 73.7827C100.978 69.9525 93.9842 67.6212 86.657 66.4555C91.1532 63.458 94.3172 59.1282 96.3156 55.1316C98.4804 50.8018 99.1465 46.4721 98.647 42.8085C107.806 46.8052 113.634 53.4663 115.3 62.6253ZM75 17.9958C88.1557 17.9958 99.6461 26.9883 103.31 39.3114C100.978 38.1457 98.3139 36.98 95.6495 36.1474C95.3164 35.9809 94.9833 35.8143 94.4838 35.8143C88.8218 34.149 82.1607 33.1499 75 33.1499C63.8426 33.1499 54.184 35.3147 46.6903 39.3114C50.1873 26.8218 61.5112 17.9958 75 17.9958ZM75 38.3122C81.6611 38.3122 87.6561 39.1449 92.8185 40.6436C94.4838 43.4746 94.1507 48.1374 91.8193 52.9667C88.9883 58.7952 82.6603 65.6228 74.0008 65.6228C63.5096 65.7893 51.1865 67.9542 44.3589 73.7827C43.0266 71.2848 41.1948 68.9534 38.6969 66.955C36.6986 65.2898 35.3664 63.9575 34.5337 62.6253C37.6978 47.1382 52.3522 38.3122 75 38.3122ZM55.8493 130.902C55.1832 131.734 54.3505 132.067 53.5179 132.234C53.0183 132.234 52.1857 132.234 51.5196 131.568L27.5396 108.92L27.373 108.754C21.2115 103.758 21.045 98.5953 20.8784 91.9342C20.8784 90.4355 20.7119 88.7702 20.7119 87.2714C20.5454 82.2756 19.5462 79.2781 18.3805 75.781C17.5479 73.2831 16.7152 70.6187 15.8826 66.622L5.7244 19.1615H20.3789L28.8718 61.1266C29.7044 65.2898 32.8684 68.2873 35.6994 70.6187C40.3622 74.4488 42.5271 79.7777 43.0266 88.4371L43.5262 97.5962C43.6928 99.5945 42.194 101.26 40.1957 101.426C38.1973 101.593 36.5321 100.094 36.3655 98.0958L35.5329 85.1066C35.3664 83.7744 34.2007 82.6087 32.8684 82.7752C31.5362 82.9417 30.3705 84.1074 30.5371 85.4396L31.3697 98.4288C31.7027 102.592 35.0333 105.923 39.03 106.422L55.0167 125.739C56.1824 127.238 57.015 129.236 55.8493 130.902ZM61.1782 127.405C60.8451 125.739 60.0125 124.074 58.8468 122.575L44.5254 105.256C47.0233 103.591 48.6886 100.76 48.5221 97.4297L48.0225 88.2706C47.856 85.2731 47.5229 82.1091 46.5237 78.7785C51.02 73.7827 62.1774 70.6187 75 70.6187C87.9892 70.6187 99.1465 73.9492 103.476 78.7785C102.477 82.1091 102.144 85.2731 101.978 88.2706L101.478 97.4297C101.311 100.594 102.977 103.591 105.475 105.256L91.1532 122.575C89.821 124.074 89.1549 125.739 88.8218 127.405C80.1624 131.568 69.8376 131.568 61.1782 127.405ZM134.284 66.622C133.451 70.6187 132.452 73.2831 131.786 75.781C130.62 79.2781 129.621 82.2756 129.455 87.1049C129.288 88.7702 129.288 90.269 129.288 91.7677C129.122 98.4288 128.955 103.591 122.794 108.587L122.627 108.754L98.647 131.568C97.9808 132.234 97.1482 132.234 96.6486 132.234C95.6495 132.234 94.8168 131.734 94.1507 130.902C92.8185 129.236 93.6511 127.238 94.9834 125.739L110.97 106.422C115.133 106.089 118.464 102.759 118.63 98.4288L119.463 85.4396C119.629 84.1074 118.464 82.9417 117.132 82.7752C115.799 82.6087 114.634 83.7744 114.467 85.1066L113.634 98.0958C113.468 100.094 111.803 101.593 109.804 101.426C107.806 101.26 106.307 99.5945 106.474 97.5962L106.973 88.4371C107.473 79.7777 109.638 74.4488 114.301 70.6187C117.132 68.2873 120.296 65.2898 121.128 61.1266L129.621 19.1615H144.276L134.284 66.622Z" fill="#32B2C3"/>
</g>
<defs>
<clipPath id="clip0_636_788">
<rect width="150" height="150" fill="white"/>
</clipPath>
</defs>
</svg>
