<svg width="150" height="150" viewBox="0 0 150 150" fill="none" xmlns="http://www.w3.org/2000/svg">
<path d="M73.1125 100.781C70.6688 101.3 68.1484 101.563 65.625 101.563C45.8094 101.563 29.6875 85.4406 29.6875 65.625C29.6875 45.8094 45.8094 29.6875 65.625 29.6875C85.4406 29.6875 101.563 45.8094 101.563 65.625C101.563 77.1594 95.9641 88.0734 86.5875 94.8188C85.8875 95.3235 85.7281 96.3 86.2313 97C86.736 97.7 87.711 97.8578 88.4125 97.3563C98.6031 90.025 104.688 78.1625 104.688 65.625C104.688 44.0859 87.1641 26.5625 65.625 26.5625C44.0859 26.5625 26.5625 44.0859 26.5625 65.625C26.5625 87.1641 44.0859 104.688 65.625 104.688C68.3656 104.688 71.1031 104.402 73.7625 103.839C74.6063 103.659 75.1453 102.83 74.9672 101.986C74.7891 101.142 73.9594 100.602 73.1125 100.781V100.781Z" fill="#32B2C3"/>
<path d="M90.2828 45.8984C89.7437 45.225 88.7593 45.1156 88.0875 45.6547L66.7562 62.7187C66.4047 62.5812 66.025 62.5 65.625 62.5C64.989 62.5 64.4 62.6922 63.9062 63.0187L44.4484 53.2906C43.675 52.9031 42.7375 53.2172 42.3515 53.9891C41.9656 54.7609 42.2781 55.7 43.05 56.0859L62.5187 65.8203C62.6219 67.4531 63.9656 68.75 65.625 68.75C67.3515 68.75 68.75 67.3516 68.75 65.625C68.75 65.4672 68.7265 65.3156 68.7031 65.1625L90.0375 48.0953C90.7125 47.5562 90.8218 46.5734 90.2828 45.8984V45.8984Z" fill="#32B2C3"/>
<path d="M65.625 89.0625C66.4879 89.0625 67.1875 88.363 67.1875 87.5C67.1875 86.6371 66.4879 85.9375 65.625 85.9375C64.7621 85.9375 64.0625 86.6371 64.0625 87.5C64.0625 88.363 64.7621 89.0625 65.625 89.0625Z" fill="#32B2C3"/>
<path d="M71.875 89.0625C72.7379 89.0625 73.4375 88.363 73.4375 87.5C73.4375 86.6371 72.7379 85.9375 71.875 85.9375C71.0121 85.9375 70.3125 86.6371 70.3125 87.5C70.3125 88.363 71.0121 89.0625 71.875 89.0625Z" fill="#32B2C3"/>
<path d="M59.375 89.0625C60.2379 89.0625 60.9375 88.363 60.9375 87.5C60.9375 86.6371 60.2379 85.9375 59.375 85.9375C58.5121 85.9375 57.8125 86.6371 57.8125 87.5C57.8125 88.363 58.5121 89.0625 59.375 89.0625Z" fill="#32B2C3"/>
<path d="M96.875 75V65.625C96.875 64.7625 96.175 64.0625 95.3125 64.0625H79.6875C78.825 64.0625 78.125 64.7625 78.125 65.625V75C78.125 75.8625 78.825 76.5625 79.6875 76.5625H95.3125C96.175 76.5625 96.875 75.8625 96.875 75ZM85.9375 73.4375H81.25V67.1875H85.9375V73.4375ZM93.75 73.4375H89.0625V67.1875H93.75V73.4375Z" fill="#32B2C3"/>
<path d="M145.313 100H132.813C131.95 100 131.25 100.7 131.25 101.562V103.125H127.209L124.542 100.458C124.25 100.164 123.852 100 123.438 100C120.853 100 118.75 97.8969 118.75 95.3125V85.9375C118.75 81.6297 115.245 78.125 110.938 78.125C110.877 78.125 110.822 78.1406 110.763 78.1422C111.894 74.0625 112.5 69.8688 112.5 65.625C112.5 39.7781 91.472 18.75 65.6251 18.75C39.7782 18.75 18.7501 39.7781 18.7501 65.625C18.7501 91.4719 39.7782 112.5 65.6251 112.5C70.1923 112.5 74.7032 111.802 79.0735 110.492C79.5173 111.269 80.097 111.945 80.7923 112.5C79.8126 113.284 79.0454 114.309 78.5954 115.505C77.236 115.866 75.9454 116.169 74.711 116.391C74.0688 116.506 73.5657 117.009 73.4501 117.653L72.1954 124.648C71.1298 124.767 70.0454 124.856 68.9501 124.917L66.711 118.255C66.4985 117.622 65.9095 117.195 65.2423 117.189C61.472 117.159 57.6923 116.709 54.0079 115.853C53.3673 115.703 52.697 115.975 52.3391 116.53L48.5157 122.477C48.0032 122.323 47.4907 122.164 46.9798 121.995C46.4673 121.827 45.961 121.648 45.4579 121.466L45.936 114.411C45.9813 113.753 45.6063 113.137 45.0001 112.873C41.5251 111.361 38.2235 109.469 35.1844 107.247C34.6454 106.853 33.9188 106.845 33.3704 107.225L27.6001 111.238C26.7579 110.536 25.9407 109.817 25.1563 109.086L28.3204 102.723C28.611 102.137 28.5079 101.434 28.0594 100.958C25.5594 98.2937 23.3141 95.3078 21.386 92.0812C21.0423 91.5062 20.3673 91.2109 19.7126 91.3562L12.8751 92.8437C12.3469 91.8187 11.8454 90.7734 11.3766 89.7187L16.7626 85.0172C17.2501 84.5922 17.4235 83.9109 17.2016 83.3031C15.9704 79.9344 15.0891 76.4406 14.5829 72.9187C14.4876 72.2516 13.9751 71.7219 13.3126 71.6031L6.44382 70.3719C6.34538 69.1375 6.28288 67.9 6.26101 66.6687L13.0704 64.3797C13.6782 64.175 14.1001 63.6203 14.1329 62.9797C14.3079 59.5969 14.8282 56.2031 15.6766 52.8891C15.8438 52.2375 15.5751 51.5516 15.0079 51.1875L9.12038 47.4031C9.16413 47.2625 9.20788 47.1203 9.25476 46.9797C9.60632 45.9187 10.0173 44.8047 10.5032 43.6L17.6923 44.0859C18.3266 44.1297 18.9282 43.7812 19.2048 43.2047C20.6079 40.2906 22.2876 37.5062 24.1969 34.9297C24.5954 34.3906 24.6063 33.6578 24.2235 33.1078L20.2235 27.3578C21.1438 26.2688 22.1188 25.1984 23.136 24.1594L29.5891 27.3688C30.1594 27.6531 30.8454 27.5609 31.3235 27.1375C33.6141 25.1016 36.0891 23.2641 38.6813 21.6766C39.2485 21.3297 39.5329 20.6609 39.3923 20.0125L37.8969 13.1375C39.2391 12.4297 40.6313 11.7641 42.0579 11.1484L46.786 16.5656C47.2063 17.0484 47.8798 17.225 48.4829 17.0109C51.2626 16.0297 54.1235 15.2844 56.9845 14.7953C57.6329 14.6844 58.1438 14.1781 58.2594 13.5297L59.5079 6.56406C61.0563 6.40469 62.6438 6.30781 64.2516 6.27187L66.5329 13.0594C66.7376 13.6719 67.2985 14.0937 67.9423 14.1234C70.8266 14.2547 73.6907 14.6234 76.4548 15.2219C77.0985 15.3594 77.7485 15.0875 78.1001 14.5391L81.9485 8.55156C82.7798 8.78594 83.5438 9.01875 84.2657 9.25781C84.9876 9.49688 85.7423 9.76719 86.5485 10.0719L86.0673 17.1734C86.0235 17.8234 86.3876 18.4328 86.9798 18.7016C89.5532 19.8703 92.0735 21.2797 94.4688 22.8969C95.0016 23.2563 95.7048 23.2531 96.2345 22.8844L102.114 18.7969C103.383 19.7844 104.6 20.8094 105.749 21.8609L102.597 28.1984C102.303 28.7875 102.411 29.4984 102.867 29.9734C104.872 32.0719 106.724 34.3766 108.37 36.8234C108.727 37.3531 109.37 37.6172 109.999 37.4781L117.025 35.95C117.803 37.2969 118.524 38.6609 119.18 40.0281L113.878 44.6547C113.378 45.0922 113.208 45.7984 113.456 46.4141C114.591 49.2328 115.481 52.1828 116.106 55.1859C116.236 55.8094 116.733 56.2922 117.361 56.4062L124.456 57.6781C124.653 59.1203 124.797 60.5609 124.886 61.9828L118.247 64.2156C117.617 64.425 117.188 65.0203 117.188 65.6906C117.183 68.8969 116.87 72.1328 116.259 75.3094C116.139 75.9359 116.411 76.5734 116.949 76.9188L123.009 80.8156C122.681 82.0734 122.347 83.2125 121.997 84.2719C121.881 84.6187 121.756 84.9594 121.63 85.3016L121.447 85.8016C121.155 86.6141 121.575 87.5094 122.388 87.8016C123.202 88.0906 124.095 87.6734 124.388 86.8609L124.563 86.3813C124.7 86.0078 124.838 85.6328 124.964 85.2516C125.439 83.8188 125.881 82.2578 126.319 80.4797C126.478 79.8312 126.208 79.1531 125.647 78.7922L119.52 74.8531C119.978 72.1922 120.241 69.4984 120.302 66.8172L127.014 64.5609C127.672 64.3391 128.106 63.7094 128.077 63.0141C127.981 60.7406 127.752 58.4125 127.392 56.0938C127.291 55.4344 126.78 54.9125 126.124 54.7953L118.949 53.5094C118.388 51.0484 117.656 48.625 116.769 46.2813L122.128 41.6031C122.649 41.1484 122.809 40.4078 122.522 39.7797C121.544 37.6266 120.406 35.4703 119.142 33.3703C118.797 32.7984 118.128 32.5062 117.472 32.65L110.367 34.1953C108.991 32.2313 107.488 30.3594 105.886 28.6125L109.074 22.2047C109.378 21.5906 109.249 20.8516 108.753 20.3797C107.016 18.7203 105.114 17.1156 103.103 15.6094C102.564 15.2062 101.828 15.1937 101.275 15.5766L95.3298 19.7094C93.3704 18.4422 91.3391 17.3031 89.2673 16.3109L89.7532 9.13438C89.7985 8.45781 89.4032 7.82812 88.772 7.57656C87.497 7.06875 86.347 6.64687 85.2563 6.28594C84.1704 5.92656 82.9954 5.57969 81.6657 5.225C81.0063 5.04688 80.3173 5.31875 79.9485 5.88906L76.0579 11.9406C73.8016 11.5016 71.4923 11.2031 69.1641 11.0531L66.8579 4.19062C66.6438 3.55312 66.0469 3.125 65.3766 3.125C65.3751 3.125 65.372 3.125 65.3704 3.125C62.8548 3.13594 60.3719 3.28906 57.9891 3.58437C57.3079 3.67187 56.7626 4.1875 56.6407 4.8625L55.3782 11.9062C53.0501 12.3531 50.7282 12.9594 48.4516 13.7141L43.6704 8.2375C43.2313 7.73437 42.5204 7.56406 41.8985 7.82031C39.6344 8.75156 37.436 9.80469 35.3641 10.95C34.7594 11.2844 34.4469 11.975 34.5938 12.6484L36.1048 19.6C33.9923 20.9531 31.961 22.4641 30.0438 24.1031L23.5173 20.8562C22.9173 20.5578 22.2001 20.675 21.7251 21.1422C20.0532 22.7891 18.4782 24.5219 17.0469 26.2891C16.6094 26.8297 16.5813 27.5937 16.9782 28.1641L21.0219 33.9781C19.4704 36.1672 18.0735 38.4859 16.8548 40.8953L9.58913 40.4047C8.93444 40.3641 8.30163 40.7437 8.04382 41.3578C7.33444 43.0453 6.75944 44.5609 6.28601 45.9953C6.15944 46.3766 6.04694 46.7578 5.93444 47.1406L5.78913 47.6297C5.58757 48.2969 5.85476 49.0172 6.44069 49.3953L12.3766 53.2109C11.7173 56.025 11.2813 58.8891 11.0751 61.75L4.18913 64.0641C3.55476 64.2797 3.12507 64.875 3.12507 65.5453C3.12194 67.6375 3.22663 69.7594 3.43913 71.8562C3.50944 72.55 4.03132 73.1141 4.71882 73.2375L11.661 74.4828C12.1579 77.4875 12.911 80.4656 13.9063 83.3625L8.46101 88.1156C7.95319 88.5594 7.78601 89.2797 8.04851 89.9016C8.83288 91.7578 9.71569 93.5984 10.6735 95.3672C11.0032 95.9797 11.7016 96.2984 12.3798 96.15L19.2891 94.6484C21.0001 97.3844 22.9282 99.95 25.0407 102.295L21.8407 108.73C21.5376 109.339 21.6641 110.073 22.1516 110.547C23.5219 111.877 25.0001 113.178 26.5454 114.414C27.0844 114.847 27.8469 114.872 28.4141 114.478L34.2469 110.422C36.9173 112.289 39.7673 113.922 42.7423 115.289L42.2594 122.417C42.2126 123.102 42.6188 123.736 43.2595 123.981C44.161 124.327 45.0704 124.658 45.9954 124.962C46.9204 125.269 47.8485 125.545 48.7766 125.806C49.436 125.991 50.1423 125.723 50.5126 125.147L54.3766 119.138C57.5766 119.814 60.8376 120.203 64.0985 120.295L66.3626 127.031C66.5766 127.67 67.1751 128.097 67.8423 128.097H67.9001C69.8798 128.023 71.8407 127.861 73.7313 127.611C74.4063 127.522 74.9454 127.008 75.0657 126.338L76.3345 119.263C76.9485 119.138 77.572 118.997 78.211 118.841C78.4438 120.7 79.3938 122.323 80.7891 123.439C79.1798 124.727 78.1251 126.686 78.1251 128.906C78.1251 131.127 79.1798 133.086 80.7907 134.375C79.1798 135.664 78.1251 137.623 78.1251 139.844C78.1251 143.72 81.2798 146.875 85.1563 146.875H126.563C126.805 146.875 127.045 146.819 127.261 146.711L131.25 144.716V145.312C131.25 146.175 131.95 146.875 132.813 146.875H145.313C146.175 146.875 146.875 146.175 146.875 145.312V101.562C146.875 100.7 146.175 100 145.313 100V100ZM78.1251 107.031C78.1251 107.192 78.1626 107.344 78.172 107.502C74.0954 108.723 69.886 109.375 65.6251 109.375C41.5016 109.375 21.8751 89.7484 21.8751 65.625C21.8751 41.5016 41.5016 21.875 65.6251 21.875C89.7485 21.875 109.375 41.5016 109.375 65.625C109.375 70.2109 108.639 74.7406 107.224 79.1078C104.795 80.4344 103.125 82.9813 103.125 85.9375V100H85.1563C81.2798 100 78.1251 103.155 78.1251 107.031ZM96.0938 143.75H85.1563C83.0032 143.75 81.2501 141.997 81.2501 139.844C81.2501 137.691 83.0032 135.938 85.1563 135.938H96.0938C98.247 135.938 100 137.691 100 139.844C100 141.997 98.247 143.75 96.0938 143.75ZM96.0938 132.812H85.1563C83.0032 132.812 81.2501 131.059 81.2501 128.906C81.2501 126.753 83.0032 125 85.1563 125H96.0938C98.247 125 100 126.753 100 128.906C100 131.059 98.247 132.812 96.0938 132.812ZM96.0938 121.875H85.1563C83.0032 121.875 81.2501 120.122 81.2501 117.969C81.2501 115.816 83.0032 114.062 85.1563 114.062H96.0938C98.247 114.062 100 115.816 100 117.969C100 120.122 98.247 121.875 96.0938 121.875ZM96.0938 110.938H85.1563C83.3954 110.938 81.9204 109.758 81.4345 108.155C81.4313 108.144 81.4345 108.131 81.4298 108.12C81.4266 108.111 81.4188 108.105 81.4157 108.095C81.3188 107.755 81.2501 107.403 81.2501 107.031C81.2501 104.878 83.0032 103.125 85.1563 103.125H96.0938C98.247 103.125 100 104.878 100 107.031C100 109.184 98.247 110.938 96.0938 110.938V110.938ZM143.75 143.75H134.375V142.188C134.375 141.645 134.094 141.144 133.634 140.858C133.174 140.573 132.599 140.548 132.114 140.789L126.194 143.75H101.934C102.684 142.631 103.125 141.289 103.125 139.844C103.125 137.623 102.07 135.664 100.459 134.375C102.07 133.086 103.125 131.127 103.125 128.906C103.125 126.686 102.07 124.727 100.459 123.438C102.07 122.148 103.125 120.189 103.125 117.969C103.125 115.748 102.07 113.789 100.459 112.5C102.07 111.211 103.125 109.252 103.125 107.031C103.125 105.586 102.684 104.244 101.934 103.125H104.688C105.55 103.125 106.25 102.425 106.25 101.562V85.9375C106.25 83.3531 108.353 81.25 110.938 81.25C113.522 81.25 115.625 83.3531 115.625 85.9375V95.3125C115.625 99.3922 118.769 102.752 122.761 103.095L125.458 105.792C125.75 106.086 126.149 106.25 126.563 106.25H131.25V135.938C131.25 136.8 131.95 137.5 132.813 137.5C133.675 137.5 134.375 136.8 134.375 135.938V103.125H143.75V143.75Z" fill="#32B2C3"/>
<path d="M139.063 109.375C139.925 109.375 140.625 108.675 140.625 107.813C140.625 106.95 139.925 106.25 139.063 106.25C138.2 106.25 137.5 106.95 137.5 107.813C137.5 108.675 138.2 109.375 139.063 109.375Z" fill="#32B2C3"/>
<path d="M67.1875 137.5C68.05 137.5 68.75 136.8 68.75 135.938C68.75 135.075 68.05 134.375 67.1875 134.375H62.5C61.6375 134.375 60.9375 135.075 60.9375 135.938C60.9375 136.8 61.6375 137.5 62.5 137.5H67.1875Z" fill="#32B2C3"/>
<path d="M4.6875 137.5H12.5C13.1969 137.5 13.8109 137.037 14.0016 136.367L15.6797 130.494L20.3812 145.772C20.5844 146.43 21.1906 146.875 21.875 146.875H21.9281C22.6328 146.852 23.2344 146.358 23.3969 145.67L28.3844 124.469L34.4547 142.681C34.6547 143.28 35.1969 143.7 35.8266 143.745C36.4469 143.789 37.0516 143.452 37.3344 142.886L40.0281 137.5H56.25C57.1125 137.5 57.8125 136.8 57.8125 135.937C57.8125 135.075 57.1125 134.375 56.25 134.375H39.0625C38.4703 134.375 37.9297 134.709 37.6641 135.239L36.2266 138.116L29.6078 118.256C29.3859 117.594 28.7422 117.166 28.0547 117.189C27.3562 117.222 26.7641 117.711 26.6047 118.392L21.675 139.345L17.1187 124.541C16.9172 123.884 16.3094 123.437 15.625 123.437C15.6203 123.437 15.6141 123.437 15.6094 123.437C14.9187 123.444 14.3125 123.906 14.1234 124.57L11.3219 134.375H4.6875C3.825 134.375 3.125 135.075 3.125 135.937C3.125 136.8 3.825 137.5 4.6875 137.5V137.5Z" fill="#32B2C3"/>
<path d="M73.4375 137.5C74.3004 137.5 75 136.8 75 135.938C75 135.075 74.3004 134.375 73.4375 134.375C72.5746 134.375 71.875 135.075 71.875 135.938C71.875 136.8 72.5746 137.5 73.4375 137.5Z" fill="#32B2C3"/>
</svg>
