<svg width="32" height="32" viewBox="0 0 32 32" fill="none" xmlns="http://www.w3.org/2000/svg">
<path d="M8.55804 5.05072C8.47468 5.05065 8.39311 5.02649 8.32316 4.98114C8.25321 4.93579 8.19786 4.87118 8.16378 4.79511C8.12969 4.71903 8.11832 4.63472 8.13104 4.55233C8.14375 4.46994 8.18001 4.39298 8.23545 4.33072C8.53487 3.99599 8.85646 3.68176 9.19804 3.39018C9.2412 3.35327 9.29121 3.32522 9.34521 3.30763C9.39921 3.29005 9.45614 3.28327 9.51276 3.28769C9.56938 3.2921 9.62457 3.30763 9.67519 3.33338C9.72581 3.35913 9.77086 3.39459 9.80777 3.43775C9.84468 3.48091 9.87273 3.53092 9.89032 3.58491C9.90791 3.63891 9.91468 3.69585 9.91027 3.75247C9.90585 3.80909 9.89032 3.86428 9.86458 3.9149C9.83883 3.96552 9.80336 4.01057 9.7602 4.04748C9.44819 4.31382 9.15435 4.60073 8.88064 4.90629C8.84007 4.95173 8.79036 4.98808 8.73477 5.01297C8.67918 5.03786 8.61895 5.05073 8.55804 5.05072Z" fill="#32B2C3" stroke="#32B2C3"/>
<path d="M20.9471 23.8833H11.053C10.9383 23.8833 10.8283 23.8378 10.7472 23.7567C10.6662 23.6756 10.6206 23.5656 10.6206 23.4509V23.0141C10.6206 20.8896 10.1319 20.3837 9.15897 19.3757C8.58285 18.7972 8.04887 18.1782 7.56113 17.5235C6.39206 15.9344 5.69753 14.0463 5.55811 12.0784L5.99054 12.0433H6.42297C6.5549 13.8392 7.19153 15.5613 8.25951 17.0111C8.72416 17.6349 9.23316 18.2244 9.78254 18.775C10.8091 19.8379 11.4872 20.5402 11.4872 23.0128V23.0172H20.5146V22.602C20.5146 20.3032 21.1469 19.7082 22.1038 18.8079C22.6628 18.3025 23.1751 17.7479 23.6346 17.1508C24.9183 15.4841 25.6112 13.4378 25.6044 11.3341C25.6041 9.98023 25.3177 8.64167 24.7639 7.40622C24.2101 6.17077 23.4013 5.06634 22.3908 4.16534C21.3802 3.26435 20.1906 2.58716 18.8999 2.17815C17.6093 1.76915 16.2467 1.63759 14.9017 1.79208C14.025 1.88872 13.1667 2.1099 12.3525 2.44895C12.2466 2.4931 12.1276 2.4934 12.0215 2.44977C11.9154 2.40614 11.831 2.32216 11.7869 2.2163C11.7427 2.11044 11.7424 1.99138 11.786 1.88531C11.8297 1.77923 11.9137 1.69483 12.0195 1.65068C12.9096 1.27994 13.8481 1.03808 14.8065 0.932408C16.2725 0.764325 17.7575 0.908007 19.164 1.35403C20.5705 1.80006 21.8669 2.53836 22.9682 3.52051C24.0694 4.50267 24.9506 5.7065 25.5539 7.05308C26.1573 8.39966 26.4692 9.85856 26.4692 11.3341C26.4772 13.6282 25.7217 15.8597 24.3218 17.6771C23.8335 18.3115 23.2896 18.9012 22.6967 19.4392C21.7946 20.2898 21.3795 20.6781 21.3795 22.6033V23.4509C21.3795 23.5656 21.334 23.6756 21.2529 23.7567C21.1718 23.8378 21.0618 23.8833 20.9471 23.8833Z" fill="#32B2C3" stroke="#32B2C3"/>
<path d="M6.39986 8.83898C6.35724 8.83892 6.31485 8.83266 6.27402 8.82039C6.21967 8.80388 6.1691 8.77682 6.12521 8.74076C6.08131 8.70469 6.04496 8.66034 6.01821 8.61022C5.99147 8.5601 5.97486 8.50521 5.96933 8.44867C5.96381 8.39213 5.96948 8.33506 5.98602 8.28072C6.12132 7.83727 6.28734 7.40379 6.48289 6.98342C6.531 6.87929 6.61851 6.79853 6.72617 6.75891C6.83382 6.7193 6.95281 6.72407 7.05694 6.77218C7.16108 6.82029 7.24184 6.9078 7.28146 7.01546C7.32107 7.12311 7.3163 7.2421 7.26819 7.34623C7.08914 7.73021 6.93727 8.12628 6.8137 8.53152C6.78687 8.62041 6.73214 8.6983 6.65761 8.75367C6.58308 8.80904 6.49271 8.83895 6.39986 8.83898Z" fill="#32B2C3" stroke="#32B2C3"/>
<path d="M21.2324 26.6379H10.7697C10.5296 26.6416 10.2912 26.5976 10.0683 26.5082C9.8454 26.4189 9.64249 26.2862 9.47139 26.1177C9.30029 25.9492 9.16441 25.7484 9.07167 25.5269C8.97892 25.3054 8.93115 25.0677 8.93115 24.8276C8.93115 24.5874 8.97892 24.3497 9.07167 24.1282C9.16441 23.9067 9.30029 23.7059 9.47139 23.5374C9.64249 23.3689 9.8454 23.2362 10.0683 23.1469C10.2912 23.0576 10.5296 23.0135 10.7697 23.0172H21.2324C21.4725 23.0135 21.7109 23.0576 21.9338 23.1469C22.1567 23.2362 22.3596 23.3689 22.5307 23.5374C22.7018 23.7059 22.8377 23.9067 22.9305 24.1282C23.0232 24.3497 23.071 24.5874 23.071 24.8276C23.071 25.0677 23.0232 25.3054 22.9305 25.5269C22.8377 25.7484 22.7018 25.9492 22.5307 26.1177C22.3596 26.2862 22.1567 26.4189 21.9338 26.5082C21.7109 26.5976 21.4725 26.6416 21.2324 26.6379ZM10.7719 23.882C10.646 23.8794 10.5209 23.9018 10.4038 23.9481C10.2867 23.9944 10.1801 24.0636 10.0901 24.1517C10.0002 24.2398 9.92867 24.3449 9.87987 24.461C9.83107 24.577 9.80594 24.7017 9.80594 24.8276C9.80594 24.9535 9.83107 25.0781 9.87987 25.1941C9.92867 25.3102 10.0002 25.4153 10.0901 25.5034C10.1801 25.5915 10.2867 25.6607 10.4038 25.707C10.5209 25.7533 10.646 25.7758 10.7719 25.7731H21.2324C21.3583 25.7758 21.4834 25.7533 21.6005 25.707C21.7176 25.6607 21.8242 25.5915 21.9142 25.5034C22.0042 25.4153 22.0756 25.3102 22.1244 25.1941C22.1732 25.0781 22.1984 24.9535 22.1984 24.8276C22.1984 24.7017 22.1732 24.577 22.1244 24.461C22.0756 24.3449 22.0042 24.2398 21.9142 24.1517C21.8242 24.0636 21.7176 23.9944 21.6005 23.9481C21.4834 23.9018 21.3583 23.8794 21.2324 23.882H10.7719Z" fill="#32B2C3" stroke="#32B2C3"/>
<path d="M15.9999 31.135C14.8159 31.1336 13.6809 30.6627 12.8437 29.8255C12.0065 28.9883 11.5356 27.8532 11.5342 26.6693V26.2053C11.5342 26.0906 11.5797 25.9806 11.6608 25.8995C11.7419 25.8184 11.8519 25.7728 11.9666 25.7728H20.0332C20.1479 25.7728 20.2579 25.8184 20.339 25.8995C20.4201 25.9806 20.4656 26.0906 20.4656 26.2053V26.6693C20.4643 27.8532 19.9933 28.9883 19.1561 29.8255C18.319 30.6627 17.1839 31.1336 15.9999 31.135ZM12.399 26.6377V26.6693C12.399 27.1421 12.4922 27.6104 12.6731 28.0472C12.8541 28.4841 13.1193 28.8811 13.4537 29.2155C13.7881 29.5498 14.185 29.8151 14.6219 29.996C15.0588 30.177 15.527 30.2701 15.9999 30.2701C16.4728 30.2701 16.941 30.177 17.3779 29.996C17.8148 29.8151 18.2117 29.5498 18.5461 29.2155C18.8805 28.8811 19.1457 28.4841 19.3267 28.0472C19.5076 27.6104 19.6008 27.1421 19.6008 26.6693V26.6377H12.399Z" fill="#32B2C3" stroke="#32B2C3"/>
<path d="M16.7675 18.1622H15.2324C15.0793 18.1623 14.9314 18.1061 14.8171 18.0041C14.7028 17.9022 14.6301 17.7617 14.6127 17.6095L14.5474 17.0279C13.9802 16.8871 13.4371 16.6624 12.9362 16.3611L12.4795 16.7252C12.3599 16.821 12.2091 16.8693 12.0561 16.8606C11.9031 16.852 11.7587 16.7872 11.6506 16.6785L10.5647 15.5927C10.4563 15.4845 10.3915 15.3401 10.3829 15.1871C10.3743 15.0342 10.4224 14.8834 10.518 14.7637L10.8821 14.3071C10.5809 13.8062 10.3561 13.2631 10.2153 12.6958L9.63457 12.6305C9.48224 12.6134 9.34157 12.5407 9.23946 12.4264C9.13734 12.3121 9.08095 12.1641 9.08105 12.0108V10.4757C9.08096 10.3223 9.13741 10.1743 9.23962 10.06C9.34182 9.94568 9.4826 9.87305 9.635 9.85602L10.2153 9.79073C10.3561 9.22344 10.5809 8.68037 10.8821 8.17948L10.518 7.72283C10.4223 7.60306 10.3742 7.45217 10.3829 7.29911C10.3916 7.14605 10.4565 7.00159 10.5652 6.89342L11.6506 5.80802C11.7587 5.69932 11.9033 5.63447 12.0564 5.62593C12.2095 5.61739 12.3604 5.66576 12.48 5.76175L12.9362 6.12542C13.4371 5.82417 13.9802 5.59942 14.5474 5.45861L14.6127 4.87786C14.63 4.72557 14.7027 4.58495 14.817 4.48285C14.9313 4.38076 15.0792 4.32433 15.2324 4.32434H16.7675C16.9207 4.32421 17.0685 4.38048 17.1828 4.48242C17.2971 4.58436 17.3699 4.72482 17.3872 4.87699L17.4525 5.45861C18.0198 5.59942 18.5629 5.82417 19.0638 6.12542L19.5204 5.76132C19.64 5.66551 19.7908 5.61728 19.9438 5.6259C20.0969 5.63452 20.2413 5.69938 20.3494 5.80802L21.4352 6.89386C21.5437 7.00205 21.6084 7.14646 21.6171 7.29942C21.6257 7.45238 21.5776 7.60314 21.4819 7.72283L21.1178 8.17948C21.4191 8.68037 21.6438 9.22344 21.7846 9.79073L22.3654 9.85602C22.5177 9.87315 22.6584 9.94582 22.7605 10.0601C22.8626 10.1745 22.919 10.3224 22.9189 10.4757V12.0108C22.919 12.1642 22.8625 12.3122 22.7603 12.4265C22.6581 12.5409 22.5174 12.6135 22.365 12.6305L21.7846 12.6958C21.6438 13.2631 21.4191 13.8062 21.1178 14.3071L21.4819 14.7637C21.5776 14.8835 21.6257 15.0344 21.617 15.1874C21.6083 15.3405 21.5434 15.4849 21.4348 15.5931L20.3494 16.6785C20.2412 16.7871 20.0966 16.8519 19.9435 16.8605C19.7905 16.869 19.6396 16.8207 19.52 16.7248L19.0638 16.3611C18.5629 16.6624 18.0198 16.8871 17.4525 17.0279L17.3872 17.6087C17.37 17.761 17.2973 17.9016 17.183 18.0037C17.0687 18.1058 16.9208 18.1622 16.7675 18.1622ZM15.4482 17.2973H16.5518L16.6279 16.6245C16.6381 16.5331 16.6771 16.4474 16.7393 16.3798C16.8015 16.3121 16.8837 16.2661 16.9738 16.2482C17.6449 16.1192 18.2828 15.8553 18.8488 15.4725C18.9252 15.4209 19.016 15.3951 19.108 15.3988C19.2 15.4024 19.2884 15.4354 19.3604 15.4928L19.8919 15.9135L20.6703 15.1352L20.2486 14.6063C20.1912 14.5343 20.1583 14.4459 20.1546 14.3538C20.151 14.2618 20.1768 14.1711 20.2283 14.0947C20.6111 13.5286 20.875 12.8908 21.0041 12.2197C21.0219 12.1295 21.068 12.0474 21.1356 11.9852C21.2033 11.923 21.289 11.884 21.3803 11.8738L22.054 11.7951V10.6915L21.3812 10.6154C21.2898 10.6052 21.2041 10.5661 21.1365 10.5039C21.0688 10.4417 21.0228 10.3596 21.005 10.2694C20.8759 9.59837 20.612 8.96048 20.2292 8.3944C20.1777 8.31808 20.1518 8.2273 20.1555 8.13528C20.1592 8.04327 20.1921 7.95483 20.2495 7.88283L20.6703 7.35137L19.8919 6.57299L19.363 6.99461C19.291 7.05203 19.2026 7.08496 19.1106 7.08862C19.0185 7.09227 18.9278 7.06646 18.8514 7.01494C18.2854 6.63214 17.6475 6.36822 16.9764 6.23915C16.8863 6.22134 16.8041 6.17527 16.7419 6.10762C16.6797 6.03998 16.6407 5.95427 16.6305 5.86294L16.5518 5.18921H15.4482L15.3721 5.86207C15.3619 5.9534 15.3228 6.03911 15.2606 6.10676C15.1984 6.17441 15.1163 6.22048 15.0261 6.23829C14.3551 6.36736 13.7172 6.63128 13.1511 7.01407C13.0748 7.0656 12.984 7.09141 12.892 7.08775C12.8 7.0841 12.7115 7.05116 12.6395 6.99375L12.1081 6.57299L11.3297 7.35137L11.7513 7.88024C11.8087 7.95223 11.8417 8.04068 11.8453 8.13269C11.849 8.2247 11.8232 8.31548 11.7717 8.39181C11.3889 8.95789 11.1249 9.59577 10.9959 10.2668C10.9781 10.357 10.932 10.4391 10.8643 10.5013C10.7967 10.5635 10.711 10.6026 10.6197 10.6128L9.94592 10.6915V11.7951L10.6188 11.8712C10.7101 11.8814 10.7958 11.9204 10.8635 11.9826C10.9311 12.0448 10.9772 12.1269 10.995 12.2171C11.1241 12.8882 11.388 13.5261 11.7708 14.0921C11.8223 14.1685 11.8481 14.2592 11.8445 14.3512C11.8408 14.4433 11.8079 14.5317 11.7505 14.6037L11.3297 15.1352L12.1081 15.9135L12.637 15.4919C12.7089 15.4345 12.7974 15.4016 12.8894 15.3979C12.9814 15.3943 13.0722 15.4201 13.1485 15.4716C13.7146 15.8544 14.3525 16.1183 15.0235 16.2474C15.1137 16.2652 15.1958 16.3113 15.258 16.3789C15.3203 16.4466 15.3593 16.5323 15.3695 16.6236L15.4482 17.2973Z" fill="#32B2C3"/>
<path d="M16.0003 15.1351C15.2305 15.1351 14.4781 14.9068 13.8381 14.4792C13.1981 14.0515 12.6992 13.4437 12.4047 12.7326C12.1101 12.0214 12.033 11.2389 12.1832 10.4839C12.3334 9.72899 12.704 9.03552 13.2483 8.49123C13.7926 7.94694 14.4861 7.57627 15.241 7.4261C15.996 7.27593 16.7785 7.353 17.4896 7.64757C18.2008 7.94214 18.8086 8.44097 19.2363 9.08099C19.6639 9.72101 19.8922 10.4735 19.8922 11.2432C19.8909 12.275 19.4805 13.2642 18.7509 13.9938C18.0213 14.7234 17.0321 15.1338 16.0003 15.1351ZM16.0003 8.21618C15.4016 8.21618 14.8164 8.39372 14.3186 8.72633C13.8208 9.05894 13.4328 9.5317 13.2037 10.0848C12.9746 10.6379 12.9146 11.2466 13.0314 11.8338C13.1482 12.4209 13.4365 12.9603 13.8599 13.3836C14.2832 13.807 14.8226 14.0953 15.4097 14.2121C15.9969 14.3289 16.6056 14.2689 17.1587 14.0398C17.7118 13.8107 18.1846 13.4227 18.5172 12.9249C18.8498 12.4271 19.0273 11.8419 19.0273 11.2432C19.0264 10.4407 18.7072 9.67127 18.1397 9.10379C17.5722 8.53631 16.8028 8.2171 16.0003 8.21618Z" fill="#32B2C3"/>
</svg>
