<svg width="150" height="150" viewBox="0 0 150 150" fill="none" xmlns="http://www.w3.org/2000/svg">
<path d="M103.908 52.9728H97.254C96.8476 51.6832 96.3309 50.4345 95.7071 49.2366L100.412 44.5312C101 43.9432 101.324 43.1613 101.324 42.3296C101.324 41.4975 101 40.7156 100.412 40.1276L94.8748 34.5899C93.6607 33.3767 91.6855 33.3762 90.4712 34.5902L85.7658 39.2956C84.5679 38.6719 83.319 38.1548 82.0296 37.7487V31.0939C82.0293 29.3771 80.6324 27.98 78.9154 27.98H71.084C69.3672 27.98 67.9704 29.3769 67.9704 31.0939V37.7487C66.6807 38.1551 65.4321 38.6719 64.2338 39.2956L59.5282 34.5899C58.3141 33.3765 56.3389 33.3767 55.1249 34.5902L49.5878 40.1273C48.9995 40.7153 48.6755 41.4972 48.6755 42.3293C48.6755 43.161 48.9995 43.9429 49.5875 44.5309L54.2928 49.2363C53.6691 50.4342 53.152 51.6832 52.746 52.9725H46.0912C44.3744 52.9725 42.9775 54.3694 42.9775 56.0865V63.9178C42.9775 65.6346 44.3744 67.0315 46.0912 67.0315H52.746C53.1523 68.3208 53.6691 69.57 54.2928 70.7677L49.5875 75.473C48.3734 76.6871 48.3734 78.6626 49.5875 79.8766L55.1249 85.414C56.3389 86.6284 58.3147 86.6281 59.5285 85.414L64.2338 80.7087C65.4318 81.3324 66.681 81.8495 67.9704 82.2555V88.9103C67.9704 90.6271 69.3672 92.024 71.084 92.024H78.9154C80.6321 92.024 82.0293 90.6271 82.0293 88.9103V82.2555C83.3184 81.8495 84.5676 81.3324 85.7655 80.7087L90.4709 85.414C91.6853 86.6284 93.6607 86.6281 94.8748 85.414L100.412 79.8766C101 79.2887 101.324 78.5067 101.324 77.675C101.324 76.8433 101 76.0613 100.412 75.473L95.7065 70.7677C96.3303 69.5697 96.8474 68.3208 97.2534 67.0315H103.908C105.625 67.0315 107.022 65.6346 107.022 63.9178V56.0865C107.022 54.3697 105.625 52.9728 103.908 52.9728ZM102.628 62.6369H95.5797C94.559 62.6369 93.6727 63.3398 93.4401 64.3338C92.9717 66.3363 92.1854 68.2356 91.1028 69.9784C90.5641 70.8456 90.6939 71.9694 91.4154 72.6916L96.3991 77.6753L92.6731 81.4013L87.6895 76.4176C86.9676 75.6957 85.8438 75.5656 84.976 76.1047C83.2328 77.1872 81.3335 77.9735 79.3317 78.4423C78.3376 78.6746 77.6348 79.5608 77.6348 80.5818V87.6306H72.3658V80.5818C72.3658 79.5611 71.6629 78.6749 70.6689 78.4423C68.667 77.9741 66.7677 77.1878 65.0243 76.1047C64.1574 75.5668 63.0333 75.6957 62.3111 76.4176L57.3274 81.4013L53.6014 77.6753L58.5851 72.6916C59.307 71.9697 59.4365 70.8459 58.898 69.9784C57.8155 68.2353 57.0292 66.336 56.5607 64.3338C56.3284 63.3398 55.4419 62.6369 54.4212 62.6369H47.3726V57.3679H54.4212C55.4419 57.3679 56.3281 56.6651 56.5607 55.671C57.0292 53.6689 57.8155 51.7696 58.898 50.0264C59.4365 49.1592 59.307 48.0354 58.5851 47.3132L53.6014 42.3296L57.3274 38.6036L62.3111 43.5873C63.0324 44.3091 64.1568 44.4389 65.0243 43.9002C66.7671 42.8176 68.6665 42.0313 70.6689 41.5629C71.6629 41.3305 72.3658 40.4443 72.3658 39.4233V32.3745H77.6348V39.4233C77.6348 40.444 78.3376 41.3302 79.3317 41.5629C81.3338 42.0313 83.2328 42.8176 84.9763 43.9002C85.8429 44.4383 86.9673 44.3086 87.6895 43.5873L92.6731 38.6036L96.3991 42.3296L91.4154 47.3132C90.6936 48.0351 90.5641 49.1589 91.1028 50.0264C92.1851 51.769 92.9714 53.6683 93.4401 55.671C93.6727 56.6651 94.5587 57.3679 95.5797 57.3679H102.628V62.6369Z" fill="#32B2C3"/>
<path d="M74.9998 48.2307C68.5088 48.2307 63.2284 53.5115 63.2284 60.0022C63.2284 66.4929 68.5091 71.7736 74.9998 71.7736C81.4906 71.7736 86.7713 66.4929 86.7713 60.0022C86.7713 53.5115 81.4909 48.2307 74.9998 48.2307ZM74.9998 67.3791C70.9323 67.3791 67.6229 64.0697 67.6229 60.0022C67.6229 55.9346 70.9323 52.6252 74.9998 52.6252C79.0674 52.6252 82.3768 55.9346 82.3768 60.0022C82.3768 64.0697 79.0674 67.3791 74.9998 67.3791Z" fill="#32B2C3"/>
<path d="M24.4845 57.8049H17.1948C15.9813 57.8049 14.9976 58.7887 14.9976 60.0022C14.9976 61.2157 15.9813 62.1994 17.1948 62.1994H24.4845C25.6979 62.1994 26.6817 61.2157 26.6817 60.0022C26.6817 58.7887 25.6979 57.8049 24.4845 57.8049Z" fill="#32B2C3"/>
<path d="M132.805 57.8049H125.515C124.302 57.8049 123.318 58.7887 123.318 60.0022C123.318 61.2157 124.302 62.1994 125.515 62.1994H132.805C134.019 62.1994 135.002 61.2157 135.002 60.0022C135.002 58.7887 134.019 57.8049 132.805 57.8049Z" fill="#32B2C3"/>
<path d="M40.8337 94.1685C39.9759 93.3104 38.5846 93.3104 37.7262 94.1685L32.5717 99.323C31.7136 100.181 31.7136 101.572 32.5717 102.43C33.4298 103.289 34.8211 103.289 35.6792 102.43L40.8337 97.276C41.6918 96.4179 41.6918 95.0266 40.8337 94.1685Z" fill="#32B2C3"/>
<path d="M117.428 17.5746C116.57 16.7165 115.179 16.7165 114.32 17.5746L109.166 22.7291C108.308 23.5872 108.308 24.9785 109.166 25.8366C110.024 26.6947 111.415 26.6944 112.274 25.8366L117.428 20.6821C118.286 19.8237 118.286 18.4324 117.428 17.5746Z" fill="#32B2C3"/>
<path d="M75.0001 0C73.7864 0 72.8029 0.983787 72.8029 2.19726V9.4869C72.8029 10.7004 73.7864 11.6842 75.0001 11.6842C76.2139 11.6842 77.1974 10.7004 77.1974 9.4869V2.19726C77.1974 0.983787 76.2139 0 75.0001 0Z" fill="#32B2C3"/>
<path d="M117.428 99.323L112.274 94.1685C111.415 93.3104 110.024 93.3104 109.166 94.1685C108.308 95.0266 108.308 96.4182 109.166 97.276L114.32 102.43C115.179 103.289 116.57 103.289 117.428 102.43C118.286 101.572 118.286 100.181 117.428 99.323Z" fill="#32B2C3"/>
<path d="M40.8337 22.7291L35.6792 17.5746C34.8211 16.7165 33.4298 16.7165 32.5717 17.5746C31.7136 18.4327 31.7136 19.824 32.5717 20.6821L37.7262 25.8366C38.5843 26.6947 39.9756 26.6947 40.8337 25.8366C41.6918 24.9782 41.6918 23.5869 40.8337 22.7291Z" fill="#32B2C3"/>
<path d="M118.836 54.6196C116.472 34.4414 100.477 18.4447 80.393 15.9967C79.1904 15.8487 78.0926 16.7074 77.9456 17.9118C77.7988 19.1165 78.6563 20.2122 79.861 20.3593C98.1003 22.5823 112.333 36.8812 114.471 55.1311C114.602 56.2493 115.552 57.0726 116.65 57.0726C116.736 57.0726 116.822 57.0676 116.909 57.0576C118.115 56.9167 118.978 55.8251 118.836 54.6196Z" fill="#32B2C3"/>
<path d="M116.883 62.9495C115.678 62.796 114.58 63.6494 114.427 64.8535C112.929 76.6859 106.251 87.1264 96.1043 93.497C91.73 96.2436 89.1188 100.944 89.1188 106.07V115.113H60.8816V105.87C60.8816 100.906 58.2874 96.2163 54.1117 93.6315C42.3033 86.3219 35.2534 73.6783 35.2531 59.8094C35.2531 39.7845 50.2525 22.8257 70.1429 20.3619C71.3473 20.2127 72.2025 19.1153 72.0534 17.9109C71.9043 16.7068 70.8074 15.8493 69.6024 16.0004C47.6254 18.723 30.8574 37.6224 30.8577 59.8094C30.8577 67.4656 32.849 75.0089 36.6168 81.6241C40.2693 88.0372 45.519 93.4812 51.7979 97.368C54.6897 99.158 56.4859 102.416 56.4859 105.87V115.433C54.2518 116.21 52.6407 118.331 52.6407 120.827V123.959C52.6407 125.285 53.0989 126.504 53.8598 127.475C53.0986 128.445 52.6407 129.664 52.6407 130.991V134.123C52.6407 137.273 55.2039 139.836 58.3539 139.836H65.2621V144.803C65.2621 147.669 67.5932 150 70.4585 150H79.5396C82.4051 150 84.736 147.669 84.736 144.803V139.836H91.6442C94.7945 139.836 97.3573 137.273 97.3573 134.123V130.991C97.3573 129.664 96.8991 128.445 96.138 127.475C96.8991 126.504 97.3573 125.286 97.3573 123.959V120.827C97.3573 118.331 95.7466 116.21 93.5121 115.433V106.07C93.5121 102.465 95.354 99.1563 98.4399 97.2189C109.706 90.1454 117.122 78.5497 118.786 65.4054C118.939 64.2013 118.087 63.1018 116.883 62.9495ZM80.342 144.803C80.342 145.238 79.975 145.605 79.5405 145.605H70.4593C70.0249 145.605 69.6578 145.238 69.6578 144.803V139.836H80.342V144.803ZM92.9637 134.123C92.9637 134.837 92.3599 135.441 91.6453 135.441C87.7664 135.441 62.0151 135.441 58.3548 135.441C57.6402 135.441 57.0364 134.837 57.0364 134.123V130.99C57.0364 130.276 57.6402 129.672 58.3548 129.672H91.6453C92.3599 129.672 92.9637 130.276 92.9637 130.99V134.123ZM92.9637 123.959C92.9637 124.673 92.3599 125.277 91.6453 125.277H58.3548C57.6402 125.277 57.0364 124.673 57.0364 123.959V120.826C57.0364 120.112 57.6402 119.508 58.3548 119.508H91.6453C92.3599 119.508 92.9637 120.112 92.9637 120.826V123.959Z" fill="#32B2C3"/>
</svg>
