<svg width="240" height="58" viewBox="0 0 240 58" fill="none" xmlns="http://www.w3.org/2000/svg">
<path fill-rule="evenodd" clip-rule="evenodd" d="M192.827 5.89972C179.301 5.89972 168.337 16.8642 168.337 30.3905C168.337 31.9726 168.488 33.5179 168.775 35.0143H158.286C154.252 35.0143 152.236 30.6696 152.236 21.9779C152.236 18.2724 152.621 14.3025 153.387 10.0631V9.71538C153.387 9.19862 153.199 8.74554 152.824 8.35369C152.449 7.96184 152.004 7.76591 151.487 7.76591C150.505 7.76591 149.863 8.29246 149.56 9.34312C149.273 10.8224 149.094 11.9563 149.023 12.74C148.577 15.7352 148.355 18.7843 148.355 21.8873C148.355 26.3813 148.935 30.0353 150.093 32.8518C151.734 36.8634 154.465 38.8691 158.283 38.8691H169.843C173.293 48.2173 182.279 54.8812 192.825 54.8812C206.351 54.8812 217.316 43.9167 217.316 30.3905C217.318 16.8642 206.353 5.89972 192.827 5.89972ZM192.827 48.5454C185.865 48.5454 179.82 44.6245 176.776 38.8691H179.379C182.215 38.8691 184.412 38.1736 185.965 36.7801C186.357 36.4225 186.629 36.0968 186.781 35.8029C186.932 35.509 187.008 35.1906 187.008 34.8527C187.008 34.3359 186.817 33.8902 186.433 33.5155C186.048 33.1408 185.598 32.9522 185.081 32.9522C184.42 32.9522 183.859 33.2779 183.393 33.9294C182.877 34.6518 181.537 35.0119 179.379 35.0119H175.272C174.885 33.5351 174.675 31.9848 174.675 30.388C174.675 20.3615 182.803 12.233 192.83 12.233C202.856 12.233 210.985 20.3615 210.985 30.388C210.985 40.4145 202.854 48.5454 192.827 48.5454ZM3.07064 7.76592L29.7582 7.79286C38.3055 7.79286 42.5791 10.7146 42.5791 16.5581C42.5791 22.3869 38.3055 25.2988 29.7582 25.2988H4.97112V36.9466C4.97112 37.4805 4.78254 37.9336 4.40783 38.3083C4.03313 38.683 3.58739 38.8692 3.07064 38.8692C2.53674 38.8692 2.08121 38.683 1.70651 38.3083C1.3318 37.9336 1.14322 37.4781 1.14322 36.9442V9.71783C1.14322 9.20108 1.33425 8.74555 1.71875 8.3537C2.10326 7.96185 2.55389 7.76592 3.07064 7.76592ZM29.7582 21.444C32.4718 21.444 34.4163 21.2383 35.5943 20.8268C37.6638 20.1117 38.6973 18.679 38.6973 16.5336C38.6973 15.3874 38.4744 14.4935 38.0287 13.8494C37.0295 12.3824 34.2718 11.6477 29.7582 11.6477H4.97112V21.444H29.7582ZM115.314 17.5745C114.841 18.03 114.293 18.2578 113.668 18.2578C113.027 18.2578 112.483 18.03 112.035 17.5745C111.589 17.119 111.366 16.5802 111.366 15.9557C111.366 15.3311 111.589 14.7923 112.035 14.3368C112.481 13.8813 113.027 13.6535 113.668 13.6535C114.293 13.6535 114.841 13.8813 115.314 14.3368C115.787 14.7923 116.024 15.3311 116.024 15.9557C116.024 16.5802 115.787 17.119 115.314 17.5745ZM147.478 32.9546C146.817 32.9546 146.256 33.2803 145.79 33.9318C145.274 34.6543 143.934 35.0143 141.776 35.0143H124.243C121.3 35.0143 119.078 33.8828 117.579 31.6223C116.277 29.6998 115.625 27.1797 115.625 24.062C115.625 22.5657 114.991 21.8187 113.725 21.8187C112.405 21.8187 111.743 22.5681 111.743 24.0669C111.743 30.2631 110.156 33.8363 106.98 34.7841C106.963 34.2967 106.774 33.873 106.407 33.5155C106.022 33.1408 105.572 32.9522 105.055 32.9522C104.394 32.9522 103.823 33.2779 103.343 33.9294C102.826 34.6518 101.496 35.0118 99.3535 35.0118H79.4646C77.662 35.0118 76.7608 33.6232 76.7608 30.8435V30.366C76.7608 24.667 72.8031 21.8187 64.8926 21.8187C61.3635 21.8187 58.6817 22.3085 56.8474 23.2906V9.71538C56.8474 9.19863 56.6539 8.74555 56.2669 8.3537C55.88 7.96185 55.4269 7.76592 54.9053 7.76592C54.3836 7.76592 53.9305 7.96185 53.5436 8.3537C53.1566 8.74555 52.9656 9.20108 52.9656 9.71783V36.9442C52.9656 37.4781 53.1591 37.9336 53.5436 38.3083C53.9305 38.683 54.3836 38.8691 54.9053 38.8691C55.4269 38.8691 55.88 38.683 56.2669 38.3058C56.6539 37.9287 56.8474 37.4732 56.8474 36.9368V30.366C56.8474 29.3839 56.9723 28.632 57.2196 28.1128C57.9837 26.4866 60.5308 25.6711 64.8632 25.6711C69.0535 25.6711 71.5736 26.4401 72.4259 27.9781C72.7272 28.5145 72.879 29.2296 72.879 30.1235V30.5129V30.9023C72.879 33.1554 73.3958 34.9971 74.4317 36.4274C75.6097 38.0536 77.2873 38.8691 79.4646 38.8691H99.3535C100.992 38.8691 102.417 38.6316 103.632 38.1638C103.674 38.2128 103.718 38.2618 103.764 38.3083C104.139 38.683 104.585 38.8716 105.101 38.8716C109.223 38.8716 112.167 36.9344 113.935 33.0624C116.093 36.9344 119.529 38.8716 124.241 38.8716H141.774C144.612 38.8716 146.807 38.176 148.359 36.7825C148.751 36.425 149.023 36.0992 149.175 35.8053C149.327 35.5115 149.403 35.1931 149.403 34.8551C149.403 34.3383 149.217 33.8926 148.842 33.5179C148.467 33.1408 148.012 32.9546 147.478 32.9546ZM221.599 27.307H237.356C238.488 27.307 239.411 28.2328 239.411 29.3618V31.7594C239.411 32.8885 238.488 33.8142 237.356 33.8142H221.599C220.47 33.8142 219.544 32.8909 219.544 31.7594V29.3618C219.544 28.2328 220.467 27.307 221.599 27.307ZM189.91 27.5814C190.637 26.8526 192.882 24.444 192.828 21.4502C192.894 24.6876 195.03 26.8281 195.764 27.5618C196.497 28.2954 199.004 30.4452 201.876 30.3907C198.76 30.4579 196.473 32.6862 195.744 33.415C195.017 34.1449 192.827 36.4372 192.827 39.5598C192.827 36.4372 190.628 34.1694 189.893 33.4346C189.159 32.6999 186.766 30.3904 183.766 30.3904C186.766 30.3904 189.178 28.3087 189.91 27.5814Z" fill="url(#paint0_linear)"/>
<path d="M15.1101 46.5243H16.0897V45.5314H19.5185V46.5243H20.4982V45.5314H23.6622V44.6576H20.4982V43.731H19.5185V44.6576H16.0897V43.731H15.1101V44.6576H12.0123V45.5314H15.1101V46.5243ZM15.7985 47.6893H12.2903V48.5498H15.7985V49.9531H12.5815V50.8136H15.7985C15.7853 51.2504 15.7455 51.6741 15.6396 52.0712C14.1966 52.2963 12.8066 52.5213 11.8269 52.6537L11.9858 53.5804C12.9257 53.4083 14.104 53.1965 15.2954 52.9714C14.8321 53.7922 13.9848 54.4939 12.4359 55.0366C12.6345 55.222 12.9257 55.6059 13.0184 55.8309C16.2883 54.6527 16.7517 52.7199 16.7517 50.4826V46.5772H15.7985V47.6893ZM23.8078 52.3492H19.7833V50.84H23.1856V49.9795H19.7833V48.5498H23.4636V47.6893H19.7833V46.5772H18.8036V55.8045H19.7833V53.2362H23.8078V52.3492Z" fill="#30505F"/>
<path d="M42.8712 51.3696C42.7389 51.727 42.5668 52.0712 42.3682 52.4022C42.0769 52.1904 41.7592 51.9918 41.468 51.8197L41.0708 52.3095C41.3885 52.4816 41.7195 52.7067 42.0372 52.945C41.6798 53.4745 41.2561 53.9378 40.806 54.3218C40.9649 54.4012 41.2297 54.613 41.3488 54.7189C41.7725 54.3482 42.1828 53.8716 42.5535 53.3421C42.858 53.6069 43.136 53.8584 43.3214 54.0702L43.7318 53.5407C43.5332 53.3289 43.2287 53.0641 42.8977 52.7993C43.136 52.4022 43.3611 51.9653 43.5332 51.5284L42.8712 51.3696ZM43.6656 50.2575C43.467 50.059 43.189 49.8339 42.858 49.5956C43.0963 49.2382 43.3081 48.8543 43.4935 48.4703L42.8712 48.3115C42.7256 48.6292 42.5403 48.9469 42.3417 49.2514C42.0637 49.0661 41.7725 48.9072 41.4944 48.7748L41.0973 49.2382C41.3753 49.3838 41.6798 49.5691 41.9843 49.7545C41.6401 50.1913 41.2694 50.5885 40.8722 50.9195C41.0311 50.9989 41.2959 51.1842 41.415 51.2901C41.7857 50.9724 42.1431 50.562 42.4873 50.1119C42.7918 50.3502 43.0698 50.5885 43.2552 50.7871L43.6656 50.2575ZM48.1931 53.448C47.9813 53.2362 47.6901 52.9847 47.3459 52.7199C47.5709 52.336 47.7827 51.9256 47.9548 51.5152L47.3061 51.3563C47.1738 51.7005 47.0017 52.0315 46.8163 52.3492C46.4986 52.1374 46.1676 51.9388 45.8499 51.78L45.466 52.2566C45.7837 52.4419 46.1279 52.6537 46.4589 52.892C46.0882 53.4215 45.6513 53.8981 45.1747 54.2688C45.3468 54.3615 45.6116 54.5601 45.7175 54.666C46.1676 54.282 46.5913 53.8055 46.9752 53.2627C47.3061 53.5142 47.5974 53.7657 47.796 53.9776L48.1931 53.448ZM48.1005 50.3105C47.8886 50.0987 47.5842 49.8471 47.24 49.5956C47.4783 49.2382 47.7033 48.8543 47.8754 48.4703L47.2532 48.3115C47.1076 48.6292 46.9222 48.9469 46.7237 49.2514C46.4192 49.0661 46.1014 48.8807 45.8102 48.7351L45.413 49.1852C45.7175 49.3441 46.0485 49.5427 46.3662 49.7545C46.0088 50.2178 45.6249 50.6282 45.2145 50.9592C45.3866 51.0386 45.6381 51.2239 45.744 51.3299C46.1279 50.9989 46.5118 50.5885 46.8693 50.1252C47.187 50.3634 47.4783 50.615 47.6768 50.8268L48.1005 50.3105ZM45.0159 47.1994V45.3858H47.1605L46.4986 45.8888C47.2797 46.233 48.1799 46.7361 48.9345 47.1994H45.0159ZM50.6687 47.2656C49.9141 46.7096 48.4976 45.9285 47.3459 45.3858H50.3642V44.512H38.8335V45.3858H44.076V47.1994H40.6869C41.3621 46.7626 41.9975 46.2595 42.4873 45.7432L41.6136 45.4255C40.859 46.2066 39.6013 46.9347 38.4363 47.398C38.6482 47.5569 39.0188 47.8878 39.1645 48.0467C39.3366 47.9673 39.5219 47.8746 39.7072 47.7819V55.8045H40.6207V48.007H44.076V55.7515H45.0159V48.007H48.63V54.7189C48.63 54.9175 48.5638 54.9704 48.352 54.9837C48.1402 54.9969 47.4783 55.0102 46.7104 54.9837C46.8296 55.2087 46.9619 55.5794 47.0149 55.8045C48.0078 55.8045 48.6697 55.8045 49.0536 55.6588C49.4243 55.5132 49.5435 55.2485 49.5435 54.7189V47.5966C49.6891 47.7025 49.8215 47.7952 49.9406 47.8878L50.6687 47.2656Z" fill="#30505F"/>
<path d="M72.5255 45.4255C72.2078 46.6302 71.4135 47.2921 69.2556 47.676C69.4145 47.8481 69.6395 48.1659 69.7189 48.3777C71.5988 48.007 72.5785 47.3848 73.0948 46.4051C73.5846 47.3583 74.551 48.2056 76.8016 48.6027C76.8942 48.3644 77.1193 47.9938 77.3046 47.8084C74.5907 47.4113 73.8494 46.4448 73.5581 45.4255H75.6763C75.438 45.8094 75.1467 46.1801 74.8687 46.4448L75.6498 46.7229C76.1264 46.2595 76.6162 45.5181 76.9869 44.843L76.325 44.6444L76.1661 44.6841H71.6385C71.8106 44.4061 71.9563 44.1413 72.0886 43.8633L71.2017 43.7177C70.8575 44.512 70.1955 45.399 69.2026 46.0874C69.4409 46.1801 69.7587 46.3919 69.944 46.5772C70.4074 46.2198 70.7913 45.8359 71.1222 45.4255H72.5255ZM68.0641 52.1242H74.6966V53.0509H68.0641V52.1242ZM68.0641 50.5753H74.6966V51.4887H68.0641V50.5753ZM68.0641 49.0528H74.6966V49.9398H68.0641V49.0528ZM67.111 53.6995H75.6763V48.3909H67.111V53.6995ZM69.2026 45.0283C68.5672 44.6974 67.3493 44.2605 66.4358 44.009L65.9989 44.6841C66.9389 44.9754 68.1568 45.4387 68.7658 45.7962L69.2026 45.0283ZM69.0438 46.4713C67.6935 46.842 66.3034 47.2392 65.3502 47.4642L65.7342 48.3247C66.727 48.007 67.9715 47.6231 69.1629 47.2392L69.0438 46.4713ZM69.3218 53.8319C68.3819 54.3615 66.7932 54.8248 65.4429 55.1028C65.668 55.2749 65.9989 55.6588 66.171 55.8442C67.4816 55.4867 69.1365 54.8778 70.2088 54.2556L69.3218 53.8319ZM72.4064 54.3747C73.8494 54.8513 75.2791 55.4073 76.0999 55.8309L77.1855 55.3411C76.2191 54.9043 74.6437 54.335 73.2139 53.8717L72.4064 54.3747Z" fill="#30505F"/>
<path d="M96.4078 44.1811H92.648V44.9754H96.4078V44.1811ZM96.8844 45.9153H91.9861V46.7229H96.8844V45.9153ZM96.4343 47.7025H92.5951V48.4836H96.4343V47.7025ZM92.5951 50.2443H96.4343V49.45H92.5951V50.2443ZM95.6002 52.0315V54.2556H93.4424V52.0315H95.6002ZM96.4475 55.0499V51.2239H92.5819V55.6588H93.4424V55.0499H96.4475ZM97.0565 44.3929V45.3196H98.7113V48.0864C98.7113 48.3512 98.7113 48.616 98.698 48.8807H96.9109V49.8074H98.6583C98.4995 51.6608 97.9964 53.5804 96.421 55.1558C96.6328 55.3014 96.977 55.6456 97.1227 55.8309C98.9231 54.0702 99.4526 51.8991 99.5983 49.8074H101.319V48.8807H99.638C99.6512 48.616 99.6512 48.3512 99.6512 48.0997V45.3196H101.756C101.756 50.9592 101.716 55.2882 103.199 55.7383C103.861 56.0031 104.298 55.5529 104.457 53.3686C104.285 53.2494 104.02 52.9052 103.835 52.6669C103.795 53.779 103.689 54.7586 103.583 54.7322C102.67 54.5203 102.709 49.9928 102.762 44.3929H97.0565Z" fill="#30505F"/>
<path d="M127.611 46.4448C127.174 45.8888 126.247 45.1342 125.453 44.6312L124.831 45.2004C125.612 45.7432 126.525 46.5243 126.936 47.0803L127.611 46.4448ZM127.293 49.9266C126.803 49.3573 125.771 48.5762 124.924 48.0599L124.315 48.6424C125.149 49.172 126.168 49.9928 126.645 50.5753L127.293 49.9266ZM123.812 50.8665C123.534 50.5091 122.395 49.0528 121.985 48.5895V48.3512H123.931V47.4245H121.985V45.2137C122.62 45.068 123.229 44.8827 123.719 44.6841L123.123 43.9031C122.13 44.3399 120.396 44.7238 118.913 44.9621C119.019 45.1739 119.152 45.5181 119.205 45.73C119.787 45.6505 120.409 45.5446 121.018 45.4255V47.4245H118.794V48.3512H120.886C120.37 49.8736 119.443 51.5681 118.609 52.5081C118.768 52.7331 119.006 53.1303 119.099 53.3951C119.787 52.5743 120.475 51.2637 121.018 49.9398V55.7912H121.985V49.6618C122.435 50.337 122.991 51.1975 123.216 51.6343L123.812 50.8665ZM130.894 52.058L130.748 51.1578L129.2 51.396V43.7177H128.233V51.5549L123.759 52.2698L123.917 53.2097L128.233 52.4948V55.7912H129.2V52.336L130.894 52.058Z" fill="#30505F"/>
<path d="M149.733 49.5029C149.256 49.6486 148.753 49.7942 148.276 49.9266V47.3053H149.733V46.3787H148.276V43.731H147.31V46.3787H145.615V47.3053H147.31V50.1913C146.608 50.3899 145.973 50.5488 145.443 50.6679L145.721 51.6343L147.31 51.171V54.6262C147.31 54.8116 147.23 54.8778 147.045 54.8778C146.886 54.891 146.317 54.891 145.682 54.8778C145.814 55.1425 145.96 55.5265 145.986 55.778C146.899 55.7912 147.455 55.7648 147.786 55.6059C148.131 55.447 148.276 55.1823 148.276 54.6262V50.8797C148.793 50.7209 149.335 50.562 149.865 50.4032L149.733 49.5029ZM155.637 49.5956C155.16 50.8003 154.419 51.8197 153.505 52.6405C152.671 51.7932 152.01 50.7474 151.559 49.5956H155.637ZM156.259 48.6424L156.1 48.6822H153.995V46.7096H157.159V45.7962H153.995V43.7177H153.029V45.7962H149.931V46.7096H153.029V48.6822H150.196V49.5956H150.633L150.593 49.6088C151.109 51.0254 151.837 52.2433 152.764 53.2362C151.692 54.0173 150.461 54.5733 149.176 54.9175C149.362 55.1293 149.6 55.5397 149.706 55.8045C151.056 55.3808 152.34 54.7719 153.466 53.9114C154.445 54.7719 155.624 55.4073 157 55.8309C157.146 55.5662 157.424 55.1823 157.636 54.9837C156.312 54.6262 155.174 54.057 154.22 53.2759C155.412 52.1771 156.352 50.7341 156.908 48.9204L156.259 48.6424Z" fill="#30505F"/>
<defs>
<linearGradient id="paint0_linear" x1="-116.484" y1="30.4937" x2="-97.2434" y2="124.088" gradientUnits="userSpaceOnUse">
<stop stop-color="#22D4B8"/>
<stop offset="1" stop-color="#408FCA"/>
</linearGradient>
</defs>
</svg>
