<svg width="32" height="32" viewBox="0 0 32 32" fill="none" xmlns="http://www.w3.org/2000/svg">
<path d="M25.2953 11.6339C27.2543 10.0337 26.5777 6.8693 24.1297 6.21347C23.4901 6.04211 22.8279 6.07775 22.2209 6.30897L20.2759 2.94004C19.4844 1.56909 17.5214 1.53276 16.6786 2.86945C14.2862 6.66399 11.0991 9.8913 7.31521 12.3404C7.09974 12.4795 7.01986 12.7672 7.14736 13.0013C7.16782 13.0387 10.3896 18.6184 10.4109 18.6553C10.5495 18.8953 10.8563 18.9777 11.0966 18.839C11.3367 18.7004 11.419 18.3934 11.2804 18.1533L8.25911 12.9203C11.8671 10.5083 15.0625 7.31505 17.5279 3.40487C17.9688 2.70543 18.9937 2.72714 19.4064 3.44201L26.3711 15.5051C26.7843 16.2209 26.2889 17.1185 25.4639 17.1506C20.8359 17.3309 16.3048 18.5146 12.1621 20.6335C12.1444 20.6424 7.44748 23.3547 7.12402 23.5414C6.28441 24.0262 5.20705 23.7375 4.72239 22.8979L2.17983 18.4939C1.69512 17.6543 1.98381 16.577 2.82336 16.0922L5.88346 14.3255C6.12352 14.1869 6.20579 13.8799 6.06718 13.6398C5.92857 13.3997 5.62149 13.3175 5.38148 13.4561L2.32139 15.2228C1.00245 15.9843 0.548922 17.6768 1.31042 18.9958L3.85304 23.3998C4.61459 24.7188 6.30718 25.1723 7.62612 24.4108L7.74189 24.3439L10.881 29.7811C11.3319 30.5621 12.329 30.8296 13.1104 30.3785L14.2114 29.7428C14.9926 29.2918 15.2598 28.2947 14.8088 27.5135L12.584 23.66C12.4454 23.4199 12.1384 23.3377 11.8983 23.4763C11.6582 23.6149 11.576 23.9219 11.7146 24.162L13.9394 28.0154C14.1129 28.316 14.0102 28.6998 13.7095 28.8734L12.6085 29.509C12.3078 29.6826 11.9241 29.5798 11.7505 29.2791L8.61137 23.842L12.6306 21.5214C16.5636 19.5119 20.9391 18.3315 25.5031 18.1537C27.0848 18.092 28.0308 16.3718 27.2405 15.0031L25.2953 11.6339ZM25.152 8.1669C25.6475 9.02527 25.4695 10.0905 24.7835 10.7474L22.7326 7.19508C23.6317 6.93136 24.6484 7.29466 25.152 8.1669ZM30.0616 5.93519L28.7628 6.68507C28.5226 6.82374 28.2157 6.74136 28.0771 6.50135C27.9385 6.26128 28.0208 5.95426 28.2609 5.81566L29.5597 5.06577C29.7999 4.9271 30.1068 5.00949 30.2454 5.24949C30.384 5.48956 30.3017 5.79658 30.0616 5.93519ZM24.476 3.07419L24.7928 1.8923C24.8646 1.62449 25.1397 1.46568 25.4076 1.53734C25.6754 1.60912 25.8343 1.88439 25.7625 2.15213L25.4458 3.33403C25.3742 3.60114 25.0996 3.76077 24.8309 3.68898C24.5632 3.6172 24.4043 3.34199 24.476 3.07419V3.07419ZM31.0413 11.2952C30.9812 11.5195 30.7784 11.6673 30.5567 11.6673C30.4658 11.6673 30.5294 11.6777 29.2445 11.3334C28.9767 11.2616 28.8178 10.9864 28.8896 10.7186C28.9614 10.4508 29.2366 10.2921 29.5044 10.3637L30.6863 10.6803C30.9541 10.7521 31.1131 11.0274 31.0413 11.2952Z" fill="#32B2C3" stroke="#32B2C3"/>
</svg>
