<svg width="32" height="32" viewBox="0 0 32 32" fill="none" xmlns="http://www.w3.org/2000/svg">
<path d="M27.3137 4.68625C24.2917 1.66431 20.2737 0 16 0C11.7263 0 7.70831 1.66431 4.68625 4.68625C1.66431 7.70831 0 11.7263 0 16C0 20.2737 1.66431 24.2917 4.68625 27.3137C7.70831 30.3357 11.7263 32 16 32C18.9258 32 21.7886 31.2026 24.2789 29.6942C24.8693 29.3364 25.0581 28.5678 24.7004 27.9774C24.3426 27.3868 23.5741 27.1982 22.9836 27.5559C20.884 28.8278 18.4691 29.5 16 29.5C8.55606 29.5 2.5 23.4439 2.5 16C2.5 8.55606 8.55606 2.5 16 2.5C23.4439 2.5 29.5 8.55606 29.5 16C29.5 18.6618 28.7084 21.2528 27.2109 23.4928C26.8272 24.0666 26.9814 24.8429 27.5553 25.2266C28.1293 25.6104 28.9055 25.4561 29.2891 24.8822C31.0626 22.2296 32 19.1581 32 16C32 11.7263 30.3357 7.70831 27.3137 4.68625Z" fill="#32B2C3"/>
<path d="M12.1439 23.3496C12.3329 23.4518 12.5364 23.5002 12.7372 23.5002C13.1815 23.5002 13.6118 23.2626 13.8379 22.8444L20.5946 10.3444C20.9229 9.737 20.6967 8.97857 20.0894 8.65038C19.482 8.32207 18.7235 8.54832 18.3954 9.15557L11.6387 21.6556C11.3104 22.2629 11.5365 23.0213 12.1439 23.3496Z" fill="#32B2C3"/>
<path fill-rule="evenodd" clip-rule="evenodd" d="M10.8125 8.5C12.5356 8.5 13.9375 9.90188 13.9375 11.625C13.9375 13.3481 12.5356 14.75 10.8125 14.75C9.08938 14.75 7.6875 13.3481 7.6875 11.625C7.6875 9.90188 9.08938 8.5 10.8125 8.5ZM10.1875 11.625C10.1875 11.9696 10.4679 12.25 10.8125 12.25C11.1571 12.25 11.4375 11.9696 11.4375 11.625C11.4375 11.2804 11.1571 11 10.8125 11C10.4679 11 10.1875 11.2804 10.1875 11.625Z" fill="#32B2C3"/>
<path fill-rule="evenodd" clip-rule="evenodd" d="M24.25 20.375C24.25 22.0981 22.8481 23.5 21.125 23.5C19.4019 23.5 18 22.0981 18 20.375C18 18.6519 19.4019 17.25 21.125 17.25C22.8481 17.25 24.25 18.6519 24.25 20.375ZM21.75 20.375C21.75 20.0304 21.4696 19.75 21.125 19.75C20.7804 19.75 20.5 20.0304 20.5 20.375C20.5 20.7196 20.7804 21 21.125 21C21.4696 21 21.75 20.7196 21.75 20.375Z" fill="#32B2C3"/>
</svg>
