<svg width="150" height="150" viewBox="0 0 150 150" fill="none" xmlns="http://www.w3.org/2000/svg">
<path d="M145.312 133.594H139.188L142.847 122.616C143.088 121.901 142.966 121.113 142.526 120.504C142.085 119.892 141.377 119.531 140.625 119.531H133.594V108.825C134.995 109.65 136.587 110.156 138.281 110.156C143.452 110.156 147.656 105.952 147.656 100.781C147.656 97.3922 145.807 94.3078 142.92 92.6625C142.369 86.7094 137.346 82.0312 131.25 82.0312C125.154 82.0312 120.131 86.7094 119.58 92.6625C116.693 94.3078 114.844 97.3922 114.844 100.781C114.844 105.952 119.048 110.156 124.219 110.156C125.913 110.156 127.505 109.65 128.906 108.825V119.531H121.875C121.123 119.531 120.415 119.892 119.972 120.504C119.531 121.116 119.412 121.903 119.651 122.616L123.312 133.594H114.844V126.562C114.844 125.266 113.796 124.219 112.5 124.219H110.156V117.188C110.156 115.891 109.109 114.844 107.812 114.844H96.0938V73.2773L105.778 90.225C106.195 90.9562 106.973 91.4062 107.812 91.4062C108.652 91.4062 109.43 90.9562 109.847 90.225L134.337 47.3672C136.917 42.8555 138.281 37.7203 138.281 32.5195C138.281 24.5273 135.169 17.0109 129.523 11.3672L129.27 11.1094C123.616 5.45625 116.1 2.34375 108.105 2.34375H107.52C99.525 2.34375 92.0086 5.45625 86.3508 11.1164L86.1094 11.3578C80.4563 17.0109 77.3438 24.525 77.3438 32.5195C77.3438 36.6656 78.2461 40.7531 79.9031 44.5312H4.6875C3.39141 44.5312 2.34375 45.5813 2.34375 46.875V60.9375C2.34375 64.7508 4.20234 68.1117 7.03125 70.2516V133.594H4.6875C3.39141 133.594 2.34375 134.641 2.34375 135.938V145.312C2.34375 146.609 3.39141 147.656 4.6875 147.656H145.312C146.609 147.656 147.656 146.609 147.656 145.312V135.938C147.656 134.641 146.609 133.594 145.312 133.594ZM124.219 105.469C121.634 105.469 119.531 103.366 119.531 100.781C119.531 98.8055 120.799 97.0359 122.688 96.3797C123.656 96.0422 124.294 95.1141 124.259 94.0875C124.254 93.9398 124.238 93.7945 124.219 93.75C124.219 89.8734 127.373 86.7188 131.25 86.7188C135.127 86.7188 138.281 89.8734 138.284 93.6445C138.272 93.7289 138.244 94.0055 138.241 94.0875C138.206 95.1141 138.844 96.0422 139.812 96.3797C141.701 97.0359 142.969 98.8055 142.969 100.781C142.969 103.366 140.866 105.469 138.281 105.469C136.305 105.469 134.536 104.201 133.88 102.312C133.549 101.37 132.661 100.739 131.667 100.739C131.541 100.739 131.402 100.751 131.245 100.77C131.128 100.758 130.971 100.741 130.91 100.741C129.848 100.648 128.958 101.346 128.618 102.312C127.964 104.201 126.195 105.469 124.219 105.469V105.469ZM125.128 124.219H137.374L134.25 133.594H128.25L125.128 124.219ZM96.0938 133.594V128.906H110.156V133.594H96.0938ZM25.7812 49.2188H39.8438V60.9375C39.8438 64.8141 36.6891 67.9688 32.8125 67.9688C28.9359 67.9688 25.7812 64.8141 25.7812 60.9375V49.2188ZM44.5312 49.2188H58.5938V60.9375C58.5938 64.8141 55.4391 67.9688 51.5625 67.9688C47.6859 67.9688 44.5312 64.8141 44.5312 60.9375V49.2188ZM63.2812 49.2188H77.3438V60.9375C77.3438 64.8141 74.1891 67.9688 70.3125 67.9688C66.4359 67.9688 63.2812 64.8141 63.2812 60.9375V49.2188ZM82.0312 49.2188H82.3453L92.5219 67.0266C91.4742 67.6242 90.3 67.9688 89.0625 67.9688C85.1859 67.9688 82.0312 64.8141 82.0312 60.9375V49.2188ZM105.469 119.531V124.219H96.0938V119.531H105.469ZM89.4305 14.6648L89.6719 14.4234C94.4391 9.65625 100.777 7.03125 107.52 7.03125H108.105C114.848 7.03125 121.186 9.65625 125.946 14.4141L126.199 14.6719C130.969 19.4391 133.594 25.7789 133.594 32.5195C133.594 36.907 132.445 41.2359 130.268 45.0422L107.812 84.3375L85.357 45.0398C83.1797 41.2359 82.0312 36.9047 82.0312 32.5195C82.0312 25.7789 84.6563 19.4391 89.4305 14.6648V14.6648ZM7.03125 49.2188H21.0938V60.9375C21.0938 64.8141 17.9391 67.9688 14.0625 67.9688C10.1859 67.9688 7.03125 64.8141 7.03125 60.9375V49.2188ZM11.7188 72.4195C12.4758 72.5742 13.2609 72.6562 14.0625 72.6562C17.9086 72.6562 21.3 70.7672 23.4375 67.8961C25.575 70.7672 28.9664 72.6562 32.8125 72.6562C36.6586 72.6562 40.05 70.7672 42.1875 67.8961C44.325 70.7672 47.7164 72.6562 51.5625 72.6562C55.4086 72.6562 58.8 70.7672 60.9375 67.8961C63.075 70.7672 66.4664 72.6562 70.3125 72.6562C74.1586 72.6562 77.55 70.7672 79.6875 67.8961C81.825 70.7672 85.2164 72.6562 89.0625 72.6562C89.8594 72.6562 90.6422 72.5742 91.4062 72.4195V133.594H67.9688V124.219H70.3125C74.1891 124.219 77.3438 121.064 77.3438 117.188C77.3438 113.311 74.1891 110.156 70.3125 110.156H60.9375C57.0609 110.156 53.9062 113.311 53.9062 117.188C53.9062 121.064 57.0609 124.219 60.9375 124.219H63.2812V133.594H39.8438V124.219H42.1875C46.0641 124.219 49.2188 121.064 49.2188 117.188C49.2188 113.311 46.0641 110.156 42.1875 110.156H32.8125C28.9359 110.156 25.7812 113.311 25.7812 117.188C25.7812 121.064 28.9359 124.219 32.8125 124.219H35.1562V133.594H11.7188V72.4195ZM60.9375 119.531C59.6438 119.531 58.5938 118.481 58.5938 117.188C58.5938 115.894 59.6438 114.844 60.9375 114.844H70.3125C71.6062 114.844 72.6562 115.894 72.6562 117.188C72.6562 118.481 71.6062 119.531 70.3125 119.531H60.9375ZM32.8125 119.531C31.5188 119.531 30.4688 118.481 30.4688 117.188C30.4688 115.894 31.5188 114.844 32.8125 114.844H42.1875C43.4812 114.844 44.5312 115.894 44.5312 117.188C44.5312 118.481 43.4812 119.531 42.1875 119.531H32.8125ZM142.969 142.969H7.03125V138.281H142.969V142.969Z" fill="#32B2C3"/>
<path d="M86.7188 103.125V79.6875C86.7188 78.3914 85.6711 77.3438 84.375 77.3438H18.75C17.4539 77.3438 16.4062 78.3914 16.4062 79.6875V103.125C16.4062 104.421 17.4539 105.469 18.75 105.469H84.375C85.6711 105.469 86.7188 104.421 86.7188 103.125ZM49.2188 100.781H30.4688V91.4062H49.2188V100.781ZM72.6562 100.781H63.2812V96.0938H72.6562V100.781ZM82.0312 100.781H77.3438V93.75C77.3438 92.4539 76.2961 91.4062 75 91.4062H60.9375C59.6414 91.4062 58.5938 92.4539 58.5938 93.75V100.781H53.9062V89.0625C53.9062 87.7664 52.8586 86.7188 51.5625 86.7188H28.125C26.8289 86.7188 25.7812 87.7664 25.7812 89.0625V100.781H21.0938V82.0312H82.0312V100.781Z" fill="#32B2C3"/>
<path d="M107.812 53.9062C119.445 53.9062 128.906 44.4422 128.906 32.8125C128.906 21.1828 119.445 11.7188 107.812 11.7188C96.1805 11.7188 86.7188 21.1828 86.7188 32.8125C86.7188 44.4422 96.1805 53.9062 107.812 53.9062ZM107.812 16.4062C116.857 16.4062 124.219 23.7656 124.219 32.8125C124.219 41.8594 116.857 49.2188 107.812 49.2188C98.768 49.2188 91.4062 41.8594 91.4062 32.8125C91.4062 23.7656 98.768 16.4062 107.812 16.4062Z" fill="#32B2C3"/>
</svg>
