<svg width="980" height="620" viewBox="0 0 980 620" fill="none" xmlns="http://www.w3.org/2000/svg">
<circle cx="850" cy="130" r="130" fill="white"/>
<path d="M784.2 174.28C782.832 177.592 780.72 180.256 777.864 182.272L779.832 184C782.616 181.96 784.848 179.032 786.528 175.24L784.2 174.28ZM788.808 173.992V176.44H791.976C793.464 179.608 795.648 182.176 798.528 184.144L800.184 181.864C797.064 179.896 794.88 177.256 793.632 173.992H788.808ZM785.928 184.984C785.448 186.904 784.776 188.464 783.936 189.664C782.832 191.056 781.2 192.328 779.04 193.48L780.672 195.568C783.12 194.176 784.968 192.592 786.216 190.84C787.176 189.376 787.92 187.432 788.472 184.984H793.656C793.56 188.296 793.296 190.456 792.912 191.464C792.528 192.424 791.76 192.928 790.584 192.928C789.336 192.928 787.992 192.88 786.576 192.832L787.248 195.304H791.856C793.08 195.232 793.968 194.824 794.52 194.104C795.096 193.336 795.48 192.016 795.72 190.096C795.96 188.176 796.104 185.68 796.2 182.56H781.728V184.984H785.928ZM808.608 183.808C809.136 184.552 809.784 185.512 810.504 186.664L811.872 184.648C810.792 183.376 809.712 182.2 808.608 181.096V180.136H811.584V177.712H808.608V173.272H806.136V177.712H802.92V180.136H805.992C805.224 182.8 804 185.176 802.344 187.264L803.424 190.024C804.504 188.32 805.416 186.472 806.136 184.456V195.448H808.608V183.808ZM822.672 173.296C819.72 174.352 816.36 174.904 812.568 175V182.944C812.424 187.432 811.392 190.936 809.472 193.456L811.248 195.352C813.528 192.304 814.776 188.224 814.968 183.112H818.64V195.448H821.16V183.112H824.448V180.688H814.968V177.136C818.256 176.944 821.232 176.416 823.896 175.552L822.672 173.296ZM827.856 189.016C827.76 190.936 827.472 192.664 826.992 194.152L829.2 194.872C829.656 193.24 829.944 191.392 830.088 189.304L827.856 189.016ZM832.68 189.184L830.664 189.64C830.952 191.032 831.192 192.664 831.384 194.512L833.616 193.984C833.328 192.256 833.016 190.672 832.68 189.184ZM835.032 182.464L833.112 183.088C833.28 183.664 833.448 184.264 833.616 184.912C832.68 185.152 831.744 185.368 830.832 185.536C832.224 183.904 833.952 181.288 836.016 177.712L833.712 176.848C833.184 177.832 832.68 178.744 832.2 179.608C831.48 179.728 830.736 179.848 830.016 179.944C831.072 178.408 832.128 176.44 833.184 174.064L830.88 173.152C830.112 175.36 829.2 177.4 828.144 179.272C827.832 179.704 827.496 179.992 827.136 180.16L827.712 182.344L830.904 181.84C829.896 183.472 829.032 184.6 828.36 185.272C828.072 185.56 827.712 185.776 827.304 185.944L827.904 188.104C829.824 187.888 831.864 187.456 834.024 186.808L834.264 188.032L836.328 187.504C835.944 185.608 835.512 183.928 835.032 182.464ZM835.608 188.56L833.664 189.208C834.144 190.432 834.6 191.848 835.008 193.48L837.024 192.544C836.616 191.128 836.136 189.808 835.608 188.56ZM840.36 185.968L839.088 187.864C841.392 188.584 843.648 189.592 845.808 190.888L847.056 188.992C845.04 187.792 842.808 186.784 840.36 185.968ZM838.44 190.048L837.072 192.04C840.48 192.88 843.816 194.032 847.056 195.496L848.4 193.408C845.4 192.088 842.088 190.96 838.44 190.048ZM839.712 173.464C839.016 175.984 837.672 178.12 835.68 179.872L837.216 181.864C837.768 181.36 838.296 180.832 838.824 180.256C839.448 180.952 840.096 181.624 840.816 182.272C839.376 183.328 837.768 184.168 835.944 184.744L837.192 186.952C839.256 186.208 841.08 185.176 842.712 183.856C844.32 185.104 846.12 186.16 848.088 187.048L849.336 184.888C847.56 184.12 845.928 183.232 844.44 182.224C845.736 180.832 846.816 179.224 847.728 177.352V175.384H841.704C841.896 174.88 842.088 174.352 842.232 173.776L839.712 173.464ZM842.52 180.784C841.656 180.064 840.864 179.296 840.144 178.48C840.288 178.24 840.432 178 840.6 177.736H844.92C844.224 178.84 843.432 179.848 842.52 180.784ZM851.736 177.04V179.392H859.512V177.04H856.944C856.656 175.744 856.368 174.592 856.08 173.584L853.584 173.992C853.944 174.928 854.28 175.936 854.568 177.04H851.736ZM854.28 180.376L852.216 181.048C852.648 183.976 853.032 187 853.32 190.168L855.312 189.688C855 186.184 854.664 183.064 854.28 180.376ZM859.392 189.712L857.832 190.216C858.312 187.24 858.696 184 858.96 180.496L856.728 180.184C856.512 183.928 856.176 187.456 855.744 190.816C854.4 191.152 853.032 191.44 851.64 191.656L852.288 194.104C854.808 193.552 857.184 192.88 859.392 192.112V189.712ZM870.312 177.664H867.912V173.344H865.464V177.664H863.136V174.28H860.736V179.848H872.688V174.28H870.312V177.664ZM859.968 181.216V183.52H865.152C865.032 184.072 864.888 184.624 864.696 185.176H860.424V195.4H862.68V187.384H864.072V194.992H866.136V187.384H867.408V194.968H869.472V187.384H870.936V192.856C870.936 193.12 870.816 193.264 870.624 193.264L869.664 193.192L870.264 195.4H871.344C872.544 195.4 873.144 194.704 873.144 193.312V185.176H867.144C867.336 184.648 867.48 184.096 867.624 183.52H873.624V181.216H859.968ZM880.56 188.68V195.472H882.48V194.776H888.288V193.912L889.512 195.472C890.856 194.56 891.984 193.528 892.896 192.328L891.456 191.056H895.152L893.88 192.256C895.272 193.36 896.376 194.416 897.144 195.424L898.728 193.864C897.864 192.928 896.832 191.992 895.632 191.056H897.744V178.048H894.024C894.192 177.472 894.336 176.848 894.432 176.224H898.32V174.064H888.336V176.224H892.008C891.912 176.848 891.768 177.448 891.6 178.048H888.936V191.056H891.264C890.448 192.016 889.464 192.88 888.288 193.624V192.88H886.128V191.824H887.808V190H886.128V188.848H887.76V187.024H886.128V185.944H888.144V184.072H886.152C885.96 183.424 885.768 182.824 885.576 182.296L883.584 182.632C883.776 183.064 883.968 183.544 884.136 184.072H882.816C882.96 183.64 883.128 183.184 883.272 182.728L881.352 182.296C880.824 184 880.224 185.464 879.552 186.664C879.624 185.512 879.672 184.312 879.696 183.016V181.984H887.64V177.232H879.696V176.32C882.648 176.224 885.336 175.96 887.736 175.504L886.632 173.512C883.968 174.112 880.944 174.448 877.536 174.496V183.016C877.488 187.576 877.056 191.152 876.288 193.744L877.872 195.424C878.52 193.648 879 191.488 879.312 188.992L879.864 189.664C880.08 189.352 880.32 189.016 880.56 188.68ZM879.696 180.16V179.056H885.384V180.16H879.696ZM882.48 192.88V191.824H884.256V192.88H882.48ZM884.256 190H882.48V188.848H884.256V190ZM884.256 187.024H882.48V185.944H884.256V187.024ZM895.44 188.92H891.24V187.408H895.44V188.92ZM891.24 185.392V183.784H895.44V185.392H891.24ZM891.24 181.768V180.16H895.44V181.768H891.24ZM919.344 187.672H905.088V195.568H907.512V194.704H916.896V195.568H919.344V187.672ZM907.512 192.448V189.904H916.896V192.448H907.512ZM908.544 177.208C906.936 179.392 905.064 181.072 902.928 182.272L904.512 184.192C905.448 183.592 906.36 182.92 907.248 182.176C908.016 182.848 908.856 183.472 909.768 184.048C907.344 184.816 904.368 185.464 900.84 185.968L901.8 188.2C906.072 187.504 909.576 186.592 912.36 185.44C915.24 186.76 918.576 187.528 922.368 187.744L922.944 185.488C920.064 185.344 917.448 184.864 915.096 184.096C916.68 183.136 917.856 182.08 918.672 180.904V178.912H910.2C910.464 178.552 910.728 178.168 910.992 177.76L908.544 177.208ZM912.432 183.016C911.256 182.44 910.152 181.792 909.12 181.024H915.648C914.808 181.744 913.728 182.392 912.432 183.016ZM922.056 174.808H913.152C912.936 174.184 912.72 173.632 912.48 173.104L909.696 173.536C909.96 173.92 910.2 174.352 910.44 174.808H901.944V179.8H904.488V177.04H919.512V179.8H922.056V174.808ZM799.308 211.184H795.66C796.092 210.08 796.452 208.856 796.716 207.56L794.196 207.224C794.004 208.592 793.692 209.912 793.26 211.184H790.956V228.704H793.356V226.808H796.908V228.008H799.308V211.184ZM793.356 224.504V219.968H796.908V224.504H793.356ZM793.356 217.736V213.536H796.908V217.736H793.356ZM803.676 217.016L801.636 218.288C803.124 220.208 804.324 221.96 805.212 223.544L807.228 222.152C806.388 220.664 805.212 218.96 803.676 217.016ZM811.668 211.184H804.372C804.732 210.032 805.044 208.808 805.284 207.512L802.812 207.2C802.236 210.488 801.18 213.272 799.596 215.528L801.108 217.52C801.996 216.368 802.764 215.072 803.412 213.632H809.22C809.172 220.424 809.1 224.384 808.956 225.536C808.812 226.472 808.308 226.952 807.444 226.952C806.652 226.952 805.716 226.904 804.66 226.832L805.26 229.112C806.508 229.208 807.372 229.256 807.852 229.256C809.916 229.256 811.068 228.416 811.308 226.736C811.548 224.768 811.668 219.584 811.668 211.184ZM816.084 208.784V210.92H824.628C824.556 211.256 824.484 211.616 824.388 212H818.556V223.16H815.196V225.368H821.196C819.708 226.232 817.86 226.976 815.676 227.576L816.684 229.688C819.372 228.848 821.676 227.792 823.548 226.52L822.516 225.368H829.14L828.348 226.544C830.652 227.312 832.908 228.344 835.116 229.688L836.388 227.72C834.708 226.808 832.884 226.04 830.916 225.368H836.604V223.16H833.604V212H826.956C827.028 211.664 827.1 211.304 827.172 210.92H835.716V208.784H827.532C827.58 208.376 827.652 207.968 827.7 207.536L825.156 207.176C825.108 207.704 825.036 208.256 824.964 208.784H816.084ZM820.956 223.16V222.2H831.228V223.16H820.956ZM820.956 220.352V219.44H831.228V220.352H820.956ZM820.956 217.616V216.728H831.228V217.616H820.956ZM820.956 214.88V213.968H831.228V214.88H820.956ZM844.14 211.664L843.828 213.776H840.156V215.744H843.54L843.228 217.832H856.908L857.1 215.744H860.868V213.776H857.292L857.484 211.664H844.14ZM845.652 216.416L845.82 215.48H849.252L849.108 216.416H845.652ZM851.436 215.48H854.892L854.772 216.416H851.292L851.436 215.48ZM846.084 214.088L846.252 213.128H849.636L849.468 214.088H846.084ZM851.82 213.128H855.156L855.06 214.088H851.652L851.82 213.128ZM843.156 218.624V226.544H846.204C844.716 227 842.772 227.384 840.396 227.72L841.524 229.664C844.668 229.112 847.092 228.416 848.772 227.576L848.004 226.544H852.804L852.228 227.624C854.724 228.104 857.148 228.776 859.476 229.64L860.268 227.648C858.756 227.216 857.196 226.832 855.564 226.544H857.868V218.624H843.156ZM855.516 225.032H845.508V224.216H855.516V225.032ZM845.508 222.92V222.128H855.516V222.92H845.508ZM845.508 220.856V220.04H855.516V220.856H845.508ZM860.556 208.832H851.796C851.58 208.208 851.364 207.632 851.148 207.128L848.628 207.56C848.844 207.944 849.036 208.376 849.228 208.832H840.444V213.08H842.796V210.8H858.204V213.08H860.556V208.832ZM864.372 218.528V220.64H873.348L872.796 221.84H866.364V229.568H868.74V223.928H871.524V229.232H873.9V223.928H876.612V229.232H879.012V223.928H882.036V226.64C882.036 227.168 881.796 227.432 881.34 227.432L879.78 227.336L880.332 229.472H882.012C883.62 229.472 884.436 228.704 884.436 227.168V221.84H875.316L875.892 220.64H885.828V218.528H864.372ZM865.836 207.944V209.96H873.876V210.92H864.756V216.176H867.156V212.816H873.876V217.808H876.324V212.816H883.044V216.176H885.444V210.92H876.324V209.96H884.388V207.944H865.836ZM868.836 213.224L868.044 214.808C869.556 214.904 870.996 215.096 872.388 215.336L873.036 213.8C871.692 213.56 870.3 213.368 868.836 213.224ZM872.436 215.816C871.5 215.96 869.94 216.08 867.732 216.152L868.26 217.88C870.468 217.736 872.052 217.544 872.964 217.328L872.436 215.816ZM877.62 215.36C879.3 215.24 880.788 215.072 882.06 214.832L881.46 213.176C880.212 213.464 878.82 213.632 877.284 213.728L877.62 215.36ZM877.932 215.864L877.188 217.28C878.748 217.472 880.26 217.736 881.7 218.048L882.372 216.416C880.956 216.152 879.468 215.96 877.932 215.864ZM889.308 211.424V213.848H898.596V226.304C898.596 226.832 898.332 227.12 897.852 227.12C896.892 227.12 895.884 227.048 894.828 226.952L895.38 229.352H898.716C900.324 229.352 901.14 228.536 901.14 226.928V218.984C903.06 222.392 905.748 225.296 909.18 227.744L910.932 225.656C908.412 224.096 906.276 222.296 904.524 220.28C906.276 219.08 907.788 217.736 909.06 216.224L907.164 214.568C906.06 216.056 904.716 217.376 903.156 218.552C902.388 217.496 901.716 216.368 901.14 215.168V213.848H910.044V211.424H906.348L907.5 210.272C906.588 209.312 905.484 208.352 904.188 207.392L902.58 208.904C903.732 209.792 904.644 210.632 905.364 211.424H901.14V207.272H898.596V211.424H889.308ZM892.188 215.048L890.484 216.704C892.38 218.096 893.844 219.368 894.876 220.568L896.556 218.888C895.356 217.592 893.916 216.32 892.188 215.048ZM897.108 219.92C894.852 222.152 892.14 224.024 889.02 225.56L890.124 228.08C893.148 226.352 895.692 224.384 897.732 222.176L897.108 219.92Z" fill="#30505F"/>
<path d="M863.793 72.9882C866.485 72.9882 868.676 70.7977 868.676 68.1054C868.676 65.413 866.485 63.2224 863.793 63.2224C861.101 63.2224 858.91 65.413 858.91 68.1054C858.91 69.205 859.276 70.2206 859.892 71.0378L851.869 82.2489C851.39 82.0917 850.879 82.0054 850.349 82.0054C849.066 82.0054 847.897 82.5036 847.025 83.3157L841.678 80.2813C841.749 79.9501 841.787 79.6067 841.787 79.2546C841.787 76.5622 839.597 74.3718 836.904 74.3718C834.212 74.3718 832.021 76.5622 832.021 79.2546C832.021 79.6067 832.06 79.9501 832.131 80.2813L826.784 83.3157C825.911 82.5036 824.743 82.0056 823.46 82.0056C820.768 82.0056 818.577 84.1962 818.577 86.8886C818.577 89.5809 820.768 91.7716 823.46 91.7716C826.152 91.7716 828.343 89.5809 828.343 86.8886C828.343 86.5364 828.304 86.1931 828.233 85.8618L833.581 82.8274C834.453 83.6395 835.621 84.1378 836.904 84.1378C838.187 84.1378 839.355 83.6395 840.228 82.8276L845.575 85.862C845.504 86.1932 845.466 86.5366 845.466 86.8888C845.466 89.5811 847.656 91.7718 850.349 91.7718C853.041 91.7718 855.232 89.5811 855.232 86.8888C855.232 85.789 854.866 84.7731 854.25 83.9559L862.273 72.7448C862.751 72.9018 863.262 72.9882 863.793 72.9882ZM863.793 66.152C864.87 66.152 865.746 67.0282 865.746 68.1054C865.746 69.1823 864.87 70.0585 863.793 70.0585C862.716 70.0585 861.84 69.1823 861.84 68.1054C861.84 67.0282 862.716 66.152 863.793 66.152ZM823.459 88.8415C822.382 88.8415 821.506 87.9653 821.506 86.8882C821.506 85.811 822.382 84.9349 823.459 84.9349C824.536 84.9349 825.413 85.811 825.413 86.8882C825.413 87.9653 824.536 88.8415 823.459 88.8415ZM836.904 81.2077C835.827 81.2077 834.951 80.3315 834.951 79.2544C834.951 78.1774 835.827 77.3013 836.904 77.3013C837.981 77.3013 838.857 78.1774 838.857 79.2544C838.857 80.3315 837.981 81.2077 836.904 81.2077ZM850.348 88.8415C849.271 88.8415 848.395 87.9653 848.395 86.8882C848.395 85.811 849.271 84.9349 850.348 84.9349C851.426 84.9349 852.302 85.811 852.302 86.8882C852.302 87.9653 851.425 88.8415 850.348 88.8415Z" fill="#32B2C3"/>
<path d="M881.796 120.626H871.545H815.709H804.144C803.474 120.626 802.93 120.082 802.93 119.412V58.9789C802.93 58.3095 803.474 57.765 804.144 57.765H811.049C811.858 57.765 812.514 57.1094 812.514 56.3002C812.514 55.491 811.858 54.8353 811.049 54.8353H804.144C801.859 54.8353 800 56.6941 800 58.9789V119.412C800 121.697 801.859 123.556 804.144 123.556H814.244V126.78C814.244 128.616 815.738 130.11 817.574 130.11H832.237L825.335 143.587C824.966 144.307 825.251 145.189 825.971 145.558C826.185 145.668 826.413 145.72 826.638 145.72C827.17 145.72 827.683 145.428 827.942 144.922L835.529 130.11H851.725L859.311 144.922C859.571 145.428 860.084 145.72 860.616 145.72C860.841 145.72 861.069 145.667 861.283 145.558C862.003 145.189 862.288 144.307 861.919 143.587L855.016 130.11H869.679C871.516 130.11 873.01 128.616 873.01 126.78V123.556H881.796C882.605 123.556 883.261 122.9 883.261 122.091C883.261 121.282 882.605 120.626 881.796 120.626ZM870.08 126.78C870.08 127.001 869.9 127.181 869.679 127.181H817.574C817.353 127.181 817.173 127.001 817.173 126.78V123.556H870.08V126.78Z" fill="#32B2C3"/>
<path d="M816.911 57.7649H836.964H850.294H883.112C883.781 57.7649 884.326 58.3095 884.326 58.9788V72.9067C884.326 73.7159 884.982 74.3716 885.791 74.3716C886.6 74.3716 887.256 73.7159 887.256 72.9067V58.9788C887.256 56.694 885.397 54.8352 883.112 54.8352H851.759V51.9559C851.759 49.9296 850.11 48.2809 848.084 48.2809H839.174C837.148 48.2809 835.499 49.9296 835.499 51.9559V54.8352H816.911C816.102 54.8352 815.446 55.4909 815.446 56.3001C815.446 57.1093 816.102 57.7649 816.911 57.7649ZM838.429 51.9559C838.429 51.545 838.763 51.2106 839.174 51.2106H848.084C848.495 51.2106 848.829 51.545 848.829 51.9559V54.8352H838.429V51.9559H838.429Z" fill="#32B2C3"/>
<path d="M820.488 99.2615C819.679 99.2615 819.023 99.9172 819.023 100.726V113.67C819.023 114.479 819.679 115.135 820.488 115.135H826.431C827.24 115.135 827.896 114.479 827.896 113.67V100.726C827.896 99.9172 827.24 99.2615 826.431 99.2615H820.488ZM824.966 112.205H821.953V102.191H824.966V112.205Z" fill="#32B2C3"/>
<path d="M833.936 91.7746C833.127 91.7746 832.471 92.4303 832.471 93.2394V113.669C832.471 114.478 833.127 115.134 833.936 115.134H839.878C840.687 115.134 841.343 114.478 841.343 113.669V93.2394C841.343 92.4303 840.687 91.7746 839.878 91.7746H833.936ZM838.414 112.204H835.401V94.7043H838.414V112.204Z" fill="#32B2C3"/>
<path d="M847.376 99.2615C846.567 99.2615 845.912 99.9172 845.912 100.726V113.67C845.912 114.479 846.567 115.135 847.376 115.135H853.319C854.128 115.135 854.784 114.479 854.784 113.67V100.726C854.784 99.9172 854.128 99.2615 853.319 99.2615H847.376ZM851.854 112.205H848.841V102.191H851.854V112.205Z" fill="#32B2C3"/>
<path d="M860.82 107.904C860.011 107.904 859.355 108.56 859.355 109.369V113.669C859.355 114.478 860.011 115.134 860.82 115.134H866.763C867.572 115.134 868.228 114.478 868.228 113.669C868.228 112.86 867.572 112.204 866.763 112.204H862.285V109.369C862.285 108.56 861.629 107.904 860.82 107.904Z" fill="#32B2C3"/>
<path d="M899.25 122.004L890.846 107.448C892.975 105.179 894.526 102.406 895.354 99.3152C896.677 94.3755 895.998 89.216 893.441 84.7871C888.163 75.6439 876.43 72.5007 867.287 77.7791C858.145 83.0574 855.001 94.79 860.28 103.933C862.837 108.362 866.965 111.53 871.905 112.853C873.555 113.295 875.228 113.514 876.891 113.514C878.345 113.514 879.79 113.347 881.203 113.016L889.605 127.572C890.635 129.357 892.51 130.355 894.437 130.355C895.381 130.355 896.337 130.115 897.212 129.611C898.93 128.619 899.997 126.77 899.997 124.785C899.997 123.813 899.739 122.851 899.25 122.004ZM872.663 110.024C868.479 108.902 864.982 106.219 862.817 102.468C858.346 94.7242 861.009 84.7871 868.752 80.3162C871.3 78.8455 874.083 78.147 876.833 78.147C882.441 78.147 887.904 81.0558 890.904 86.2519C893.069 90.0031 893.645 94.373 892.524 98.557C891.403 102.741 888.719 106.238 884.968 108.403C881.217 110.569 876.847 111.144 872.663 110.024ZM895.747 127.073C894.487 127.801 892.87 127.368 892.143 126.108L884.059 112.103C884.869 111.772 885.663 111.386 886.433 110.941C887.205 110.495 887.935 110 888.627 109.463L896.713 123.468C896.945 123.871 897.067 124.326 897.067 124.785C897.067 125.726 896.561 126.603 895.747 127.073Z" fill="#32B2C3"/>
<path d="M890.145 98.4866C891.179 95.1553 890.933 91.5889 889.451 88.4444C889.106 87.7124 888.234 87.3987 887.502 87.7434C886.77 88.0883 886.456 88.961 886.801 89.6928C887.97 92.1733 888.164 94.9876 887.347 97.6176C886.526 100.262 884.752 102.482 882.352 103.867C879.813 105.333 876.854 105.723 874.022 104.964C871.189 104.205 868.822 102.388 867.356 99.8487C864.329 94.6063 866.132 87.879 871.374 84.8522C875.207 82.6395 879.964 82.9352 883.493 85.6055C884.139 86.0938 885.057 85.9667 885.545 85.3213C886.034 84.6762 885.906 83.7575 885.261 83.2694C880.79 79.8864 874.764 79.512 869.909 82.3149C866.692 84.1723 864.391 87.1715 863.429 90.7598C862.468 94.3481 862.961 98.0962 864.819 101.313C866.676 104.531 869.675 106.832 873.263 107.794C874.462 108.115 875.678 108.273 876.886 108.273C879.295 108.273 881.674 107.641 883.817 106.404C886.857 104.649 889.105 101.837 890.145 98.4866Z" fill="#32B2C3"/>
<circle cx="130" cy="130" r="130" fill="white"/>
<path d="M84.936 195.232C86.568 195.232 87.384 194.392 87.384 192.76V186.064C88.152 185.68 88.944 185.248 89.712 184.816V182.248C88.944 182.704 88.176 183.136 87.384 183.544V179.848H89.856V177.424H87.384V173.32H84.888V177.424H82.248V179.848H84.888V184.648C83.832 185.056 82.776 185.392 81.672 185.656L82.32 188.2C83.184 187.888 84.024 187.552 84.888 187.216V192.112C84.888 192.664 84.6 192.952 84.072 192.952C83.52 192.952 82.92 192.904 82.296 192.808L82.848 195.232H84.936ZM90.408 183.28V185.728H91.704C92.28 187.6 93.408 189.328 95.064 190.888C93.432 191.944 91.464 192.832 89.112 193.504L90.48 195.64C93.096 194.872 95.304 193.84 97.128 192.544C98.736 193.648 100.68 194.656 102.984 195.568L104.328 193.408C102.216 192.712 100.44 191.92 98.952 191.008C100.488 189.496 101.592 187.696 102.264 185.608V183.28H90.408ZM94.008 185.728H99.744C99.072 187.144 98.112 188.416 96.864 189.52C95.52 188.392 94.56 187.12 94.008 185.728ZM91.992 174.04V177.64C91.992 179.032 91.128 180.112 89.424 180.88L91.104 182.824C93.336 181.528 94.464 179.704 94.464 177.376V176.392H98.352V179.584C98.352 181.24 99.264 182.08 101.136 182.08H103.56V179.752H101.808C101.136 179.752 100.824 179.488 100.824 178.984V174.04H91.992ZM117.864 176.512H124.824C124.464 177.064 124.08 177.544 123.672 177.976L125.352 179.344C126.096 178.504 126.792 177.448 127.416 176.176V174.448H119.088C119.232 174.112 119.352 173.776 119.496 173.392L117.192 173.104C116.592 174.784 115.464 176.176 113.784 177.304L115.152 179.104C116.208 178.336 117.12 177.472 117.864 176.512ZM107.472 174.472V176.584H113.472V174.472H107.472ZM106.992 178.792V180.928H113.976V178.792H106.992ZM120.168 176.632C119.592 178.792 117.72 180.136 114.552 180.688L115.464 182.128H109.608V192.184H113.664C112.032 192.808 109.8 193.312 106.944 193.744L108.072 195.688C111.384 195.112 113.928 194.368 115.704 193.456L114.744 192.184H120.144L119.4 193.648C122.184 194.128 124.872 194.8 127.416 195.688L128.232 193.696C126.12 193.072 123.888 192.568 121.56 192.184H125.616V182.392C126.144 182.536 126.72 182.68 127.344 182.776L128.352 180.688C125.832 180.4 123.72 179.512 121.992 177.976C122.088 177.688 122.184 177.376 122.28 177.064L120.168 176.632ZM117.12 182.128C118.8 181.6 120.096 180.784 121.032 179.632C122.136 180.736 123.432 181.552 124.872 182.128H117.12ZM123.168 190.216H112.056V189.16H123.168V190.216ZM112.056 187.576V186.616H123.168V187.576H112.056ZM112.056 185.008V184H123.168V185.008H112.056ZM152.256 174.064H132.144V195.52H134.496V194.68H149.904V195.52H152.256V174.064ZM134.496 192.616V176.08H149.904V192.616H134.496ZM135.816 177.088V178.672H141V179.368H136.632V184.48H141.024V185.296L135.792 185.368L136.008 186.76C139.44 186.664 142.272 186.544 144.504 186.448V187.408H135.432V189.136H137.76L136.968 190.288C137.976 190.648 138.96 191.176 139.92 191.848L140.928 190.36C140.112 189.88 139.224 189.472 138.264 189.136H144.504V189.736C144.504 190.12 144.288 190.336 143.88 190.336C143.208 190.336 142.488 190.288 141.768 190.216L142.2 192.064H144.528C145.92 192.064 146.616 191.44 146.616 190.216V189.136H148.92V187.408H146.616V186.304L147.192 186.256C147.384 186.544 147.576 186.856 147.768 187.168L149.232 186.16C148.848 185.56 148.32 184.888 147.696 184.168V179.368H143.256V178.672H148.512V177.088H143.256V176.512H141V177.088H135.816ZM143.232 184.48H145.872C146.04 184.672 146.208 184.888 146.376 185.128C145.44 185.152 144.384 185.2 143.232 185.248V184.48ZM145.728 183.328H142.992V182.44H145.728V183.328ZM141.264 183.328H138.624V182.44H141.264V183.328ZM138.624 181.456V180.568H141.264V181.456H138.624ZM142.992 180.568H145.728V181.456H142.992V180.568ZM163.848 176.176V178.576H168.552C167.208 179.824 165.312 180.856 162.816 181.72L164.112 183.856C165.576 183.232 166.896 182.536 168.048 181.768C168.288 182.008 168.504 182.296 168.72 182.608C167.448 183.952 165.768 185.056 163.704 185.968L164.928 188.104C166.848 187.168 168.456 185.992 169.728 184.576C169.896 184.984 170.04 185.44 170.184 185.92C168.408 187.888 165.936 189.592 162.792 191.032L164.232 193.168C166.656 191.968 168.792 190.456 170.616 188.632C170.64 189.088 170.664 189.568 170.664 190.096C170.664 191.536 170.496 192.4 170.208 192.736C169.872 193.024 169.392 193.192 168.72 193.192H166.896L167.64 195.448C168.072 195.448 168.456 195.424 168.816 195.424C170.352 195.352 171.456 195.064 172.128 194.56C172.752 194.032 173.088 192.544 173.088 190.096C173.088 189.592 173.064 189.088 173.04 188.608C174.072 190.216 175.344 191.656 176.832 192.928L178.104 190.744C175.968 189.184 174.24 187.312 172.92 185.104C173.736 184.528 174.408 183.976 174.936 183.448C175.656 182.752 176.376 181.84 177.096 180.736L175.008 179.464C174.432 180.424 173.808 181.264 173.184 181.936C172.752 182.368 172.296 182.776 171.816 183.112C171.336 182.032 170.712 181.096 169.944 180.28C170.52 179.752 171.024 179.176 171.504 178.576H177.24V176.176H174.216C174.6 175.528 174.984 174.832 175.32 174.064L172.968 173.224C172.584 174.256 172.176 175.24 171.696 176.176H169.176C168.816 175.048 168.408 174.064 167.976 173.2L165.624 174.088C166.032 174.736 166.392 175.432 166.704 176.176H163.848ZM156.432 174.04V195.28H158.928V188.608L159.576 190.648C161.184 190.624 162.312 190.264 162.984 189.568C163.416 189.04 163.632 188.152 163.632 186.856C163.536 185.368 162.936 183.616 161.856 181.6C162.504 179.632 163.08 177.736 163.56 175.912V174.04H156.432ZM158.928 188.176V176.296H161.136C160.704 177.976 160.128 179.872 159.408 181.96C160.608 183.784 161.208 185.416 161.208 186.856C161.208 187.36 161.136 187.72 160.992 187.912C160.824 188.104 160.536 188.248 160.104 188.296C159.792 188.296 159.408 188.248 158.928 188.176Z" fill="#30505F"/>
<g clip-path="url(#clip0)">
<path d="M178.047 95.6199H166.479C165.4 95.6199 164.526 96.4942 164.526 97.573V99.2232H152.363C152.106 99.2232 151.852 99.2736 151.616 99.372L136.035 105.82C134.232 106.567 132.831 107.973 132.092 109.779C131.352 111.584 131.363 113.567 132.124 115.365L132.177 115.489C132.628 116.556 133.294 117.463 134.102 118.18C131.73 118.823 129.244 118.875 126.827 118.322L111.531 114.819C109.659 114.391 107.738 114.726 106.122 115.763C104.507 116.799 103.402 118.406 103.011 120.285C102.237 124.008 104.518 127.659 108.204 128.596L126.455 133.234C128 133.626 129.567 133.822 131.129 133.822C133.471 133.822 135.801 133.383 138.025 132.51L161.236 123.407H164.526V124.435C164.526 125.513 165.401 126.388 166.479 126.388H178.047C179.126 126.388 180 125.513 180 124.435V97.573C180 96.4942 179.126 95.6199 178.047 95.6199ZM160.866 119.501C160.622 119.501 160.38 119.546 160.154 119.635L136.598 128.874C133.655 130.028 130.481 130.226 127.417 129.448L109.166 124.809C107.512 124.389 106.488 122.751 106.835 121.08C107.01 120.236 107.506 119.515 108.232 119.051C108.751 118.717 109.34 118.545 109.942 118.545C110.18 118.545 110.42 118.572 110.659 118.627L125.955 122.129C129.635 122.971 133.443 122.701 136.968 121.346L141.407 119.639C141.498 119.608 141.589 119.575 141.68 119.54C145.604 118.027 150.612 116.101 151.688 115.687L151.898 115.606C152.904 115.219 153.407 114.088 153.02 113.082C152.633 112.075 151.504 111.573 150.496 111.96C150.496 111.96 150.416 111.991 150.268 112.047L140.088 115.962C138.362 116.521 136.496 115.671 135.774 113.966L135.721 113.841C135.369 113.011 135.364 112.094 135.706 111.259C136.048 110.425 136.695 109.775 137.529 109.43L152.751 103.129H164.526V119.501H160.866ZM176.094 122.481H168.432V99.5261H176.094V122.481Z" fill="#32B2C3"/>
<path d="M99.0201 94.8035H95.4747V76.554H96.0156C97.4599 76.554 98.9018 76.2061 100.186 75.5477C100.246 75.5164 100.306 75.4828 100.362 75.4454L113.011 67.1927C114.759 66.3352 116.883 66.5305 118.447 67.6993L119.36 68.3799C119.304 68.4584 119.251 68.5385 119.197 68.6171C118.956 68.9681 118.724 69.3259 118.506 69.6913C117.155 71.9474 116.288 74.4857 115.969 77.0743C114.637 77.2177 113.405 77.8052 112.445 78.7642C111.333 79.8758 110.721 81.3559 110.721 82.9306C110.721 86.1785 113.363 88.8213 116.611 88.8213H131.07C131.868 88.8213 132.62 89.1326 133.184 89.6949C133.75 90.2625 134.062 91.0147 134.063 91.8128C134.062 93.0045 133.364 94.0787 132.277 94.5525C132.151 94.6082 132.037 94.6494 131.93 94.6791C131.92 94.6822 131.911 94.6852 131.901 94.6883C131.638 94.7646 131.359 94.8035 131.07 94.8035H114.641C113.563 94.8035 112.688 95.6778 112.688 96.7566C112.688 97.8354 113.563 98.7097 114.641 98.7097H131.07C131.575 98.7097 132.072 98.6548 132.556 98.5488C133.376 98.6541 134.207 98.7113 135.033 98.7113C145.628 98.7113 154.249 90.0916 154.249 79.4959C154.249 68.9009 145.628 60.2812 135.033 60.2812C130.151 60.2812 125.478 62.1405 121.942 65.4334L120.784 64.569C118.009 62.4961 114.224 62.1779 111.143 63.7595C111.083 63.79 111.025 63.8243 110.968 63.861L98.3205 72.1129C97.6064 72.4631 96.8114 72.647 96.0156 72.647H95.4739V71.9405C95.4739 70.8617 94.5996 69.9874 93.5208 69.9874H81.9531C80.8743 69.9874 80 70.8617 80 71.9405V98.8021C80 99.8809 80.8743 100.755 81.9531 100.755H93.5208C94.5996 100.755 95.4739 99.8809 95.4739 98.8021V98.7097H99.0201C100.098 98.7097 100.973 97.8354 100.973 96.7566C100.973 95.6778 100.098 94.8035 99.0201 94.8035ZM114.627 82.9306C114.627 82.3996 114.833 81.9007 115.207 81.5268C115.403 81.3315 115.632 81.1827 115.883 81.0843C115.989 82.3905 116.227 83.6692 116.593 84.9143C115.507 84.9044 114.627 84.0186 114.627 82.9306ZM150.341 79.4966C150.341 87.1421 144.707 93.4973 137.372 94.6265C137.764 93.7461 137.969 92.7771 137.969 91.8128C137.969 90.6295 137.671 89.4919 137.112 88.4818C137.96 88.3483 138.743 87.9569 139.361 87.3381C140.135 86.5653 140.561 85.5376 140.561 84.4443V81.5558C140.561 79.299 138.724 77.4626 136.467 77.4626H133.602C133.499 77.4626 133.415 77.3787 133.415 77.2757V74.549C133.415 74.446 133.499 74.3628 133.602 74.3628H135.034H135.035H135.035H136.467C136.57 74.3628 136.654 74.446 136.654 74.549C136.654 75.6278 137.529 76.5021 138.607 76.5021C139.686 76.5021 140.561 75.6278 140.561 74.549C140.561 72.4692 138.999 70.7503 136.988 70.4932V69.8165C136.988 68.7377 136.113 67.8633 135.035 67.8633C133.956 67.8633 133.082 68.7377 133.082 69.8165V70.4932C131.07 70.7503 129.509 72.4692 129.509 74.549V77.2757C129.509 79.5325 131.345 81.3689 133.602 81.3689H136.467C136.57 81.3689 136.654 81.4528 136.654 81.5558V84.4443C136.654 84.4954 136.636 84.5397 136.599 84.5763C136.563 84.6122 136.519 84.6305 136.467 84.6305H133.602C133.499 84.6305 133.415 84.5465 133.415 84.4443V84.1796C133.415 83.1008 132.541 82.2264 131.462 82.2264C130.383 82.2264 129.509 83.1008 129.509 84.1796V84.4443C129.509 84.603 129.52 84.7594 129.538 84.9143H120.71C120.056 83.1916 119.725 81.3735 119.725 79.4966C119.725 76.6349 120.539 73.77 122.072 71.3507C122.513 70.6557 123.005 69.9927 123.55 69.3755C126.456 66.0781 130.639 64.1875 135.033 64.1875C143.474 64.1875 150.341 71.0547 150.341 79.4966ZM91.5677 96.8497H83.9062V73.8936H91.5677V96.8497Z" fill="#32B2C3"/>
<path d="M108.396 95.674C107.938 94.9728 107.039 94.6501 106.237 94.8798C105.462 95.1025 104.897 95.7961 104.827 96.5987C104.757 97.4097 105.228 98.2016 105.968 98.535C106.701 98.8661 107.584 98.7074 108.154 98.139C108.805 97.489 108.906 96.4377 108.396 95.674Z" fill="#32B2C3"/>
</g>
<circle cx="130" cy="490" r="130" fill="white"/>
<path d="M74.46 548.68V555.472H76.38V554.776H82.188V553.912L83.412 555.472C84.756 554.56 85.884 553.528 86.796 552.328L85.356 551.056H89.052L87.78 552.256C89.172 553.36 90.276 554.416 91.044 555.424L92.628 553.864C91.764 552.928 90.732 551.992 89.532 551.056H91.644V538.048H87.924C88.092 537.472 88.236 536.848 88.332 536.224H92.22V534.064H82.236V536.224H85.908C85.812 536.848 85.668 537.448 85.5 538.048H82.836V551.056H85.164C84.348 552.016 83.364 552.88 82.188 553.624V552.88H80.028V551.824H81.708V550H80.028V548.848H81.66V547.024H80.028V545.944H82.044V544.072H80.052C79.86 543.424 79.668 542.824 79.476 542.296L77.484 542.632C77.676 543.064 77.868 543.544 78.036 544.072H76.716C76.86 543.64 77.028 543.184 77.172 542.728L75.252 542.296C74.724 544 74.124 545.464 73.452 546.664C73.524 545.512 73.572 544.312 73.596 543.016V541.984H81.54V537.232H73.596V536.32C76.548 536.224 79.236 535.96 81.636 535.504L80.532 533.512C77.868 534.112 74.844 534.448 71.436 534.496V543.016C71.388 547.576 70.956 551.152 70.188 553.744L71.772 555.424C72.42 553.648 72.9 551.488 73.212 548.992L73.764 549.664C73.98 549.352 74.22 549.016 74.46 548.68ZM73.596 540.16V539.056H79.284V540.16H73.596ZM76.38 552.88V551.824H78.156V552.88H76.38ZM78.156 550H76.38V548.848H78.156V550ZM78.156 547.024H76.38V545.944H78.156V547.024ZM89.34 548.92H85.14V547.408H89.34V548.92ZM85.14 545.392V543.784H89.34V545.392H85.14ZM85.14 541.768V540.16H89.34V541.768H85.14ZM101.028 545.056V552.76H110.7V545.056H101.028ZM108.276 550.552H103.452V547.264H108.276V550.552ZM98.46 539.968H102.564V541.576H98.46V539.968ZM102.564 537.88H98.46V536.224H102.564V537.88ZM109.092 539.968H113.34V541.552H109.092V539.968ZM113.34 537.88H109.092V536.272H113.34V537.88ZM105.06 534.016H95.988V555.472H98.46V543.784H105.06V534.016ZM113.34 543.76V552.136C113.34 552.736 113.028 553.048 112.428 553.048C111.804 553.048 111.132 553 110.412 552.904L111.06 555.304C111.804 555.352 112.572 555.4 113.34 555.4C114.972 555.4 115.812 554.584 115.812 552.952V534.016H106.596V543.76H113.34ZM119.988 537.304V539.752H131.532C131.724 542.584 132.06 545.104 132.564 547.264C134.004 552.592 135.9 555.352 138.276 555.496C139.692 555.496 140.748 553.672 141.468 550.048L139.212 548.896C138.804 551.392 138.444 552.664 138.108 552.664C137.484 552.664 136.692 551.32 135.684 548.632C134.916 546.232 134.388 543.256 134.124 539.752H141.084V537.304H138.084L139.62 536.536C138.948 535.384 138.276 534.328 137.556 533.368L135.492 534.376C136.164 535.24 136.812 536.224 137.412 537.304H133.98C133.908 536.056 133.884 534.712 133.884 533.32H131.292C131.292 534.688 131.316 536.008 131.388 537.304H119.988ZM120.324 543.04V545.392H124.26V551.104C122.772 551.344 121.26 551.56 119.748 551.728L120.324 554.104C124.332 553.504 128.1 552.784 131.628 551.944V549.496C130.02 549.928 128.388 550.312 126.756 550.648V545.392H130.692V543.04H120.324ZM147.804 541.936H150.948V545.248H147.804V541.936ZM150.948 539.704H147.804V536.344H150.948V539.704ZM147.756 547.504H150.948V552.064C150.948 552.904 150.708 553.336 150.228 553.336C149.652 553.336 149.052 553.288 148.404 553.24L149.004 555.424H150.924C152.46 555.424 153.228 554.56 153.228 552.88V534.088H145.572V545.992C145.548 549.16 145.068 551.776 144.108 553.84L146.004 555.568C146.988 553.432 147.564 550.744 147.756 547.504ZM157.044 545.128H157.236C157.74 547.312 158.676 549.28 160.02 551.032C159.18 551.968 158.196 552.76 157.044 553.432V545.128ZM157.044 553.624L158.244 555.496C159.54 554.8 160.692 553.912 161.652 552.856C162.612 553.792 163.764 554.656 165.108 555.472L166.332 553.336C165.108 552.616 164.028 551.8 163.068 550.888C164.028 549.256 164.724 547.288 165.132 545.008V542.92H157.044V536.344H162.516C162.468 537.856 162.372 538.792 162.252 539.176C162.108 539.512 161.94 539.704 161.7 539.776C161.484 539.824 161.124 539.872 160.62 539.872C159.972 539.872 159.444 539.848 159.06 539.848L159.732 541.984H161.748C163.284 541.984 164.22 541.456 164.508 540.448C164.796 539.392 164.964 537.256 164.964 534.088H154.692V555.52H157.044V553.624ZM159.372 545.128H162.924C162.564 546.592 162.06 547.912 161.412 549.064C160.5 547.888 159.828 546.568 159.372 545.128ZM171.564 536.896L170.052 538.384C171.492 539.44 172.692 540.424 173.652 541.384H168.948V543.736H171.636C170.844 546.04 169.764 548.08 168.42 549.856L169.332 552.208C170.772 550 171.924 547.6 172.764 544.96V552.496C172.764 553.048 172.524 553.336 172.092 553.336C171.468 553.336 170.82 553.288 170.148 553.216L170.628 555.376H172.86C174.3 555.376 175.02 554.584 175.02 553.048V543.736H176.532C176.052 544.888 175.62 545.8 175.212 546.52L176.7 547.84C177.468 546.568 178.14 545.128 178.716 543.496V541.384H175.38L176.004 540.76C175.74 540.472 175.452 540.208 175.14 539.92C176.292 538.84 177.348 537.52 178.332 535.984V534.04H169.332V536.344H175.476C174.9 537.136 174.252 537.856 173.58 538.504C172.956 537.976 172.284 537.448 171.564 536.896ZM181.356 533.32C180.756 535.384 179.628 537.136 177.948 538.552L179.34 540.376C180.396 539.464 181.308 538.456 182.076 537.352H186.204C185.772 538.312 185.22 539.152 184.5 539.848C183.78 539.344 183.18 538.816 182.7 538.264L180.924 539.248C181.404 539.92 181.98 540.544 182.7 541.168C181.692 541.72 180.492 542.248 179.052 542.752L180.444 544.552C182.076 543.928 183.468 543.232 184.596 542.512C185.82 543.232 187.284 543.904 188.988 544.504L190.596 542.584C189.012 542.104 187.644 541.552 186.444 540.976C187.308 540.064 188.028 538.84 188.58 537.352H190.14V535.096H183.252C183.444 534.616 183.612 534.112 183.756 533.608L181.356 533.32ZM189.708 545.512H184.812C184.86 544.936 184.908 544.336 184.956 543.664H182.604L182.46 545.512H178.644V547.816H182.052C181.812 548.728 181.524 549.472 181.164 550.048C180.3 551.392 178.836 552.544 176.772 553.528L178.308 555.496C180.66 554.248 182.316 552.808 183.324 551.128C183.804 550.288 184.188 549.184 184.476 547.816H187.404C187.356 550.048 187.284 551.368 187.188 551.752C186.996 552.712 186.396 553.192 185.388 553.192C184.716 553.192 183.948 553.144 183.06 553.072L183.588 555.16C184.62 555.232 185.34 555.28 185.772 555.28C187.932 555.28 189.132 554.44 189.372 552.784C189.588 551.848 189.708 549.424 189.708 545.512ZM74.064 567.416V569.528H72.552V567.344H70.224V569.528H67.704V567.344H65.376V569.528H63.768V567.464H61.392V569.528H58.392V571.856H61.152C61.032 572.24 60.864 572.576 60.624 572.888C60.168 573.44 59.28 573.896 57.984 574.28L59.256 576.296C60.792 575.816 61.896 575.144 62.592 574.28C63.072 573.608 63.408 572.816 63.6 571.856H65.376V575.648H72.552V571.856H74.064V573.8C74.064 575.072 74.736 575.72 76.128 575.72H79.512V573.56H76.872C76.608 573.56 76.488 573.44 76.488 573.2V571.856H79.608V569.528H76.488V567.416H74.064ZM67.704 571.856H70.224V573.488H67.704V571.856ZM79.488 576.656H58.56V581.816H60.912V578.936H67.752V580.544H61.536V587.984H63.912V582.872H67.752V589.664H70.296V582.872H74.136V584.864C74.136 585.392 73.92 585.656 73.536 585.656L71.352 585.536L72 587.888H74.328C75.768 587.888 76.512 587.048 76.512 585.392V580.544H70.296V578.936H77.136V581.672H79.488V576.656ZM92.688 570.44C91.08 577.64 87.672 583.184 82.464 587.048L84 589.208C88.752 585.68 91.992 580.736 93.72 574.4C95.256 579.992 98.376 584.936 103.128 589.256L104.568 587.096C98.664 581.624 95.376 575.24 94.728 567.992H89.376V570.44H92.688ZM117.288 567.224C114.504 570.392 111.024 573.056 106.824 575.192L108.168 577.64C109.464 576.92 110.688 576.152 111.84 575.36V577.04H124.56V575.384C125.664 576.176 126.864 576.92 128.136 577.592L129.504 575.168C125.568 573.248 122.112 570.584 119.112 567.224H117.288ZM112.872 574.616C114.912 573.08 116.688 571.376 118.2 569.504C119.76 571.4 121.536 573.104 123.504 574.616H112.872ZM126.12 579.392H110.28V589.472H112.704V588.248H123.696V589.472H126.12V579.392ZM112.704 585.872V581.744H123.696V585.872H112.704ZM142.752 572.864H143.448V589.568H145.992V584.216H152.616V581.792H145.992V578.504H152.616V576.056H145.992V572.864H153.528V570.392H143.856C144.192 569.504 144.528 568.592 144.864 567.632L142.32 567.056C140.88 571.184 139.2 574.352 137.28 576.608L139.08 578.768C140.424 577.136 141.648 575.168 142.752 572.864ZM134.352 577.016V589.568H136.896V573.416C137.856 571.784 138.648 570.056 139.248 568.256L136.872 567.152C135.696 570.752 133.896 573.896 131.472 576.56L132.312 579.248C133.032 578.528 133.704 577.784 134.352 577.016ZM167.568 572.432V580.16H162.216V589.496H164.712V588.488H173.88V589.496H176.352V580.16H170.088V577.28H177.624V574.928H170.088V572.432H167.568ZM164.712 586.136V582.464H173.88V586.136H164.712ZM168.432 567.152L165.816 567.584C166.2 568.136 166.536 568.736 166.872 569.384H158.4V576.68C158.352 581.384 157.656 585.056 156.36 587.696L158.28 589.4C159.936 586.208 160.8 581.96 160.872 576.68V571.784H178.176V569.384H169.464C169.128 568.568 168.792 567.824 168.432 567.152ZM192.648 567.128L190.08 567.56C190.344 568.04 190.584 568.568 190.824 569.144H181.656V573.704H184.128V571.448H199.872V573.704H202.344V569.144H193.368C193.128 568.4 192.888 567.728 192.648 567.128ZM184.896 573.104V575.408H189.888C189.456 575.6 189 575.792 188.544 575.984C186.6 576.776 184.536 577.4 182.352 577.832L183.624 579.92C186.504 579.056 188.736 578.24 190.272 577.496C190.272 577.472 190.32 577.448 190.368 577.448C190.56 577.688 190.776 577.952 190.968 578.216C188.76 579.728 185.736 580.976 181.896 581.936L183.144 584.072C186.792 583.016 189.744 581.672 192 580.04C192.168 580.424 192.312 580.832 192.456 581.264C189.888 583.28 186.264 584.936 181.584 586.256L182.832 588.392C186.936 587.144 190.272 585.56 192.864 583.64C192.864 583.784 192.888 583.952 192.888 584.144C192.888 585.416 192.672 586.28 192.288 586.736C191.952 587.072 191.136 587.264 189.84 587.264H188.592L189.432 589.472H190.176C192.384 589.472 193.824 589.016 194.472 588.152C195 587.432 195.288 586.112 195.288 584.144C195.288 583.736 195.264 583.328 195.216 582.944C196.896 584.96 199.104 586.688 201.792 588.152L203.112 585.896C200.136 584.504 197.736 582.824 195.912 580.832C197.88 580.04 199.656 578.936 201.264 577.544L199.536 575.84C197.856 577.352 196.056 578.48 194.184 579.224C193.704 578.216 193.08 577.28 192.288 576.416C192.816 576.104 193.32 575.768 193.848 575.408H199.104V573.104H184.896Z" fill="#30505F"/>
<path d="M148.561 467.123C149.769 467.664 151.058 467.928 152.338 467.928C154.505 467.928 156.645 467.173 158.33 465.725L168.311 457.172C169.374 456.263 170.102 455.142 170.416 453.933C170.947 451.892 170.474 449.819 169.119 448.242C167.928 446.858 166.2 446.062 164.375 446.062C162.886 446.062 161.441 446.597 160.308 447.567L153.764 453.175C151.059 447.069 144.95 443.019 138.231 442.945C140.842 440.652 142.5 437.3 142.5 433.562C142.5 426.67 136.892 421.062 130 421.062C123.108 421.062 117.5 426.67 117.5 433.562C117.5 437.3 119.158 440.652 121.767 442.944C115.047 443.017 108.939 447.069 106.236 453.173L99.6907 447.564C98.5579 446.597 97.1126 446.062 95.6251 446.062C93.8001 446.062 92.072 446.858 90.8845 448.242C89.5282 449.82 89.0548 451.894 89.586 453.936C89.9032 455.145 90.6313 456.266 91.6923 457.173L101.67 465.725C104.353 468.03 108.188 468.58 111.442 467.125C113.345 466.275 114.942 464.677 115.939 462.663V470.461L111.463 474.938L113.463 478.275L109.688 479.217V491.033L113.461 491.975L111.461 495.312L119.814 503.666L123.152 501.666L124.092 505.438H135.908L136.85 501.664L140.188 503.664L148.541 495.311L146.541 491.973L150.313 491.033V479.217L146.539 478.275L148.539 474.938L144.063 470.461V462.661C145.059 464.675 146.656 466.273 148.561 467.123ZM129.369 464.812C128.638 463.486 127.95 462.142 127.325 460.773L129.509 446.062H130.497L132.714 460.697C132.08 462.092 131.38 463.463 130.633 464.812H129.369ZM122.828 446.062H126.35L125.031 454.942C124.069 452.055 123.338 449.089 122.828 446.062ZM134.989 454.875L133.655 446.062H137.172C136.666 449.066 135.942 452.008 134.989 454.875ZM120.625 433.562C120.625 428.392 124.83 424.188 130 424.188C135.17 424.188 139.375 428.392 139.375 433.562C139.375 438.733 135.17 442.938 130 442.938C124.83 442.938 120.625 438.733 120.625 433.562ZM115.938 450.75V454.783C115.563 455.269 115.238 455.787 115.02 456.366L113.434 460.594C112.8 462.286 111.608 463.627 110.164 464.272C107.98 465.248 105.502 464.897 103.702 463.352L93.722 454.798C93.322 454.455 92.8032 453.891 92.6079 453.145C92.3376 452.113 92.5735 451.067 93.2517 450.278C94.3313 449.016 96.3938 448.861 97.6564 449.938L107.566 458.433L108.784 455.189C110.561 450.447 114.791 447.064 119.692 446.255C120.75 452.75 122.797 458.977 125.814 464.812H124.089L123.147 468.586L119.809 466.586L119.063 467.336V450.75H115.938ZM143.356 480.702L147.188 481.658V488.592L144.142 489.352L143.308 489.667L142.581 491.453L144.606 494.827L139.702 499.731L136.328 497.706L134.424 498.481L133.467 502.312H126.533L125.774 499.267L125.458 498.433L123.672 497.706L120.299 499.731L115.394 494.827L117.419 491.453L116.644 489.548L112.813 488.592V481.658L115.858 480.898L116.692 480.583L117.419 478.797L115.394 475.423L120.299 470.519L123.672 472.544L125.577 471.769L126.533 467.938H133.467L134.227 470.983L134.542 471.817L136.328 472.544L139.702 470.519L144.606 475.423L142.581 478.797L143.356 480.702ZM140.188 466.586L136.85 468.586L135.908 464.812H134.183C137.2 458.977 139.247 452.75 140.305 446.255C145.206 447.062 149.438 450.447 151.214 455.189L152.428 458.434L162.341 449.941C163.603 448.858 165.664 449.016 166.747 450.28C167.425 451.067 167.659 452.113 167.389 453.145C167.195 453.891 166.677 454.455 166.277 454.798L156.294 463.353C154.497 464.9 152.019 465.248 149.834 464.272C148.389 463.627 147.197 462.286 146.563 460.594L144.977 456.369C144.759 455.789 144.436 455.263 144.059 454.773V450.75H140.934V467.336L140.188 466.586Z" fill="#32B2C3"/>
<path d="M161.25 442.938C170.727 442.938 178.438 435.227 178.438 425.75C178.438 416.273 170.727 408.562 161.25 408.562C151.773 408.562 144.062 416.273 144.062 425.75C144.062 435.227 151.773 442.938 161.25 442.938ZM161.25 411.688C169.005 411.688 175.312 417.995 175.312 425.75C175.312 433.505 169.005 439.812 161.25 439.812C153.495 439.812 147.188 433.505 147.188 425.75C147.188 417.995 153.495 411.688 161.25 411.688Z" fill="#32B2C3"/>
<path d="M159.688 430.438C158.825 430.438 158.125 429.738 158.125 428.875H155C155 431.459 157.103 433.562 159.688 433.562V436.688H162.812V433.562H167.5V428.875C167.5 426.291 165.397 424.188 162.812 424.188H159.688C158.825 424.188 158.125 423.488 158.125 422.625V421.062H162.812C163.675 421.062 164.375 421.762 164.375 422.625H167.5C167.5 420.041 165.397 417.938 162.812 417.938V414.812H159.688V417.938H155V422.625C155 425.209 157.103 427.312 159.688 427.312H162.812C163.675 427.312 164.375 428.012 164.375 428.875V430.438H159.688Z" fill="#32B2C3"/>
<path d="M130 474.188C123.97 474.188 119.062 479.095 119.062 485.125C119.062 491.155 123.97 496.062 130 496.062C136.03 496.062 140.938 491.155 140.938 485.125C140.938 479.095 136.03 474.188 130 474.188ZM130 492.938C125.692 492.938 122.188 489.433 122.188 485.125C122.188 480.817 125.692 477.312 130 477.312C134.308 477.312 137.812 480.817 137.812 485.125C137.812 489.433 134.308 492.938 130 492.938Z" fill="#32B2C3"/>
<path d="M93.6938 442.938C95.6203 442.938 97.1875 441.37 97.1875 439.444V436.688H108.125C110.709 436.688 112.812 434.584 112.812 432V419.5C112.812 416.916 110.709 414.812 108.125 414.812H86.25C83.6656 414.812 81.5625 416.916 81.5625 419.5V432C81.5625 434.584 83.6656 436.688 86.25 436.688H88.4094L90.5703 441.008C91.1656 442.197 92.3625 442.938 93.6938 442.938ZM86.25 433.562C85.3875 433.562 84.6875 432.862 84.6875 432V419.5C84.6875 418.638 85.3875 417.938 86.25 417.938H108.125C108.987 417.938 109.688 418.638 109.688 419.5V432C109.688 432.862 108.987 433.562 108.125 433.562H94.0625V439.444C94.0641 439.788 93.5156 439.914 93.3641 439.608L90.3406 433.562H86.25Z" fill="#32B2C3"/>
<path d="M87.8125 421.062H106.562V424.188H87.8125V421.062Z" fill="#32B2C3"/>
<path d="M87.8125 427.312H100.312V430.438H87.8125V427.312Z" fill="#32B2C3"/>
<path d="M103.438 427.312H106.562V430.438H103.438V427.312Z" fill="#32B2C3"/>
<path d="M173.75 477.312H158.125C155.541 477.312 153.438 479.416 153.438 482V494.5C153.438 497.084 155.541 499.188 158.125 499.188H173.75C176.334 499.188 178.438 497.084 178.438 494.5V482C178.438 479.416 176.334 477.312 173.75 477.312ZM175.312 494.5C175.312 495.362 174.612 496.062 173.75 496.062H158.125C157.263 496.062 156.562 495.362 156.562 494.5V482C156.562 481.138 157.263 480.438 158.125 480.438H173.75C174.612 480.438 175.312 481.138 175.312 482V494.5Z" fill="#32B2C3"/>
<path d="M167.5 487.603L164.375 484.478L158.583 490.27L160.792 492.48L164.375 488.897L167.5 492.022L173.292 486.23L171.083 484.02L167.5 487.603Z" fill="#32B2C3"/>
<path d="M95.8937 475.75H95.3563C92.0594 475.75 89.375 478.434 89.375 481.731V483.562H92.5V481.731C92.5 480.156 93.7812 478.875 95.3563 478.875H95.8937C97.4688 478.875 98.75 480.156 98.75 481.731C98.75 482.483 98.4453 483.22 97.9141 483.752L94.0625 487.603V492.938H97.1875V488.897L100.123 485.961C101.253 484.831 101.875 483.33 101.875 481.731C101.875 478.434 99.1906 475.75 95.8937 475.75Z" fill="#32B2C3"/>
<path d="M95.625 496.062C93.0406 496.062 90.9375 498.166 90.9375 500.75C90.9375 503.334 93.0406 505.438 95.625 505.438C98.2094 505.438 100.312 503.334 100.312 500.75C100.312 498.166 98.2094 496.062 95.625 496.062ZM95.625 502.312C94.7625 502.312 94.0625 501.613 94.0625 500.75C94.0625 499.888 94.7625 499.188 95.625 499.188C96.4875 499.188 97.1875 499.888 97.1875 500.75C97.1875 501.613 96.4875 502.312 95.625 502.312Z" fill="#32B2C3"/>
<circle cx="490" cy="490" r="130" fill="white"/>
<path d="M438.804 546.64H431.028V555.136H433.38V554.104H438.804V553.816L439.98 555.64C442.38 554.872 444.42 553.816 446.1 552.52C447.516 553.696 449.244 554.752 451.284 555.664L452.628 553.504C450.756 552.76 449.148 551.896 447.828 550.912C449.22 549.424 450.204 547.648 450.78 545.584V543.304H440.148V545.704H441.444C441.924 547.528 442.86 549.232 444.252 550.768C442.764 551.848 440.94 552.736 438.804 553.456V546.64ZM443.844 545.704H448.332C447.756 547 446.964 548.176 445.956 549.256C444.972 548.2 444.276 547 443.844 545.704ZM433.38 551.896V548.8H436.524V551.896H433.38ZM430.38 536.08V538.336H439.524V536.08H436.356C436.068 535.216 435.684 534.256 435.204 533.224L432.828 533.872C433.26 534.592 433.62 535.336 433.956 536.08H430.38ZM431.22 539.68V541.84H438.612V539.68H431.22ZM431.244 543.016V545.176H438.612V543.016H431.244ZM441.636 534.016V537.304C441.636 538.888 440.772 540.088 439.068 540.928L440.724 542.776C442.98 541.432 444.108 539.512 444.108 537.04V536.368H447.036V539.56C447.036 541.24 447.948 542.08 449.796 542.08H451.932V539.8H450.492C449.844 539.8 449.532 539.512 449.532 538.984V534.016H441.636ZM457.932 554.152H460.836V555.136H463.236V546.568H455.532V555.472H457.932V554.152ZM460.836 551.872H457.932V548.848H460.836V551.872ZM454.764 536.056V538.36H464.028V536.056H460.86C460.572 535.192 460.212 534.256 459.732 533.224L457.332 533.872C457.716 534.592 458.1 535.312 458.436 536.056H454.764ZM455.7 539.656V541.84H463.068V539.656H455.7ZM455.7 542.992V545.2H463.068V542.992H455.7ZM469.284 533.32V540.952H464.364V543.352H469.284V555.496H471.756V543.352H476.988V540.952H471.756V533.32H469.284ZM484.596 536.392V538.48C484.548 545.488 482.82 550.6 479.412 553.768L481.356 555.472C484.332 552.64 486.156 548.44 486.828 542.92H486.852C487.524 545.752 488.94 548.248 491.1 550.384C489.348 551.584 487.212 552.568 484.716 553.336L485.964 555.64C488.772 554.728 491.172 553.576 493.164 552.16C494.844 553.432 496.908 554.56 499.308 555.544L501.012 553.312C498.804 552.472 496.86 551.512 495.204 550.432C497.34 548.368 498.756 545.824 499.452 542.8V540.592H494.964C495.516 539.128 495.972 537.376 496.356 535.36V534.04H481.38V536.392H484.596ZM493.068 548.824C491.1 547.096 489.756 545.128 489.036 542.92H496.836C496.092 545.2 494.844 547.168 493.068 548.824ZM487.044 540.592L487.116 538.48V536.392H493.644C493.332 537.952 492.972 539.344 492.54 540.592H487.044ZM508.788 533.176C507.732 536.896 506.076 540.112 503.844 542.848L504.612 545.344C505.284 544.6 505.932 543.832 506.532 543.04V555.52H508.956V539.272C509.82 537.688 510.516 536.008 511.044 534.256L508.788 533.176ZM510.348 537.616V551.2H512.628V537.616H510.348ZM516.612 533.224C515.94 535.144 514.668 536.752 512.748 538.072L514.164 539.896C514.572 539.608 514.98 539.272 515.388 538.912C515.82 539.704 516.444 540.424 517.26 541.096C516.084 541.576 514.668 541.96 513.036 542.224L513.948 544.288C516.108 543.904 517.932 543.304 519.444 542.464C520.956 543.208 522.876 543.808 525.18 544.288L526.092 542.152C524.292 541.84 522.756 541.456 521.46 540.976C522.492 539.944 523.212 538.696 523.644 537.256H525.132V535H518.436C518.676 534.52 518.868 534.04 519.06 533.536L516.612 533.224ZM519.276 539.92C518.364 539.368 517.668 538.744 517.212 538.024L515.676 538.672C516.156 538.216 516.588 537.736 517.02 537.256H521.292C520.908 538.288 520.236 539.176 519.276 539.92ZM520.02 543.4C519.18 543.976 518.292 544.456 517.38 544.864C516.228 545.32 515.004 545.68 513.756 545.92L514.956 547.912C516.708 547.336 518.052 546.808 518.988 546.376C519.948 545.896 520.884 545.272 521.796 544.528L520.02 543.4ZM522.348 545.224C520.572 547.096 517.908 548.464 514.356 549.304L515.34 551.44C519.156 550.432 522.036 548.776 523.98 546.472L522.348 545.224ZM514.428 555.76C516.78 555.136 519.036 554.2 521.196 553C523.356 551.776 524.988 550.336 526.068 548.68L524.316 547.36C523.068 548.872 521.628 550.096 519.972 551.008C518.34 551.92 516.156 552.736 513.396 553.456L514.428 555.76ZM539.124 536.776V552.184H534.852V541.096H532.404V552.184H528.9V554.632H550.524V552.184H541.644V545.296H548.22V542.896H541.644V536.776H549.516V534.328H530.316V536.776H539.124ZM451.632 568.544V571.016H463.44V568.544H451.632ZM451.056 574.496V576.968H458.232V586.4C458.232 586.88 457.896 587.12 457.248 587.12C456.24 587.12 455.184 587.048 454.08 586.952L454.632 589.4H458.112C459.888 589.4 460.776 588.608 460.776 587.024V576.968H464.472V574.496H451.056ZM447.456 567.416C446.352 569.6 444.672 571.496 442.416 573.104L443.184 575.624C446.28 573.488 448.464 571.112 449.736 568.496L447.456 567.416ZM448.584 572.936C447.288 575.48 445.296 577.712 442.608 579.584L443.376 582.056C444.288 581.408 445.176 580.736 445.992 580.064V589.496H448.464V577.592C449.424 576.44 450.216 575.24 450.84 573.992L448.584 572.936ZM471.096 575.072V577.136H468V579.344H471.096V586.136C469.896 586.352 468.672 586.544 467.448 586.688L468.048 589.064C470.976 588.56 473.736 587.936 476.328 587.216V584.888C475.368 585.152 474.408 585.392 473.448 585.632V579.344H476.472V577.136H473.448V575.072H475.368V573.248C475.512 573.44 475.656 573.632 475.848 573.848L477.456 572.168C476.04 570.536 474.528 568.928 472.896 567.368H471.264C469.92 569.576 468.456 571.496 466.872 573.104L468.216 574.976C468.504 574.664 468.768 574.352 469.056 574.064V575.072H471.096ZM469.392 580.04L467.544 580.688C468 582.176 468.384 583.712 468.696 585.344L470.52 584.864C470.184 583.04 469.8 581.432 469.392 580.04ZM475.032 579.968C474.72 581.624 474.36 582.992 473.928 584.072L475.656 584.696C476.136 583.472 476.544 582.056 476.856 580.472L475.032 579.968ZM470.064 572.912C470.88 571.904 471.624 570.872 472.296 569.768C473.04 570.488 473.976 571.544 475.104 572.912H470.064ZM481.872 567.32V573.536H477.84V581.144C477.792 583.856 477.192 586.088 476.016 587.84L477.936 589.568C479.376 587.36 480.096 584.504 480.144 580.976V579.56C480.648 579.632 481.152 579.728 481.632 579.824C482.592 580.016 483.528 580.232 484.44 580.52L485.256 578.6C484.224 578.336 483.384 578.144 482.712 578C482.136 577.904 481.296 577.76 480.144 577.616V575.744H485.952V581.24C484.08 581.744 482.184 582.128 480.216 582.368L480.768 584.624C482.592 584.264 484.32 583.856 485.952 583.4V586.256C485.952 586.88 485.688 587.216 485.184 587.216C484.584 587.216 483.936 587.168 483.24 587.096L483.84 589.4H485.928C487.512 589.4 488.328 588.632 488.328 587.096V573.536H484.272V567.32H481.872ZM478.728 567.992L476.76 568.976C477.552 570.152 478.296 571.448 478.968 572.888L480.84 571.952C480.168 570.512 479.448 569.192 478.728 567.992ZM487.248 567.824C486.768 569.216 486.12 570.608 485.304 572.048L487.128 573.008C487.992 571.64 488.688 570.224 489.216 568.784L487.248 567.824ZM492.072 574.208V576.464H501.528V577.664H494.064V584.36H496.536V579.848H501.528V581.672C498.888 583.976 495.744 585.752 492.072 587.024L493.56 589.256C496.512 588.032 499.176 586.328 501.528 584.168V589.592H504.072V584.072C506.52 586.184 509.4 587.888 512.76 589.136L514.08 586.856C511.896 586.184 509.928 585.392 508.2 584.456H509.664C511.176 584.456 511.944 583.76 511.944 582.368V577.664H504.072V576.464H513.528V574.208H504.072V573.032L504.552 573.344C504.984 572.696 505.368 572 505.728 571.232H506.88C507.408 572.12 507.888 573.032 508.32 573.992L510.504 573.152C510.216 572.552 509.856 571.904 509.424 571.232H513.36V569.024H506.592C506.736 568.592 506.88 568.112 507.024 567.632L504.624 567.104C504.192 568.832 503.472 570.44 502.44 571.976L503.808 572.864H501.528V574.208H492.072ZM504.072 581.72V579.848H509.448V581.84C509.448 582.176 509.28 582.368 508.968 582.368L507.408 582.248L508.008 584.36C506.52 583.568 505.224 582.68 504.072 581.72ZM495.624 571.232H496.416C496.944 572.12 497.424 573.056 497.856 574.016L500.112 573.176C499.8 572.552 499.416 571.904 498.984 571.232H502.296V569.024H496.728C496.92 568.568 497.112 568.088 497.28 567.608L494.88 567.08C494.28 568.88 493.248 570.584 491.808 572.168L493.968 573.536C494.568 572.816 495.12 572.048 495.624 571.232ZM536.52 580.136H527.52C529.248 579.368 530.784 578.48 532.128 577.496C533.376 578.456 534.84 579.32 536.52 580.136ZM527.064 580.328V589.328H529.512V588.44H534.36V589.328H536.808V580.256C537.048 580.4 537.336 580.52 537.624 580.64L538.704 578.408C536.88 577.736 535.248 576.944 533.832 576.032C535.272 574.64 536.352 573.056 537.072 571.28V569.36H530.904C531.12 568.88 531.336 568.4 531.576 567.896L529.08 567.368C528.072 569.696 526.872 571.544 525.504 572.936V568.784H516.96V587.408H519.216V586.52H523.392V587.408H525.504V579.464L526.368 580.616C526.584 580.52 526.824 580.424 527.064 580.328ZM525.504 573.824L526.728 575.264C527.256 574.736 527.784 574.184 528.288 573.56C528.84 574.352 529.512 575.12 530.28 575.888C528.936 576.824 527.328 577.664 525.504 578.384V573.824ZM531.888 574.568C530.952 573.728 530.16 572.816 529.536 571.808C529.536 571.784 529.56 571.76 529.584 571.712H534.192C533.592 572.72 532.824 573.68 531.888 574.568ZM529.512 586.112V582.464H534.36V586.112H529.512ZM523.392 584.36H522.264V578.648H523.392V584.36ZM523.392 576.488H522.264V571.064H523.392V576.488ZM520.296 571.064V576.488H519.216V571.064H520.296ZM519.216 578.648H520.296V584.36H519.216V578.648Z" fill="#30505F"/>
<g clip-path="url(#clip1)">
<path d="M486.484 479.557C485.675 479.557 485.02 480.212 485.02 481.021C485.02 481.83 485.675 482.486 486.484 482.486H493.516C494.325 482.486 494.98 481.83 494.98 481.021C494.98 480.212 494.325 479.557 493.516 479.557H486.484Z" fill="#32B2C3"/>
<path d="M457.578 456.811H467.261C467.852 458.351 469.342 459.448 471.087 459.448C472.832 459.448 474.322 458.351 474.914 456.811H476.849C477.658 456.811 478.314 456.155 478.314 455.346C478.314 454.538 477.658 453.882 476.849 453.882H474.914C474.322 452.342 472.832 451.245 471.087 451.245C469.342 451.245 467.852 452.342 467.261 453.882H457.578C456.769 453.882 456.113 454.538 456.113 455.346C456.113 456.155 456.769 456.811 457.578 456.811ZM471.087 454.175C471.734 454.175 472.259 454.7 472.259 455.346C472.259 455.993 471.734 456.518 471.087 456.518C470.441 456.518 469.915 455.993 469.915 455.346C469.915 454.7 470.441 454.175 471.087 454.175Z" fill="#32B2C3"/>
<path d="M457.578 448.413H459.448C460.04 449.952 461.53 451.05 463.275 451.05C465.02 451.05 466.51 449.952 467.101 448.413H476.849C477.658 448.413 478.314 447.757 478.314 446.948C478.314 446.139 477.658 445.483 476.849 445.483H467.101C466.51 443.944 465.02 442.846 463.275 442.846C461.53 442.846 460.04 443.944 459.448 445.483H457.578C456.769 445.483 456.113 446.139 456.113 446.948C456.113 447.757 456.769 448.413 457.578 448.413ZM463.275 445.776C463.921 445.776 464.447 446.302 464.447 446.948C464.447 447.594 463.921 448.12 463.275 448.12C462.629 448.12 462.103 447.594 462.103 446.948C462.103 446.302 462.629 445.776 463.275 445.776Z" fill="#32B2C3"/>
<path d="M477.142 434.936C477.951 434.936 478.607 434.28 478.607 433.471C478.607 432.662 477.951 432.007 477.142 432.007C476.333 432.007 475.677 432.662 475.677 433.471C475.677 434.28 476.333 434.936 477.142 434.936Z" fill="#32B2C3"/>
<path d="M473.105 434.936C473.914 434.936 474.57 434.28 474.57 433.471C474.57 432.662 473.914 432.007 473.105 432.007C472.296 432.007 471.641 432.662 471.641 433.471C471.641 434.28 472.296 434.936 473.105 434.936Z" fill="#32B2C3"/>
<path d="M469.069 434.936C469.878 434.936 470.534 434.28 470.534 433.471C470.534 432.662 469.878 432.007 469.069 432.007C468.26 432.007 467.604 432.662 467.604 433.471C467.604 434.28 468.26 434.936 469.069 434.936Z" fill="#32B2C3"/>
<path d="M535.605 416.86H535.057L535.466 416.451C536.692 415.225 536.692 413.231 535.466 412.005L532.259 408.799C531.034 407.573 529.04 407.573 527.814 408.799L519.753 416.86H444.395C441.971 416.86 440 418.831 440 421.254V482.087C440 485.049 442.409 487.458 445.371 487.458H480.067V497.82H473.008C471.123 497.82 469.59 499.354 469.59 501.238V502.702C469.59 504.587 471.123 506.12 473.008 506.12H506.992C508.877 506.12 510.41 504.587 510.41 502.702V501.238C510.41 499.354 508.877 497.82 506.992 497.82H499.933V487.458H515.586C516.395 487.458 517.051 486.802 517.051 485.993C517.051 485.184 516.395 484.528 515.586 484.528H445.371C444.025 484.528 442.93 483.433 442.93 482.087V477.751H537.07V482.087C537.07 483.433 535.975 484.528 534.629 484.528H522.422C521.613 484.528 520.957 485.184 520.957 485.993C520.957 486.802 521.613 487.458 522.422 487.458H534.629C537.591 487.458 540 485.049 540 482.087V421.254C540 418.831 538.029 416.86 535.605 416.86ZM506.992 500.75C507.262 500.75 507.48 500.97 507.48 501.239V502.702C507.48 502.971 507.262 503.191 506.992 503.191H473.008C472.738 503.191 472.52 502.971 472.52 502.702V501.239C472.52 500.97 472.738 500.75 473.008 500.75H506.992ZM482.997 487.459H497.003V497.821H482.997V487.459ZM529.886 410.87C529.969 410.787 530.105 410.787 530.188 410.87L533.394 414.077C533.478 414.16 533.478 414.296 533.394 414.379L530.335 417.439L526.826 413.93L529.886 410.87ZM524.754 416.002L528.263 419.511L527.241 420.532L523.733 417.023L524.754 416.002ZM521.661 419.095L525.17 422.604L507.836 439.938L504.327 436.429L521.661 419.095ZM519.492 432.487C521.485 432.487 523.105 434.108 523.105 436.101C523.105 438.093 521.485 439.714 519.492 439.714C517.5 439.714 515.879 438.093 515.879 436.101C515.879 436.078 515.882 436.055 515.882 436.032L519.424 432.491C519.447 432.491 519.469 432.487 519.492 432.487ZM505.292 441.538L500.956 443.308L502.727 438.973L505.292 441.538ZM537.07 474.822H442.93V421.254C442.93 420.447 443.587 419.79 444.395 419.79H516.824L514.59 422.023H464.805C463.996 422.023 463.34 422.679 463.34 423.488C463.34 424.297 463.996 424.953 464.805 424.953H511.661L501.328 435.286C501.036 435.58 500.808 435.924 500.651 436.309L497.379 444.32C497.079 445.055 497.248 445.894 497.81 446.456C498.187 446.833 498.688 447.033 499.2 447.033C499.451 447.033 499.704 446.985 499.946 446.886L507.956 443.614C508.33 443.462 508.664 443.24 508.954 442.96L513.41 438.504C514.37 440.926 516.733 442.644 519.492 442.644C523.1 442.644 526.035 439.709 526.035 436.101C526.035 433.342 524.318 430.979 521.897 430.019L526.963 424.953H531.907V469.659H531.131L525.822 460.464C525.418 459.763 524.521 459.523 523.821 459.928C523.121 460.332 522.88 461.228 523.285 461.929L527.748 469.659H507.285L505.09 465.857L515.322 448.136L519.867 456.009C520.271 456.709 521.167 456.95 521.868 456.545C522.568 456.14 522.808 455.245 522.404 454.544L517.555 446.145C517.089 445.338 516.254 444.856 515.321 444.856C514.389 444.856 513.554 445.338 513.088 446.145L503.398 462.928L490.966 441.395C490.5 440.587 489.665 440.105 488.732 440.105C487.8 440.105 486.965 440.587 486.499 441.395L483.196 447.115V431.414C483.196 429.529 481.663 427.996 479.778 427.996H454.648C452.764 427.996 451.23 429.529 451.23 431.414V463.445C451.23 464.791 452.326 465.886 453.672 465.886H472.359L470.181 469.659H448.093V424.953H457.969C458.778 424.953 459.434 424.297 459.434 423.488C459.434 422.679 458.778 422.023 457.969 422.023H447.605C446.259 422.023 445.163 423.118 445.163 424.465V470.147C445.163 471.493 446.259 472.588 447.605 472.588H532.395C533.742 472.588 534.837 471.493 534.837 470.147V424.465C534.837 423.118 533.742 422.023 532.395 422.023H529.893L532.127 419.79H535.605C536.413 419.79 537.07 420.447 537.07 421.254V474.822ZM480.267 439.526V462.956H454.16V439.526H480.267ZM454.16 436.596V431.413C454.16 431.144 454.379 430.925 454.648 430.925H479.779C480.048 430.925 480.267 431.144 480.267 431.413V436.596H454.16ZM475.742 465.886H480.755C482.102 465.886 483.197 464.791 483.197 463.445V460.342C483.563 460.517 483.971 460.612 484.398 460.612C485.398 460.612 486.294 460.095 486.794 459.229L489.287 454.912C489.362 454.781 489.477 454.754 489.56 454.754C489.644 454.754 489.759 454.781 489.834 454.912L491.371 457.574C491.871 458.44 492.766 458.957 493.767 458.957C494.767 458.957 495.662 458.44 496.162 457.574L496.544 456.913L503.902 469.658H473.564L475.742 465.886ZM483.197 455.438V452.974L488.733 443.385L494.852 453.983L493.766 455.863L492.371 453.447C491.784 452.43 490.734 451.824 489.56 451.824C488.387 451.824 487.336 452.43 486.749 453.447L484.398 457.519L483.197 455.438Z" fill="#32B2C3"/>
</g>
<circle cx="850" cy="490" r="130" fill="white"/>
<path d="M784.152 539.872V548.872H793.872V539.872H784.152ZM791.52 546.784H786.48V541.96H791.52V546.784ZM798.912 534.592H779.088V555.016H781.512V554.248H796.488V555.016H798.912V534.592ZM781.512 552.04V536.8H796.488V552.04H781.512ZM812.952 534.328V539.008H817.056V539.848H811.848V541.768H824.52V539.848H819.288V539.008H823.368V534.328H819.288V533.224H817.056V534.328H812.952ZM821.304 537.304H819.288V536.032H821.304V537.304ZM817.056 537.304H815.016V536.032H817.056V537.304ZM813 542.488V552.04H816C815.016 552.712 813.624 553.288 811.8 553.72C811.368 552.352 810.84 551.032 810.24 549.784L808.296 550.432C808.464 550.816 808.656 551.224 808.848 551.656C808.056 551.968 807.192 552.28 806.232 552.616V549.592H811.152V540.496H803.952V552.808C803.952 553.144 803.784 553.36 803.472 553.504L804.12 555.304C806.136 554.776 807.936 554.2 809.544 553.552C809.688 553.984 809.856 554.44 810 554.944L811.752 554.128L812.568 555.52C814.632 554.968 816.24 554.248 817.344 553.36L816.336 552.04H819.72L819.024 553.408C820.752 553.936 822.432 554.656 824.04 555.568L824.808 553.744C823.464 553.024 822.048 552.472 820.584 552.04H823.344V542.488H813ZM821.016 550.288H815.328V549.256H821.016V550.288ZM815.328 547.744V546.76H821.016V547.744H815.328ZM815.328 545.224V544.216H821.016V545.224H815.328ZM806.4 533.44C805.152 535.312 803.784 536.92 802.32 538.288L803.64 540.136C804.312 539.512 804.96 538.864 805.584 538.192V539.392H809.64V537.736C810.048 538.24 810.504 538.816 811.008 539.488L812.448 537.928C811.2 536.392 809.904 534.88 808.512 533.44H806.4ZM806.208 537.472C806.736 536.872 807.216 536.224 807.696 535.552C808.176 536.032 808.752 536.656 809.424 537.472H806.208ZM806.232 545.968H808.872V547.48H806.232V545.968ZM808.872 544.048H806.232V542.608H808.872V544.048ZM827.76 534.952V537.304H832.632V538.744H835.152V537.304H837.696V534.952H835.152V533.296H832.632V534.952H827.76ZM841.272 533.296V534.952H838.704V537.304H841.272V538.744H843.792V537.304H848.664V534.952H843.792V533.296H841.272ZM839.64 538.936V555.616H842.16V551.752H848.736V549.352H842.16V547.456H847.848V545.104H842.16V543.328H848.64V540.976H842.16V538.936H839.64ZM827.736 540.976V543.328H834.456V545.104H828.576V547.456H834.432C834.408 548.008 834.36 548.56 834.288 549.112C832.032 549.424 829.728 549.664 827.376 549.832L827.976 552.208C829.944 551.968 831.84 551.68 833.64 551.368C833.136 552.424 832.416 553.312 831.456 554.008L833.328 555.688C835.608 553.888 836.784 551.056 836.832 547.216V538.96H834.456V540.976H827.736ZM852.408 534.016V536.32H856.056C855.576 536.776 855.072 537.184 854.544 537.52C853.608 538.12 852.624 538.576 851.568 538.912L852.84 541C853.032 540.904 853.224 540.808 853.44 540.712V555.304H855.888V540.496H861.576V555.208H864.024V540.496H869.736V552.112C869.736 552.832 869.424 553.216 868.824 553.216L866.664 553.096L867.312 555.424H869.592C871.32 555.424 872.184 554.488 872.184 552.664V540.496L872.4 540.712L874.08 539.056C873 538.144 871.728 537.232 870.264 536.32H873.192V534.016H852.408ZM869.448 538.288H864.024V536.32H867.816L867.264 536.848C868.032 537.328 868.776 537.808 869.448 538.288ZM857.76 536.32H861.576V538.288H857.208C857.664 537.856 858.12 537.376 858.6 536.848L857.76 536.32ZM859.344 541.024C859.152 541.528 858.96 542.008 858.72 542.488C858.24 542.128 857.736 541.792 857.208 541.456L856.2 542.944C856.728 543.256 857.256 543.64 857.784 544.072C857.352 544.648 856.824 545.2 856.248 545.704L857.76 547.024C858.288 546.544 858.768 546.016 859.224 545.392C859.56 545.728 859.92 546.088 860.28 546.496L861.36 544.792C861 544.432 860.64 544.072 860.256 543.736C860.544 543.136 860.832 542.464 861.12 541.744L859.344 541.024ZM859.56 547.24C859.296 547.792 859.008 548.32 858.72 548.824C858.24 548.392 857.712 547.984 857.16 547.6L856.128 549.112C856.608 549.472 857.112 549.88 857.616 550.36C857.136 550.888 856.608 551.344 856.032 551.704L857.136 553.504C857.856 552.856 858.456 552.256 858.936 551.704C859.368 552.16 859.776 552.664 860.208 553.24L861.36 551.44C860.952 550.96 860.544 550.504 860.112 550.072C860.424 549.544 860.76 548.92 861.096 548.2L859.56 547.24ZM867.384 541.168C867.192 541.648 867 542.104 866.76 542.56C866.28 542.224 865.8 541.888 865.272 541.576L864.264 543.064C864.768 543.352 865.272 543.712 865.776 544.096C865.32 544.672 864.816 545.176 864.24 545.656L865.704 546.928C866.232 546.472 866.736 545.944 867.216 545.344C867.6 545.704 867.984 546.112 868.392 546.568L869.496 544.864C869.112 544.48 868.68 544.096 868.248 543.736C868.56 543.16 868.848 542.536 869.112 541.864L867.384 541.168ZM867.768 546.88C867.48 547.456 867.216 548.008 866.928 548.512C866.4 548.104 865.848 547.72 865.248 547.384L864.216 548.896C864.744 549.232 865.272 549.616 865.824 550.072C865.32 550.624 864.792 551.08 864.24 551.44L865.32 553.264C866.088 552.568 866.712 551.92 867.24 551.32C867.624 551.68 868.008 552.088 868.416 552.568L869.592 550.768C869.208 550.384 868.8 550 868.392 549.664C868.68 549.136 868.992 548.512 869.304 547.84L867.768 546.88ZM897.456 534.064H877.344V555.52H879.696V554.68H895.104V555.52H897.456V534.064ZM879.696 552.616V536.08H895.104V552.616H879.696ZM881.016 537.088V538.672H886.2V539.368H881.832V544.48H886.224V545.296L880.992 545.368L881.208 546.76C884.64 546.664 887.472 546.544 889.704 546.448V547.408H880.632V549.136H882.96L882.168 550.288C883.176 550.648 884.16 551.176 885.12 551.848L886.128 550.36C885.312 549.88 884.424 549.472 883.464 549.136H889.704V549.736C889.704 550.12 889.488 550.336 889.08 550.336C888.408 550.336 887.688 550.288 886.968 550.216L887.4 552.064H889.728C891.12 552.064 891.816 551.44 891.816 550.216V549.136H894.12V547.408H891.816V546.304L892.392 546.256C892.584 546.544 892.776 546.856 892.968 547.168L894.432 546.16C894.048 545.56 893.52 544.888 892.896 544.168V539.368H888.456V538.672H893.712V537.088H888.456V536.512H886.2V537.088H881.016ZM888.432 544.48H891.072C891.24 544.672 891.408 544.888 891.576 545.128C890.64 545.152 889.584 545.2 888.432 545.248V544.48ZM890.928 543.328H888.192V542.44H890.928V543.328ZM886.464 543.328H883.824V542.44H886.464V543.328ZM883.824 541.456V540.568H886.464V541.456H883.824ZM888.192 540.568H890.928V541.456H888.192V540.568ZM909.048 536.176V538.576H913.752C912.408 539.824 910.512 540.856 908.016 541.72L909.312 543.856C910.776 543.232 912.096 542.536 913.248 541.768C913.488 542.008 913.704 542.296 913.92 542.608C912.648 543.952 910.968 545.056 908.904 545.968L910.128 548.104C912.048 547.168 913.656 545.992 914.928 544.576C915.096 544.984 915.24 545.44 915.384 545.92C913.608 547.888 911.136 549.592 907.992 551.032L909.432 553.168C911.856 551.968 913.992 550.456 915.816 548.632C915.84 549.088 915.864 549.568 915.864 550.096C915.864 551.536 915.696 552.4 915.408 552.736C915.072 553.024 914.592 553.192 913.92 553.192H912.096L912.84 555.448C913.272 555.448 913.656 555.424 914.016 555.424C915.552 555.352 916.656 555.064 917.328 554.56C917.952 554.032 918.288 552.544 918.288 550.096C918.288 549.592 918.264 549.088 918.24 548.608C919.272 550.216 920.544 551.656 922.032 552.928L923.304 550.744C921.168 549.184 919.44 547.312 918.12 545.104C918.936 544.528 919.608 543.976 920.136 543.448C920.856 542.752 921.576 541.84 922.296 540.736L920.208 539.464C919.632 540.424 919.008 541.264 918.384 541.936C917.952 542.368 917.496 542.776 917.016 543.112C916.536 542.032 915.912 541.096 915.144 540.28C915.72 539.752 916.224 539.176 916.704 538.576H922.44V536.176H919.416C919.8 535.528 920.184 534.832 920.52 534.064L918.168 533.224C917.784 534.256 917.376 535.24 916.896 536.176H914.376C914.016 535.048 913.608 534.064 913.176 533.2L910.824 534.088C911.232 534.736 911.592 535.432 911.904 536.176H909.048ZM901.632 534.04V555.28H904.128V548.608L904.776 550.648C906.384 550.624 907.512 550.264 908.184 549.568C908.616 549.04 908.832 548.152 908.832 546.856C908.736 545.368 908.136 543.616 907.056 541.6C907.704 539.632 908.28 537.736 908.76 535.912V534.04H901.632ZM904.128 548.176V536.296H906.336C905.904 537.976 905.328 539.872 904.608 541.96C905.808 543.784 906.408 545.416 906.408 546.856C906.408 547.36 906.336 547.72 906.192 547.912C906.024 548.104 905.736 548.248 905.304 548.296C904.992 548.296 904.608 548.248 904.128 548.176Z" fill="#30505F"/>
<path d="M823.438 441.375C823.438 435.99 819.057 431.609 813.672 431.609C808.287 431.609 803.906 435.99 803.906 441.375C803.906 446.76 808.287 451.141 813.672 451.141C819.057 451.141 823.438 446.76 823.438 441.375ZM813.672 447.234C810.441 447.234 807.812 444.606 807.812 441.375C807.812 438.144 810.441 435.516 813.672 435.516C816.903 435.516 819.531 438.144 819.531 441.375C819.531 444.606 816.903 447.234 813.672 447.234Z" fill="#32B2C3"/>
<path d="M859.766 441.375C859.766 435.99 855.385 431.609 850 431.609C844.615 431.609 840.234 435.99 840.234 441.375C840.234 446.76 844.615 451.141 850 451.141C855.385 451.141 859.766 446.76 859.766 441.375ZM850 447.234C846.769 447.234 844.141 444.606 844.141 441.375C844.141 438.144 846.769 435.516 850 435.516C853.231 435.516 855.859 438.144 855.859 441.375C855.859 444.606 853.231 447.234 850 447.234Z" fill="#32B2C3"/>
<path d="M872.798 462.859H867.437C866.486 456.243 860.782 451.141 853.907 451.141H846.094C839.219 451.141 833.515 456.243 832.564 462.859H827.202C826.252 456.243 820.548 451.141 813.672 451.141C806.133 451.141 800 457.274 800 464.812V488.25C800 489.329 800.875 490.203 801.954 490.203H811.719V503.094H805.859C804.781 503.094 803.906 503.968 803.906 505.047C803.906 506.125 804.781 507 805.859 507H821.484C822.563 507 823.438 506.125 823.438 505.047C823.438 503.968 822.563 503.094 821.484 503.094H815.625V490.203H832.422V505.047C832.422 506.125 833.297 507 834.375 507H842.188C843.266 507 844.141 506.125 844.141 505.047V484.344C844.141 483.659 844.022 483.002 843.805 482.391H848.047V505.047C848.047 506.125 848.922 507 850 507C851.079 507 851.953 506.125 851.953 505.047V482.389H856.195C855.979 483.002 855.859 483.659 855.859 484.344V505.047C855.859 506.125 856.734 507 857.813 507H865.625C866.704 507 867.578 506.125 867.578 505.047V490.203H884.375V503.094H878.516C877.437 503.094 876.563 503.968 876.563 505.047C876.563 506.125 877.437 507 878.516 507H894.141C895.219 507 896.094 506.125 896.094 505.047C896.094 503.968 895.219 503.094 894.141 503.094H888.281V490.203H898.047C899.125 490.203 900 489.329 900 488.25V464.812C900 457.274 893.867 451.141 886.328 451.141C879.453 451.141 873.749 456.243 872.798 462.859ZM827.344 478.484V474.578H872.656V478.484C864.542 478.484 839.289 478.484 827.344 478.484ZM834.375 466.766C836.921 466.766 839.094 468.398 839.9 470.672H827.344V466.766H834.375ZM865.625 466.766H872.656V470.672H860.1C860.907 468.398 863.079 466.766 865.625 466.766ZM846.094 455.047H853.906C858.704 455.047 862.701 458.525 863.517 463.091C859.77 463.919 856.824 466.903 856.056 470.672H843.944C843.176 466.903 840.23 463.919 836.483 463.091C837.299 458.525 841.297 455.047 846.094 455.047ZM803.906 464.812C803.906 459.428 808.287 455.047 813.672 455.047C819.057 455.047 823.438 459.428 823.438 464.812V486.297H803.906V464.812ZM840.234 484.344V503.094H836.328V488.25C836.328 487.171 835.454 486.297 834.375 486.297H827.344V482.391H838.281C839.358 482.391 840.234 483.267 840.234 484.344ZM865.625 486.297C864.547 486.297 863.672 487.171 863.672 488.25V503.094H859.766V484.344C859.766 483.267 860.642 482.391 861.719 482.391H872.656V486.297H865.625ZM886.328 455.047C891.713 455.047 896.094 459.428 896.094 464.812V486.297H876.563C876.563 484.303 876.563 467.516 876.563 464.812C876.563 459.428 880.943 455.047 886.328 455.047Z" fill="#32B2C3"/>
<path d="M876.562 441.375C876.562 446.76 880.943 451.141 886.328 451.141C891.713 451.141 896.094 446.76 896.094 441.375C896.094 435.99 891.713 431.609 886.328 431.609C880.943 431.609 876.562 435.99 876.562 441.375ZM886.328 435.516C889.559 435.516 892.188 438.144 892.188 441.375C892.188 444.606 889.559 447.234 886.328 447.234C883.097 447.234 880.469 444.606 880.469 441.375C880.469 438.144 883.097 435.516 886.328 435.516Z" fill="#32B2C3"/>
<path d="M898.047 407H858.789C857.711 407 856.836 407.875 856.836 408.953C856.836 410.032 857.711 410.906 858.789 410.906H896.094V423.797H890.234C889.716 423.797 889.22 424.003 888.853 424.369L886.328 426.894L883.803 424.369C883.437 424.003 882.94 423.797 882.422 423.797H853.906C853.388 423.797 852.892 424.003 852.525 424.369L850 426.894L847.475 424.369C847.108 424.003 846.612 423.797 846.094 423.797H817.578C817.06 423.797 816.563 424.003 816.197 424.369L813.672 426.894L811.147 424.369C810.78 424.003 810.284 423.797 809.766 423.797H803.906V410.906H841.211C842.289 410.906 843.164 410.032 843.164 408.953C843.164 407.875 842.289 407 841.211 407H801.953C800.875 407 800 407.875 800 408.953V425.75C800 426.829 800.875 427.703 801.953 427.703H808.956L812.291 431.037C813.054 431.8 814.29 431.8 815.053 431.037L818.387 427.703H845.285L848.619 431.037C849.382 431.8 850.618 431.8 851.381 431.037L854.715 427.703H881.613L884.947 431.037C885.329 431.419 885.828 431.609 886.328 431.609C886.828 431.609 887.328 431.419 887.709 431.037L891.044 427.703H898.047C899.125 427.703 900 426.829 900 425.75V408.953C900 407.875 899.125 407 898.047 407Z" fill="#32B2C3"/>
<path d="M850 410.906C851.079 410.906 851.953 410.032 851.953 408.953C851.953 407.874 851.079 407 850 407C848.921 407 848.047 407.874 848.047 408.953C848.047 410.032 848.921 410.906 850 410.906Z" fill="#32B2C3"/>
<circle cx="490" cy="130" r="130" fill="white"/>
<path d="M410.576 176.824L409.472 177.88C410.96 178.216 412.352 178.576 413.672 178.912C411.968 179.272 410.096 179.56 408.056 179.776L409.184 181.312H406.736V185.824C406.688 189.28 406.088 191.968 404.984 193.888L406.856 195.568C407.984 193.648 408.704 191.248 408.992 188.344L410.456 189.616C411.128 189.064 411.752 188.392 412.328 187.6H416.912V189.16H411.488V191.32H416.912V192.856H409.04V194.992H426.512V192.856H419.36V191.32H424.808V189.16H419.36V187.6H425.264V185.44H419.36V183.832H416.912V185.44H413.576L413.96 184.528L412.016 183.736C411.344 185.416 410.36 186.784 409.04 187.864C409.088 187.192 409.112 186.52 409.136 185.824V183.424H425.912V181.312H423.152L424.256 180.208C422.888 179.752 421.4 179.296 419.792 178.864C420.896 178.432 421.952 177.928 422.984 177.4L422.12 176.824H425.792V174.76H417.728C417.512 174.136 417.296 173.584 417.056 173.08L414.488 173.512C414.728 173.896 414.944 174.304 415.16 174.76H406.256V176.824H410.576ZM409.4 181.312C412.112 181 414.656 180.496 417.008 179.824C418.784 180.328 420.392 180.832 421.784 181.312H409.4ZM420.392 176.824C419.336 177.28 418.184 177.712 416.912 178.096C415.304 177.664 413.576 177.256 411.728 176.824H420.392ZM437.216 173.296V176.704H435.752C435.32 175.504 434.84 174.472 434.312 173.608L431.984 174.496C432.488 175.168 432.944 175.912 433.328 176.704H430.04V178.888H436.256L434.816 179.44C435.176 179.896 435.488 180.376 435.776 180.904H431.144V183.064H439.328V184.216H432.272V186.28H439.328V187.432H430.064V189.64H439.328V195.568H441.872V189.64H451.136V187.432H441.872V186.28H448.928V184.216H441.872V183.064H450.056V180.904H445.448C445.784 180.472 446.12 179.992 446.408 179.488L444.704 178.888H451.16V176.704H447.92C448.4 176.08 448.88 175.336 449.36 174.472L447.032 173.584C446.552 174.688 446 175.72 445.376 176.704H443.864V173.296H441.416V176.704H439.664V173.296H437.216ZM443.888 178.888C443.528 179.584 443.12 180.256 442.64 180.904H438.416C438.104 180.184 437.744 179.512 437.36 178.888H443.888ZM445.736 189.952L444.104 191.512C446.264 192.832 447.944 194.08 449.12 195.232L450.92 193.432C449.504 192.28 447.776 191.128 445.736 189.952ZM435.56 189.904C434.12 191.176 432.344 192.28 430.232 193.216L431.792 195.232C433.952 194.128 435.752 192.832 437.216 191.368L435.56 189.904ZM464.144 181.672V183.28H456.728L455.528 189.448H461.672C460.232 190.696 457.832 191.824 454.472 192.856L455.864 195.136C459.68 193.696 462.44 191.992 464.144 190.024V195.52H466.592V189.448H472.76C472.76 190.24 472.688 190.864 472.592 191.296C472.448 191.728 472.064 191.944 471.416 191.944C470.432 191.944 469.376 191.896 468.224 191.848L468.848 194.224C469.808 194.248 470.816 194.272 471.824 194.272C473.312 194.224 474.248 193.816 474.68 193C475.088 192.184 475.304 190.288 475.304 187.312H466.592V185.536H474.44V179.392H456.32V181.672H464.144ZM464.144 185.536V187.312H458.504L458.936 185.536H464.144ZM466.592 183.28V181.672H471.872V183.28H466.592ZM458.168 176.968H459.368C459.92 177.736 460.4 178.504 460.832 179.296L463.088 178.456C462.8 177.976 462.464 177.496 462.056 176.968H465.176V174.784H459.344C459.488 174.448 459.632 174.112 459.776 173.752L457.352 173.224C456.752 174.832 455.744 176.344 454.304 177.76L456.488 179.128C457.112 178.456 457.664 177.736 458.168 176.968ZM468.416 176.848H469.736C470.312 177.616 470.84 178.432 471.296 179.272L473.504 178.432C473.216 177.928 472.856 177.4 472.424 176.848H476.12V174.664H469.424C469.544 174.376 469.664 174.064 469.76 173.752L467.384 173.224C466.856 174.832 465.968 176.344 464.696 177.784L466.856 179.152C467.432 178.432 467.936 177.664 468.416 176.848ZM478.88 182.944V185.44H500.696V182.944H478.88ZM504.296 189.472C504.152 191.392 503.84 193.12 503.36 194.608L505.496 195.28C505.928 193.648 506.216 191.8 506.336 189.736L504.296 189.472ZM508.784 189.088L506.912 189.496C507.08 190.936 507.224 192.616 507.368 194.488L509.504 193.96C509.288 192.208 509.048 190.576 508.784 189.088ZM511.016 183.04L509.096 183.688C509.264 184.216 509.432 184.792 509.576 185.368C508.736 185.608 507.896 185.8 507.032 185.968C508.376 184.288 510.008 181.696 511.976 178.144L509.672 177.28C509.144 178.288 508.664 179.224 508.208 180.088C507.536 180.208 506.864 180.304 506.192 180.4C507.248 178.768 508.304 176.704 509.312 174.232L506.936 173.272C506.216 175.576 505.376 177.712 504.416 179.656C504.104 180.088 503.768 180.4 503.384 180.568L503.984 182.848C504.992 182.68 506 182.512 506.96 182.344C506.024 183.904 505.232 185.008 504.608 185.68C504.296 185.968 503.912 186.184 503.48 186.376L504.128 188.632C505.976 188.392 507.944 187.936 510.032 187.264C510.08 187.552 510.152 187.84 510.2 188.176L512.192 187.672C511.856 185.92 511.448 184.384 511.016 183.04ZM511.184 188.488L509.456 189.064C509.84 190.048 510.2 191.176 510.536 192.472L512.312 191.68C512 190.528 511.616 189.472 511.184 188.488ZM512.912 175.24V184.36H517.52V192.496C517.52 193.072 517.256 193.384 516.752 193.384C516.272 193.384 515.792 193.336 515.264 193.264L515.792 195.472H517.544C519.08 195.472 519.872 194.656 519.872 193.048V189.568C520.952 191.416 522.368 193.144 524.12 194.752L525.632 192.856C524.096 191.728 522.8 190.504 521.792 189.208C523.136 188.44 524.312 187.648 525.296 186.832L523.904 185.152C522.992 186.016 521.912 186.808 520.688 187.552C520.352 187.024 520.088 186.496 519.872 185.968V184.36H523.904V175.24H518.84C519.104 174.736 519.32 174.208 519.512 173.632L516.992 173.296C516.848 173.968 516.656 174.616 516.392 175.24H512.912ZM521.624 182.2H515.192V180.832H521.624V182.2ZM515.192 178.768V177.4H521.624V178.768H515.192ZM512.36 186.04V188.104H514.568C513.968 190.168 512.912 191.776 511.424 192.952L512.792 194.776C514.808 193.168 516.104 190.816 516.728 187.744V186.04H512.36ZM542.408 188.512V192.832H536.984V195.112H550.136V192.832H544.784V188.512H549.272V186.256H537.896V188.512H542.408ZM537.392 173.968V176.272H549.728V173.968H537.392ZM538.928 176.632C538.352 178.216 537.56 179.728 536.6 181.192C537.56 182.536 538.448 184.096 539.216 185.824L541.232 184.648C540.488 183.16 539.768 181.984 539.048 181.144C539.744 180.184 540.416 178.984 541.04 177.52L538.928 176.632ZM543.272 176.68C542.696 178.24 541.952 179.752 540.992 181.192C541.952 182.512 542.816 184.024 543.584 185.752L545.6 184.576C544.832 183.112 544.112 181.96 543.416 181.144C544.088 180.208 544.76 179.008 545.384 177.568L543.272 176.68ZM547.712 176.704C547.136 178.24 546.368 179.752 545.408 181.192C546.368 182.512 547.232 184.024 548 185.752L550.016 184.576C549.248 183.112 548.528 181.96 547.832 181.144C548.504 180.208 549.176 179.032 549.824 177.592L547.712 176.704ZM528.656 189.328C528.56 191.248 528.272 192.928 527.792 194.416L530.024 195.136C530.408 193.528 530.672 191.68 530.792 189.616L528.656 189.328ZM533.408 189.016L531.368 189.472C531.608 190.864 531.824 192.472 532.016 194.296L534.2 193.792C533.96 192.064 533.696 190.48 533.408 189.016ZM535.568 182.776L533.672 183.4C533.864 183.928 534.032 184.504 534.224 185.08C533.264 185.368 532.328 185.632 531.368 185.824C532.76 184.096 534.512 181.336 536.6 177.544L534.368 176.704C533.792 177.856 533.24 178.936 532.712 179.92C531.992 180.064 531.272 180.184 530.528 180.28C531.584 178.648 532.592 176.56 533.6 174.064L531.32 173.152C530.6 175.456 529.784 177.592 528.848 179.536C528.56 179.968 528.224 180.256 527.84 180.424L528.44 182.608C529.496 182.44 530.504 182.272 531.464 182.128C530.504 183.76 529.688 184.912 529.016 185.584C528.728 185.848 528.368 186.064 527.96 186.256L528.56 188.416C530.48 188.152 532.544 187.672 534.728 186.976C534.824 187.36 534.896 187.744 534.992 188.152L536.984 187.648C536.576 185.8 536.096 184.168 535.568 182.776ZM536.144 188.44L534.248 189.064C534.56 190.312 534.824 191.608 535.064 192.976L537.128 192.448C536.84 190.936 536.504 189.592 536.144 188.44ZM556.616 183.52V188.344H562.256L561.992 189.256H555.008V195.592H557.432V194.704H570.272V195.568H572.72V189.256H564.512L564.776 188.344H570.632V183.52H556.616ZM568.232 186.496H559.016V185.368H568.232V186.496ZM557.432 192.712V191.224H570.272V192.712H557.432ZM573.968 180.424H572.528L573.632 178.72C572.384 178 571.04 177.376 569.576 176.848C569.768 176.224 569.888 175.552 569.936 174.808V173.296H567.632V174.808C567.56 175.768 567.272 176.56 566.744 177.184C566.216 177.76 565.184 178.24 563.648 178.624L564.8 180.424H561.8L563.24 178.96C562.088 178.312 560.744 177.64 559.16 176.968C559.4 176.248 559.568 175.456 559.616 174.544V173.32H557.312V174.544C557.24 175.624 556.928 176.512 556.376 177.232C555.8 177.88 554.72 178.432 553.088 178.864L554.072 180.424H553.232V184.864H555.632V182.584H571.568V184.888H573.968V180.424ZM568.52 178.624C569.672 179.104 570.776 179.704 571.88 180.424H565.112C566.624 179.992 567.752 179.392 568.52 178.624ZM558.128 178.72C559.376 179.32 560.408 179.896 561.248 180.424H555.32C556.52 179.968 557.456 179.392 558.128 178.72ZM555.2 173.944L553.376 174.712C553.808 175.48 554.168 176.368 554.504 177.376L556.376 176.56C556.04 175.624 555.656 174.76 555.2 173.944ZM565.328 173.896L563.504 174.664C563.912 175.432 564.296 176.344 564.632 177.4L566.504 176.584C566.168 175.624 565.784 174.736 565.328 173.896ZM561.176 173.848C560.984 174.808 560.624 175.696 560.096 176.536L562.04 177.208C562.592 176.296 562.976 175.36 563.168 174.376L561.176 173.848ZM571.616 173.896C571.424 174.832 571.088 175.72 570.608 176.56L572.552 177.232C573.056 176.32 573.416 175.384 573.608 174.424L571.616 173.896Z" fill="#30505F"/>
<path d="M501.667 130.333H498.333V147H501.667V130.333Z" fill="#32B2C3"/>
<path d="M481.667 130.333H478.333V147H481.667V130.333Z" fill="#32B2C3"/>
<path d="M490 93.6667C485.4 93.6721 481.672 97.4 481.667 102V105.333C481.667 109.936 485.398 113.667 490 113.667C494.602 113.667 498.333 109.936 498.333 105.333V102C498.328 97.4 494.6 93.6721 490 93.6667ZM495 105.333C495 108.095 492.762 110.333 490 110.333C487.239 110.333 485 108.095 485 105.333V102C485 99.2386 487.239 97 490 97C492.762 97 495 99.2386 495 102V105.333Z" fill="#32B2C3"/>
<path d="M528.333 120.333H511.667C510.163 120.335 508.673 120.627 507.28 121.193C505.068 118.537 501.79 117 498.333 117H481.667C478.21 117 474.932 118.537 472.72 121.193C471.327 120.627 469.837 120.335 468.333 120.333H451.667C445.227 120.342 440.008 125.56 440 132V147H443.333V132C443.339 127.4 447.067 123.672 451.667 123.667H458.333V147H461.667V123.667H468.333C469.217 123.672 470.095 123.819 470.933 124.1C470.316 125.543 469.999 127.097 470 128.667V147H473.333V128.667C473.339 124.067 477.067 120.339 481.667 120.333H488.333V147H491.667V120.333H498.333C502.933 120.339 506.661 124.067 506.667 128.667V147H510V128.667C510.001 127.097 509.684 125.543 509.067 124.1C509.905 123.819 510.783 123.672 511.667 123.667H518.333V147H521.667V123.667H528.333C532.933 123.672 536.661 127.4 536.667 132V147H540V132C539.992 125.56 534.773 120.342 528.333 120.333Z" fill="#32B2C3"/>
<path d="M451.667 133.667H448.333V147H451.667V133.667Z" fill="#32B2C3"/>
<path d="M460 97C455.398 97 451.667 100.731 451.667 105.333V108.667C451.667 113.269 455.398 117 460 117C464.602 117 468.333 113.269 468.333 108.667V105.333C468.333 100.731 464.602 97 460 97ZM465 108.667C465 111.428 462.762 113.667 460 113.667C457.239 113.667 455 111.428 455 108.667V105.333C455 102.572 457.239 100.333 460 100.333C462.762 100.333 465 102.572 465 105.333V108.667Z" fill="#32B2C3"/>
<path d="M531.667 133.667H528.333V147H531.667V133.667Z" fill="#32B2C3"/>
<path d="M520 97C515.398 97 511.667 100.731 511.667 105.333V108.667C511.672 113.267 515.4 116.995 520 117C524.6 116.995 528.328 113.267 528.333 108.667V105.333C528.333 100.731 524.602 97 520 97ZM525 108.667C525 111.428 522.762 113.667 520 113.667C517.239 113.667 515 111.428 515 108.667V105.333C515 102.572 517.239 100.333 520 100.333C522.762 100.333 525 102.572 525 105.333V108.667Z" fill="#32B2C3"/>
<path d="M529.12 88.6667C528.111 83.8823 526.223 79.3267 523.552 75.2317L531.248 67.5367L519.463 55.7517L511.768 63.4483C507.673 60.7767 503.118 58.8885 498.333 57.88V47H481.667V57.8817C476.884 58.8954 472.33 60.7825 468.232 63.4483L460.537 55.7517L448.752 67.5367L456.448 75.2317C453.777 79.3267 451.889 83.8823 450.88 88.6667H440V105.333H448.333V102H443.333V92H453.655L453.898 90.6217C454.814 85.3542 456.885 80.3548 459.963 75.9833L460.767 74.8367L453.465 67.5367L460.537 60.465L467.833 67.7667L468.98 66.965C473.355 63.8919 478.352 61.8206 483.618 60.8983L485 60.655V50.3333H495V60.655L496.378 60.8983C501.646 61.8137 506.645 63.885 511.017 66.9633L512.163 67.7667L519.463 60.465L526.535 67.5367L519.233 74.8333L520.037 75.98C523.115 80.3515 525.186 85.3508 526.102 90.6183L526.345 91.9967H536.667V101.997H531.667V105.33H540V88.6667H529.12Z" fill="#32B2C3"/>
<path d="M488.145 82.0869C482.267 82.9356 477.65 87.5527 476.802 93.43L480.103 93.9033C480.898 88.4044 485.999 84.5906 491.498 85.3848C495.912 86.0223 499.379 89.4896 500.017 93.9033L503.317 93.43C502.259 86.1081 495.467 81.0296 488.145 82.0869Z" fill="#32B2C3"/>
<path d="M486.472 72.2067C475.465 73.775 466.817 82.4233 465.248 93.43L468.55 93.9033C470.251 82.0587 481.232 73.8354 493.076 75.5364C502.597 76.9035 510.076 84.3831 511.443 93.9033H511.447L514.748 93.43C512.801 79.761 500.141 70.2589 486.472 72.2067Z" fill="#32B2C3"/>
<path d="M282.5 125C281.119 125 280 126.119 280 127.5C280 128.881 281.119 130 282.5 130V125ZM339.268 129.268C340.244 128.291 340.244 126.709 339.268 125.732L323.358 109.822C322.382 108.846 320.799 108.846 319.822 109.822C318.846 110.799 318.846 112.382 319.822 113.358L333.964 127.5L319.822 141.642C318.846 142.618 318.846 144.201 319.822 145.178C320.799 146.154 322.382 146.154 323.358 145.178L339.268 129.268ZM282.5 130H337.5V125H282.5V130Z" fill="#32B2C3"/>
<path d="M337.5 487.5C338.881 487.5 340 488.619 340 490C340 491.381 338.881 492.5 337.5 492.5V487.5ZM280.732 491.768C279.756 490.791 279.756 489.209 280.732 488.232L296.642 472.322C297.618 471.346 299.201 471.346 300.178 472.322C301.154 473.299 301.154 474.882 300.178 475.858L286.036 490L300.178 504.142C301.154 505.118 301.154 506.701 300.178 507.678C299.201 508.654 297.618 508.654 296.642 507.678L280.732 491.768ZM337.5 492.5H282.5V487.5H337.5V492.5Z" fill="#32B2C3"/>
<path d="M642 125C640.619 125 639.5 126.119 639.5 127.5C639.5 128.881 640.619 130 642 130V125ZM698.768 129.268C699.744 128.291 699.744 126.709 698.768 125.732L682.858 109.822C681.882 108.846 680.299 108.846 679.322 109.822C678.346 110.799 678.346 112.382 679.322 113.358L693.464 127.5L679.322 141.642C678.346 142.618 678.346 144.201 679.322 145.178C680.299 146.154 681.882 146.154 682.858 145.178L698.768 129.268ZM642 130H697V125H642V130Z" fill="#32B2C3"/>
<path d="M697 487.5C698.381 487.5 699.5 488.619 699.5 490C699.5 491.381 698.381 492.5 697 492.5V487.5ZM640.232 491.768C639.256 490.791 639.256 489.209 640.232 488.232L656.142 472.322C657.118 471.346 658.701 471.346 659.678 472.322C660.654 473.299 660.654 474.882 659.678 475.858L645.536 490L659.678 504.142C660.654 505.118 660.654 506.701 659.678 507.678C658.701 508.654 657.118 508.654 656.142 507.678L640.232 491.768ZM697 492.5H642V487.5H697V492.5Z" fill="#32B2C3"/>
<path d="M853.5 282C853.5 280.619 852.381 279.5 851 279.5C849.619 279.5 848.5 280.619 848.5 282L853.5 282ZM849.232 338.768C850.209 339.744 851.791 339.744 852.768 338.768L868.678 322.858C869.654 321.882 869.654 320.299 868.678 319.322C867.701 318.346 866.118 318.346 865.142 319.322L851 333.464L836.858 319.322C835.882 318.346 834.299 318.346 833.322 319.322C832.346 320.299 832.346 321.882 833.322 322.858L849.232 338.768ZM848.5 282L848.5 337L853.5 337L853.5 282L848.5 282Z" fill="#32B2C3"/>
<defs>
<clipPath id="clip0">
<rect width="100" height="100" fill="white" transform="translate(80 47)"/>
</clipPath>
<clipPath id="clip1">
<rect width="100" height="100" fill="white" transform="translate(440 407)"/>
</clipPath>
</defs>
</svg>
