<svg width="32" height="33" viewBox="0 0 32 33" fill="none" xmlns="http://www.w3.org/2000/svg">
<path d="M29.2313 5.84624L16.4438 0.169799C16.1202 0.0261114 15.7506 0.0267364 15.4274 0.171674L2.76459 5.84811C2.31603 6.04924 2.02734 6.49499 2.02734 6.98649V16.8422C2.02734 20.567 3.49928 24.3745 6.06578 27.2886C7.35672 28.7544 8.84491 29.9142 10.4892 30.736C12.2503 31.6162 14.1045 32.0625 16.0001 32.0625C18.6544 32.0625 21.2378 31.2034 23.4711 29.5781C24.0282 29.1727 24.1512 28.3924 23.7457 27.8352C23.3402 27.2782 22.5599 27.1552 22.0028 27.5607C20.199 28.8735 18.1233 29.5674 16.0002 29.5674C9.99322 29.5674 4.52259 23.5022 4.52259 16.8423V7.79442L15.9403 2.67617L27.4777 7.79767V16.8422C27.4777 19.1395 26.8178 21.4645 25.5692 23.5655C25.2172 24.1578 25.412 24.9234 26.0043 25.2754C26.5967 25.6274 27.3622 25.4325 27.7142 24.8402C29.1918 22.3537 29.9728 19.588 29.9728 16.8423V6.98649C29.9728 6.4933 29.6822 6.04636 29.2313 5.84624Z" fill="#32B2C3"/>
<path d="M21.5354 10.6233L15.3861 19.2128C15.2181 19.4075 15.0078 19.4496 14.8949 19.457C14.779 19.4648 14.5568 19.45 14.3607 19.2663L10.3864 15.388C9.89332 14.9067 9.10345 14.9163 8.62226 15.4095C8.14107 15.9027 8.1507 16.6925 8.64382 17.1737L12.6249 21.0587C12.6286 21.0623 12.6323 21.0659 12.6361 21.0695C13.2329 21.6377 14.0296 21.9537 14.8493 21.9537C14.9196 21.9537 14.9904 21.9514 15.0609 21.9467C15.9538 21.8872 16.7874 21.4529 17.3479 20.7553C17.3624 20.7373 17.3764 20.7189 17.3898 20.7001L23.5641 12.0757C23.9652 11.5155 23.8361 10.7362 23.2759 10.3351C22.7158 9.93397 21.9364 10.063 21.5354 10.6233Z" fill="#32B2C3"/>
</svg>
