<svg width="150" height="150" viewBox="0 0 150 150" fill="none" xmlns="http://www.w3.org/2000/svg">
<path d="M90.9844 92.8758C108.459 92.8758 122.625 78.7098 122.625 61.2352C122.625 43.7605 108.459 29.5945 90.9844 29.5945C73.5097 29.5945 59.3438 43.7605 59.3438 61.2352C59.3438 78.7098 73.5097 92.8758 90.9844 92.8758Z" fill="#DAF3ED"/>
<path d="M36.3022 28.65V32.1164" stroke="#32B2C3" stroke-width="3" stroke-linecap="round" stroke-linejoin="round"/>
<path d="M49.7858 34.2352L47.3342 36.6867" stroke="#32B2C3" stroke-width="3" stroke-linecap="round" stroke-linejoin="round"/>
<path d="M55.3709 47.7188H51.9045" stroke="#32B2C3" stroke-width="3" stroke-linecap="round" stroke-linejoin="round"/>
<path d="M49.7858 61.2023L47.3342 58.7508" stroke="#32B2C3" stroke-width="3" stroke-linecap="round" stroke-linejoin="round"/>
<path d="M36.3022 66.7875V63.3188" stroke="#32B2C3" stroke-width="3" stroke-linecap="round" stroke-linejoin="round"/>
<path d="M22.821 61.2023L25.2703 58.7508" stroke="#32B2C3" stroke-width="3" stroke-linecap="round" stroke-linejoin="round"/>
<path d="M17.2358 47.7188H20.7022" stroke="#32B2C3" stroke-width="3" stroke-linecap="round" stroke-linejoin="round"/>
<path d="M22.821 34.2352L25.2703 36.6867" stroke="#32B2C3" stroke-width="3" stroke-linecap="round" stroke-linejoin="round"/>
<path d="M36.3022 56.3859C41.089 56.3859 44.9694 52.5055 44.9694 47.7187C44.9694 42.932 41.089 39.0515 36.3022 39.0515C31.5154 39.0515 27.635 42.932 27.635 47.7187C27.635 52.5055 31.5154 56.3859 36.3022 56.3859Z" stroke="#32B2C3" stroke-width="3" stroke-linecap="round" stroke-linejoin="round"/>
<path d="M94.4718 63.3844C96.4336 66.3863 98.7123 69.1686 101.269 71.6836C104.287 74.25 104.59 77.5688 103.378 81.4922C102.166 85.4156 99.2577 99.5742 99.2577 99.5742C99.2577 99.5742 107.149 93.8648 123.295 97.4883C127.983 101.259 120.126 125.555 120.126 125.555C120.126 125.555 117.562 131.742 121.636 132.797C124.793 133.998 127.633 135.908 129.935 138.38H113.834C113.371 138.38 112.914 138.275 112.498 138.073C112.081 137.871 111.716 137.577 111.43 137.214C111.144 136.85 110.943 136.426 110.845 135.974C110.746 135.522 110.751 135.054 110.859 134.604C111.159 132.945 111.736 131.349 112.566 129.881C113.937 128.145 110.925 112.425 115.308 107.763C112.177 110.203 108.553 111.932 104.687 112.831C100.821 113.73 96.8061 113.777 92.9202 112.969C85.507 125.426 70.889 126.129 63.389 126.403C55.889 126.677 37.7976 125.672 32.0413 125.934C26.2851 126.197 26.4843 128.876 26.4843 128.876L28.5937 138.38H25.5984C24.731 138.38 23.8796 138.146 23.1338 137.703C22.3881 137.26 21.7756 136.624 21.3609 135.862L20.6577 134.559C20.271 133.848 20.0695 133.051 20.0718 132.241L20.0999 121.441C20.1871 120.825 20.4158 120.238 20.7682 119.725C21.1205 119.212 21.587 118.788 22.1308 118.486C22.6747 118.184 23.2812 118.011 23.9028 117.983C24.5243 117.955 25.144 118.071 25.7132 118.322C26.0453 118.459 26.3639 118.627 26.6648 118.823C28.1273 119.829 41.0132 115.073 49.603 117.087C58.1929 119.1 67.2796 108.701 75.5952 108.701C76.9398 104.443 79.7882 100.82 83.6085 98.5078C85.2274 97.5018 86.4796 96.0014 87.1799 94.2287C87.8801 92.4559 87.9912 90.5049 87.4968 88.6641C85.7366 82.1906 81.7616 73.9898 83.1444 67.3734C84.5385 59.5342 84.9072 51.5469 84.2413 43.6125C83.8014 37.8669 82.8221 32.1755 81.3163 26.6133C80.0366 23.5969 77.0226 11.625 81.3163 11.625C85.6101 11.625 87.8905 15 87.3444 23.4094C87.253 30.0797 88.807 33.4617 91.0007 40.7742C92.7138 48.215 93.874 55.7724 94.4718 63.3844V63.3844Z" stroke="#32B2C3" stroke-width="3" stroke-linecap="round" stroke-linejoin="round"/>
<path d="M91.0007 40.7813C91.0007 40.7813 95.8078 39.5039 97.0312 43.3594C98.2546 47.2148 97.7859 48.0234 99.0117 50.2875C100.237 52.5516 102.122 61.0688 95.1468 59.8547" stroke="#32B2C3" stroke-width="3" stroke-linecap="round" stroke-linejoin="round"/>
<path d="M84.2367 43.6078C84.2367 43.6078 78.4641 39.1195 75.7313 41.5711C72.9984 44.0227 72.9984 49.5516 75.7313 50.2735C78.4641 50.9953 80.9625 57.593 84.2367 57.593" stroke="#32B2C3" stroke-width="3" stroke-linecap="round" stroke-linejoin="round"/>
<path d="M83.6904 76.3617C83.6904 76.3617 95.3482 84.143 98.3154 68.5758" stroke="#32B2C3" stroke-width="3" stroke-linecap="round" stroke-linejoin="round"/>
</svg>
